<?xml version="1.0" encoding="UTF-8"?>
<svg width="256px" height="256px" viewBox="0 0 256 256" version="1.1" xmlns="http://www.w3.org/2000/svg" xmlns:xlink="http://www.w3.org/1999/xlink">
    <title>change anything in this icon copy 3</title>
    <defs>
        <rect id="path-1" x="0" y="0" width="256" height="256"></rect>
        <path d="M126.404912,-2.57801579e-14 L129.595088,-2.1222667e-14 C156.727803,-2.6206866e-14 179.102427,5.29105984 197.680205,15.2265641 C216.257983,25.1620684 230.837932,39.7420171 240.773436,58.3197949 C250.70894,76.8975727 256,99.272197 256,126.404912 L256,129.595088 C256,156.727803 250.70894,179.102427 240.773436,197.680205 C230.837932,216.257983 216.257983,230.837932 197.680205,240.773436 C179.102427,250.70894 156.727803,256 129.595088,256 L126.404912,256 C99.272197,256 76.8975727,250.70894 58.3197949,240.773436 C39.7420171,230.837932 25.1620684,216.257983 15.2265641,197.680205 C5.29105984,179.102427 -1.38639726e-14,156.727803 -1.71867719e-14,129.595088 L-1.41484447e-14,126.404912 C-1.7471244e-14,99.272197 5.29105984,76.8975727 15.2265641,58.3197949 C25.1620684,39.7420171 39.7420171,25.1620684 58.3197949,15.2265641 C76.8975727,5.29105984 99.272197,-2.07959589e-14 126.404912,-2.57801579e-14 Z" id="path-3"></path>
        <rect id="path-5" x="0" y="0" width="256" height="256"></rect>
        <path d="M126.404912,-2.57801579e-14 L129.595088,-2.1222667e-14 C156.727803,-2.6206866e-14 179.102427,5.29105984 197.680205,15.2265641 C216.257983,25.1620684 230.837932,39.7420171 240.773436,58.3197949 C250.70894,76.8975727 256,99.272197 256,126.404912 L256,129.595088 C256,156.727803 250.70894,179.102427 240.773436,197.680205 C230.837932,216.257983 216.257983,230.837932 197.680205,240.773436 C179.102427,250.70894 156.727803,256 129.595088,256 L126.404912,256 C99.272197,256 76.8975727,250.70894 58.3197949,240.773436 C39.7420171,230.837932 25.1620684,216.257983 15.2265641,197.680205 C5.29105984,179.102427 -1.38639726e-14,156.727803 -1.71867719e-14,129.595088 L-1.41484447e-14,126.404912 C-1.7471244e-14,99.272197 5.29105984,76.8975727 15.2265641,58.3197949 C25.1620684,39.7420171 39.7420171,25.1620684 58.3197949,15.2265641 C76.8975727,5.29105984 99.272197,-2.07959589e-14 126.404912,-2.57801579e-14 Z" id="path-7"></path>
        <rect id="path-9" x="0" y="0" width="256" height="256"></rect>
        <path d="M76.916556,-3.18398237e-14 L179.083444,-2.56247819e-14 C205.829006,-3.05378619e-14 215.527593,2.78476833 225.305371,8.01398111 C235.083149,13.2431939 242.756806,20.9168511 247.986019,30.6946289 C253.215232,40.4724067 256,50.1709938 256,76.916556 L256,179.083444 C256,205.829006 253.215232,215.527593 247.986019,225.305371 C242.756806,235.083149 235.083149,242.756806 225.305371,247.986019 C215.527593,253.215232 205.829006,256 179.083444,256 L76.916556,256 C50.1709938,256 40.4724067,253.215232 30.6946289,247.986019 C20.9168511,242.756806 13.2431939,235.083149 8.01398111,225.305371 C2.78476833,215.527593 -1.79511624e-14,205.829006 -2.12265491e-14,179.083444 L-1.70831879e-14,76.916556 C-2.03585746e-14,50.1709938 2.78476833,40.4724067 8.01398111,30.6946289 C13.2431939,20.9168511 20.9168511,13.2431939 30.6946289,8.01398111 C40.4724067,2.78476833 50.1709938,-2.69267436e-14 76.916556,-3.18398237e-14 Z" id="path-11"></path>
    </defs>
    <g id="change-anything-in-this-icon-copy-3" stroke="none" stroke-width="1" fill="none" fill-rule="evenodd">
        <g id="icon">
            <mask id="mask-2" fill="white">
                <use xlink:href="#path-1"></use>
            </mask>
            <g id="Mask"></g>
            <g id="Rectangle" mask="url(#mask-2)">
                <mask id="mask-4" fill="white">
                    <use xlink:href="#path-3"></use>
                </mask>
                <use id="Mask-2" fill="#347D6A" xlink:href="#path-3"></use>
            </g>
        </g>
        <g id="icon-copy">
            <mask id="mask-6" fill="white">
                <use xlink:href="#path-5"></use>
            </mask>
            <g id="Mask"></g>
            <g id="Rectangle" mask="url(#mask-6)">
                <mask id="mask-8" fill="white">
                    <use xlink:href="#path-7"></use>
                </mask>
                <use id="Mask-2-Copy" fill="#347D6A" xlink:href="#path-7"></use>
            </g>
        </g>
        <g id="icon-copy-2">
            <mask id="mask-10" fill="white">
                <use xlink:href="#path-9"></use>
            </mask>
            <g id="Mask"></g>
            <g id="Rectangle" mask="url(#mask-10)">
                <mask id="mask-12" fill="white">
                    <use xlink:href="#path-11"></use>
                </mask>
                <use id="Mask-2-Copy-2" fill="#347D6A" xlink:href="#path-11"></use>
            </g>
        </g>
        <g id="Group" transform="translate(73.000000, 48.000000)">
            <g id="Walle-female">
                <path d="M99.9337452,39.2909864 C99.9337452,20.720362 79.3616055,0 53.9642224,0 C28.5668393,0 7.99469962,20.720362 7.99469962,39.2909864 C7.99469962,57.8616109 28.5668393,67.3411765 53.9642224,67.3411765 C79.3616055,67.3411765 99.9337452,57.8875113 99.9337452,39.2909864 Z" id="Path" stroke="#E6E3D8" stroke-width="2" fill="#E6E3D8" stroke-linecap="round" stroke-linejoin="round"></path>
                <path d="M86.9423583,36.4011371 C86.9423583,24.8484583 71.9546027,11.9717647 53.4645537,11.9717647 C34.9745047,11.9717647 19.986749,24.9523026 19.986749,36.4011371 C19.986749,47.8499716 34.9745047,53.8729412 53.4645537,53.8729412 C71.9546027,53.8729412 86.9423583,47.979777 86.9423583,36.4011371 Z" id="Path" stroke="#347D6A" stroke-width="2" fill="#347D6A" stroke-linecap="round" stroke-linejoin="round"></path>
                <path d="M100.433414,97.6520415 C100.433414,56.3377163 79.6255426,76.9948789 53.9642224,76.9948789 C28.3029022,76.9948789 7.49503089,56.3377163 7.49503089,97.6520415 C7.49503089,138.966367 28.3029022,159.623529 53.9642224,159.623529 C79.6255426,159.623529 100.433414,138.966367 100.433414,97.6520415 Z" id="Path" stroke="#E6E3D8" stroke-width="2" fill="#E6E3D8" stroke-linecap="round" stroke-linejoin="round"></path>
                <path d="M53.9644163,136.336884 C30.937605,136.336884 11.8862746,119.648122 8.19475663,86.2964706 C7.69969968,90.0185418 7.4667902,93.7709372 7.49775674,97.5258085 C7.49775674,138.924289 28.3044943,159.623529 53.9644163,159.623529 C79.6243383,159.623529 100.431076,138.924289 100.431076,97.5258085 C100.459623,93.7881982 100.226719,90.0531798 99.734076,86.3482187 C96.0425581,119.648122 76.9912276,136.336884 53.9644163,136.336884 Z" id="Path" fill="#54596E" opacity="0.1"></path>
                <path d="M69.6845558,108.743529 C79.7066481,101.040374 84.7808625,95.7825042 84.9071992,92.9699205 C84.9696862,91.5787994 85.0746708,90.3749713 84.0318201,89.204193 C79.8262992,84.4827766 75.0438777,85.5111627 69.6845558,92.2893514 C67.4233684,86.27184 63.4906033,85.0831161 57.8862604,88.7231797 C56.090714,89.8894008 55.3220453,91.1809668 55.4843992,92.9699205 C55.7139943,95.499795 60.4473798,100.757665 69.6845558,108.743529 Z" id="Oval" fill="#347D6A"></path>
                <path d="M16.489068,96.0212167 C16.489068,74.2771986 12.8065094,67.8918272 8.24453398,67.8918272 C3.68255851,67.8918272 0,65.8383818 0,87.5823998 C0,109.326418 3.68255851,146.654118 8.24453398,146.654118 C12.8065094,146.654118 16.489068,117.765235 16.489068,96.0212167 Z" id="Path" stroke="#E6E3D8" stroke-width="2" fill="#E6E3D8" stroke-linecap="round" stroke-linejoin="round"></path>
                <path d="M92.938383,96.0212167 C92.938383,74.2771986 96.6209415,67.8918272 101.182917,67.8918272 C105.744892,67.8918272 109.427451,65.8383818 109.427451,87.5823998 C109.427451,109.326418 105.744892,146.654118 101.182917,146.654118 C96.6209415,146.654118 92.938383,117.765235 92.938383,96.0212167 Z" id="Path" stroke="#E6E3D8" stroke-width="2" fill="#E6E3D8" stroke-linecap="round" stroke-linejoin="round"></path>
            </g>
            <ellipse id="Oval" fill="#E6E3D8" cx="41.972173" cy="32.9223529" rx="5.99602471" ry="5.98588235"></ellipse>
            <ellipse id="Oval-Copy" fill="#E6E3D8" cx="63.9575969" cy="32.9223529" rx="5.99602471" ry="5.98588235"></ellipse>
        </g>
    </g>
</svg>