<svg xmlns="http://www.w3.org/2000/svg" width="87.147" height="87.015" viewBox="0 0 87.147 87.015">
  <path id="Shape" d="M587.954,771.328,553.14,806.09h-2.747l37.561-37.505Zm0,10.289-24.51,24.473H560.7l27.257-27.216v2.743Zm0,10.289-14.2,14.184H571l16.952-16.927Zm0,10.289-3.9,3.9h-2.747l6.648-6.638Zm0-41.449L542.541,806.09h-2.747L587.954,758v2.744Zm0-10.583L531.942,806.09H529.2l58.759-58.67Zm0-10.583-66.611,66.51H518.6l69.358-69.253Zm0-10.583-77.21,77.093H508l79.957-79.836Zm-.662-9.922-86.485,86.354v-2.743l83.738-83.611Zm-10.6,0-75.886,75.771V792.1l73.139-73.028Zm-10.6,0-65.287,65.188V781.52l62.54-62.445Zm-10.6,0-54.688,54.6v-2.743l51.941-51.862Zm-10.6,0L500.807,763.1v-2.743l41.342-41.279Zm-10.6,0-33.49,33.44v-2.744l30.743-30.7Zm-10.6,0-22.892,22.857v-2.744l20.144-20.113Zm-10.6,0-12.293,12.274v-2.743l9.545-9.531Zm-10.6,0-1.694,1.691v-1.691Z" transform="translate(-500.807 -719.075)" fill="#7a7a7a" opacity="0.63"/>
</svg>
