<svg id="Block-texture" xmlns="http://www.w3.org/2000/svg" width="90.321" height="90.183" viewBox="0 0 90.321 90.183">
  <g id="Block-texture-2" data-name="Block-texture" transform="translate(-419.59 -668.877)" opacity="0.63">
    <path id="Shape" d="M420.014,669.3h89.474v89.338H420.014Z" fill="#fee299"/>
    <path id="Shape-2" data-name="Shape" d="M420.437,742.99c4.9-.788,8.833-5.475,12.273-13.953,2.726-6.719,4.537-13.485,8.185-29.221l.147-.633c1.3-5.621,2.382-10.135,3.357-13.925q-10.2,6.133-23.962,13.506Zm29.1-73.853a.424.424,0,0,1,.391-.26h16.789a.422.422,0,0,1,.28.739q-7.289,6.43-22.6,15.642A113.914,113.914,0,0,1,449.541,669.137Zm16.046.585H450.216a106.29,106.29,0,0,0-4.47,13.731A162.047,162.047,0,0,0,465.587,669.722Zm-19.841,13.731c-1.111,4.176-2.338,9.272-3.879,15.921l-.147.632c-3.659,15.784-5.476,22.573-8.225,29.349-3.654,9.006-7.922,13.938-13.436,14.539a.423.423,0,0,1-.469-.42V698.511a.423.423,0,0,1,.224-.373Q434.928,690.048,445.746,683.453Zm55.427,74.762q3.912-1.9,7.891-3.7V697.3a89.037,89.037,0,0,0-29.3-1.507c-11.362,1.461-19.131,5.974-24.4,13.4-4.152,5.86-6.491,12.688-8.912,24.011-.272,1.271-.29,1.357-1,4.793-2.155,10.436-3.511,15.444-5.919,20.217Zm-62.705.226c2.562-4.873,3.927-9.806,6.158-20.613.711-3.44.728-3.525,1-4.8,2.443-11.427,4.812-18.344,9.049-24.322,5.4-7.625,13.387-12.262,24.979-13.753a90.039,90.039,0,0,1,29.921,1.591.423.423,0,0,1,.335.413v57.829a.424.424,0,0,1-.249.385q-4.14,1.872-8.206,3.847a.425.425,0,0,1-.186.042H438.843A.423.423,0,0,1,438.468,758.441Zm-18.031-6.851v6.625h1.288Zm1.8,7.47h-2.224a.423.423,0,0,1-.424-.423V747.193a.423.423,0,0,1,.839-.08l2.225,11.444A.423.423,0,0,1,422.238,759.06Z" fill="#fff"/>
  </g>
</svg>
