<svg xmlns="http://www.w3.org/2000/svg" width="210.322" height="411.475" viewBox="0 0 210.322 411.475">
  <g id="Group_205" data-name="Group 205" transform="translate(-2268.077 -3216.13)">
    <path id="Shape" d="M2474.259,3417.172a4.1,4.1,0,1,1-4.127,4.1A4.114,4.114,0,0,1,2474.259,3417.172Zm0-28.72a4.1,4.1,0,1,1-4.127,4.1A4.114,4.114,0,0,1,2474.259,3388.452Zm-28.885,0a4.1,4.1,0,1,1-4.127,4.1A4.114,4.114,0,0,1,2445.374,3388.452Zm28.885-28.72a4.1,4.1,0,1,1-4.127,4.1A4.114,4.114,0,0,1,2474.259,3359.732Zm0-28.721a4.1,4.1,0,1,1-4.127,4.1A4.114,4.114,0,0,1,2474.259,3331.011Zm-28.885,28.721a4.1,4.1,0,1,1-4.127,4.1A4.114,4.114,0,0,1,2445.374,3359.732Zm0-28.721a4.1,4.1,0,1,1-4.127,4.1A4.114,4.114,0,0,1,2445.374,3331.011Zm-28.886,28.721a4.1,4.1,0,1,1-4.126,4.1A4.115,4.115,0,0,1,2416.488,3359.732Zm0-28.721a4.1,4.1,0,1,1-4.126,4.1A4.115,4.115,0,0,1,2416.488,3331.011Zm-28.885,0a4.1,4.1,0,1,1-4.127,4.1A4.114,4.114,0,0,1,2387.6,3331.011Zm86.656-28.72a4.1,4.1,0,1,1-4.127,4.1A4.114,4.114,0,0,1,2474.259,3302.291Zm0-28.72a4.1,4.1,0,1,1-4.127,4.1A4.113,4.113,0,0,1,2474.259,3273.571Zm-28.885,28.72a4.1,4.1,0,1,1-4.127,4.1A4.114,4.114,0,0,1,2445.374,3302.291Zm0-28.72a4.1,4.1,0,1,1-4.127,4.1A4.113,4.113,0,0,1,2445.374,3273.571Zm-28.886,28.72a4.1,4.1,0,1,1-4.126,4.1A4.115,4.115,0,0,1,2416.488,3302.291Zm0-28.72a4.1,4.1,0,1,1-4.126,4.1A4.114,4.114,0,0,1,2416.488,3273.571Zm-28.885,28.72a4.1,4.1,0,1,1-4.127,4.1A4.114,4.114,0,0,1,2387.6,3302.291Zm0-28.72a4.1,4.1,0,1,1-4.127,4.1A4.113,4.113,0,0,1,2387.6,3273.571Zm-28.886,28.72a4.1,4.1,0,1,1-4.126,4.1A4.115,4.115,0,0,1,2358.717,3302.291Zm0-28.72a4.1,4.1,0,1,1-4.126,4.1A4.114,4.114,0,0,1,2358.717,3273.571Zm-28.885,0a4.1,4.1,0,1,1-4.127,4.1A4.113,4.113,0,0,1,2329.832,3273.571Zm144.427-28.721a4.1,4.1,0,1,1-4.127,4.1A4.114,4.114,0,0,1,2474.259,3244.85Zm0-28.72a4.1,4.1,0,1,1-4.127,4.1A4.114,4.114,0,0,1,2474.259,3216.13Zm-28.885,28.72a4.1,4.1,0,1,1-4.127,4.1A4.114,4.114,0,0,1,2445.374,3244.85Zm0-28.72a4.1,4.1,0,1,1-4.127,4.1A4.114,4.114,0,0,1,2445.374,3216.13Zm-28.886,28.72a4.1,4.1,0,1,1-4.126,4.1A4.115,4.115,0,0,1,2416.488,3244.85Zm0-28.72a4.1,4.1,0,1,1-4.126,4.1A4.115,4.115,0,0,1,2416.488,3216.13Zm-28.885,28.72a4.1,4.1,0,1,1-4.127,4.1A4.114,4.114,0,0,1,2387.6,3244.85Zm0-28.72a4.1,4.1,0,1,1-4.127,4.1A4.114,4.114,0,0,1,2387.6,3216.13Zm-28.886,28.72a4.1,4.1,0,1,1-4.126,4.1A4.115,4.115,0,0,1,2358.717,3244.85Zm0-28.72a4.1,4.1,0,1,1-4.126,4.1A4.115,4.115,0,0,1,2358.717,3216.13Zm-28.885,28.72a4.1,4.1,0,1,1-4.127,4.1A4.114,4.114,0,0,1,2329.832,3244.85Zm0-28.72a4.1,4.1,0,1,1-4.127,4.1A4.114,4.114,0,0,1,2329.832,3216.13Zm-28.814,28.72a4.1,4.1,0,1,1-4.127,4.1A4.114,4.114,0,0,1,2301.018,3244.85Zm0-28.72a4.1,4.1,0,1,1-4.127,4.1A4.114,4.114,0,0,1,2301.018,3216.13Zm-28.814,0a4.1,4.1,0,1,1-4.127,4.1A4.115,4.115,0,0,1,2272.2,3216.13Z" fill="#347d6a" opacity="0.05"/>
    <path id="Shape-2" data-name="Shape" d="M2277.357,3623.479a4.1,4.1,0,1,1-4.1-4.127A4.114,4.114,0,0,1,2277.357,3623.479Zm28.72,0a4.1,4.1,0,1,1-4.1-4.127A4.114,4.114,0,0,1,2306.077,3623.479Zm0-28.886a4.1,4.1,0,1,1-4.1-4.126A4.115,4.115,0,0,1,2306.077,3594.593Zm28.721,28.886a4.1,4.1,0,1,1-4.1-4.127A4.114,4.114,0,0,1,2334.8,3623.479Zm28.72,0a4.1,4.1,0,1,1-4.1-4.127A4.114,4.114,0,0,1,2363.518,3623.479Zm-28.72-28.886a4.1,4.1,0,1,1-4.1-4.126A4.115,4.115,0,0,1,2334.8,3594.593Zm28.72,0a4.1,4.1,0,1,1-4.1-4.126A4.115,4.115,0,0,1,2363.518,3594.593Zm-28.72-28.885a4.1,4.1,0,1,1-4.1-4.127A4.114,4.114,0,0,1,2334.8,3565.708Zm28.72,0a4.1,4.1,0,1,1-4.1-4.127A4.114,4.114,0,0,1,2363.518,3565.708Zm0-28.886a4.1,4.1,0,1,1-4.1-4.126A4.115,4.115,0,0,1,2363.518,3536.822Zm28.72,86.657a4.1,4.1,0,1,1-4.1-4.127A4.114,4.114,0,0,1,2392.238,3623.479Zm28.721,0a4.1,4.1,0,1,1-4.1-4.127A4.114,4.114,0,0,1,2420.959,3623.479Zm-28.721-28.886a4.1,4.1,0,1,1-4.1-4.126A4.115,4.115,0,0,1,2392.238,3594.593Zm28.721,0a4.1,4.1,0,1,1-4.1-4.126A4.115,4.115,0,0,1,2420.959,3594.593Zm-28.721-28.885a4.1,4.1,0,1,1-4.1-4.127A4.114,4.114,0,0,1,2392.238,3565.708Zm28.721,0a4.1,4.1,0,1,1-4.1-4.127A4.114,4.114,0,0,1,2420.959,3565.708Zm-28.721-28.886a4.1,4.1,0,1,1-4.1-4.126A4.115,4.115,0,0,1,2392.238,3536.822Zm28.721,0a4.1,4.1,0,1,1-4.1-4.126A4.115,4.115,0,0,1,2420.959,3536.822Zm-28.721-28.885a4.1,4.1,0,1,1-4.1-4.127A4.114,4.114,0,0,1,2392.238,3507.937Zm28.721,0a4.1,4.1,0,1,1-4.1-4.127A4.114,4.114,0,0,1,2420.959,3507.937Zm0-28.886a4.1,4.1,0,1,1-4.1-4.126A4.115,4.115,0,0,1,2420.959,3479.051Zm28.72,144.428a4.1,4.1,0,1,1-4.1-4.127A4.114,4.114,0,0,1,2449.679,3623.479Zm28.72,0a4.1,4.1,0,1,1-4.1-4.127A4.114,4.114,0,0,1,2478.4,3623.479Zm-28.72-28.886a4.1,4.1,0,1,1-4.1-4.126A4.115,4.115,0,0,1,2449.679,3594.593Zm28.72,0a4.1,4.1,0,1,1-4.1-4.126A4.115,4.115,0,0,1,2478.4,3594.593Zm-28.72-28.885a4.1,4.1,0,1,1-4.1-4.127A4.114,4.114,0,0,1,2449.679,3565.708Zm28.72,0a4.1,4.1,0,1,1-4.1-4.127A4.114,4.114,0,0,1,2478.4,3565.708Zm-28.72-28.886a4.1,4.1,0,1,1-4.1-4.126A4.115,4.115,0,0,1,2449.679,3536.822Zm28.72,0a4.1,4.1,0,1,1-4.1-4.126A4.115,4.115,0,0,1,2478.4,3536.822Zm-28.72-28.885a4.1,4.1,0,1,1-4.1-4.127A4.114,4.114,0,0,1,2449.679,3507.937Zm28.72,0a4.1,4.1,0,1,1-4.1-4.127A4.114,4.114,0,0,1,2478.4,3507.937Zm-28.72-28.886a4.1,4.1,0,1,1-4.1-4.126A4.115,4.115,0,0,1,2449.679,3479.051Zm28.72,0a4.1,4.1,0,1,1-4.1-4.126A4.115,4.115,0,0,1,2478.4,3479.051Zm-28.72-28.813a4.1,4.1,0,1,1-4.1-4.127A4.114,4.114,0,0,1,2449.679,3450.238Zm28.72,0a4.1,4.1,0,1,1-4.1-4.127A4.114,4.114,0,0,1,2478.4,3450.238Z" fill="#347d6a" opacity="0.05"/>
  </g>
</svg>
