<svg xmlns="http://www.w3.org/2000/svg" width="86.836" height="154.115" viewBox="0 0 86.836 154.115">
  <g id="texture-line" transform="translate(-566.296 -1625.173)">
    <g id="Group_54" data-name="Group 54">
      <g id="Shape">
        <g id="Group_51" data-name="Group 51">
          <path id="Path_42" data-name="Path 42" d="M601.466,1663.308a48.776,48.776,0,0,0-1.389-11.736l-2.5,0c-22.071-1.7-32.589-7.974-31.148-18.939,1.075-8.181,10.124-9.755,19.256-4.107,7.182,4.443,12.738,12.077,15.372,21.781h36.081a.633.633,0,0,1,0,1.267H601.378a50.105,50.105,0,0,1,1.353,11.736v100.867a.633.633,0,1,1-1.265,0Zm-3.819-13h2.1c-2.585-9.239-7.9-16.482-14.725-20.7-8.465-5.236-16.411-3.854-17.337,3.194C566.37,1642.769,576.224,1648.648,597.647,1650.305Z" fill="#7a7a7a"/>
        </g>
      </g>
      <g id="Shape-2" data-name="Shape">
        <g id="Group_52" data-name="Group 52">
          <path id="Path_43" data-name="Path 43" d="M601.915,1779.289a4.855,4.855,0,1,1,4.848-4.855A4.851,4.851,0,0,1,601.915,1779.289Zm0-1.266a3.589,3.589,0,1,0-3.583-3.589A3.586,3.586,0,0,0,601.915,1778.023Z" fill="#7a7a7a"/>
        </g>
      </g>
      <g id="Shape-3" data-name="Shape">
        <g id="Group_53" data-name="Group 53">
          <path id="Path_44" data-name="Path 44" d="M648.284,1656.423a4.855,4.855,0,1,1,4.848-4.856A4.851,4.851,0,0,1,648.284,1656.423Zm0-1.267a3.589,3.589,0,1,0-3.583-3.589A3.585,3.585,0,0,0,648.284,1655.156Z" fill="#7a7a7a"/>
        </g>
      </g>
    </g>
  </g>
</svg>
