<svg xmlns="http://www.w3.org/2000/svg" width="63.853" height="46.591" viewBox="0 0 63.853 46.591">
  <path id="Shape" d="M1329.216,825.025a1.252,1.252,0,1,1-1.252-1.26A1.256,1.256,0,0,1,1329.216,825.025Zm8.764,0a1.252,1.252,0,1,1-1.252-1.26A1.256,1.256,0,0,1,1337.98,825.025Zm-8.764-8.815a1.252,1.252,0,1,1-1.252-1.259A1.255,1.255,0,0,1,1329.216,816.21Zm8.764,0a1.252,1.252,0,1,1-1.252-1.259A1.255,1.255,0,0,1,1337.98,816.21Zm-8.764-8.814a1.252,1.252,0,1,1-1.252-1.26A1.256,1.256,0,0,1,1329.216,807.4Zm8.764,0a1.252,1.252,0,1,1-1.252-1.26A1.256,1.256,0,0,1,1337.98,807.4Zm-8.764-8.815a1.252,1.252,0,1,1-1.252-1.259A1.256,1.256,0,0,1,1329.216,798.581Zm8.764,0a1.252,1.252,0,1,1-1.252-1.259A1.256,1.256,0,0,1,1337.98,798.581Zm-8.764-8.815a1.252,1.252,0,1,1-1.252-1.259A1.256,1.256,0,0,1,1329.216,789.766Zm8.764,0a1.252,1.252,0,1,1-1.252-1.259A1.256,1.256,0,0,1,1337.98,789.766Zm-8.764-8.814a1.252,1.252,0,1,1-1.252-1.259A1.256,1.256,0,0,1,1329.216,780.952Zm8.764,0a1.252,1.252,0,1,1-1.252-1.259A1.256,1.256,0,0,1,1337.98,780.952Zm8.764,44.073a1.252,1.252,0,1,1-1.252-1.26A1.256,1.256,0,0,1,1346.744,825.025Zm8.764,0a1.252,1.252,0,1,1-1.252-1.26A1.255,1.255,0,0,1,1355.508,825.025Zm-8.764-8.815a1.252,1.252,0,1,1-1.252-1.259A1.255,1.255,0,0,1,1346.744,816.21Zm8.764,0a1.252,1.252,0,1,1-1.252-1.259A1.255,1.255,0,0,1,1355.508,816.21Zm-8.764-8.814a1.252,1.252,0,1,1-1.252-1.26A1.256,1.256,0,0,1,1346.744,807.4Zm8.764,0a1.252,1.252,0,1,1-1.252-1.26A1.255,1.255,0,0,1,1355.508,807.4Zm-8.764-8.815a1.252,1.252,0,1,1-1.252-1.259A1.256,1.256,0,0,1,1346.744,798.581Zm8.764,0a1.252,1.252,0,1,1-1.252-1.259A1.255,1.255,0,0,1,1355.508,798.581Zm-8.764-8.815a1.252,1.252,0,1,1-1.252-1.259A1.256,1.256,0,0,1,1346.744,789.766Zm8.764,0a1.252,1.252,0,1,1-1.252-1.259A1.256,1.256,0,0,1,1355.508,789.766Zm-8.764-8.814a1.252,1.252,0,1,1-1.252-1.259A1.256,1.256,0,0,1,1346.744,780.952Zm8.764,0a1.252,1.252,0,1,1-1.252-1.259A1.255,1.255,0,0,1,1355.508,780.952Zm8.764,44.073a1.252,1.252,0,1,1-1.252-1.26A1.255,1.255,0,0,1,1364.272,825.025Zm8.765,0a1.252,1.252,0,1,1-1.252-1.26A1.256,1.256,0,0,1,1373.037,825.025Zm-8.765-8.815a1.252,1.252,0,1,1-1.252-1.259A1.255,1.255,0,0,1,1364.272,816.21Zm8.765,0a1.252,1.252,0,1,1-1.252-1.259A1.255,1.255,0,0,1,1373.037,816.21Zm-8.765-8.814a1.252,1.252,0,1,1-1.252-1.26A1.255,1.255,0,0,1,1364.272,807.4Zm8.765,0a1.252,1.252,0,1,1-1.252-1.26A1.256,1.256,0,0,1,1373.037,807.4Zm-8.765-8.815a1.252,1.252,0,1,1-1.252-1.259A1.255,1.255,0,0,1,1364.272,798.581Zm8.765,0a1.252,1.252,0,1,1-1.252-1.259A1.256,1.256,0,0,1,1373.037,798.581Zm-8.765-8.815a1.252,1.252,0,1,1-1.252-1.259A1.256,1.256,0,0,1,1364.272,789.766Zm8.765,0a1.252,1.252,0,1,1-1.252-1.259A1.256,1.256,0,0,1,1373.037,789.766Zm-8.765-8.814a1.252,1.252,0,1,1-1.252-1.259A1.255,1.255,0,0,1,1364.272,780.952Zm8.765,0a1.252,1.252,0,1,1-1.252-1.259A1.256,1.256,0,0,1,1373.037,780.952Zm8.764,44.073a1.252,1.252,0,1,1-1.252-1.26A1.256,1.256,0,0,1,1381.8,825.025Zm8.764,0a1.252,1.252,0,1,1-1.252-1.26A1.256,1.256,0,0,1,1390.565,825.025Zm-8.764-8.815a1.252,1.252,0,1,1-1.252-1.259A1.255,1.255,0,0,1,1381.8,816.21Zm8.764,0a1.252,1.252,0,1,1-1.252-1.259A1.255,1.255,0,0,1,1390.565,816.21ZM1381.8,807.4a1.252,1.252,0,1,1-1.252-1.26A1.256,1.256,0,0,1,1381.8,807.4Zm8.764,0a1.252,1.252,0,1,1-1.252-1.26A1.256,1.256,0,0,1,1390.565,807.4Zm-8.764-8.815a1.252,1.252,0,1,1-1.252-1.259A1.256,1.256,0,0,1,1381.8,798.581Zm8.764,0a1.252,1.252,0,1,1-1.252-1.259A1.256,1.256,0,0,1,1390.565,798.581Zm-8.764-8.815a1.252,1.252,0,1,1-1.252-1.259A1.256,1.256,0,0,1,1381.8,789.766Zm8.764,0a1.252,1.252,0,1,1-1.252-1.259A1.256,1.256,0,0,1,1390.565,789.766Zm-8.764-8.814a1.252,1.252,0,1,1-1.252-1.259A1.256,1.256,0,0,1,1381.8,780.952Zm8.764,0a1.252,1.252,0,1,1-1.252-1.259A1.256,1.256,0,0,1,1390.565,780.952Z" transform="translate(-1326.712 -779.693)" fill="#7a7a7a" opacity="0.63"/>
</svg>
