<svg xmlns="http://www.w3.org/2000/svg" width="133.327" height="147.599" viewBox="0 0 133.327 147.599">
  <g id="Block-texture" transform="translate(-1470.943 -1784)">
    <path id="Shape" d="M1603.668,1784q.6,6.335.6,12.83A134.788,134.788,0,0,1,1470.943,1931.6v-71.121a63.731,63.731,0,0,0,60.81-76.478Z" fill="#fee299"/>
    <path id="Shape-2" data-name="Shape" d="M1598.735,1835.179a227.761,227.761,0,0,0-65.881-43.321q-.078-1-.186-1.994a229.023,229.023,0,0,1,66.614,43.417q-.267.953-.547,1.9Zm-2.349,7.177c-1.244-.586-2.636-1.25-4.225-2.015-1.7-.818-9.082-4.394-11.029-5.333-10.445-5.033-18.615-8.817-27.064-12.443-8.179-3.51-15.887-6.535-23.223-9.07q.23-.852.437-1.714c7.423,2.559,15.215,5.616,23.484,9.165,8.476,3.637,16.668,7.431,27.133,12.474,1.95.94,9.33,4.516,11.029,5.333,1.514.729,2.849,1.366,4.046,1.93q-.289.838-.588,1.673Zm-70.282-16.569c11.1,3.215,18.765,8.521,22.835,16.4,9.774,18.919,10.215,41.789,1.757,53.865-4.327,6.178-10.6,8.83-17.967,7.169-8.016-1.806-17.029-8.6-26.593-20.48a131.753,131.753,0,0,0-24.253-23.459q1.147-.227,2.28-.5a134.021,134.021,0,0,1,23.35,22.85c17.824,22.143,33.19,25.606,41.736,13.405,8.044-11.484,7.617-33.665-1.879-52.046-3.859-7.468-11.258-12.535-22.109-15.615q.432-.789.843-1.593Zm-55.161,63.491c14.009,8.048,26.3,19.485,36.616,34.9q.555.83,1.116,1.645-.888.269-1.779.526-.405-.593-.806-1.192c-9.94-14.855-21.733-25.948-35.147-33.835v-2.04Z" fill="#fff"/>
  </g>
</svg>
