<svg xmlns="http://www.w3.org/2000/svg" width="74.615" height="37.15" viewBox="0 0 74.615 37.15">
  <path id="Shape" d="M1181.72,1826.333a.634.634,0,1,1-1.231-.307q2.359-9.487,4.381-13.576c1.484-3,3.058-4.148,4.6-2.844,2.6,2.2,3.876,6.639,5.443,16.267.054.332.109.672.182,1.123-.011-.066.139.864.18,1.117a64.551,64.551,0,0,0,2.151,10.245c.918,2.71,1.975,3.934,3.255,3.808,1.552-.154,3.063-1.855,4.587-5.1a87.065,87.065,0,0,0,4.048-11.434c.078-.255.354-1.151.353-1.147a111.509,111.509,0,0,1,3.7-10.812c1.5-3.553,3-5.879,4.727-7.012,1.444-.947,2.376.041,2.782,2.116a42.643,42.643,0,0,1,.485,6.542c.038,1.136.047,1.416.068,1.943.254,6.622.961,9.708,2.483,9.708,1.4,0,2.67-1.49,4.326-4.855.471-.957,2.138-4.6,2.369-5.09,2.972-6.277,5.558-9.533,9.455-10.451,4.516-1.063,9.446,3.514,14.944,13.535a.635.635,0,1,1-1.112.612c-5.24-9.551-9.805-13.789-13.541-12.91-3.389.8-5.786,3.816-8.6,9.758-.225.474-1.9,4.132-2.378,5.108-1.87,3.8-3.38,5.563-5.464,5.563-1.555,0-2.492-1.343-3.036-3.717a40.155,40.155,0,0,1-.715-7.212c-.021-.531-.03-.811-.068-1.95a42.164,42.164,0,0,0-.463-6.34c-.26-1.333-.461-1.546-.841-1.3-1.459.957-2.849,3.106-4.253,6.443a110.732,110.732,0,0,0-3.655,10.693c0-.005-.274.892-.353,1.147a87.75,87.75,0,0,1-4.112,11.6c-1.7,3.621-3.469,5.615-5.61,5.826-2.062.2-3.495-1.454-4.581-4.664a65.258,65.258,0,0,1-2.2-10.45c-.041-.254-.19-1.184-.18-1.118-.072-.45-.127-.789-.181-1.121-1.5-9.241-2.751-13.589-5.01-15.5-.636-.538-1.476.075-2.644,2.437Q1184.056,1816.959,1181.72,1826.333Z" transform="translate(-1180.47 -1806.297)" fill="#7a7a7a"/>
</svg>
