<svg xmlns="http://www.w3.org/2000/svg" width="96.987" height="138.954" viewBox="0 0 96.987 138.954">
  <g id="Block-texture" transform="translate(-426.695 -1781)">
    <path id="Shape" d="M427.616,1781.922h95.146v137.11H427.616Z" fill="#fee299"/>
    <path id="Shape-2" data-name="Shape" d="M436.612,1846.9a117.562,117.562,0,0,1,4.653-20.336q.076-.236.156-.471a412.911,412.911,0,0,1,17.713-43.244H442.962a231.453,231.453,0,0,0-14.425,24.134v43.841Zm0,0,20.257-9.842-.019.1c-2.359,12.467-2.79,27.389-1.942,48.545.178,4.442.375,8.486.748,15.631.529,10.117.672,13.018.853,17.669a.922.922,0,0,1-.92.958H427.616a.921.921,0,0,1-.921-.922v-15.268a.925.925,0,0,1,.5-.819,15.243,15.243,0,0,1,2.293-.958c2.185-.711,3.532-3.037,4.292-7.364.633-3.607.81-7.4.953-16.83.175-11.542.365-16.793,1.056-23.946Q436.13,1850.3,436.612,1846.9Zm85.229-41.41v-4.136c-13.057-4.405-31.4-2.495-47.015,5.573-9.32,4.815-15.061,14.915-17.957,30.131Zm-83.541,42.64q-.391,2.9-.681,5.9c-.684,7.087-.873,12.3-1.047,23.8-.145,9.547-.325,13.378-.982,17.121-.864,4.928-2.542,7.825-5.536,8.8a13.483,13.483,0,0,0-1.517.6v13.772h26.094c-.164-4.126-.323-7.291-.814-16.686-.373-7.153-.571-11.2-.749-15.654-.777-19.37-.487-33.564,1.374-45.487Zm16.741-11.319c2.985-15.773,9.006-26.391,18.941-31.523,16.3-8.42,35.5-10.314,49.089-5.459a.923.923,0,0,1,.611.869v5.37a.923.923,0,0,1-.519.83l-68.721,33.389Q454.718,1838.513,455.041,1836.807ZM438.3,1848.126l-10.282,5a.921.921,0,0,1-1.323-.83v-45.537a.919.919,0,0,1,.1-.424,233.5,233.5,0,0,1,14.92-24.931.922.922,0,0,1,.759-.4h18.1a.922.922,0,0,1,.833,1.314c-7.761,16.582-13.72,30.826-18.247,44.361q-.078.231-.153.462A116.762,116.762,0,0,0,438.3,1848.126Zm83.541-2.839q-2.553,2.331-5.5,4.7-33.815,27.219-45.275,68.118h39.888a115.67,115.67,0,0,1,10.888-28.955Zm1.729,44.545a114.08,114.08,0,0,0-10.988,29.406.921.921,0,0,1-.9.716H469.856a.922.922,0,0,1-.889-1.164q11.464-42.255,46.219-70.236,3.812-3.067,6.94-6.055a.921.921,0,0,1,1.556.668v46.223A.936.936,0,0,1,523.57,1889.832Z" fill="#fff"/>
  </g>
</svg>
