<svg xmlns="http://www.w3.org/2000/svg" width="152.233" height="152.481" viewBox="0 0 152.233 152.481">
  <path id="Shape" d="M452.55,1900.542l-60.815,60.914h-4.8l65.614-65.721Zm0,18.03-42.814,42.884h-4.8l47.614-47.691Zm0,18.03-24.814,24.854h-4.8L452.55,1931.8Zm0,18.03-6.813,6.824h-4.8l11.613-11.631Zm0-72.635-79.33,79.459h-4.8l84.129-84.266V1882Zm0-18.545-97.845,98h-4.8L452.55,1858.645Zm0-18.545L336.191,1961.456h-4.8L452.55,1840.1v4.807Zm0-18.545L317.676,1961.456h-4.8l139.674-139.9Zm-1.156-17.387L300.317,1960.3v-4.807L446.6,1808.975Zm-18.515,0L300.317,1941.753v-4.807L428.08,1808.975Zm-18.515,0L300.317,1923.208V1918.4l109.248-109.426Zm-18.515,0-95.532,95.688v-4.807l90.733-90.881Zm-18.514,0-77.018,77.143v-4.807l72.218-72.336Zm-18.515,0-58.5,58.6v-4.807l53.7-53.791Zm-18.515,0-39.988,40.053v-4.807l35.189-35.246Zm-18.515,0-21.473,21.508v-4.807l16.674-16.7Zm-18.515,0-2.958,2.963v-2.963Z" transform="translate(-300.317 -1808.975)" fill="#7a7a7a"/>
</svg>
