<svg xmlns="http://www.w3.org/2000/svg" width="160.922" height="158.781" viewBox="0 0 160.922 158.781">
  <g id="geometric-" transform="translate(-256.336 -2440.398)" opacity="0.7">
    <path id="Shape" d="M351.49,2573.431c-36.446.121-66.087-29.563-66.209-66.3s29.322-66.615,65.768-66.735,66.087,29.563,66.208,66.3S387.936,2573.311,351.49,2573.431Zm-.009-2.525c35.05-.117,63.372-28.858,63.255-64.2s-28.629-63.9-63.679-63.78-63.371,28.857-63.254,64.2S316.432,2571.022,351.481,2570.906Z" fill="#7a7a7a"/>
    <path id="Shape-2" data-name="Shape" d="M331.4,2599.179c-41.319.137-74.926-33.491-75.064-75.11s33.246-75.468,74.565-75.6,74.926,33.491,75.064,75.11S372.719,2599.042,331.4,2599.179Zm-.085-25.654a49.705,49.705,0,1,0-49.51-49.54A49.525,49.525,0,0,0,331.315,2573.525Z" fill="#fee299"/>
  </g>
</svg>
