<svg xmlns="http://www.w3.org/2000/svg" width="327.887" height="334.482" viewBox="0 0 327.887 334.482">
  <g id="Group_61" data-name="Group 61" transform="translate(-768.623 -1629)">
    <path id="Shape" d="M886.582,1938.678a.633.633,0,0,1,0-1.267h74.272a.633.633,0,0,1,0,1.267Z" fill="#7a7a7a"/>
    <path id="Shape-2" data-name="Shape" d="M869.721,1951.345a.633.633,0,0,1,0-1.267h91.133a.633.633,0,0,1,0,1.267Z" fill="#7a7a7a"/>
    <g id="White-board">
      <path id="Shape-3" data-name="Shape" d="M816.417,1635.956h258.928v125.214H816.417Z" fill="#7a7a7a"/>
      <path id="Shape-4" data-name="Shape" d="M1071.135,1629q.116,0,.21,127.533,0,.117-259.138.211-.117,0-.211-127.533Q812,1629.094,1071.135,1629Z" fill="#7a7a7a"/>
      <path id="Shape-5" data-name="Shape" d="M812.417,1629.422v126.9h258.507v-126.9Z" fill="#fff"/>
    </g>
    <path id="Shape-6" data-name="Shape" d="M924.587,1711.083c4.215,3.8,6.277,8.807,1.8,21.02-1.524,4.16-2.127,5.732-1.8,10.268.461,6.44,6.495,13.538,4.5,19.2a72.937,72.937,0,0,0-4.5-12.732c-2.121-5.09-2.029-8.024-1.864-9.976-1.945,7.835-2.831,14.692,1.237,21.738-1.983.417-4.6-1.443-5.257-2.2-.812-.933-2.336-9.021-1.158-13.549-4.019,5.229-.82,13.875-1.178,13.549q-7.35-1.553-9.148-5.455l-7.861-12.125v-20.212l14.168-7.122Q920.6,1707.49,924.587,1711.083Z" fill="#7a7a7a"/>
    <path id="Shape-7" data-name="Shape" d="M888.653,1737.943l7.656,12.064,9.529-7.064q4.3,3.176,6.147,3.175c2.363,0,15.972-18.791,15.972-24.6,0-8.81-4.239-20.343-15.972-17.216s-20.038,18.077-18.716,23.526a56.041,56.041,0,0,0,1.775,6.43Z" fill="#fff"/>
    <circle id="Shape-8" data-name="Shape" cx="1.263" cy="1.263" r="1.263" transform="translate(911.989 1724.072)" fill="#7a7a7a"/>
    <circle id="Shape-9" data-name="Shape" cx="1.263" cy="1.263" r="1.263" transform="translate(920.83 1728.709)" fill="#7a7a7a"/>
    <path id="Shape-10" data-name="Shape" d="M946.091,1785.85v13.018l-.116.037a8.433,8.433,0,0,1-2.867.317l-.286-.005c-21.149,8.727-33.6,12.149-37.493,10.255a.211.211,0,0,1-.119-.19v-13.521a.21.21,0,0,1,.211-.21h3.542q5.209,0,11.522.618c2.64.258,9.373-1.336,20.149-4.783l5.457-5.536Z" fill="#7a7a7a"/>
    <path id="Shape-11" data-name="Shape" d="M905.631,1809.147c3.87,1.689,16.273-1.753,37.07-10.336a2.428,2.428,0,0,1,.415-.011,8.066,8.066,0,0,0,2.734-.3,4.639,4.639,0,0,0,1.265-.6q2.188-1.5,8.121-8.405a.208.208,0,0,1,.16-.073h2.656l-9.291-5.68-7.864,7.978c-10.955,3.53-17.727,5.135-20.453,4.868q-6.294-.617-11.481-.616h-3.332Z" fill="#fff"/>
    <path id="Shape-12" data-name="Shape" d="M905,1793.145a.21.21,0,0,1,.288-.2c4.354,1.719,7.044,2.6,8.021,2.629a3.429,3.429,0,0,1,.793.178c.061.019.879.273,1.158.355a12.176,12.176,0,0,0,2.354.49,3.868,3.868,0,0,0,2.866-.664c.682-.549,1.373-.03,1.987,1.221a19.162,19.162,0,0,1,1.339,4.392c.771,3.879.747,7.21-.358,7.53-1.711.495-7.741,2.043-8.229,2.119a64.461,64.461,0,0,1-9.313.361.209.209,0,0,1-.208-.2Z" fill="#7a7a7a"/>
    <path id="Shape-13" data-name="Shape" d="M906.108,1811.133a62.9,62.9,0,0,0,9.043-.359c.464-.072,6.483-1.617,8.177-2.107.752-.218.774-3.457.062-7.043a18.768,18.768,0,0,0-1.3-4.288c-.511-1.041-.967-1.383-1.345-1.078a4.262,4.262,0,0,1-3.167.755,12.562,12.562,0,0,1-2.435-.5c-.283-.083-1.1-.339-1.161-.356a3.343,3.343,0,0,0-.686-.161c-1.023-.033-3.628-.877-7.862-2.54Z" fill="#fff"/>
    <path id="Shape-14" data-name="Shape" d="M905.207,1793.137l.7,18.205a64.406,64.406,0,0,0,9.279-.36c.439-.068,3.857-16.56-2.45-6.038Q909.848,1809.761,905.207,1793.137Z" fill="#7a7a7a"/>
    <path id="Shape-15" data-name="Shape" d="M915.694,1813.292c-1.493-.289-1.9-2.916-1.877-8.35,0-.559.008-1.046.021-1.974.051-3.762.015-5.033-.252-5.733-.826-2.167.091-3.42,1.611-3.327a2.315,2.315,0,0,1,1.456.707l.142.119c.553.462.874.587,1.4.436.2-.058.349-.192.629-.541l.035-.044c.769-.96,1.41-1.1,2.78-.091,2.392,1.758,4.022,13.937,1.807,14.578-.225.065-.367.249-.571.7-.024.052-.107.241-.122.274-.051.114-.093.205-.138.293-.62,1.238-1.637,1.756-3.755,1.444-.123-.018-.189.036-.315.264.02-.036-.169.324-.235.433C917.84,1813.255,917.1,1813.564,915.694,1813.292Z" fill="#7a7a7a"/>
    <path id="Shape-16" data-name="Shape" d="M917.949,1812.264c.058-.1.241-.443.227-.417.2-.365.4-.529.744-.479,1.94.286,2.78-.141,3.318-1.215.041-.082.081-.168.13-.277.014-.031.1-.221.122-.275.252-.559.456-.824.838-.934,1.788-.517.217-12.248-1.939-13.833-1.176-.864-1.567-.78-2.2.015l-.034.043a1.634,1.634,0,0,1-.842.684,1.724,1.724,0,0,1-1.785-.518l-.142-.12a1.957,1.957,0,0,0-1.212-.609c-1.214-.075-1.908.875-1.191,2.756.3.778.332,2.022.279,5.889-.013.927-.018,1.413-.021,1.97-.025,5.1.383,7.711,1.535,7.934C917.008,1813.117,917.574,1812.882,917.949,1812.264Z" fill="#fff"/>
    <path id="Shape-17" data-name="Shape" d="M869.6,1752.4c5.043-6.13,19.175-17.448,20.845-16.948.976.293,5.971,5,15.228,14.318a30.387,30.387,0,0,1,6.153,12.188,69.65,69.65,0,0,0,3.035,8.072c.153.376.286.706.413,1.02,2.048,5.1,2.984,8.043,2.984,10.071a8.386,8.386,0,0,1-1.515,4.282,30.343,30.343,0,0,1-3.32,4.232c-.766.845-3.125,3.31-3.287,3.485-.977,1.053-1.438,1.674-1.438,1.94,0,1.18,3.867,30.894,4.553,35.648a1.729,1.729,0,0,0,.682,1.1l.17.159c.972.913,1.258,1.8.809,3.74-.385,1.664.089,3.214,1.277,5.163.163.269.84,1.324.986,1.57a2.6,2.6,0,0,1,.477,1.235c0,1.346-1.95,3.365-2.974,3.223-23.282-3.225-36.257-5.566-39.025-7.051a9.022,9.022,0,0,0-3.449-.915,28.374,28.374,0,0,0-3.054-.091,8.872,8.872,0,0,1-2.857-.206c-.761-.268-.887-.869-.346-1.768a90.125,90.125,0,0,0,5.493-11.381c2.449-6.153,3.547-11.164,2.781-14.257q-1.76-7.1-2.066-20.862Q864.116,1759.057,869.6,1752.4Z" fill="#7a7a7a"/>
    <path id="Shape-18" data-name="Shape" d="M890.327,1735.852c-.558-.167-4.264,2.3-8.606,5.778a88.05,88.05,0,0,0-11.794,11.034q-5.325,6.473,2.644,37.616c.21,9.208.9,16.141,2.06,20.841.8,3.207-.318,8.283-2.8,14.515a90.48,90.48,0,0,1-5.525,11.443c-.416.691-.354.983.126,1.152a8.8,8.8,0,0,0,2.715.183,28.946,28.946,0,0,1,3.095.092,9.41,9.41,0,0,1,3.609.964c2.7,1.448,15.694,3.792,38.883,7,.754.1,2.5-1.7,2.5-2.805a2.358,2.358,0,0,0-.418-1.02c-.141-.237-.816-1.29-.984-1.565-1.239-2.035-1.743-3.681-1.328-5.478s.178-2.526-.686-3.338c-.034-.032-.151-.14-.169-.158a2.106,2.106,0,0,1-.812-1.345c-.692-4.8-4.557-34.5-4.557-35.709,0-.43.468-1.06,1.55-2.227.166-.179,2.523-2.642,3.285-3.482a29.906,29.906,0,0,0,3.274-4.171,8,8,0,0,0,1.451-4.059c0-1.951-.929-4.875-2.954-9.913-.126-.314-.259-.643-.412-1.02a69.5,69.5,0,0,1-3.051-8.118,29.97,29.97,0,0,0-6.055-12.013C896.283,1740.909,891.191,1736.111,890.327,1735.852Z" fill="#fff"/>
    <path id="Shape-19" data-name="Shape" d="M884.135,1760.058c.773,3.012,2.325,14.843-7.1,32.014-5.545,10.107-1.5,23.6-2.611,19.1q-1.754-7.077-2.06-20.84-3.953-18.57-4.327-24.964C867.692,1759.424,882.012,1751.785,884.135,1760.058Z" fill="#7a7a7a"/>
    <path id="Shape-20" data-name="Shape" d="M911.342,1755.424l-.286.015-.1-.181-.082.19-.286.015.158.284-3.721,8.7.5-8.2-2.383-1.905-4.182-7.718h3.549l6.8,5.549a77.088,77.088,0,0,1,3.667,8.089,1.434,1.434,0,0,1-.46,1.385l-3.3-5.92Z" fill="#7a7a7a"/>
    <path id="Shape-21" data-name="Shape" d="M914.486,1761.489l-4.049-2.53-1.548-2.939,1.4-2.492Z" fill="#7a7a7a"/>
    <path id="Shape-22" data-name="Shape" d="M910.568,1755.092a.42.42,0,0,1,.754-.04l3.226,5.785a1.171,1.171,0,0,0,.013-.507,81.473,81.473,0,0,0-3.591-7.893l-6.608-5.4H901.67l3.8,7.021,2.317,1.851a.426.426,0,0,1,.158.356l-.356,5.776Z" fill="#fff"/>
    <path id="Shape-23" data-name="Shape" d="M885.706,1742.593c3.6,2.193,4.274,8.266,4.888,11.369.414,2.088,1.372,3.813,2.214,3.551,2.25-3.985,6.742-4.528,9.387-2.53s1.088-1.574-1.883-4.328q-2.972-2.754-13.482-11.848l-3.071.885a27.4,27.4,0,0,0-3.588,2.966C880.171,1742.859,882.109,1740.4,885.706,1742.593Z" fill="#7a7a7a"/>
    <path id="Shape-24" data-name="Shape" d="M919.444,1727.6a.21.21,0,1,1,.405.114l-2.572,9.172a.21.21,0,0,1-.322.117l-2.792-1.933a.211.211,0,0,1,.24-.347l2.549,1.765Z" fill="#7a7a7a"/>
    <path id="Shape-25" data-name="Shape" d="M878.6,1750.773a.211.211,0,1,1-.327-.266q4.37-5.406,8.458-6.344a.211.211,0,1,1,.093.411Q882.89,1745.471,878.6,1750.773Z" fill="#7a7a7a"/>
    <path id="Shape-26" data-name="Shape" d="M911.294,1736.278a.21.21,0,0,1,.362-.214c.907,1.538,1.909,2.244,3.014,2.157a.211.211,0,0,1,.032.421C913.412,1738.742,912.274,1737.941,911.294,1736.278Z" fill="#7a7a7a"/>
    <path id="Shape-27" data-name="Shape" d="M907.325,1823.716c.816,5.365,1.325,7.064,2.659,10.087a16.256,16.256,0,0,1,1.211,3.828q1.031,5.139-.007,8.2a.21.21,0,0,1-.4-.136q1-2.945-.007-7.984a15.855,15.855,0,0,0-1.184-3.741c-1.349-3.056-1.869-4.79-2.691-10.193q-1.566-10.3-3.459-29.986a.208.208,0,0,1,.055-.163c5.1-5.539,7.82-9.407,8.134-11.554a12.614,12.614,0,0,0-.819-5.461c-.581-1.845-.715-2.2-3.218-8.622a18.169,18.169,0,0,1-.694-4.031.211.211,0,0,1,.419-.042,18.059,18.059,0,0,0,.667,3.92c2.508,6.438,2.642,6.789,3.228,8.648a12.958,12.958,0,0,1,.833,5.649c-.329,2.255-3.052,6.142-8.177,11.709Q905.764,1813.452,907.325,1823.716Z" fill="#7a7a7a"/>
    <path id="Shape-28" data-name="Shape" d="M946.252,1786.435a.211.211,0,0,1-.185-.379l7.408-3.606a.21.21,0,0,1,.263.067c.539.751.373,1.727-.45,2.9a6.658,6.658,0,0,1-3.069,2.41,9.74,9.74,0,0,1-.914,2.382,4.677,4.677,0,0,1-3.466,2.326.211.211,0,0,1-.089-.412,4.271,4.271,0,0,0,3.177-2.1,8.541,8.541,0,0,0,.892-2.371.211.211,0,0,1,.136-.174,6.257,6.257,0,0,0,2.989-2.3c.67-.953.839-1.7.544-2.26Z" fill="#7a7a7a"/>
    <path id="Shape-29" data-name="Shape" d="M901.139,1752.541q-1.756-2.06-2.928-1.176l-4.2,7.2c-1.218-3-3.686-7.835-5.267-11.424s-6.009-5.8-6.595-7.647c-.592-1.871,1.574-1.867,3.34-4.452q11.621,10.237,14.441,13.223c2.819,2.985-.742-.37,6.363,9.083l.933,7.51" fill="#fff"/>
    <path id="Shape-30" data-name="Shape" d="M898.029,1751.258c.951-.737,2.037-.3,3.27,1.146a.211.211,0,1,1-.32.274c-1.09-1.278-1.946-1.636-2.608-1.169l-4.177,7.162a.211.211,0,0,1-.377-.027c-.585-1.443-1.184-2.733-2.988-6.52l-.062-.13c-1.088-2.285-1.67-3.532-2.215-4.768a11.906,11.906,0,0,0-3-3.842c-.353-.327-1.9-1.691-2.25-2.031a4.688,4.688,0,0,1-1.352-1.8,1.64,1.64,0,0,1,.537-1.915,25.861,25.861,0,0,0,2.163-1.875,7.779,7.779,0,0,0,.666-.845.211.211,0,0,1,.313-.039q11.629,10.245,14.455,13.236a8.255,8.255,0,0,1,1.354,1.622c.02.039.04.079.061.125s.1.213.11.242c.05.107.1.206.154.317.152.3.358.65.65,1.111.768,1.212,2.058,3.035,4.049,5.684a.215.215,0,0,1,.041.1l.933,7.51a.21.21,0,1,1-.417.052l-.927-7.454c-1.978-2.633-3.264-4.451-4.034-5.667-.3-.471-.511-.836-.669-1.144-.06-.117-.11-.221-.162-.335-.015-.03-.089-.2-.109-.239s-.036-.075-.053-.108a8.2,8.2,0,0,0-1.287-1.528q-2.79-2.952-14.251-13.053a8.06,8.06,0,0,1-.566.7,25.234,25.234,0,0,1-2.188,1.9,1.227,1.227,0,0,0-.422,1.477,4.377,4.377,0,0,0,1.242,1.618c.348.333,1.887,1.694,2.245,2.028a12.278,12.278,0,0,1,3.1,3.98c.542,1.231,1.123,2.475,2.209,4.756l.062.13c1.644,3.451,2.289,4.833,2.836,6.148Z" fill="#7a7a7a"/>
    <path id="Shape-31" data-name="Shape" d="M926.162,1726.442c.456-1.838,1.229-5.84.671-5.684-2.173.6-6.906,1.556-15.84-1.044-3.527,1.044-4.6,4.406-4.822,6.424-.289,2.642,2.628,7.121,3.628,11.668a27.865,27.865,0,0,1-.408,12.52c-.165.25.665-7.645-1.473-12.965a22.805,22.805,0,0,0-2.9-5.542,9.6,9.6,0,0,1-1.451-5.681c-.348,2.262-.611,6.385,1.043,8.832q3.921,5.8,3.742,17.2-2.622-.227-3.443-.309c-.321-.033-1.985-1.71-1.647-4.612a5.544,5.544,0,0,0-.746,4.3c-8.472-1.742-15.518-6.426-19.258-13.734-2.091-4.083,2.634-9.511,4.995-12.44s-1.291-8.119,8.364-19.733,18.057-7.293,26.769,1.353S928.68,1725.577,926.162,1726.442Z" fill="#7a7a7a"/>
    <g id="Man">
      <path id="Shape-32" data-name="Shape" d="M1022.207,1798.732a.21.21,0,0,1-.34-.218l2-6.845a.2.2,0,0,1,.064-.1l2.946-2.557a.211.211,0,0,1,.349.159v9.4a.211.211,0,0,1-.391.109l-1.579-2.616Z" fill="#7a7a7a"/>
      <path id="Shape-33" data-name="Shape" d="M1024.255,1791.847l-1.782,6.093,2.7-2.357a.21.21,0,0,1,.318.05l1.318,2.183v-8.183Z" fill="#fff"/>
      <path id="Shape-34" data-name="Shape" d="M1010.745,1759.742a.21.21,0,0,1,.373.167l-1.364,7.35a.21.21,0,0,1-.269.163c-1.511-.463-2.3-1.094-2.3-1.927C1007.188,1764.713,1008.362,1762.833,1010.745,1759.742Z" fill="#7a7a7a"/>
      <path id="Shape-35" data-name="Shape" d="M1007.609,1765.495c0,.557.574,1.05,1.775,1.452l1.159-6.247C1008.6,1763.279,1007.609,1764.907,1007.609,1765.495Z" fill="#fff"/>
      <path id="Shape-36" data-name="Shape" d="M1008.627,1779.815c-.559-5.551.341-13.606,2.435-20.8,2.437-8.375,6.188-14.824,10.915-17.894,4.708-3.057,10.818-2.825,17.3.039,5.386,2.38,10.607,6.48,13.3,10.218,3.367,4.667,1.043,12.495-6.9,23.5l1.952,3.222a.21.21,0,0,1-.039.265l-19.33,17.541a.211.211,0,0,1-.344-.1l-2.788-9.8C1014.9,1788.992,1009.345,1786.939,1008.627,1779.815Z" fill="#7a7a7a"/>
      <path id="Shape-37" data-name="Shape" d="M1009.169,1761.782c-.662-.165-.317-3.085.629-6.885s2.011-6.54,2.672-6.375.317,3.086-.629,6.885S1009.83,1761.947,1009.169,1761.782Zm.1-.409c.241.06,1.341-2.77,2.162-6.068s1.177-6.313.936-6.373-1.34,2.77-2.162,6.067S1009.029,1761.313,1009.27,1761.373Z" fill="#7a7a7a"/>
      <path id="Shape-38" data-name="Shape" d="M1045.251,1774.969a.212.212,0,0,1,.01-.234c7.912-10.924,10.216-18.632,6.982-23.114-2.651-3.675-7.813-7.729-13.132-10.079-6.368-2.813-12.335-3.039-16.9-.071-4.625,3-8.328,9.371-10.739,17.658-2.081,7.149-2.975,15.15-2.421,20.643.69,6.848,6.027,8.778,16.173,5.762a.211.211,0,0,1,.262.144l2.754,9.68,18.95-17.2Z" fill="#fff"/>
      <path id="Shape-39" data-name="Shape" d="M1011.652,1755.472a.211.211,0,0,1,.122-.4l12.726,3.856a.211.211,0,1,1-.122.4Z" fill="#7a7a7a"/>
      <path id="Shape-40" data-name="Shape" d="M1024.742,1759.7q2.354-3.945,4.13-3.319c1.777.628,2.965,6.456.912,9.106q-2.054,2.651-4.528,2.087" fill="#fff"/>
      <path id="Shape-41" data-name="Shape" d="M1024.923,1759.807a.211.211,0,1,1-.362-.216c1.616-2.709,3.065-3.874,4.381-3.409,2.123.749,2.985,6.881,1.008,9.434-1.415,1.826-3,2.558-4.741,2.163a.211.211,0,0,1,.094-.411c1.562.355,2.993-.3,4.315-2.011,1.817-2.346,1-8.136-.816-8.778C1027.748,1756.207,1026.444,1757.256,1024.923,1759.807Z" fill="#7a7a7a"/>
      <path id="Shape-42" data-name="Shape" d="M1027.24,1760.332a.211.211,0,0,1,.239-.347c1.167.806,1.3,2.233.454,4.219a.211.211,0,0,1-.387-.167C1028.326,1762.216,1028.209,1761,1027.24,1760.332Z" fill="#7a7a7a"/>
      <path id="Shape-43" data-name="Shape" d="M1025.88,1762.228a.21.21,0,0,1-.36-.218c1.434-2.383,2.575-3.318,3.465-2.645a.211.211,0,0,1-.254.336C1028.153,1759.264,1027.188,1760.054,1025.88,1762.228Z" fill="#7a7a7a"/>
      <path id="Shape-44" data-name="Shape" d="M1001.873,1811.335l2.987,5.4,33.057-21.167a.211.211,0,0,1,.285.056l7.824,11.088a.211.211,0,0,1-.028.276l-17.831,16.635-26.4,11.373c-4.629-1.768-8.793-5.575-12.657-11.411q-5.77-8.714-14.769-29.687a6.849,6.849,0,0,1-2.62-4.705q-.113-2.439,2.078-6.414l0-1.984c-.346-2.008-.346-3.365.019-4.095.371-.745,1.052-.814,1.94-.264a3.586,3.586,0,0,1,1.33-2.546,2.463,2.463,0,0,1,2.519.191c.219-1.114.676-1.8,1.387-2.023a4.173,4.173,0,0,1,3.007.708,5.563,5.563,0,0,1,2.751-2.52,1.506,1.506,0,0,1,1.808.762,8.506,8.506,0,0,1,.923,2.2,10.557,10.557,0,0,1,.075,4.4q.742-.494,1.345-.981c.179-.144.188-.153.68-.562a7.355,7.355,0,0,1,3.045-1.864c2.851-.649,4.7.612,4.287,2.165a1.4,1.4,0,0,1-.6.731c-.456.328-3.022,1.586-3.045,1.6a10.34,10.34,0,0,0-1.962,1.3,10.971,10.971,0,0,0-2.172,2.726c-.3.516-.586,1.046-.922,1.726l-.2.405-.095.2-.093.191c-.149.3-.253.513-.354.706a45.945,45.945,0,0,1-4.255,5.815Z" fill="#7a7a7a"/>
      <path id="Shape-45" data-name="Shape" d="M1004.9,1817.208a.212.212,0,0,1-.3-.076l-3.071-5.558-16.74-19.674a.21.21,0,0,1,0-.269,47.052,47.052,0,0,0,4.319-5.882c.1-.188.2-.4.348-.7l.093-.19.1-.2c.079-.161.139-.284.2-.407.34-.688.625-1.227.937-1.754a11.384,11.384,0,0,1,2.257-2.829,10.739,10.739,0,0,1,2.04-1.354c.055-.03,2.576-1.266,3-1.569a1.067,1.067,0,0,0,.444-.5c.319-1.193-1.208-2.232-3.788-1.645a7.086,7.086,0,0,0-2.869,1.777c-.494.411-.5.42-.684.566a19.572,19.572,0,0,1-1.773,1.262.211.211,0,0,1-.321-.21,11.034,11.034,0,0,0,.008-4.67c-.732-2.254-1.227-3-2.205-2.692a5.391,5.391,0,0,0-2.625,2.509.21.21,0,0,1-.281.073c-1.285-.714-2.24-.964-2.851-.77-.587.185-.976.833-1.148,1.981a.21.21,0,0,1-.315.15c-1-.591-1.78-.694-2.348-.343a3.535,3.535,0,0,0-1.189,2.577.211.211,0,0,1-.332.139c-.841-.611-1.327-.611-1.594-.076-.311.625-.311,1.912.023,3.871v2.074c-1.468,2.716-2.15,4.8-2.078,6.341a6.472,6.472,0,0,0,2.514,4.44q9.079,21.088,14.8,29.738,5.7,8.6,12.22,11.222l26.221-11.284,17.669-16.485-7.6-10.773Z" fill="#fff"/>
      <path id="Shape-46" data-name="Shape" d="M970.435,1782.456l30.659-11.785a.21.21,0,0,1,.272.121l.6,1.575a.211.211,0,0,1-.121.272l-30.659,11.785-.051.012-3.061.352a.211.211,0,0,1-.154-.375l2.458-1.927Z" fill="#7a7a7a"/>
      <path id="Shape-47" data-name="Shape" d="M968.77,1784.284l2.293-.264,30.437-11.7-.453-1.181-30.432,11.7Z" fill="#fff"/>
      <path id="Shape-48" data-name="Shape" d="M987.479,1773.752a8.367,8.367,0,0,0-1.4,3.551c0,.63.912,4-.319,4.35s-2.5-3.418-2.6-4.35a6.811,6.811,0,0,1,.954-3.906" fill="#fff"/>
      <path id="Shape-49" data-name="Shape" d="M983.149,1774.173a9.4,9.4,0,0,0-.955,3.6c-.155.553,2.292,3.765,1.06,4.114s-3.416-3.419-3.758-4.033.154-2.684.447-4.218" fill="#fff"/>
      <path id="Shape-50" data-name="Shape" d="M976.226,1778.46a4.039,4.039,0,0,0,0,2.894c.259.551,3.062,1.937,1.962,2.594s-3.54-.988-4.028-1.492-.34-2.438-.453-4Z" fill="#fff"/>
      <path id="Shape-51" data-name="Shape" d="M978.809,1776.924c-.486,1.792-.293,2.289-.172,2.545.258.552,2.752,2.409,2.024,3.137s-3.907-1.332-4.4-1.836-.182-2.711-.3-4.269Z" fill="#fff"/>
      <path id="Shape-52" data-name="Shape" d="M987.3,1773.646a.211.211,0,1,1,.364.212,8.255,8.255,0,0,0-1.37,3.445,3.3,3.3,0,0,0,.048.414c.014.086.09.553.112.7.059.381.1.7.129,1.008.125,1.372-.052,2.232-.762,2.433-1.2.342-2.685-2.772-2.863-4.531a7.037,7.037,0,0,1,.981-4.03.211.211,0,0,1,.367.207,6.612,6.612,0,0,0-.929,3.781c.152,1.5,1.53,4.4,2.329,4.168.42-.119.564-.82.458-1.989-.027-.3-.068-.609-.126-.982-.022-.142-.1-.609-.112-.7a3.529,3.529,0,0,1-.053-.478A8.492,8.492,0,0,1,987.3,1773.646Z" fill="#7a7a7a"/>
      <path id="Shape-53" data-name="Shape" d="M982.967,1774.067a.211.211,0,1,1,.364.212,5.956,5.956,0,0,0-.816,2.824,4.246,4.246,0,0,1-.118.731c-.027.1.058.281.685,1.511.07.137.13.257.186.372a5.507,5.507,0,0,1,.519,1.386c.088.506-.053.871-.476.991-.669.19-1.48-.473-2.437-1.73a21.347,21.347,0,0,1-1.562-2.4c-.253-.454-.171-1.336.164-3.049.022-.111.045-.227.073-.366.013-.064.079-.392.1-.483.036-.183.065-.327.091-.463a.21.21,0,1,1,.413.08c-.026.136-.055.282-.091.465-.019.092-.085.42-.1.484-.028.138-.051.254-.072.364-.307,1.568-.389,2.442-.21,2.762a20.663,20.663,0,0,0,1.529,2.353c.843,1.108,1.567,1.7,1.988,1.581.174-.05.23-.2.175-.514a5.2,5.2,0,0,0-.482-1.273c-.055-.112-.114-.23-.183-.365-.823-1.613-.792-1.545-.715-1.817a3.942,3.942,0,0,0,.1-.661A6.329,6.329,0,0,1,982.967,1774.067Z" fill="#7a7a7a"/>
      <path id="Shape-54" data-name="Shape" d="M975.8,1778.332c0-.13.146-.179.258-.148s.148.036.148.258c0,.9-.051,1.491,0,2.018a2.287,2.287,0,0,0,.208.8c.056.119.1.159,1,.841.11.083.2.155.289.225a3.351,3.351,0,0,1,.831.853.635.635,0,0,1-.24.946c-1,.6-3.314-.522-4.287-1.526-.36-.371-.418-.913-.461-2.865,0-.135.019-1.136,0-1.4-.009-.116.028-.076.144-.085s.268-.031.277.085c.02.275-.019.681-.008,1.056,0,.1.005.2.008.338.039,1.755.1,2.332.342,2.581.849.875,3,1.918,3.77,1.458.174-.1.192-.2.09-.374a3.059,3.059,0,0,0-.729-.734c-.084-.067-.174-.137-.281-.219l-.356-.269c-.137-.1-.237-.181-.325-.253a1.568,1.568,0,0,1-.444-.474,2.711,2.711,0,0,1-.246-.941C975.733,1779.921,975.8,1779.18,975.8,1778.332Z" fill="#7a7a7a"/>
      <path id="Shape-55" data-name="Shape" d="M978.608,1776.868a.21.21,0,1,1,.406.111c-.381,1.405-.377,1.989-.185,2.4a2.2,2.2,0,0,0,.331.4c.11.115.568.576.637.646.128.132.238.248.341.36.817.894,1.123,1.518.674,1.969-.716.716-3.714-.827-4.7-1.839-.339-.351-.372-.86-.336-2.793,0-.118,0-.21,0-.3.008-.557,0-.953-.023-1.309a.209.209,0,0,1,.194-.225.211.211,0,0,1,.226.195c.026.37.032.777.024,1.345,0,.09,0,.183-.005.3-.032,1.71,0,2.272.217,2.492.819.845,3.637,2.3,4.1,1.835.2-.2-.031-.669-.687-1.386-.1-.108-.206-.222-.332-.35-.065-.067-.526-.531-.639-.65a2.24,2.24,0,0,1-.408-.513C978.208,1779.044,978.2,1778.362,978.608,1776.868Z" fill="#7a7a7a"/>
      <path id="Shape-56" data-name="Shape" d="M976.452,1802.423l-1.38-6.638a.21.21,0,0,1,.3-.23q3.71,1.935,5.9,1.507c1.427-.274,2.709-1.8,3.821-4.6a.21.21,0,0,1,.351-.064l3.369,3.694a4.977,4.977,0,0,1,1.923,1.047q.327.41,14.454,18.26l5.653-3.623,27.073-16.214a.21.21,0,0,1,.28.059l7.824,11.088a.211.211,0,0,1,.017.214l-12.658,26.033a.207.207,0,0,1-.144.113q-24.378,5.394-33.407,5.4c-4.081,0-9.379-6.189-15.146-16.336-3.974-6.994-8.236-16.361-8.236-17.518Z" fill="#7a7a7a"/>
      <path id="Shape-57" data-name="Shape" d="M985.364,1792.928c-1.132,2.727-2.46,4.251-4.007,4.548q-2.235.429-5.784-1.347l1.295,6.229.005,2.251c0,1.05,4.253,10.4,8.181,17.31,5.68,9.994,10.926,16.122,14.78,16.122q8.957,0,33.217-5.362l12.559-25.83-7.639-10.826-26.9,16.111-5.808,3.721a.209.209,0,0,1-.278-.046q-14.241-17.994-14.571-18.408a5.054,5.054,0,0,0-1.79-.933Q988.593,1796.456,985.364,1792.928Z" fill="#fff"/>
      <path id="Shape-58" data-name="Shape" d="M999.834,1838.252q9,0,33.362-5.389l12.658-26.033-7.824-11.088q-9.664,8.336-12.98,11.928c-.447.483-.447,9.327-6.892,16.337s-11.228,8.21-16.4,9.7C991.043,1836.805,995.238,1838.252,999.834,1838.252Z" fill="#7a7a7a"/>
      <path id="Shape-59" data-name="Shape" d="M985.218,1791.4a.211.211,0,0,1,.319.031l3.344,4.772a.212.212,0,0,1,.022.2q-1.234,3.042-5.5,5.187c-2.848,1.437-5.126,1.779-6.831,1a.212.212,0,0,1-.118-.143l-1.618-6.862a.21.21,0,0,1,.271-.248,6.819,6.819,0,0,0,4.747-.193A16.763,16.763,0,0,0,985.218,1791.4Z" fill="#7a7a7a"/>
      <path id="Shape-60" data-name="Shape" d="M985.333,1791.874a16.874,16.874,0,0,1-5.324,3.667,7.287,7.287,0,0,1-4.676.307l1.51,6.4c1.559.659,3.682.321,6.373-1.036s4.452-2.987,5.253-4.864Z" fill="#fff"/>
      <path id="Shape-61" data-name="Shape" d="M981.022,1802.293a.21.21,0,1,1-.382.177c-1.425-3.094-1.981-4.921-1.653-5.614a6.4,6.4,0,0,1,1.708-2.018.211.211,0,1,1,.272.322,6.03,6.03,0,0,0-1.6,1.876C979.121,1797.557,979.668,1799.352,981.022,1802.293Z" fill="#7a7a7a"/>
      <path id="Shape-62" data-name="Shape" d="M982.089,1800.169a1.265,1.265,0,1,1,1.263-1.265A1.264,1.264,0,0,1,982.089,1800.169Z" fill="#7a7a7a"/>
      <path id="Shape-63" data-name="Shape" d="M1029.631,1902.58l-.256-.093c-.109-.039-.195-.071-.278-.1-.868-.339-1.305-.7-1.2-1.286.091-.505.466-.944,1.621-2.081,1.051-1.035,1.442-1.5,1.5-1.881q2.463-15.6,1.471-25.147c-.533-5.134-1.7-8.983-4.417-15.741-.076-.19-.154-.384-.257-.639l-.257-.64a79.912,79.912,0,0,1-3.566-10.169,48.389,48.389,0,0,1-1.624-12.632,140.851,140.851,0,0,1,5.039-36.481q.013-.049,21.994-14.515c4.67,2.032,10.059,6.551,16.38,13.542,10.575,11.694,15.6,29.079,13.014,50.031-1.28,10.349,5.791,38.725,11.137,47.419a3.417,3.417,0,0,1,.543,2.306,2.622,2.622,0,0,0,.187,1.338c.6,1.249,2.32,4.546,2.543,5.011a7.173,7.173,0,0,1,.96,3.535,4.512,4.512,0,0,1-.376,1.54,1.356,1.356,0,0,0,.131,1.26,7.5,7.5,0,0,0,1.111,1.457c1.725,2.058,2.042,3.479.4,5.545-1.97,2.477-5.016,3.531-9.124,3.416-3.317-.093-7.117-.9-12.359-2.455-1.026-.3-2.065-.625-3.484-1.069l-2.48-.778c-.938-.293-1.7-.527-2.417-.743-3.678-1.1-8.389-1.466-14.659-1.324-2.05.046-3.946.13-7.14.3-8.708.464-11.291.488-13.6-.135a24.439,24.439,0,0,1-2.339-.73c-1.8-.7-2.321-1.464-1.765-2.72a10.733,10.733,0,0,1,1.434-2.136c.372-.47,2-2.443,2.493-3.053A2.978,2.978,0,0,0,1029.631,1902.58Z" fill="#7a7a7a"/>
      <path id="Shape-64" data-name="Shape" d="M1095.818,1912.281q-1.636,13.189-9.292,18.07t-19.587,3.078l-36.171-27.349,23.286-10.259Z" fill="#7a7a7a"/>
      <path id="Shape-65" data-name="Shape" d="M1095.818,1912.281q-1.636,13.189-9.292,18.07t-19.587,3.078l-36.171-27.349,23.286-10.259Z" fill="#7a7a7a"/>
      <path id="Shape-66" data-name="Shape" d="M1022.791,1832.168a47.964,47.964,0,0,0,1.61,12.524,79.588,79.588,0,0,0,3.549,10.12l.258.639c.1.255.181.45.257.64,2.727,6.791,3.907,10.672,4.445,15.854q1,9.608-1.474,25.257c-.081.514-.481.99-1.589,2.082-1.094,1.077-1.468,1.516-1.535,1.889-.054.3.251.55.938.818.079.031.162.061.268.1l.258.093a3.1,3.1,0,0,1,.433.184c.236.133.35.331.178.544-.393.487-2.17,2.643-2.559,3.134a10.488,10.488,0,0,0-1.378,2.044c-.44.993-.073,1.537,1.532,2.156.572.22,1.309.449,2.3.716,2.242.606,4.828.581,13.467.121,3.2-.171,5.1-.255,7.152-.3,6.311-.143,11.06.223,14.79,1.342.721.217,1.482.451,2.422.744l2.48.778c1.417.444,2.455.763,3.478,1.067,5.209,1.548,8.979,2.347,12.251,2.439,3.987.111,6.907-.9,8.783-3.258,1.491-1.874,1.22-3.089-.391-5.011a7.707,7.707,0,0,1-1.159-1.526,1.768,1.768,0,0,1-.148-1.628,4.072,4.072,0,0,0,.342-1.4,6.813,6.813,0,0,0-.918-3.329c-.219-.455-1.941-3.753-2.544-5.011a2.507,2.507,0,0,1-.24-1.2,3.465,3.465,0,0,0-.468-2.4c-5.394-8.772-12.489-37.243-11.2-47.691,2.576-20.835-2.418-38.1-12.908-49.7q-9.354-10.345-15.935-13.409l-21.741,14.286A140.375,140.375,0,0,0,1022.791,1832.168Z" fill="#fff"/>
      <path id="Shape-67" data-name="Shape" d="M1026.509,1797.1q7.95-9.248,12.975-12.417t8.247-3.715l3.447,1.247q-2.863,0-8.791,5.242c-2.686,2.375-10.382,18.014-10.876,15.282a12.909,12.909,0,0,0-2.871-6.727q-.2-.257-1.56,2.61Z" fill="#7a7a7a"/>
      <path id="Shape-68" data-name="Shape" d="M1022.58,1832.168c0,13,4.675,20.487,7.741,29.408,1.091,3.177,38.789-39.411,29.334-49.867S1022.58,1814.536,1022.58,1832.168Z" fill="#7a7a7a"/>
      <path id="Shape-69" data-name="Shape" d="M1051.081,1834.868a.21.21,0,0,1,.179.238c-.021.155-.032.238-.044.335-.036.276-.076.6-.119.966-.122,1.05-.245,2.245-.359,3.564a121.567,121.567,0,0,0-.108,21.366q.242,2.6.63,5.011c1.983,12.265,4.5,22.793,7.611,30.63a16.832,16.832,0,0,0,2.095,2.979l.1.13a20.407,20.407,0,0,1,2.242,3.042c.269.559.135.94-.344,1.565-.107.14-.106.138-.141.186-.262.357-.311.559-.153.819a18.432,18.432,0,0,0,3.579,4.449.211.211,0,0,1-.274.32,18.819,18.819,0,0,1-3.665-4.55,1.036,1.036,0,0,1,.174-1.288c.037-.051.036-.049.146-.193.39-.509.477-.755.3-1.125a20.939,20.939,0,0,0-2.192-2.964l-.1-.13a16.429,16.429,0,0,1-2.156-3.085c-3.125-7.871-5.648-18.425-7.636-30.718q-.391-2.421-.633-5.039a122.037,122.037,0,0,1,.107-21.442c.115-1.322.238-2.522.361-3.576.043-.369.083-.694.119-.971.013-.1.024-.182.034-.253C1050.86,1834.932,1050.966,1834.851,1051.081,1834.868Z" fill="#7a7a7a"/>
      <path id="Shape-70" data-name="Shape" d="M1086.044,1904.662c1.022-.024,4.344.262,4.356.793.022.966-3.907,2.583-3.017,3.489,1.24,1.263,6.9,1.068,7.354,0,0-.67-.619-.924-1.12-2.41-.453-1.34.505-1.975,0-3.647-.8-2.657-3.024-6.332-3.217-7.5-.448-2.713-.447,8.049-9.079,4.406C1071.217,1895.531,1080.581,1904.785,1086.044,1904.662Z" fill="#7a7a7a"/>
      <path id="Shape-71" data-name="Shape" d="M1028.094,1795.452l-1.383,4.519a.211.211,0,0,1-.412-.062v-7.02a.21.21,0,0,1,.051-.138q7.968-9.268,13.021-12.457t8.325-3.745a.21.21,0,0,1,.206.084l3.159,4.393a.212.212,0,0,1-.1.321,30.1,30.1,0,0,0-9.06,5.647q-4.487,3.915-9.3,13.014a.211.211,0,0,1-.342.043Z" fill="#7a7a7a"/>
      <path id="Shape-72" data-name="Shape" d="M1026.72,1792.967v5.536l1.08-3.529a.211.211,0,0,1,.358-.08l4.215,4.652q4.77-8.953,9.256-12.87a30.767,30.767,0,0,1,8.931-5.625l-2.922-4.064a24.714,24.714,0,0,0-8.042,3.663Q1034.619,1783.79,1026.72,1792.967Z" fill="#fff"/>
      <path id="Shape-73" data-name="Shape" d="M1051.067,1797.081a.211.211,0,1,1-.353.23,25.715,25.715,0,0,0-10.18-9.239.211.211,0,1,1,.188-.377A26.14,26.14,0,0,1,1051.067,1797.081Z" fill="#7a7a7a"/>
      <path id="Shape-74" data-name="Shape" d="M1019.6,1748.463a32.845,32.845,0,0,0-1.155,11.846c.578,5.23-1.44,7.01-5.057,9.9s-9.359,9.891-7.668,14.71,7.4,8.524,12.725,6.576,11.074-6.346,7.885-14.118-5.766-15.521-3.676-17.072,6.738-5.191,8.58,1.377,4.833,11.333,9.428,12.472,6.88,1.5,7.471,0,8.22-11.591,8.443-17.948-1.157-12.581-7.386-12.237c0-3.51-1.323-6.374-4.421-8.145-4.107-2.347-22.115,1.805-25.821.621s-6.384.793-6.88,4.79Q1011.574,1745.237,1019.6,1748.463Z" fill="#7a7a7a"/>
    </g>
    <g id="Woman-1">
      <path id="Shape-75" data-name="Shape" d="M771.39,1946.5q4.223,11.908,15.973,14.033c11.752,2.126,22.338,5.944,45.951-3.54s50.255-25.242,25.707-25.242a134.686,134.686,0,0,1-46.1-7.783Z" fill="#7a7a7a"/>
      <path id="Shape-76" data-name="Shape" d="M810.886,1820.87a.207.207,0,0,1,.209-.026l17.037,7.3c-2.037,5.745-1.588,10.806,1.462,15.477,3.115,4.773,5.349,18.19,6.725,40.341l-3.1,25.885-8.989,22.562c-13.963,7.537-23.074,12.081-27.441,13.745-6.022,2.294-21.288,3.112-26.2,1.765-2.089-.573-2.407-4.384-1.444-10.175.722-4.333,2.2-9.515,3.018-10.908,1.1-1.87,1.421-5.887,1.421-12.019q0-3.352,3.988-9.685a16.758,16.758,0,0,1,2.24-13.206c1.627-2.547,1.855-4.76,1.739-12.474a110.225,110.225,0,0,1,1.619-23.222q3.627-20.83,14.834-25.6Z" fill="#7a7a7a"/>
      <path id="Shape-77" data-name="Shape" d="M798.234,1830.978q-11.067,4.688-14.653,25.324a109.843,109.843,0,0,0-1.612,23.143c.117,7.808-.115,10.062-1.806,12.708a16.35,16.35,0,0,0-2.164,12.97c-2.675,4.362-4,7.546-4,9.694,0,6.239-.326,10.264-1.478,12.232-.784,1.338-2.253,6.478-2.966,10.764-.923,5.546-.616,9.218,1.139,9.7,4.823,1.324,20,.51,25.937-1.752q6.506-2.479,27.228-13.579l8.938-22.412,3.1-25.819q-2.058-33.043-6.659-40.1a16.161,16.161,0,0,1-1.461-15.4l-16.738-7.171Z" fill="#fff"/>
      <path id="Shape-78" data-name="Shape" d="M825.589,1847.922c6.76,4.329,15.129,25.82,11.428,32.956-1.5,2.888-2.457,8.878-4.747,7.574-7.951-4.526-23.186-16.051-25.151-26.126C812.026,1857.673,816.092,1841.842,825.589,1847.922Z" fill="#7a7a7a"/>
      <path id="Shape-79" data-name="Shape" d="M773.792,1914.817c0,3.3-.054,9.743-1.45,12.126a33.282,33.282,0,0,0-2.1,6.507c-1.422,5.854,28.134-.144,29.113-5.286.624-3.271-14.032-1.815-21.765-4.787C773.164,1921.676,773.792,1913.617,773.792,1914.817Z" fill="#7a7a7a"/>
      <path id="Shape-80" data-name="Shape" d="M774.893,1910.457c-1.422,5.853,14.33,4.293,15.309-.849.624-3.27-12.186,1.59-12.186-4.976C774.61,1910.457,775.643,1907.366,774.893,1910.457Z" fill="#7a7a7a"/>
      <path id="Shape-81" data-name="Shape" d="M846.483,1812.208q1.064,5.658.58,6.608t-2.7.561Z" fill="#fff"/>
      <path id="Shape-82" data-name="Shape" d="M844.636,1819.207c1.251.188,1.987.01,2.239-.486.267-.525.126-2.424-.44-5.607Zm2.054-7.038c.721,3.837.915,6.046.56,6.743-.377.742-1.364.947-2.92.672a.211.211,0,0,1-.166-.267l2.117-7.169A.211.211,0,0,1,846.69,1812.169Z" fill="#7a7a7a"/>
      <path id="Shape-83" data-name="Shape" d="M844.529,1785.624q5.283,1.72,3.012,20.045c-2.27,18.325-6.972,26.581-9.5,27.323q-2.526.743-11.522-5l1.67-33.1Z" fill="#fff"/>
      <path id="Shape-84" data-name="Shape" d="M828.4,1795.021l-1.658,32.858c5.878,3.744,9.657,5.378,11.246,4.911,1.307-.384,3.084-2.873,4.709-6.944,1.969-4.934,3.6-11.773,4.639-20.2,1.488-12.007.525-18.6-2.782-19.789Zm16.2-9.6c3.667,1.2,4.683,7.951,3.156,20.272-1.048,8.464-2.683,15.337-4.666,20.307-1.671,4.185-3.509,6.759-4.982,7.192-1.77.521-5.637-1.158-11.694-5.026a.208.208,0,0,1-.1-.188l1.67-33.1a.212.212,0,0,1,.107-.173l16.337-9.271A.213.213,0,0,1,844.594,1785.423Z" fill="#7a7a7a"/>
      <path id="Shape-85" data-name="Shape" d="M800.834,1786.824c-6.589,13.838-5.491,12.646-10.514,16.82q-5.023,4.174-1.63,7.791-7.05,5.44-6.787,9.734c.262,4.294,3.16,6.216,4.325,6.216-.448,2.122-1.7,8.489,2.462,10.151,6.054,2.418,7.439-3.144,12.144-4.784s8.725,4.827,13.61,4.339,6.333-2.786,8.694-2.786,14.659,7.211,16.843.96-1.471-6.25-2.791-9.517,1.915-3.408,3.341-6.753-4.582-11.945-1.369-16.734,2.417-6.137,2.839-7.988,5.011-4.391,5.011-5.341c0-.433.52.6.755,4.9q.109,2,0,8.425,6.3-14.28.6-18.691a86.208,86.208,0,0,1-9.205-8.258c-1.1-.989-8.35-10.983-15.986-5.166-2.776-2.185-7.557-1.36-11.679.712C807.1,1773.069,803.661,1780.888,800.834,1786.824Z" fill="#7a7a7a"/>
      <path id="Shape-86" data-name="Shape" d="M847.271,1815.222c-.784-.11-.844-3.079-.314-6.856s1.405-6.614,2.189-6.5.843,3.079.313,6.856S848.054,1815.332,847.271,1815.222Zm.058-.418c.368.052,1.24-2.774,1.713-6.145s.413-6.328.045-6.379-1.24,2.774-1.713,6.145S846.961,1814.753,847.329,1814.8Z" fill="#7a7a7a"/>
      <path id="Shape-87" data-name="Shape" d="M848.872,1808.378a.211.211,0,1,1-.019.421l-11.341-.534a.211.211,0,1,1,.02-.421Z" fill="#7a7a7a"/>
      <path id="Shape-88" data-name="Shape" d="M810.623,1937.41a.21.21,0,1,1-.416.061l-.783-5.406a.216.216,0,0,1,.051-.17c1.5-1.708,1.5-5.171-.044-10.384q-2.366-7.974,2.339-53.62a.211.211,0,0,1,.419.043q-4.687,45.564-2.354,53.457c1.562,5.269,1.583,8.837.02,10.708Z" fill="#7a7a7a"/>
    </g>
    <path id="Shape-89" data-name="Shape" d="M1000.136,1835.727q.06,0,72.809,82.009a.211.211,0,0,1-.157.351H817.259a.21.21,0,0,1-.187-.307l42.111-81.939Q859.219,1835.77,1000.136,1835.727Z" fill="#7a7a7a"/>
    <path id="Shape-90" data-name="Shape" d="M859.5,1836.148l-41.9,81.517h254.715l-72.278-81.517Z" fill="#fff"/>
    <path id="Shape-91" data-name="Shape" d="M819.364,1917.517h251.35a.21.21,0,0,1,.21.211v17.707a.211.211,0,0,1-.21.211H819.364a.212.212,0,0,1-.211-.211v-17.707A.211.211,0,0,1,819.364,1917.517Z" fill="#7a7a7a"/>
    <path id="Shape-92" data-name="Shape" d="M819.575,1917.938v17.286H1070.5v-17.286Z" fill="#fff"/>
    <path id="Shape-93" data-name="Shape" d="M819.364,1921.944h251.349v4.216H819.364Z" fill="#7a7a7a"/>
    <path id="Shape-94" data-name="Shape" d="M817.259,1917.517h255.529a.21.21,0,0,1,.21.211v4.216a.21.21,0,0,1-.21.21H817.259a.211.211,0,0,1-.211-.21v-4.216A.211.211,0,0,1,817.259,1917.517Z" fill="#7a7a7a"/>
    <path id="Shape-95" data-name="Shape" d="M817.469,1917.938v3.794h255.108v-3.794Z" fill="#fff"/>
    <g id="Coffee">
      <path id="Shape-96" data-name="Shape" d="M949.459,1825H964.2a.211.211,0,0,1,.209.238l-2.1,16.726a.212.212,0,0,1-.1.154,9.283,9.283,0,0,1-10.743,0,.212.212,0,0,1-.1-.154l-2.105-16.726A.211.211,0,0,1,949.459,1825Z" fill="#7a7a7a"/>
      <path id="Shape-97" data-name="Shape" d="M949.7,1825.418l2.063,16.387a8.826,8.826,0,0,0,10.133,0l2.063-16.387Z" fill="#fff"/>
      <path id="Shape-98" data-name="Shape" d="M950.3,1823.567h13.051a1.264,1.264,0,0,1,1.263,1.265v2.108H949.038v-2.108A1.265,1.265,0,0,1,950.3,1823.567Z" fill="#7a7a7a"/>
      <path id="Shape-99" data-name="Shape" d="M953.249,1821.881h7.157a2.106,2.106,0,0,1,2.1,2.108H951.144A2.106,2.106,0,0,1,953.249,1821.881Z" fill="#7a7a7a"/>
    </g>
    <g id="Coffee-2" data-name="Coffee">
      <path id="Shape-100" data-name="Shape" d="M941.039,1782.356h14.736a.209.209,0,0,1,.209.233l-2.1,16.411a.209.209,0,0,1-.1.151,9.429,9.429,0,0,1-10.744,0,.208.208,0,0,1-.1-.151l-2.1-16.411A.208.208,0,0,1,941.039,1782.356Z" fill="#7a7a7a"/>
      <path id="Shape-101" data-name="Shape" d="M941.278,1782.77l2.062,16.078a8.966,8.966,0,0,0,10.134,0l2.062-16.078Z" fill="#fff"/>
      <path id="Shape-102" data-name="Shape" d="M941.881,1780.954h13.052a1.253,1.253,0,0,1,1.263,1.241v2.068H940.618v-2.068A1.253,1.253,0,0,1,941.881,1780.954Z" fill="#7a7a7a"/>
      <path id="Shape-Copy-3" d="M943.574,1800.8h9.4q1.119,0,1.119-2.951H942.723Q942.723,1800.8,943.574,1800.8Z" fill="#7a7a7a"/>
      <path id="Shape-103" data-name="Shape" d="M944.828,1779.3h7.158a2.087,2.087,0,0,1,2.1,2.068H942.723A2.087,2.087,0,0,1,944.828,1779.3Z" fill="#7a7a7a"/>
    </g>
    <g id="Object-on-table-">
      <g id="Hand-woman-2">
        <path id="Shape-104" data-name="Shape" d="M894.227,1853.836h-3.26q-2.848.276-4.583.276c-1.994,0-6.834-2.843-8.723-5.344q-4.347-5.755-13.366-18.5-7.648-11.682-7.842-23.775c-.181-11.3,2.42-25.541,6.814-38.989,1.6-4.893,3.987-6.644,8.495-7.533.3-.059.489-.094,1.085-.2.763-.139,1.145-.213,1.58-.311a9.8,9.8,0,0,0,2.8-1.233c-.088.05.907-.534,1.163-.677a8.254,8.254,0,0,1,1.083-.526,1.859,1.859,0,0,1,1.953.138c2.531,2.019,3.213,7.749,2.1,17.22l-14.334,33.4,4.877,18.5,8.031,16.516c5.55-.829,8.862-1.243,9.961-1.243,1.449,0,4.249,1.075,6.328,2.239a17.472,17.472,0,0,1,2.649,2.5,9.516,9.516,0,0,1,.943,1.226,1.236,1.236,0,0,1,.188.456.314.314,0,0,1-.327.372c-.547,0-1.955-.709-4.326-2.153-1.729-.11-2.958-.185-3.676-.226.335.181.835.416,1.623.775l.371.169a7.727,7.727,0,0,1,1.891,1.07c.929.866,2.276,4.291,1.794,4.916-.266.345-.652.137-1.142-.431a18.9,18.9,0,0,1-1.609-2.363c-1.1-.509-1.989-.913-2.657-1.2.619.367,1.463.839,2.515,1.4,2.1,2.759,2.841,4.111,2.235,4.46-.541.312-1.628-.57-3.492-2.665q-.66-.254-1.19-.449.516.243,1.171.536c1.766,1.77,2.492,2.779,2.264,3.277-.163.359-.574.286-1.2-.065A18.017,18.017,0,0,1,894.227,1853.836Z" fill="#7a7a7a"/>
        <path id="Shape-105" data-name="Shape" d="M878,1848.513c1.815,2.4,6.537,5.176,8.387,5.176,1.141,0,2.655-.091,4.563-.274H894.3a25.358,25.358,0,0,0,2.324,1.614,2.03,2.03,0,0,0,.553.236c.166-.218-.538-1.2-2.028-2.711a13.767,13.767,0,0,1-3.091-1.618.211.211,0,0,1,.161-.346,19.579,19.579,0,0,1,3.355,1.133c1.754,1.939,2.834,2.819,3.084,2.675.188-.108-.552-1.47-2.264-3.745-2.492-1.332-3.726-2.089-3.885-2.424a.21.21,0,0,1,.19-.3,28.213,28.213,0,0,1,4.312,1.822,23.839,23.839,0,0,0,1.692,2.443,1.912,1.912,0,0,0,.449.416c.344-.374-.919-3.582-1.707-4.316a7.608,7.608,0,0,0-1.781-1l-.368-.169a8.577,8.577,0,0,1-2.329-1.253.211.211,0,0,1,.147-.362c.207,0,1.689.088,4.488.265a20.8,20.8,0,0,0,4.118,2.135,8.153,8.153,0,0,0-.992-1.34,17.269,17.269,0,0,0-2.555-2.422c-2-1.12-4.749-2.175-6.105-2.175-1.078,0-4.437.421-10.052,1.262a.209.209,0,0,1-.22-.116l-8.113-16.694-4.91-18.611q-.012-.045,14.345-33.518c1.087-9.308.417-14.921-1.952-16.811-.7-.558-1.184-.375-3.725,1.1a10.131,10.131,0,0,1-2.923,1.281c-.442.1-.828.173-1.6.314-.594.108-.784.144-1.078.2-4.371.862-6.63,2.518-8.177,7.25-4.38,13.407-6.973,27.606-6.793,38.852q.19,11.967,7.767,23.541Q873.655,1842.763,878,1848.513Z" fill="#fff"/>
        <path id="Shape-106" data-name="Shape" d="M872.089,1756.884c-3.35,1.477-6.682,4.75-8.622,10.685-4.045,12.381-11.219,24.671-11.022,36.962.081,5.1,6.845,17.686,9.271,22.663h0c1.916,3.933,10.252,2.277,12.172-.819q.542-.875-4.91-18.611,12.673-26.559,14.346-33.41c1.674-6.851,1.651-14.1-2.026-17.031a7.014,7.014,0,0,0-3.51-1.349m-5.7.91c-3.35,1.477-6.682,4.75-8.622,10.685-4.045,12.381-11.219,24.671-11.022,36.962.081,5.1,6.845,17.686,9.271,22.663h0c1.916,3.933,10.252,2.277,12.172-.819q.542-.875-4.91-18.611,12.673-26.559,14.346-33.41c1.674-6.851,1.651-14.1-2.026-17.031a7.014,7.014,0,0,0-3.51-1.349" fill="#fff"/>
        <path id="Shape-107" data-name="Shape" d="M874.067,1826.486c-.97,1.563-3.53,2.816-6.241,3.144-2.935.354-5.369-.433-6.3-2.344-.065-.133-3.137-6.257-4.209-8.495-.485-1.013-.936-1.976-1.356-2.9-2.365-5.211-3.69-9.054-3.727-11.353,0-.11,0-.221,0-.331a43.4,43.4,0,0,1,2.125-12.845c1.074-3.555,2.131-6.348,4.744-12.823,2.2-5.454,3.163-7.958,4.167-11.032,1.794-5.491,4.9-9.124,8.737-10.813a.211.211,0,0,1,.169.386c-3.717,1.639-6.748,5.178-8.506,10.558-1.008,3.086-1.972,5.6-4.176,11.059-2.608,6.463-3.663,9.249-4.732,12.787a43.011,43.011,0,0,0-2.107,12.72c0,.11,0,.218,0,.327.036,2.22,1.349,6.03,3.689,11.186.419.923.868,1.884,1.352,2.9,1.07,2.233,4.142,8.355,4.209,8.493.835,1.714,3.094,2.444,5.87,2.109,2.6-.313,5.043-1.51,5.934-2.948.306-.492-1.379-6.879-4.932-18.437,8.452-17.843,13.232-28.975,14.343-33.522,1.875-7.674,1.324-14.2-1.953-16.816a6.82,6.82,0,0,0-3.4-1.305.211.211,0,1,1,.052-.418,7.225,7.225,0,0,1,3.616,1.394c3.446,2.749,4.009,9.426,2.1,17.245q-1.679,6.871-14.326,33.376C872.9,1819.818,874.483,1825.815,874.067,1826.486Zm0,0c-.97,1.563-3.53,2.816-6.241,3.144-2.935.354-5.369-.433-6.3-2.344-.065-.133-3.137-6.257-4.209-8.495-.485-1.013-.936-1.976-1.356-2.9-2.365-5.211-3.69-9.054-3.727-11.353,0-.11,0-.221,0-.331a43.4,43.4,0,0,1,2.125-12.845c1.074-3.555,2.131-6.348,4.744-12.823,2.2-5.454,3.163-7.958,4.167-11.032,1.794-5.491,4.9-9.124,8.737-10.813a.211.211,0,0,1,.169.386c-3.717,1.639-6.748,5.178-8.506,10.558-1.008,3.086-1.972,5.6-4.176,11.059-2.608,6.463-3.663,9.249-4.732,12.787a43.011,43.011,0,0,0-2.107,12.72c0,.11,0,.218,0,.327.036,2.22,1.349,6.03,3.689,11.186.419.923.868,1.884,1.352,2.9,1.07,2.233,4.142,8.355,4.209,8.493.835,1.714,3.094,2.444,5.87,2.109,2.6-.313,5.043-1.51,5.934-2.948.306-.492-1.379-6.879-4.932-18.437,8.452-17.843,13.232-28.975,14.343-33.522,1.875-7.674,1.324-14.2-1.953-16.816a6.82,6.82,0,0,0-3.4-1.305.211.211,0,1,1,.052-.418,7.225,7.225,0,0,1,3.616,1.394c3.446,2.749,4.009,9.426,2.1,17.245q-1.679,6.871-14.326,33.376C872.9,1819.818,874.483,1825.815,874.067,1826.486Z" fill="#7a7a7a"/>
        <path id="Shape-108" data-name="Shape" d="M862.736,1830.459c-2.059-.333-3.309-1.669-4.062-3.791a14.443,14.443,0,0,1-.457-1.62c-.042-.18-.24-1.1-.291-1.309a2.22,2.22,0,0,0-.214-.616,10.432,10.432,0,0,0-1.45-1.486l-.118-.112a7.484,7.484,0,0,1-1.436-1.6,3.608,3.608,0,0,1,1.572-4.4.21.21,0,0,1,.27.083,4.864,4.864,0,0,0,3.2,2.583c.987.211,1.705.164,4.064-.155.593-.081.987-.13,1.405-.173a7.236,7.236,0,0,0,3.375-1.114c.177-.111.8-.528.941-.618a3.493,3.493,0,0,1,1.893-.625,3.063,3.063,0,0,1,2.971,1.928,3.764,3.764,0,0,1,.039,1.771l-.008.083a4.647,4.647,0,0,0-.021,1.379,1.926,1.926,0,0,0,.584,1l.049.055a2.513,2.513,0,0,1,.738,2.389c-.286,2.128-2.475,3.87-5.818,5.1A18.216,18.216,0,0,1,862.736,1830.459Z" fill="#7a7a7a"/>
        <path id="Shape-109" data-name="Shape" d="M855.082,1819.732a7.437,7.437,0,0,0,1.352,1.487l.117.111a10.229,10.229,0,0,1,1.511,1.559,2.474,2.474,0,0,1,.273.749c.053.216.252,1.141.292,1.315a14.013,14.013,0,0,0,.444,1.574c.706,1.991,1.848,3.211,3.732,3.516a17.921,17.921,0,0,0,7.01-1.232c3.211-1.177,5.287-2.83,5.546-4.756a2.113,2.113,0,0,0-.634-2.052l-.049-.054a2.306,2.306,0,0,1-.684-1.2,4.944,4.944,0,0,1,.015-1.505l.009-.084a3.607,3.607,0,0,0-.015-1.579,2.648,2.648,0,0,0-2.565-1.655,3.09,3.09,0,0,0-1.681.561c-.137.086-.757.5-.941.618a7.67,7.67,0,0,1-3.556,1.177c-.412.042-.8.09-1.392.17-2.413.327-3.154.376-4.208.15a5.174,5.174,0,0,1-3.365-2.607A3.224,3.224,0,0,0,855.082,1819.732Z" fill="#fff"/>
      </g>
      <g id="Hand-man">
        <path id="Shape-110" data-name="Shape" d="M955.649,1835.126a4.916,4.916,0,0,1-1.03-3.751c.191-.765.742-1.319,1.206-1.319.411,0,.825.326,1.379.988.3.364,1.491,1.953,1.536,2.013.33.427.623.782.912,1.1a6.975,6.975,0,0,1,1.158,1.74,9.99,9.99,0,0,1,.873,3.834c.066.642.135.9.211.938a12.949,12.949,0,0,0,3.185.738h41.974a.208.208,0,0,1,.177.1l12.474,19.56a.21.21,0,0,1-.2.322l-55.79-7.369a5.969,5.969,0,0,0-4.15-.576c-5.9,1.835-10.278.508-13.057-2.366-1.163-1.2-1.3-2.5-1.015-6.06.019-.244.017-.674,0-1.633a15.547,15.547,0,0,1,0-1.8,1.441,1.441,0,0,1,.4-.663c.276-.328.365-.46.363-.518a4.031,4.031,0,0,0-.648-1.869l-.125-.229c-.047-.088-.086-.161-.122-.231a2.755,2.755,0,0,1-.361-2.191,4.48,4.48,0,0,1,2.569-2.4,7.838,7.838,0,0,1,2.257-.789c.219.069.221.084.217.768a6.2,6.2,0,0,0,.042.944,1.6,1.6,0,0,0,.541,1.127,24.953,24.953,0,0,0,3.579,2.238,8.311,8.311,0,0,0,1.154.489,1.551,1.551,0,0,0,.312.07A3.065,3.065,0,0,0,955.649,1835.126Z" fill="#7a7a7a"/>
        <path id="Shape-111" data-name="Shape" d="M949.156,1833.281a12.112,12.112,0,0,0-1.407.578A4.155,4.155,0,0,0,945.4,1836a2.367,2.367,0,0,0,.329,1.881c.036.068.073.139.119.224l.125.228a4.38,4.38,0,0,1,.7,2.053c.01.22-.085.36-.433.774a1.438,1.438,0,0,0-.333.491,16.169,16.169,0,0,0,0,1.653c.02,1.051.023,1.48,0,1.745-.27,3.432-.146,4.654.9,5.734,2.673,2.764,6.886,4.042,12.629,2.256a6.235,6.235,0,0,1,4.36.565l55.312,7.306-12.168-19.081-41.888,0a13.3,13.3,0,0,1-3.326-.773c-.294-.131-.372-.428-.459-1.28a9.677,9.677,0,0,0-.836-3.7,6.5,6.5,0,0,0-1.088-1.636c-.3-.328-.6-.692-.934-1.127-.052-.068-1.23-1.647-1.526-2-.474-.566-.818-.836-1.056-.836s-.649.405-.8,1A4.528,4.528,0,0,0,956,1834.9a3.528,3.528,0,0,1-.005,3.725c-.359.5-3.051-.841-5.625-2.75a1.986,1.986,0,0,1-.708-1.408,6.52,6.52,0,0,1-.046-1c0-.169,0-.255,0-.319C949.489,1833.173,949.33,1833.222,949.156,1833.281Z" fill="#fff"/>
        <path id="Shape-112" data-name="Shape" d="M1061.638,1819.549a32,32,0,0,1-4.332,14.05c-5.063,9.059-27.572,24.873-37.779,27.58s-45.506-4.878-47.16-5.091q-1.653-.213-1.712-1.2l-7.041-1.062a33.7,33.7,0,0,1,0-7.968,12.619,12.619,0,0,1,1.745-4.869h0l7.909.632a9.576,9.576,0,0,1,2.994-1.418q1.861-.562,34.418.786,25.654-30.38,31.453-34.9c5.8-4.52,12.864-4.624,16.918,2.354" fill="#fff"/>
        <path id="Shape-113" data-name="Shape" d="M1010.657,1841.208a.211.211,0,1,1,0-.422h3.934a.211.211,0,1,1,0,.422Z" fill="#7a7a7a"/>
        <path id="Shape-114" data-name="Shape" d="M963.808,1853.641l6.878,1.037a.209.209,0,0,1,.179.2c.032.535.515.875,1.529,1.005-.223-.029,9.758,1.887,15.389,2.836,3.32.56,6.507,1.053,9.533,1.468,10.544,1.442,18.294,1.817,22.157.793,10.581-2.807,32.8-18.8,37.65-27.48a31.81,31.81,0,0,0,4.3-13.956.21.21,0,0,1,.219-.2.213.213,0,0,1,.2.22,32.221,32.221,0,0,1-4.359,14.144c-4.911,8.787-27.223,24.846-37.909,27.681-3.938,1.045-11.719.668-22.322-.783-3.031-.414-6.222-.908-9.546-1.469-5.642-.952-15.611-2.864-15.373-2.834-1.1-.141-1.746-.547-1.874-1.226l-6.884-1.038a.211.211,0,0,1-.178-.19,33.91,33.91,0,0,1,0-8.02,12.83,12.83,0,0,1,1.776-4.95q.042-.065,8.023.53a9.912,9.912,0,0,1,3-1.4c1.276-.387,12.651-.128,34.384.772q25.617-30.33,31.418-34.85c6.331-4.935,13.342-4.278,17.23,2.414a.211.211,0,0,1-.364.212c-3.749-6.453-10.464-7.082-16.607-2.294q-5.772,4.5-31.422,34.869c-21.778-.821-33.314-1.084-34.517-.72a9.35,9.35,0,0,0-2.929,1.385q-.04.03-7.925-.58a12.517,12.517,0,0,0-1.648,4.682A33.264,33.264,0,0,0,963.808,1853.641Z" fill="#7a7a7a"/>
        <path id="Shape-115" data-name="Shape" d="M965.376,1840.777l7.908.632a.211.211,0,0,1,0,.42c-1.077.087-1.9,1.424-2.422,4.068a25.2,25.2,0,0,0,0,8.955.21.21,0,0,1-.239.242l-7.042-1.061a.211.211,0,0,1-.178-.19,33.91,33.91,0,0,1,0-8.02,12.83,12.83,0,0,1,1.776-4.95A.211.211,0,0,1,965.376,1840.777Z" fill="#7a7a7a"/>
        <path id="Shape-116" data-name="Shape" d="M963.821,1845.89a33.264,33.264,0,0,0-.013,7.751l6.594.994a25.473,25.473,0,0,1,.046-8.82c.414-2.1,1.03-3.461,1.87-4.06l-6.849-.547A12.517,12.517,0,0,0,963.821,1845.89Z" fill="#fff"/>
      </g>
      <g id="Hand-woman-1">
        <path id="Shape-117" data-name="Shape" d="M909.173,1838.9l35.329,3.845a1.69,1.69,0,0,1,1.432,2.159l-7.842,26.307-38.734-4.216,8.019-26.9A1.684,1.684,0,0,1,909.173,1838.9Z" fill="#7a7a7a"/>
        <path id="Shape-118" data-name="Shape" d="M909.417,1840.926l33.97,3.491a.842.842,0,0,1,.752.924.9.9,0,0,1-.033.162l-7.161,23.347a.843.843,0,0,1-.9.59l-34.158-4.009,6.636-23.893A.841.841,0,0,1,909.417,1840.926Z" fill="#fff"/>
        <path id="Shape-119" data-name="Shape" d="M875.337,1875.824a.21.21,0,0,1-.185-.242l.405-2.592a.211.211,0,0,1,.177-.176l23.706-3.5,38.734,1.708a.21.21,0,0,1,.2.21v2.509a.212.212,0,0,1-.159.2l-24.072,6.093Z" fill="#7a7a7a"/>
        <path id="Shape-120" data-name="Shape" d="M914.079,1879.617l23.876-6.044v-2.142l-38.493-1.7-23.513,3.479-.347,2.221Z" fill="#fff"/>
        <path id="Shape-121" data-name="Shape" d="M875.337,1873.3a.211.211,0,0,1-.029-.414l24.072-6.093,38.808,4.21a.211.211,0,0,1,.029.414l-24.072,6.094Z" fill="#7a7a7a"/>
        <path id="Shape-122" data-name="Shape" d="M914.079,1877.088l22.9-5.8-37.533-4.085-22.9,5.8Z" fill="#fff"/>
        <path id="Shape-123" data-name="Shape" d="M893.043,1871.592l8.7-3.335,27.475,3.157a.422.422,0,0,1,.06.826l-9.945,2.655a2.105,2.105,0,0,1-.817.053Z" fill="#7a7a7a"/>
        <path id="Shape-124" data-name="Shape" d="M888.876,1871.223a8,8,0,0,0,1.245.778,21.9,21.9,0,0,1,2.721,1.389.476.476,0,0,1-.065.719c-1.123,1.02-4.862,1.458-11.34,1.358l-6.719-1.308a.209.209,0,0,1-.122-.072c-3.222-3.9-3.717-6.407-1.309-7.389,4.129-1.684,10.394-3.526,12.62-3.526q2.573,0,7.952,3.533a28.145,28.145,0,0,1,4.515,2.7c.9.744,1.058,1.373.244,1.636-1.223.4-4.546-.2-10.051-1.8C888.4,1870.287,888.519,1870.945,888.876,1871.223Z" fill="#7a7a7a"/>
        <path id="Shape-125" data-name="Shape" d="M881.48,1875.049c6.309.094,10.008-.339,11.014-1.253.076-.069.077-.076.029-.13a27.9,27.9,0,0,0-2.6-1.291,8.307,8.307,0,0,1-1.31-.819c-.543-.423-.67-1.3-.426-2.622a.21.21,0,0,1,.265-.164c5.538,1.61,8.91,2.229,10.031,1.866.366-.118.312-.338-.381-.909a28.141,28.141,0,0,0-4.459-2.658c-3.544-2.319-6.133-3.476-7.741-3.476-2.155,0-8.381,1.831-12.461,3.495-2.015.822-1.6,3,1.427,6.672Z" fill="#fff"/>
        <path id="Shape-126" data-name="Shape" d="M869.114,1876.594c-1.1.176-2.436.435-4.368.836-.623.129-4.3.9-5.421,1.135-1.633.337-3.045.617-4.393.868-7.971,1.485-13.2,1.842-15.89.7a.212.212,0,0,1-.128-.194,74.531,74.531,0,0,0-.459-8.776c.016.145-.188-1.708-.237-2.2a38.819,38.819,0,0,1-.224-4.14.211.211,0,0,1,.211-.211c1.718,0,3.539.026,13.676.183l1.263.02c7.254.112,11.39.164,13.826.164a2.658,2.658,0,0,1,2.3,1c.17.223.478.8.5.82a11.109,11.109,0,0,0,3.616-.232,1.491,1.491,0,0,1,2.3,1.241,16.584,16.584,0,0,1-.62,6.061.213.213,0,0,1-.172.161l-4.455.719A1.536,1.536,0,0,1,869.114,1876.594Z" fill="#7a7a7a"/>
        <path id="Shape-127" data-name="Shape" d="M838.637,1868.925c.049.486.252,2.337.237,2.194a74.737,74.737,0,0,1,.461,8.679c2.619,1.031,7.77.664,15.52-.78,1.345-.25,2.755-.53,4.385-.866,1.117-.23,4.8-1.005,5.421-1.135,1.938-.4,3.283-.661,4.386-.84.741-.119,1.05-.614.95-1.575a.21.21,0,0,1,.176-.23l4.506-.728a15.989,15.989,0,0,0,.586-5.746c-.207-1.047-.739-1.335-1.725-.933a11.523,11.523,0,0,1-3.8.281.4.4,0,0,1-.31-.181c-.046-.06-.356-.635-.5-.823a2.245,2.245,0,0,0-1.963-.838c-2.439,0-6.576-.052-13.832-.163l-1.263-.02c-9.718-.151-11.793-.181-13.459-.183A38.419,38.419,0,0,0,838.637,1868.925Z" fill="#fff"/>
        <path id="Shape-128" data-name="Shape" d="M909.463,1874.068a57.241,57.241,0,0,0-5.027,3.765,3.153,3.153,0,0,1-.931.4q-2.79.663-7.751-.7a.219.219,0,0,1-.107-.069c-3.222-3.9-3.717-6.407-1.309-7.389a25.942,25.942,0,0,0,2.78-1.366c.344-.19,1.479-.831,1.515-.851.58-.324,1.005-.552,1.405-.748a5.851,5.851,0,0,1,2.49-.746c1.376,0,5.474,1.232,12.357,3.707l.055.029c3.274,2.434,4.635,3.837,4.1,4.494-.484.6-2.477.21-6.208-1.1A11.5,11.5,0,0,0,909.463,1874.068Z" fill="#7a7a7a"/>
        <path id="Shape-129" data-name="Shape" d="M902.528,1866.781a5.5,5.5,0,0,0-2.3.7c-.392.193-.811.417-1.384.738-.035.019-1.171.661-1.517.852a26.207,26.207,0,0,1-2.825,1.387c-2.016.822-1.6,3,1.432,6.679q4.825,1.315,7.479.682a2.768,2.768,0,0,0,.808-.348,54.774,54.774,0,0,1,5.033-3.77,11.372,11.372,0,0,1,3.6-.642l.088.011c3.48,1.228,5.484,1.623,5.784,1.252.095-.118-.107-.513-.71-1.134a29.112,29.112,0,0,0-3.294-2.737C907.913,1868.009,903.83,1866.781,902.528,1866.781Z" fill="#fff"/>
        <path id="Shape-Copy" d="M902.528,1866.781a5.5,5.5,0,0,0-2.3.7c-.392.193-.811.417-1.384.738-.035.019-1.171.661-1.517.852a26.207,26.207,0,0,1-2.825,1.387c-2.016.822-1.6,3,1.432,6.679q4.825,1.315,7.479.682a2.768,2.768,0,0,0,.808-.348,54.774,54.774,0,0,1,5.033-3.77,11.372,11.372,0,0,1,3.6-.642l.088.011c3.48,1.228,5.484,1.623,5.784,1.252.095-.118-.107-.513-.71-1.134a29.112,29.112,0,0,0-3.294-2.737C907.913,1868.009,903.83,1866.781,902.528,1866.781Z" fill="#fff"/>
        <path id="Shape-130" data-name="Shape" d="M815.741,1846.381a15.819,15.819,0,0,1,9.848,2.806c9.5,6.081,22.068,20.869,26.9,21.982s26.465-1.577,35.241-1.577c2.364,0,2.383,1.832,2.778,1.842a11.665,11.665,0,0,0,3.712-.265q3.325-1.356,1.392,7.06l-4.646.75q.167,1.6-1.126,1.806c-18.362,2.965-27.216,9.443-39.368,8.333s-20.158-5.056-28.108-9.582c-5.839-3.324-13.522-6.785-16.49-12.995" fill="#fff"/>
        <path id="Shape-131" data-name="Shape" d="M896.023,1872.3c-.207-1.047-.739-1.335-1.725-.933a11.523,11.523,0,0,1-3.8.281.4.4,0,0,1-.31-.18c-.046-.061-.356-.636-.5-.824a2.245,2.245,0,0,0-1.963-.838c-3.005,0-6.245.211-15.4.923l-.827.064c-11.648.9-16.722,1.123-19.059.584-1.405-.323-3.434-1.717-6.376-4.256-1.174-1.013-2.462-2.179-4.2-3.785-.493-.456-3.641-3.392-4.58-4.259-1.2-1.111-2.248-2.061-3.245-2.947a71.184,71.184,0,0,0-8.569-6.762,15.62,15.62,0,0,0-9.715-2.774.211.211,0,1,1-.038-.42,16.039,16.039,0,0,1,9.98,2.838,71.848,71.848,0,0,1,8.622,6.8c1,.889,2.045,1.841,3.25,2.953.94.868,4.089,3.8,4.58,4.259,1.73,1.6,3.015,2.766,4.185,3.776,2.887,2.492,4.882,3.862,6.2,4.165,2.272.523,7.368.3,18.932-.594l.827-.064c9.172-.713,12.414-.924,15.435-.924a2.659,2.659,0,0,1,2.3,1c.17.223.478.8.5.821a11.131,11.131,0,0,0,3.616-.233,1.491,1.491,0,0,1,2.3,1.241,16.585,16.585,0,0,1-.62,6.061.213.213,0,0,1-.172.161l-4.455.719a1.536,1.536,0,0,1-1.318,1.837,113.068,113.068,0,0,0-14.954,3.512c-1.609.482-7,2.171-8.088,2.5a66.912,66.912,0,0,1-7.369,1.859,32.6,32.6,0,0,1-9.01.465c-10.516-.961-17.789-3.685-28.192-9.608-.823-.468-4.324-2.388-5.215-2.893-6.033-3.423-9.5-6.3-11.361-10.194a.211.211,0,1,1,.38-.182c1.813,3.8,5.226,6.626,11.188,10.009.887.5,4.389,2.423,5.216,2.894,10.356,5.9,17.576,8.6,28.023,9.555a32.289,32.289,0,0,0,8.9-.46,66.652,66.652,0,0,0,7.323-1.849c1.085-.326,6.476-2.015,8.089-2.5a113.408,113.408,0,0,1,15.007-3.524c.742-.12,1.051-.615.951-1.576a.21.21,0,0,1,.176-.23l4.506-.728A16.013,16.013,0,0,0,896.023,1872.3Z" fill="#7a7a7a"/>
        <path id="Shape-132" data-name="Shape" d="M890.107,1871.588a.211.211,0,1,1,.413-.084,19.148,19.148,0,0,1,.485,5.734.21.21,0,1,1-.418-.047A18.792,18.792,0,0,0,890.107,1871.588Z" fill="#7a7a7a"/>
        <path id="Shape-133" data-name="Shape" d="M869.366,1867.956a.21.21,0,0,1,.421,0v2.606a.21.21,0,1,1-.421,0Z" fill="#7a7a7a"/>
      </g>
    </g>
    <g id="geometric-">
      <path id="Shape-134" data-name="Shape" d="M819.632,1885.753h68.61l8.783,8.527-68.905,67.363-8.487-7.54Z" fill="#fee299"/>
      <path id="Shape-135" data-name="Shape" d="M827.75,1894.214h68.733a.212.212,0,0,1,.149.362L827.9,1963.42a.212.212,0,0,1-.361-.15v-68.844A.212.212,0,0,1,827.75,1894.214Z" fill="#7a7a7a"/>
      <path id="Shape-136" data-name="Shape" d="M827.961,1894.638v68.12l68.011-68.12Z" fill="#fff"/>
    </g>
    <g id="Board-Writing">
      <g id="Group_55" data-name="Group 55">
        <path id="Shape-137" data-name="Shape" d="M875.687,1668.173a.2.2,0,1,1,0-.4h26.247a.2.2,0,1,1,0,.4Z" fill="#7a7a7a"/>
        <path id="Shape-138" data-name="Shape" d="M875.73,1675.793c-.166,0-.3-.09-.3-.2s.135-.2.3-.2H993.14c.166,0,.3.09.3.2s-.135.2-.3.2Z" fill="#7a7a7a"/>
        <g id="Shape-139" data-name="Shape">
          <path id="Path_45" data-name="Path 45" d="M875.856,1683.512c-.236,0-.427-.09-.427-.2s.191-.2.427-.2h132.38c.236,0,.427.09.427.2s-.191.2-.427.2Z" fill="#7a7a7a"/>
        </g>
        <g id="Shape-140" data-name="Shape">
          <path id="Path_46" data-name="Path 46" d="M875.83,1691.083c-.221,0-.4-.09-.4-.2s.18-.2.4-.2h140.49c.221,0,.4.09.4.2s-.18.2-.4.2Z" fill="#7a7a7a"/>
        </g>
        <g id="BotBody">
          <path id="Path_47" data-name="Path 47" d="M875.631,1699.135c-.111,0-.2-.181-.2-.4s.091-.4.2-.4h42.364c.112,0,.2.181.2.4s-.09.4-.2.4Z" fill="#7a7a7a"/>
        </g>
      </g>
    </g>
  </g>
</svg>
