<svg xmlns="http://www.w3.org/2000/svg" width="112.556" height="124.603" viewBox="0 0 112.556 124.603">
  <g id="Block-texture" transform="translate(-438.215 -3649.762)" opacity="0.5">
    <path id="Shape" d="M438.724,3774.365q-.506-5.347-.509-10.83a113.788,113.788,0,0,1,112.556-113.773v60.04a53.805,53.805,0,0,0-51.337,64.563Z" fill="#fee299"/>
    <path id="Shape-2" data-name="Shape" d="M442.888,3731.16a192.276,192.276,0,0,0,55.617,36.572q.066.844.157,1.683a193.336,193.336,0,0,1-56.236-36.653q.225-.8.462-1.6Zm1.983-6.059c1.05.495,2.225,1.055,3.566,1.7,1.437.691,7.667,3.71,9.312,4.5,8.817,4.249,15.714,7.443,22.847,10.5,6.9,2.963,13.411,5.518,19.6,7.657q-.193.72-.369,1.448c-6.266-2.161-12.845-4.742-19.825-7.737-7.156-3.071-14.071-6.274-22.906-10.531-1.647-.794-7.877-3.812-9.311-4.5-1.278-.616-2.4-1.153-3.415-1.63q.243-.708.5-1.412Zm59.333,13.987c-9.368-2.713-15.842-7.193-19.278-13.844-8.252-15.972-8.624-35.279-1.484-45.473,3.654-5.216,8.947-7.455,15.169-6.053,6.767,1.525,14.376,7.26,22.449,17.29a111.232,111.232,0,0,0,20.475,19.8q-.969.192-1.925.418a113.052,113.052,0,0,1-19.712-19.29c-15.047-18.693-28.019-21.617-35.234-11.316-6.791,9.7-6.43,28.42,1.587,43.937,3.257,6.3,9.5,10.583,18.664,13.183q-.365.666-.711,1.344Zm46.567-53.6c-11.827-6.794-22.206-16.449-30.912-29.459q-.468-.7-.942-1.389.75-.227,1.5-.444.34.5.68,1.006c8.392,12.541,18.348,21.906,29.672,28.564v1.722Z" fill="#fff"/>
  </g>
</svg>
