<svg xmlns="http://www.w3.org/2000/svg" width="122.001" height="121.816" viewBox="0 0 122.001 121.816">
  <path id="Shape" d="M1840.218,314.143l-48.738,48.664h-3.846l52.584-52.5Zm0,14.4-34.312,34.26h-3.846l38.158-38.1v3.841Zm0,14.4-19.886,19.856h-3.846l23.732-23.7Zm0,14.4-5.46,5.452h-3.847l9.307-9.293Zm0-58.028-63.576,63.48H1772.8l67.422-67.32v3.84Zm0-14.815-78.414,78.3h-3.846l82.26-82.135Zm0-14.815-93.252,93.11h-3.846l97.1-96.951Zm0-14.816-108.09,107.926h-3.846l111.936-111.766Zm-.927-13.89-121.074,120.89v-3.84l117.228-117.05Zm-14.838,0L1718.217,347.066v-3.84l102.39-102.235Zm-14.838,0-91.4,91.26V328.41l87.552-87.419Zm-14.837,0-76.561,76.444V313.6l72.714-72.6Zm-14.838,0-61.723,61.629v-3.841l57.876-57.788Zm-14.838,0L1718.217,287.8v-3.84l43.038-42.973Zm-14.838,0-32.047,32v-3.84l28.2-28.158Zm-14.838,0-17.209,17.182v-3.84l13.363-13.342Zm-14.838,0-2.371,2.367v-2.367Z" transform="translate(-1718.217 -240.991)" fill="#7a7a7a" opacity="0.3"/>
</svg>
