<svg xmlns="http://www.w3.org/2000/svg" width="79.138" height="71.93" viewBox="0 0 79.138 71.93">
  <g id="Block-texture" transform="translate(-1380.276 -662.938)" opacity="0.63">
    <path id="Shape" d="M1380.276,663.261q3.4-.321,6.879-.323a72.256,72.256,0,0,1,72.259,71.458h-38.133a34.174,34.174,0,0,0-41.005-32.592V663.261Z" fill="#fee299"/>
    <path id="Shape-2" data-name="Shape" d="M1444.19,701.3c-.964,4.292-4.6,9.116-10.967,14.232a70.5,70.5,0,0,0-12.2,12.492,34.563,34.563,0,0,1,.721,5.9h15.3a58.75,58.75,0,0,1,18.411-19.121l.469-.316a71.576,71.576,0,0,0-12.74-24.193l-2.845,1.377A8.807,8.807,0,0,1,1444.19,701.3Zm-37.124,6.481a.475.475,0,0,1-.48-.039,33.733,33.733,0,0,0-3.725-2.286.47.47,0,0,1-.233-.545c1.712-5.994,4.568-10.148,8.812-12.334,10.141-5.223,22.408-5.444,28.891-.906Zm31.3-16.2c-6.452-3.394-17.35-2.87-26.489,1.837-3.9,2.008-6.574,5.824-8.231,11.391a34.666,34.666,0,0,1,3.26,2.007Zm4.739-2.295a.473.473,0,0,1,.574.128,72.5,72.5,0,0,1,13.245,25.139.47.47,0,0,1-.186.522q-.378.258-.762.515a57.75,57.75,0,0,0-18.257,19.046.473.473,0,0,1-.409.235h-16.026a.473.473,0,0,1-.472-.461,33.561,33.561,0,0,0-.76-6.393.471.471,0,0,1,.084-.382,71.416,71.416,0,0,1,12.5-12.833c11.866-9.534,13.713-17.766,7.161-22.354a13.187,13.187,0,0,0-1.427-.867Zm-41.32-3.808c1.465-3.271,2.972-6.487,4.862-10.414.339-.7.681-1.413,1.113-2.3.071-.148.83-1.716,1.044-2.157.687-1.421,1.177-2.442,1.6-3.342q-1.544-.528-3.111-.985a121.5,121.5,0,0,0-22.657,34.459q1.253-.09,2.518-.09a34.765,34.765,0,0,1,8.132.959C1397.038,696.56,1399.2,691.248,1401.782,685.475Zm-6.306,17.143a33.764,33.764,0,0,0-8.321-1.035q-1.618,0-3.215.152a.472.472,0,0,1-.48-.653,122.362,122.362,0,0,1,23.338-35.664.474.474,0,0,1,.478-.133q1.987.572,3.937,1.254a.471.471,0,0,1,.271.645c-.482,1.024-1.02,2.146-1.832,3.824-.213.442-.972,2.009-1.044,2.158-.431.891-.773,1.6-1.112,2.3-1.886,3.921-3.39,7.129-4.851,10.391-2.643,5.9-4.836,11.314-6.6,16.442l0,.013A.475.475,0,0,1,1395.476,702.618Z" fill="#fff"/>
  </g>
</svg>
