<svg xmlns="http://www.w3.org/2000/svg" width="80.696" height="79.622" viewBox="0 0 80.696 79.622">
  <g id="geometric-" transform="translate(-657.608 -1679.199)">
    <path id="Shape" d="M705.324,1745.91a33.357,33.357,0,1,1,32.98-33.465A33.225,33.225,0,0,1,705.324,1745.91Zm0-1.267a32.09,32.09,0,1,0-31.932-31.983A31.957,31.957,0,0,0,705.32,1744.643Z" fill="#7a7a7a"/>
    <path id="Shape-2" data-name="Shape" d="M695.25,1758.821a37.79,37.79,0,1,1,37.391-37.913A37.653,37.653,0,0,1,695.25,1758.821Zm-.043-12.864a24.925,24.925,0,1,0-24.827-24.843A24.836,24.836,0,0,0,695.207,1745.957Z" fill="#fee299"/>
  </g>
</svg>
