<svg xmlns="http://www.w3.org/2000/svg" width="169.725" height="123.842" viewBox="0 0 169.725 123.842">
  <path id="Shape" d="M343.931,2642.587a3.328,3.328,0,1,1-3.328-3.347A3.338,3.338,0,0,1,343.931,2642.587Zm23.3,0a3.328,3.328,0,1,1-3.328-3.347A3.338,3.338,0,0,1,367.227,2642.587Zm-23.3-23.429a3.328,3.328,0,1,1-3.328-3.347A3.337,3.337,0,0,1,343.931,2619.158Zm23.3,0a3.328,3.328,0,1,1-3.328-3.347A3.337,3.337,0,0,1,367.227,2619.158Zm-23.3-23.429a3.328,3.328,0,1,1-3.328-3.347A3.338,3.338,0,0,1,343.931,2595.729Zm23.3,0a3.328,3.328,0,1,1-3.328-3.347A3.338,3.338,0,0,1,367.227,2595.729Zm-23.3-23.43a3.328,3.328,0,1,1-3.328-3.347A3.337,3.337,0,0,1,343.931,2572.3Zm23.3,0a3.328,3.328,0,1,1-3.328-3.347A3.337,3.337,0,0,1,367.227,2572.3Zm-23.3-23.429a3.328,3.328,0,1,1-3.328-3.347A3.338,3.338,0,0,1,343.931,2548.87Zm23.3,0a3.328,3.328,0,1,1-3.328-3.347A3.338,3.338,0,0,1,367.227,2548.87Zm-23.3-23.43a3.328,3.328,0,1,1-3.328-3.347A3.337,3.337,0,0,1,343.931,2525.44Zm23.3,0a3.328,3.328,0,1,1-3.328-3.347A3.337,3.337,0,0,1,367.227,2525.44Zm23.3,117.147a3.328,3.328,0,1,1-3.328-3.347A3.338,3.338,0,0,1,390.522,2642.587Zm23.3,0a3.328,3.328,0,1,1-3.328-3.347A3.338,3.338,0,0,1,413.818,2642.587Zm-23.3-23.429a3.328,3.328,0,1,1-3.328-3.347A3.337,3.337,0,0,1,390.522,2619.158Zm23.3,0a3.328,3.328,0,1,1-3.328-3.347A3.337,3.337,0,0,1,413.818,2619.158Zm-23.3-23.429a3.328,3.328,0,1,1-3.328-3.347A3.338,3.338,0,0,1,390.522,2595.729Zm23.3,0a3.328,3.328,0,1,1-3.328-3.347A3.338,3.338,0,0,1,413.818,2595.729Zm-23.3-23.43a3.328,3.328,0,1,1-3.328-3.347A3.337,3.337,0,0,1,390.522,2572.3Zm23.3,0a3.328,3.328,0,1,1-3.328-3.347A3.337,3.337,0,0,1,413.818,2572.3Zm-23.3-23.429a3.328,3.328,0,1,1-3.328-3.347A3.338,3.338,0,0,1,390.522,2548.87Zm23.3,0a3.328,3.328,0,1,1-3.328-3.347A3.338,3.338,0,0,1,413.818,2548.87Zm-23.3-23.43a3.328,3.328,0,1,1-3.328-3.347A3.337,3.337,0,0,1,390.522,2525.44Zm23.3,0a3.328,3.328,0,1,1-3.328-3.347A3.337,3.337,0,0,1,413.818,2525.44Zm23.3,117.147a3.328,3.328,0,1,1-3.328-3.347A3.338,3.338,0,0,1,437.113,2642.587Zm23.3,0a3.328,3.328,0,1,1-3.328-3.347A3.338,3.338,0,0,1,460.409,2642.587Zm-23.3-23.429a3.328,3.328,0,1,1-3.328-3.347A3.337,3.337,0,0,1,437.113,2619.158Zm23.3,0a3.328,3.328,0,1,1-3.328-3.347A3.337,3.337,0,0,1,460.409,2619.158Zm-23.3-23.429a3.328,3.328,0,1,1-3.328-3.347A3.338,3.338,0,0,1,437.113,2595.729Zm23.3,0a3.328,3.328,0,1,1-3.328-3.347A3.338,3.338,0,0,1,460.409,2595.729Zm-23.3-23.43a3.328,3.328,0,1,1-3.328-3.347A3.337,3.337,0,0,1,437.113,2572.3Zm23.3,0a3.328,3.328,0,1,1-3.328-3.347A3.337,3.337,0,0,1,460.409,2572.3Zm-23.3-23.429a3.328,3.328,0,1,1-3.328-3.347A3.338,3.338,0,0,1,437.113,2548.87Zm23.3,0a3.328,3.328,0,1,1-3.328-3.347A3.338,3.338,0,0,1,460.409,2548.87Zm-23.3-23.43a3.328,3.328,0,1,1-3.328-3.347A3.337,3.337,0,0,1,437.113,2525.44Zm23.3,0a3.328,3.328,0,1,1-3.328-3.347A3.337,3.337,0,0,1,460.409,2525.44Zm23.3,117.147a3.328,3.328,0,1,1-3.327-3.347A3.337,3.337,0,0,1,483.7,2642.587Zm23.3,0a3.328,3.328,0,1,1-3.328-3.347A3.338,3.338,0,0,1,507,2642.587Zm-23.3-23.429a3.328,3.328,0,1,1-3.327-3.347A3.336,3.336,0,0,1,483.7,2619.158Zm23.3,0a3.328,3.328,0,1,1-3.328-3.347A3.337,3.337,0,0,1,507,2619.158Zm-23.3-23.429a3.328,3.328,0,1,1-3.327-3.347A3.337,3.337,0,0,1,483.7,2595.729Zm23.3,0a3.328,3.328,0,1,1-3.328-3.347A3.338,3.338,0,0,1,507,2595.729Zm-23.3-23.43a3.328,3.328,0,1,1-3.327-3.347A3.336,3.336,0,0,1,483.7,2572.3Zm23.3,0a3.328,3.328,0,1,1-3.328-3.347A3.337,3.337,0,0,1,507,2572.3Zm-23.3-23.429a3.328,3.328,0,1,1-3.327-3.347A3.337,3.337,0,0,1,483.7,2548.87Zm23.3,0a3.328,3.328,0,1,1-3.328-3.347A3.338,3.338,0,0,1,507,2548.87Zm-23.3-23.43a3.328,3.328,0,1,1-3.327-3.347A3.336,3.336,0,0,1,483.7,2525.44Zm23.3,0a3.328,3.328,0,1,1-3.328-3.347A3.337,3.337,0,0,1,507,2525.44Z" transform="translate(-337.275 -2522.093)" fill="#7a7a7a" opacity="0.7"/>
</svg>
