<svg xmlns="http://www.w3.org/2000/svg" width="201.308" height="167.31" viewBox="0 0 201.308 167.31">
  <g id="Group_7" data-name="Group 7" transform="translate(-588.457 -1702)">
    <g id="Group_3" data-name="Group 3" opacity="0.56">
      <path id="Path_2" data-name="Path 2" d="M594.3,1770.011c9.926-39.025,135.441-83.93,181.517-62.437,27.015,12.6,10.5,34.725-13.352,65.251-24.3,31.1-19.288,40.468-25.333,64.205-8.1,31.791-39.5,42.585-85.577,21.091S585.285,1805.478,594.3,1770.011Z" fill="#347d6a"/>
    </g>
    <g id="Group_6" data-name="Group 6">
      <g id="Group_5" data-name="Group 5">
        <g id="Group_4" data-name="Group 4" opacity="0.56">
          <path id="Path_3" data-name="Path 3" d="M723.606,1864.1c-39.46,8.029-134.469-85.48-135.145-136.318-.4-29.807,26.706-24.554,64.566-16.345,38.569,8.363,44.828-.225,68.833-5.1,32.15-6.53,55.523,17.058,56.2,67.9S759.467,1856.8,723.606,1864.1Z" fill="#347d6a"/>
        </g>
      </g>
    </g>
  </g>
</svg>
