<svg xmlns="http://www.w3.org/2000/svg" width="210.322" height="411.475" viewBox="0 0 210.322 411.475">
  <g id="Group_204" data-name="Group 204" transform="translate(-1424.001 -3216.13)">
    <path id="Shape" d="M1428.141,3426.563a4.1,4.1,0,1,1,4.127-4.1A4.114,4.114,0,0,1,1428.141,3426.563Zm0,28.72a4.1,4.1,0,1,1,4.127-4.1A4.114,4.114,0,0,1,1428.141,3455.283Zm28.885,0a4.1,4.1,0,1,1,4.127-4.1A4.114,4.114,0,0,1,1457.026,3455.283ZM1428.141,3484a4.1,4.1,0,1,1,4.127-4.1A4.114,4.114,0,0,1,1428.141,3484Zm0,28.721a4.1,4.1,0,1,1,4.127-4.1A4.115,4.115,0,0,1,1428.141,3512.724ZM1457.026,3484a4.1,4.1,0,1,1,4.127-4.1A4.114,4.114,0,0,1,1457.026,3484Zm0,28.721a4.1,4.1,0,1,1,4.127-4.1A4.114,4.114,0,0,1,1457.026,3512.724ZM1485.912,3484a4.1,4.1,0,1,1,4.126-4.1A4.115,4.115,0,0,1,1485.912,3484Zm0,28.721a4.1,4.1,0,1,1,4.126-4.1A4.115,4.115,0,0,1,1485.912,3512.724Zm28.885,0a4.1,4.1,0,1,1,4.127-4.1A4.114,4.114,0,0,1,1514.8,3512.724Zm-86.656,28.72a4.1,4.1,0,1,1,4.127-4.1A4.115,4.115,0,0,1,1428.141,3541.444Zm0,28.72a4.1,4.1,0,1,1,4.127-4.1A4.114,4.114,0,0,1,1428.141,3570.164Zm28.885-28.72a4.1,4.1,0,1,1,4.127-4.1A4.114,4.114,0,0,1,1457.026,3541.444Zm0,28.72a4.1,4.1,0,1,1,4.127-4.1A4.114,4.114,0,0,1,1457.026,3570.164Zm28.886-28.72a4.1,4.1,0,1,1,4.126-4.1A4.115,4.115,0,0,1,1485.912,3541.444Zm0,28.72a4.1,4.1,0,1,1,4.126-4.1A4.115,4.115,0,0,1,1485.912,3570.164Zm28.885-28.72a4.1,4.1,0,1,1,4.127-4.1A4.114,4.114,0,0,1,1514.8,3541.444Zm0,28.72a4.1,4.1,0,1,1,4.127-4.1A4.114,4.114,0,0,1,1514.8,3570.164Zm28.886-28.72a4.1,4.1,0,1,1,4.126-4.1A4.115,4.115,0,0,1,1543.683,3541.444Zm0,28.72a4.1,4.1,0,1,1,4.126-4.1A4.115,4.115,0,0,1,1543.683,3570.164Zm28.885,0a4.1,4.1,0,1,1,4.127-4.1A4.114,4.114,0,0,1,1572.568,3570.164Zm-144.427,28.721a4.1,4.1,0,1,1,4.127-4.1A4.114,4.114,0,0,1,1428.141,3598.885Zm0,28.72a4.1,4.1,0,1,1,4.127-4.1A4.114,4.114,0,0,1,1428.141,3627.6Zm28.885-28.72a4.1,4.1,0,1,1,4.127-4.1A4.114,4.114,0,0,1,1457.026,3598.885Zm0,28.72a4.1,4.1,0,1,1,4.127-4.1A4.114,4.114,0,0,1,1457.026,3627.6Zm28.886-28.72a4.1,4.1,0,1,1,4.126-4.1A4.115,4.115,0,0,1,1485.912,3598.885Zm0,28.72a4.1,4.1,0,1,1,4.126-4.1A4.115,4.115,0,0,1,1485.912,3627.6Zm28.885-28.72a4.1,4.1,0,1,1,4.127-4.1A4.114,4.114,0,0,1,1514.8,3598.885Zm0,28.72a4.1,4.1,0,1,1,4.127-4.1A4.114,4.114,0,0,1,1514.8,3627.6Zm28.886-28.72a4.1,4.1,0,1,1,4.126-4.1A4.115,4.115,0,0,1,1543.683,3598.885Zm0,28.72a4.1,4.1,0,1,1,4.126-4.1A4.115,4.115,0,0,1,1543.683,3627.6Zm28.885-28.72a4.1,4.1,0,1,1,4.127-4.1A4.114,4.114,0,0,1,1572.568,3598.885Zm0,28.72a4.1,4.1,0,1,1,4.127-4.1A4.114,4.114,0,0,1,1572.568,3627.6Zm28.814-28.72a4.1,4.1,0,1,1,4.127-4.1A4.114,4.114,0,0,1,1601.382,3598.885Zm0,28.72a4.1,4.1,0,1,1,4.127-4.1A4.114,4.114,0,0,1,1601.382,3627.6Zm28.814,0a4.1,4.1,0,1,1,4.127-4.1A4.114,4.114,0,0,1,1630.2,3627.6Z" fill="#347d6a" opacity="0.05"/>
    <path id="Shape-2" data-name="Shape" d="M1625.043,3220.256a4.1,4.1,0,1,1,4.1,4.127A4.115,4.115,0,0,1,1625.043,3220.256Zm-28.72,0a4.1,4.1,0,1,1,4.1,4.127A4.115,4.115,0,0,1,1596.323,3220.256Zm0,28.886a4.1,4.1,0,1,1,4.1,4.126A4.115,4.115,0,0,1,1596.323,3249.142Zm-28.721-28.886a4.1,4.1,0,1,1,4.1,4.127A4.114,4.114,0,0,1,1567.6,3220.256Zm-28.72,0a4.1,4.1,0,1,1,4.1,4.127A4.115,4.115,0,0,1,1538.882,3220.256Zm28.72,28.886a4.1,4.1,0,1,1,4.1,4.126A4.115,4.115,0,0,1,1567.6,3249.142Zm-28.72,0a4.1,4.1,0,1,1,4.1,4.126A4.115,4.115,0,0,1,1538.882,3249.142Zm28.72,28.885a4.1,4.1,0,1,1,4.1,4.127A4.114,4.114,0,0,1,1567.6,3278.027Zm-28.72,0a4.1,4.1,0,1,1,4.1,4.127A4.115,4.115,0,0,1,1538.882,3278.027Zm0,28.886a4.1,4.1,0,1,1,4.1,4.126A4.115,4.115,0,0,1,1538.882,3306.913Zm-28.72-86.657a4.1,4.1,0,1,1,4.1,4.127A4.115,4.115,0,0,1,1510.162,3220.256Zm-28.721,0a4.1,4.1,0,1,1,4.1,4.127A4.114,4.114,0,0,1,1481.441,3220.256Zm28.721,28.886a4.1,4.1,0,1,1,4.1,4.126A4.115,4.115,0,0,1,1510.162,3249.142Zm-28.721,0a4.1,4.1,0,1,1,4.1,4.126A4.115,4.115,0,0,1,1481.441,3249.142Zm28.721,28.885a4.1,4.1,0,1,1,4.1,4.127A4.115,4.115,0,0,1,1510.162,3278.027Zm-28.721,0a4.1,4.1,0,1,1,4.1,4.127A4.114,4.114,0,0,1,1481.441,3278.027Zm28.721,28.886a4.1,4.1,0,1,1,4.1,4.126A4.115,4.115,0,0,1,1510.162,3306.913Zm-28.721,0a4.1,4.1,0,1,1,4.1,4.126A4.115,4.115,0,0,1,1481.441,3306.913Zm28.721,28.885a4.1,4.1,0,1,1,4.1,4.127A4.114,4.114,0,0,1,1510.162,3335.8Zm-28.721,0a4.1,4.1,0,1,1,4.1,4.127A4.114,4.114,0,0,1,1481.441,3335.8Zm0,28.886a4.1,4.1,0,1,1,4.1,4.126A4.115,4.115,0,0,1,1481.441,3364.684Zm-28.72-144.428a4.1,4.1,0,1,1,4.1,4.127A4.115,4.115,0,0,1,1452.721,3220.256Zm-28.72,0a4.1,4.1,0,1,1,4.1,4.127A4.115,4.115,0,0,1,1424,3220.256Zm28.72,28.886a4.1,4.1,0,1,1,4.1,4.126A4.115,4.115,0,0,1,1452.721,3249.142Zm-28.72,0a4.1,4.1,0,1,1,4.1,4.126A4.115,4.115,0,0,1,1424,3249.142Zm28.72,28.885a4.1,4.1,0,1,1,4.1,4.127A4.115,4.115,0,0,1,1452.721,3278.027Zm-28.72,0a4.1,4.1,0,1,1,4.1,4.127A4.115,4.115,0,0,1,1424,3278.027Zm28.72,28.886a4.1,4.1,0,1,1,4.1,4.126A4.115,4.115,0,0,1,1452.721,3306.913Zm-28.72,0a4.1,4.1,0,1,1,4.1,4.126A4.115,4.115,0,0,1,1424,3306.913Zm28.72,28.885a4.1,4.1,0,1,1,4.1,4.127A4.114,4.114,0,0,1,1452.721,3335.8Zm-28.72,0a4.1,4.1,0,1,1,4.1,4.127A4.114,4.114,0,0,1,1424,3335.8Zm28.72,28.886a4.1,4.1,0,1,1,4.1,4.126A4.115,4.115,0,0,1,1452.721,3364.684Zm-28.72,0a4.1,4.1,0,1,1,4.1,4.126A4.115,4.115,0,0,1,1424,3364.684Zm28.72,28.813a4.1,4.1,0,1,1,4.1,4.127A4.115,4.115,0,0,1,1452.721,3393.5Zm-28.72,0a4.1,4.1,0,1,1,4.1,4.127A4.115,4.115,0,0,1,1424,3393.5Z" fill="#347d6a" opacity="0.05"/>
  </g>
</svg>
