<svg xmlns="http://www.w3.org/2000/svg" width="250.664" height="205.536" viewBox="0 0 250.664 205.536">
  <g id="geometric-" transform="translate(-1617.72 -1575.56)" opacity="0.7">
    <path id="Shape" d="M1712.873,1708.593c-36.446.12-66.086-29.564-66.208-66.3s29.322-66.615,65.768-66.735,66.086,29.563,66.208,66.3S1749.319,1708.472,1712.873,1708.593Zm-.008-2.526c35.049-.116,63.371-28.858,63.254-64.2s-28.629-63.9-63.678-63.78-63.371,28.858-63.254,64.2S1677.815,1706.183,1712.865,1706.067Z" fill="#7a7a7a"/>
    <path id="Shape-2" data-name="Shape" d="M1692.784,1734.34c-41.319.137-74.926-33.491-75.064-75.11s33.246-75.468,74.564-75.6,74.927,33.491,75.064,75.11S1734.1,1734.2,1692.784,1734.34Zm-.085-25.654a49.705,49.705,0,1,0-49.511-49.54A49.525,49.525,0,0,0,1692.7,1708.686Z" fill="#fee299"/>
    <path id="Shape-3" data-name="Shape" d="M1705.315,1777.749a3.328,3.328,0,1,1-3.328-3.347A3.338,3.338,0,0,1,1705.315,1777.749Zm23.3,0a3.328,3.328,0,1,1-3.328-3.347A3.338,3.338,0,0,1,1728.61,1777.749Zm-23.3-23.43a3.328,3.328,0,1,1-3.328-3.347A3.337,3.337,0,0,1,1705.315,1754.319Zm23.3,0a3.328,3.328,0,1,1-3.328-3.347A3.337,3.337,0,0,1,1728.61,1754.319Zm-23.3-23.429a3.328,3.328,0,1,1-3.328-3.347A3.338,3.338,0,0,1,1705.315,1730.89Zm23.3,0a3.328,3.328,0,1,1-3.328-3.347A3.338,3.338,0,0,1,1728.61,1730.89Zm-23.3-23.43a3.328,3.328,0,1,1-3.328-3.347A3.337,3.337,0,0,1,1705.315,1707.46Zm23.3,0a3.328,3.328,0,1,1-3.328-3.347A3.337,3.337,0,0,1,1728.61,1707.46Zm-23.3-23.429a3.328,3.328,0,1,1-3.328-3.347A3.338,3.338,0,0,1,1705.315,1684.031Zm23.3,0a3.328,3.328,0,1,1-3.328-3.347A3.338,3.338,0,0,1,1728.61,1684.031Zm-23.3-23.43a3.328,3.328,0,1,1-3.328-3.347A3.337,3.337,0,0,1,1705.315,1660.6Zm23.3,0a3.328,3.328,0,1,1-3.328-3.347A3.337,3.337,0,0,1,1728.61,1660.6Zm23.3,117.148a3.328,3.328,0,1,1-3.328-3.347A3.338,3.338,0,0,1,1751.906,1777.749Zm23.3,0a3.328,3.328,0,1,1-3.328-3.347A3.338,3.338,0,0,1,1775.2,1777.749Zm-23.3-23.43a3.328,3.328,0,1,1-3.328-3.347A3.337,3.337,0,0,1,1751.906,1754.319Zm23.3,0a3.328,3.328,0,1,1-3.328-3.347A3.337,3.337,0,0,1,1775.2,1754.319Zm-23.3-23.429a3.328,3.328,0,1,1-3.328-3.347A3.338,3.338,0,0,1,1751.906,1730.89Zm23.3,0a3.328,3.328,0,1,1-3.328-3.347A3.338,3.338,0,0,1,1775.2,1730.89Zm-23.3-23.43a3.328,3.328,0,1,1-3.328-3.347A3.337,3.337,0,0,1,1751.906,1707.46Zm23.3,0a3.328,3.328,0,1,1-3.328-3.347A3.337,3.337,0,0,1,1775.2,1707.46Zm-23.3-23.429a3.328,3.328,0,1,1-3.328-3.347A3.338,3.338,0,0,1,1751.906,1684.031Zm23.3,0a3.328,3.328,0,1,1-3.328-3.347A3.338,3.338,0,0,1,1775.2,1684.031Zm-23.3-23.43a3.328,3.328,0,1,1-3.328-3.347A3.337,3.337,0,0,1,1751.906,1660.6Zm23.3,0a3.328,3.328,0,1,1-3.328-3.347A3.337,3.337,0,0,1,1775.2,1660.6Zm23.3,117.148a3.328,3.328,0,1,1-3.328-3.347A3.338,3.338,0,0,1,1798.5,1777.749Zm23.3,0a3.328,3.328,0,1,1-3.327-3.347A3.337,3.337,0,0,1,1821.792,1777.749Zm-23.3-23.43a3.328,3.328,0,1,1-3.328-3.347A3.337,3.337,0,0,1,1798.5,1754.319Zm23.3,0a3.328,3.328,0,1,1-3.327-3.347A3.336,3.336,0,0,1,1821.792,1754.319Zm-23.3-23.429a3.328,3.328,0,1,1-3.328-3.347A3.338,3.338,0,0,1,1798.5,1730.89Zm23.3,0a3.328,3.328,0,1,1-3.327-3.347A3.337,3.337,0,0,1,1821.792,1730.89Zm-23.3-23.43a3.328,3.328,0,1,1-3.328-3.347A3.337,3.337,0,0,1,1798.5,1707.46Zm23.3,0a3.328,3.328,0,1,1-3.327-3.347A3.336,3.336,0,0,1,1821.792,1707.46Zm-23.3-23.429a3.328,3.328,0,1,1-3.328-3.347A3.338,3.338,0,0,1,1798.5,1684.031Zm23.3,0a3.328,3.328,0,1,1-3.327-3.347A3.337,3.337,0,0,1,1821.792,1684.031Zm-23.3-23.43a3.328,3.328,0,1,1-3.328-3.347A3.337,3.337,0,0,1,1798.5,1660.6Zm23.3,0a3.328,3.328,0,1,1-3.327-3.347A3.336,3.336,0,0,1,1821.792,1660.6Zm23.3,117.148a3.328,3.328,0,1,1-3.328-3.347A3.338,3.338,0,0,1,1845.088,1777.749Zm23.3,0a3.328,3.328,0,1,1-3.328-3.347A3.338,3.338,0,0,1,1868.384,1777.749Zm-23.3-23.43a3.328,3.328,0,1,1-3.328-3.347A3.337,3.337,0,0,1,1845.088,1754.319Zm23.3,0a3.328,3.328,0,1,1-3.328-3.347A3.337,3.337,0,0,1,1868.384,1754.319Zm-23.3-23.429a3.328,3.328,0,1,1-3.328-3.347A3.338,3.338,0,0,1,1845.088,1730.89Zm23.3,0a3.328,3.328,0,1,1-3.328-3.347A3.338,3.338,0,0,1,1868.384,1730.89Zm-23.3-23.43a3.328,3.328,0,1,1-3.328-3.347A3.337,3.337,0,0,1,1845.088,1707.46Zm23.3,0a3.328,3.328,0,1,1-3.328-3.347A3.337,3.337,0,0,1,1868.384,1707.46Zm-23.3-23.429a3.328,3.328,0,1,1-3.328-3.347A3.338,3.338,0,0,1,1845.088,1684.031Zm23.3,0a3.328,3.328,0,1,1-3.328-3.347A3.338,3.338,0,0,1,1868.384,1684.031Zm-23.3-23.43a3.328,3.328,0,1,1-3.328-3.347A3.337,3.337,0,0,1,1845.088,1660.6Zm23.3,0a3.328,3.328,0,1,1-3.328-3.347A3.337,3.337,0,0,1,1868.384,1660.6Z" fill="#7a7a7a" opacity="0.7"/>
  </g>
</svg>
