<svg xmlns="http://www.w3.org/2000/svg" width="76.316" height="104.901" viewBox="0 0 76.316 104.901">
  <path id="Shape" d="M1393.52,1723.223a2.156,2.156,0,1,1,2.143-2.155A2.149,2.149,0,0,1,1393.52,1723.223Zm0,14.37a2.156,2.156,0,1,1,2.143-2.155A2.149,2.149,0,0,1,1393.52,1737.593Zm14.488-14.37a2.156,2.156,0,1,1,2.143-2.155A2.149,2.149,0,0,1,1408.008,1723.223Zm0,14.37a2.156,2.156,0,1,1,2.143-2.155A2.149,2.149,0,0,1,1408.008,1737.593Zm14.284-14.37a2.156,2.156,0,1,1,2.142-2.155A2.149,2.149,0,0,1,1422.292,1723.223Zm0,14.37a2.156,2.156,0,1,1,2.142-2.155A2.149,2.149,0,0,1,1422.292,1737.593Zm14.488-14.37a2.156,2.156,0,1,1,2.142-2.155A2.15,2.15,0,0,1,1436.78,1723.223Zm0,14.37a2.156,2.156,0,1,1,2.142-2.155A2.15,2.15,0,0,1,1436.78,1737.593Zm14.284-14.37a2.156,2.156,0,1,1,2.142-2.155A2.149,2.149,0,0,1,1451.064,1723.223Zm0,14.37a2.156,2.156,0,1,1,2.142-2.155A2.149,2.149,0,0,1,1451.064,1737.593Zm14.488-14.37a2.156,2.156,0,1,1,2.142-2.155A2.149,2.149,0,0,1,1465.552,1723.223Zm0,14.37a2.156,2.156,0,1,1,2.142-2.155A2.149,2.149,0,0,1,1465.552,1737.593Zm-72.032,14.37a2.156,2.156,0,1,1,2.143-2.155A2.149,2.149,0,0,1,1393.52,1751.963Zm0,14.37a2.156,2.156,0,1,1,2.143-2.155A2.149,2.149,0,0,1,1393.52,1766.333Zm14.488-14.37a2.156,2.156,0,1,1,2.143-2.155A2.149,2.149,0,0,1,1408.008,1751.963Zm0,14.37a2.156,2.156,0,1,1,2.143-2.155A2.149,2.149,0,0,1,1408.008,1766.333Zm14.284-14.37a2.156,2.156,0,1,1,2.142-2.155A2.149,2.149,0,0,1,1422.292,1751.963Zm0,14.37a2.156,2.156,0,1,1,2.142-2.155A2.149,2.149,0,0,1,1422.292,1766.333Zm14.488-14.37a2.156,2.156,0,1,1,2.142-2.155A2.15,2.15,0,0,1,1436.78,1751.963Zm0,14.37a2.156,2.156,0,1,1,2.142-2.155A2.15,2.15,0,0,1,1436.78,1766.333Zm14.284-14.37a2.156,2.156,0,1,1,2.142-2.155A2.149,2.149,0,0,1,1451.064,1751.963Zm0,14.37a2.156,2.156,0,1,1,2.142-2.155A2.149,2.149,0,0,1,1451.064,1766.333Zm14.488-14.37a2.156,2.156,0,1,1,2.142-2.155A2.149,2.149,0,0,1,1465.552,1751.963Zm0,14.37a2.156,2.156,0,1,1,2.142-2.155A2.149,2.149,0,0,1,1465.552,1766.333Zm-72.032,14.37a2.156,2.156,0,1,1,2.143-2.155A2.149,2.149,0,0,1,1393.52,1780.7Zm0,14.37a2.156,2.156,0,1,1,2.143-2.155A2.149,2.149,0,0,1,1393.52,1795.073Zm14.488-14.37a2.156,2.156,0,1,1,2.143-2.155A2.149,2.149,0,0,1,1408.008,1780.7Zm0,14.37a2.156,2.156,0,1,1,2.143-2.155A2.149,2.149,0,0,1,1408.008,1795.073Zm14.284-14.37a2.156,2.156,0,1,1,2.142-2.155A2.149,2.149,0,0,1,1422.292,1780.7Zm0,14.37a2.156,2.156,0,1,1,2.142-2.155A2.149,2.149,0,0,1,1422.292,1795.073Zm14.488-14.37a2.156,2.156,0,1,1,2.142-2.155A2.15,2.15,0,0,1,1436.78,1780.7Zm0,14.37a2.156,2.156,0,1,1,2.142-2.155A2.15,2.15,0,0,1,1436.78,1795.073Zm14.284-14.37a2.156,2.156,0,1,1,2.142-2.155A2.149,2.149,0,0,1,1451.064,1780.7Zm0,14.37a2.156,2.156,0,1,1,2.142-2.155A2.149,2.149,0,0,1,1451.064,1795.073Zm14.488-14.37a2.156,2.156,0,1,1,2.142-2.155A2.149,2.149,0,0,1,1465.552,1780.7Zm0,14.37a2.156,2.156,0,1,1,2.142-2.155A2.149,2.149,0,0,1,1465.552,1795.073Zm-72.032,14.37a2.156,2.156,0,1,1,2.143-2.155A2.149,2.149,0,0,1,1393.52,1809.443Zm0,14.37a2.156,2.156,0,1,1,2.143-2.155A2.149,2.149,0,0,1,1393.52,1823.813Zm14.488-14.37a2.156,2.156,0,1,1,2.143-2.155A2.149,2.149,0,0,1,1408.008,1809.443Zm0,14.37a2.156,2.156,0,1,1,2.143-2.155A2.149,2.149,0,0,1,1408.008,1823.813Zm14.284-14.37a2.156,2.156,0,1,1,2.142-2.155A2.149,2.149,0,0,1,1422.292,1809.443Zm0,14.37a2.156,2.156,0,1,1,2.142-2.155A2.149,2.149,0,0,1,1422.292,1823.813Zm14.488-14.37a2.156,2.156,0,1,1,2.142-2.155A2.15,2.15,0,0,1,1436.78,1809.443Zm0,14.37a2.156,2.156,0,1,1,2.142-2.155A2.15,2.15,0,0,1,1436.78,1823.813Zm14.284-14.37a2.156,2.156,0,1,1,2.142-2.155A2.149,2.149,0,0,1,1451.064,1809.443Zm0,14.37a2.156,2.156,0,1,1,2.142-2.155A2.149,2.149,0,0,1,1451.064,1823.813Zm14.488-14.37a2.156,2.156,0,1,1,2.142-2.155A2.149,2.149,0,0,1,1465.552,1809.443Zm0,14.37a2.156,2.156,0,1,1,2.142-2.155A2.149,2.149,0,0,1,1465.552,1823.813Z" transform="translate(-1391.378 -1718.912)" fill="#7a7a7a"/>
</svg>
