<svg xmlns="http://www.w3.org/2000/svg" width="171.736" height="139.962" viewBox="0 0 171.736 139.962">
  <g id="Block-texture" transform="translate(-435.264 -369.776)">
    <path id="Shape" d="M435.7,370.208h91.266v91.127H435.7Z" fill="#347d6a" opacity="0.5"/>
    <path id="Shape-2" data-name="Shape" d="M436.128,445.374c4.995-.8,9.01-5.585,12.519-14.232,2.78-6.853,4.628-13.756,8.349-29.807l.149-.645c1.329-5.734,2.43-10.339,3.424-14.205q-10.4,6.258-24.441,13.777Zm29.687-75.332a.432.432,0,0,1,.4-.266h17.125a.432.432,0,0,1,.286.755q-7.436,6.559-23.056,15.954A116.272,116.272,0,0,1,465.815,370.042Zm16.367.6H466.5a108.667,108.667,0,0,0-4.56,14.006A165.29,165.29,0,0,0,482.182,370.639Zm-20.239,14.006c-1.133,4.26-2.384,9.457-3.956,16.239l-.15.646c-3.732,16.1-5.585,23.024-8.39,29.936-3.727,9.187-8.081,14.218-13.7,14.83a.431.431,0,0,1-.479-.428V400a.43.43,0,0,1,.228-.38Q450.909,391.372,461.943,384.645ZM518.481,460.9q3.99-1.935,8.049-3.776v-58.36a90.792,90.792,0,0,0-29.888-1.537c-11.589,1.49-19.515,6.094-24.885,13.671-4.235,5.976-6.621,12.941-9.09,24.491-.278,1.3-.3,1.384-1.02,4.89-2.2,10.644-3.58,15.753-6.037,20.621Zm-63.961.231c2.613-4.971,4.005-10,6.281-21.026.725-3.509.743-3.6,1.021-4.9,2.492-11.657,4.909-18.712,9.23-24.81,5.512-7.777,13.655-12.507,25.479-14.028A91.846,91.846,0,0,1,527.052,398a.431.431,0,0,1,.342.421v58.987a.433.433,0,0,1-.254.393q-4.224,1.911-8.371,3.924a.439.439,0,0,1-.189.043H454.9A.431.431,0,0,1,454.52,461.135Zm-18.392-6.988V460.9h1.313Zm1.837,7.619H435.7a.431.431,0,0,1-.432-.431V449.662a.432.432,0,0,1,.856-.082l2.269,11.673A.432.432,0,0,1,437.965,461.766Z" fill="#fff"/>
    <path id="Shape-3" data-name="Shape" d="M607,474.28l-35.511,35.458h-2.8L607,471.482Zm0,10.495-25,24.963h-2.8L607,481.977v2.8Zm0,10.495-14.49,14.468h-2.8L607,492.472Zm0,10.5-3.979,3.973h-2.8L607,502.967Zm0-42.279-46.323,46.252h-2.8L607,460.687v2.8Zm0-10.795-57.134,57.047h-2.8L607,449.893Zm0-10.8-67.945,67.842h-2.8L607,439.1Zm0-10.795-78.756,78.637h-2.8L607,428.3Zm-.675-10.12-88.217,88.083v-2.8l85.414-85.284Zm-10.811,0-77.406,77.288v-2.8l74.6-74.49Zm-10.812,0-66.594,66.493v-2.8l63.792-63.7Zm-10.811,0-55.783,55.7v-2.8l52.981-52.9Zm-10.811,0-44.972,44.9v-2.8l42.169-42.105Zm-10.811,0L518.108,455.09v-2.8l31.358-31.31Zm-10.812,0L518.108,444.3v-2.8l20.547-20.516Zm-10.811,0L518.108,433.5v-2.8l9.736-9.721Zm-10.811,0-1.727,1.724v-1.724Z" fill="#7a7a7a"/>
  </g>
</svg>
