<svg xmlns="http://www.w3.org/2000/svg" width="199.183" height="148.195" viewBox="0 0 199.183 148.195">
  <g id="Block-texture" transform="translate(-1299.339 -366)">
    <path id="Shape" d="M1367.312,406.8c-1.025,4.565-4.893,9.7-11.664,15.136a75.011,75.011,0,0,0-12.979,13.286,36.776,36.776,0,0,1,.768,6.274H1359.7a62.488,62.488,0,0,1,19.579-20.335c.168-.112.334-.224.5-.337a76.116,76.116,0,0,0-13.549-25.729l-3.026,1.465A9.366,9.366,0,0,1,1367.312,406.8Zm-39.482,6.893a.5.5,0,0,1-.51-.042,36.011,36.011,0,0,0-3.961-2.431.5.5,0,0,1-.249-.58c1.822-6.374,4.859-10.792,9.373-13.117,10.785-5.554,23.83-5.789,30.725-.963Zm33.285-17.233c-6.862-3.61-18.452-3.052-28.171,1.954-4.145,2.135-6.992,6.194-8.754,12.114a36.756,36.756,0,0,1,3.467,2.135Zm5.04-2.441a.5.5,0,0,1,.61.136,77.127,77.127,0,0,1,14.087,26.736.5.5,0,0,1-.2.555q-.4.274-.811.547a61.425,61.425,0,0,0-19.416,20.256.5.5,0,0,1-.435.25h-17.043a.5.5,0,0,1-.5-.49,35.685,35.685,0,0,0-.808-6.8.5.5,0,0,1,.089-.406,75.914,75.914,0,0,1,13.29-13.648c12.619-10.14,14.584-18.895,7.615-23.774a14.056,14.056,0,0,0-1.517-.922Zm-43.945-4.05c1.559-3.479,3.162-6.9,5.172-11.075.36-.749.724-1.5,1.183-2.451.076-.158.884-1.825,1.11-2.294.731-1.512,1.253-2.6,1.706-3.555q-1.641-.561-3.308-1.047a129.234,129.234,0,0,0-24.1,36.647q1.332-.1,2.678-.1a36.975,36.975,0,0,1,8.648,1.02C1317.166,401.757,1319.461,396.108,1322.21,389.968ZM1315.5,408.2a35.974,35.974,0,0,0-8.849-1.1q-1.722,0-3.42.16a.5.5,0,0,1-.51-.693,130.119,130.119,0,0,1,24.82-37.929.5.5,0,0,1,.508-.142q2.115.607,4.188,1.334a.5.5,0,0,1,.288.685c-.513,1.09-1.085,2.283-1.948,4.068l-1.11,2.294c-.459.949-.823,1.7-1.183,2.449-2.006,4.169-3.606,7.582-5.16,11.051-2.81,6.275-5.142,12.033-7.02,17.486l0,.013A.5.5,0,0,1,1315.5,408.2Z" fill="#fff"/>
    <path id="Shape-2" data-name="Shape" d="M1299.339,366.344q3.612-.342,7.316-.344a76.844,76.844,0,0,1,76.848,76h-40.554a36.349,36.349,0,0,0-43.61-34.662v-40.99Z" fill="#347d6a" opacity="0.5"/>
    <path id="Shape-3" data-name="Shape" d="M1433.277,512.856a1.332,1.332,0,1,1-1.332-1.339A1.336,1.336,0,0,1,1433.277,512.856Zm9.32,0a1.332,1.332,0,1,1-1.331-1.339A1.335,1.335,0,0,1,1442.6,512.856Zm-9.32-9.374a1.332,1.332,0,1,1-1.332-1.34A1.336,1.336,0,0,1,1433.277,503.482Zm9.32,0a1.332,1.332,0,1,1-1.331-1.34A1.335,1.335,0,0,1,1442.6,503.482Zm-9.32-9.375a1.332,1.332,0,1,1-1.332-1.339A1.336,1.336,0,0,1,1433.277,494.107Zm9.32,0a1.332,1.332,0,1,1-1.331-1.339A1.335,1.335,0,0,1,1442.6,494.107Zm-9.32-9.374a1.332,1.332,0,1,1-1.332-1.339A1.336,1.336,0,0,1,1433.277,484.733Zm9.32,0a1.332,1.332,0,1,1-1.331-1.339A1.335,1.335,0,0,1,1442.6,484.733Zm-9.32-9.374a1.332,1.332,0,1,1-1.332-1.34A1.336,1.336,0,0,1,1433.277,475.359Zm9.32,0a1.332,1.332,0,1,1-1.331-1.34A1.335,1.335,0,0,1,1442.6,475.359Zm-9.32-9.375a1.332,1.332,0,1,1-1.332-1.339A1.336,1.336,0,0,1,1433.277,465.984Zm9.32,0a1.332,1.332,0,1,1-1.331-1.339A1.336,1.336,0,0,1,1442.6,465.984Zm9.321,46.872a1.332,1.332,0,1,1-1.331-1.339A1.335,1.335,0,0,1,1451.918,512.856Zm9.321,0a1.332,1.332,0,1,1-1.332-1.339A1.335,1.335,0,0,1,1461.239,512.856Zm-9.321-9.374a1.332,1.332,0,1,1-1.331-1.34A1.335,1.335,0,0,1,1451.918,503.482Zm9.321,0a1.332,1.332,0,1,1-1.332-1.34A1.336,1.336,0,0,1,1461.239,503.482Zm-9.321-9.375a1.332,1.332,0,1,1-1.331-1.339A1.335,1.335,0,0,1,1451.918,494.107Zm9.321,0a1.332,1.332,0,1,1-1.332-1.339A1.335,1.335,0,0,1,1461.239,494.107Zm-9.321-9.374a1.332,1.332,0,1,1-1.331-1.339A1.335,1.335,0,0,1,1451.918,484.733Zm9.321,0a1.332,1.332,0,1,1-1.332-1.339A1.335,1.335,0,0,1,1461.239,484.733Zm-9.321-9.374a1.332,1.332,0,1,1-1.331-1.34A1.335,1.335,0,0,1,1451.918,475.359Zm9.321,0a1.332,1.332,0,1,1-1.332-1.34A1.336,1.336,0,0,1,1461.239,475.359Zm-9.321-9.375a1.332,1.332,0,1,1-1.331-1.339A1.336,1.336,0,0,1,1451.918,465.984Zm9.321,0a1.332,1.332,0,1,1-1.332-1.339A1.336,1.336,0,0,1,1461.239,465.984Zm9.321,46.872a1.332,1.332,0,1,1-1.332-1.339A1.336,1.336,0,0,1,1470.56,512.856Zm9.32,0a1.332,1.332,0,1,1-1.331-1.339A1.335,1.335,0,0,1,1479.88,512.856Zm-9.32-9.374a1.332,1.332,0,1,1-1.332-1.34A1.336,1.336,0,0,1,1470.56,503.482Zm9.32,0a1.332,1.332,0,1,1-1.331-1.34A1.335,1.335,0,0,1,1479.88,503.482Zm-9.32-9.375a1.332,1.332,0,1,1-1.332-1.339A1.336,1.336,0,0,1,1470.56,494.107Zm9.32,0a1.332,1.332,0,1,1-1.331-1.339A1.335,1.335,0,0,1,1479.88,494.107Zm-9.32-9.374a1.332,1.332,0,1,1-1.332-1.339A1.336,1.336,0,0,1,1470.56,484.733Zm9.32,0a1.332,1.332,0,1,1-1.331-1.339A1.335,1.335,0,0,1,1479.88,484.733Zm-9.32-9.374a1.332,1.332,0,1,1-1.332-1.34A1.336,1.336,0,0,1,1470.56,475.359Zm9.32,0a1.332,1.332,0,1,1-1.331-1.34A1.335,1.335,0,0,1,1479.88,475.359Zm-9.32-9.375a1.332,1.332,0,1,1-1.332-1.339A1.337,1.337,0,0,1,1470.56,465.984Zm9.32,0a1.332,1.332,0,1,1-1.331-1.339A1.336,1.336,0,0,1,1479.88,465.984Zm9.321,46.872a1.332,1.332,0,1,1-1.331-1.339A1.335,1.335,0,0,1,1489.2,512.856Zm9.321,0a1.332,1.332,0,1,1-1.332-1.339A1.335,1.335,0,0,1,1498.522,512.856Zm-9.321-9.374a1.332,1.332,0,1,1-1.331-1.34A1.335,1.335,0,0,1,1489.2,503.482Zm9.321,0a1.332,1.332,0,1,1-1.332-1.34A1.336,1.336,0,0,1,1498.522,503.482Zm-9.321-9.375a1.332,1.332,0,1,1-1.331-1.339A1.335,1.335,0,0,1,1489.2,494.107Zm9.321,0a1.332,1.332,0,1,1-1.332-1.339A1.335,1.335,0,0,1,1498.522,494.107Zm-9.321-9.374a1.332,1.332,0,1,1-1.331-1.339A1.335,1.335,0,0,1,1489.2,484.733Zm9.321,0a1.332,1.332,0,1,1-1.332-1.339A1.335,1.335,0,0,1,1498.522,484.733Zm-9.321-9.374a1.332,1.332,0,1,1-1.331-1.34A1.335,1.335,0,0,1,1489.2,475.359Zm9.321,0a1.332,1.332,0,1,1-1.332-1.34A1.336,1.336,0,0,1,1498.522,475.359Zm-9.321-9.375a1.332,1.332,0,1,1-1.331-1.339A1.336,1.336,0,0,1,1489.2,465.984Zm9.321,0a1.332,1.332,0,1,1-1.332-1.339A1.336,1.336,0,0,1,1498.522,465.984Z" fill="#7a7a7a"/>
  </g>
</svg>
