<svg xmlns="http://www.w3.org/2000/svg" width="232.954" height="189.852" viewBox="0 0 232.954 189.852">
  <g id="Block-texture" transform="translate(-404.655 -422.831)">
    <path id="Shape" d="M405.241,423.416h123.8V547.027h-123.8Z" fill="#fee299"/>
    <path id="Shape-2" data-name="Shape" d="M405.827,525.377c6.775-1.09,12.222-7.576,16.981-19.306,3.772-9.3,6.278-18.659,11.325-40.432l.2-.875c1.8-7.777,3.3-14.024,4.645-19.268q-14.112,8.488-33.154,18.688ZM446.1,423.192a.586.586,0,0,1,.541-.361h23.23a.585.585,0,0,1,.388,1.023q-10.084,8.9-31.274,21.642A157.805,157.805,0,0,1,446.1,423.192Zm22.2.809H447.03a147.136,147.136,0,0,0-6.185,19Q458.9,431.991,468.3,424Zm-27.452,19c-1.537,5.779-3.235,12.829-5.367,22.029l-.2.875c-5.063,21.839-7.577,31.232-11.381,40.607-5.056,12.462-10.961,19.286-18.59,20.117a.585.585,0,0,1-.649-.581V463.834a.586.586,0,0,1,.309-.516Q425.877,452.125,440.845,443Zm76.691,103.443q5.412-2.625,10.918-5.122V462.157a123.176,123.176,0,0,0-40.542-2.085c-15.72,2.022-26.471,8.266-33.755,18.544-5.745,8.107-8.981,17.555-12.331,33.221-.376,1.76-.4,1.878-1.383,6.633-2.981,14.438-4.857,21.368-8.189,27.972Zm-86.761.313c3.544-6.743,5.433-13.567,8.521-28.521.983-4.759,1.007-4.878,1.384-6.641,3.381-15.811,6.659-25.381,12.521-33.653,7.477-10.55,18.522-16.966,34.561-19.029a124.592,124.592,0,0,1,41.4,2.2.585.585,0,0,1,.463.572V541.7a.585.585,0,0,1-.345.533q-5.729,2.592-11.354,5.323a.6.6,0,0,1-.256.059H431.294A.585.585,0,0,1,430.775,546.755Zm-24.948-9.479v9.166h1.781Zm2.492,10.336h-3.078a.585.585,0,0,1-.586-.585V531.192a.586.586,0,0,1,1.161-.111l3.078,15.834A.586.586,0,0,1,408.319,547.612Z" fill="#fff"/>
    <path id="Shape-3" data-name="Shape" d="M637.609,564.587l-48.17,48.1h-3.8l51.971-51.892Zm0,14.236L603.7,612.683h-3.8l37.714-37.656v3.8Zm0,14.236-19.655,19.624h-3.8l23.456-23.42Zm0,14.236-5.4,5.388h-3.8l9.2-9.184Zm0-57.351-62.835,62.739h-3.8l66.636-66.535v3.8Zm0-14.643-77.5,77.382h-3.8l81.3-81.178Zm0-14.643-92.165,92.025h-3.8l95.966-95.82Zm0-14.642L530.779,612.683h-3.8L637.609,502.22Zm-.916-13.729L517.03,611.769v-3.8L632.891,492.287Zm-14.665,0-105,104.839v-3.8l101.2-101.043Zm-14.665,0-90.333,90.2v-3.795l86.531-86.4Zm-14.665,0L517.03,567.84v-3.8L588.9,492.287Zm-14.665,0-61,60.911v-3.8l57.2-57.115Zm-14.665,0L517.03,538.555v-3.8l42.536-42.472Zm-14.665,0L517.03,523.912v-3.795l27.871-27.83Zm-14.665,0L517.03,509.269v-3.8l13.206-13.187Zm-14.665,0-2.343,2.34v-2.34Z" fill="#7a7a7a"/>
  </g>
</svg>
