<svg xmlns="http://www.w3.org/2000/svg" width="259.139" height="192.803" viewBox="0 0 259.139 192.803">
  <g id="Block-texture" transform="translate(-1288.361 -407.696)">
    <path id="Shape" d="M1288.361,408.143q4.7-.444,9.517-.447a99.975,99.975,0,0,1,99.981,98.872H1345.1a47.287,47.287,0,0,0-56.736-45.1V408.143Z" fill="#fee299"/>
    <path id="Shape-2" data-name="Shape" d="M1376.794,460.776c-1.333,5.939-6.366,12.614-15.174,19.692a97.558,97.558,0,0,0-16.886,17.285,47.891,47.891,0,0,1,1,8.163H1366.9a81.291,81.291,0,0,1,25.473-26.457q.327-.218.651-.437a99.021,99.021,0,0,0-17.629-33.474l-3.935,1.906C1376.046,450.668,1378.019,455.317,1376.794,460.776Zm-51.366,8.968a.655.655,0,0,1-.664-.055,46.6,46.6,0,0,0-5.153-3.162.651.651,0,0,1-.323-.755c2.369-8.293,6.321-14.041,12.193-17.065,14.031-7.227,31-7.532,39.975-1.253Zm43.3-22.421c-8.927-4.7-24.006-3.971-36.651,2.542-5.393,2.778-9.1,8.058-11.389,15.761a47.919,47.919,0,0,1,4.511,2.777Zm6.557-3.175a.656.656,0,0,1,.794.176,100.338,100.338,0,0,1,18.327,34.784.651.651,0,0,1-.258.722q-.523.357-1.055.712a79.915,79.915,0,0,0-25.26,26.353.654.654,0,0,1-.565.325H1345.1a.653.653,0,0,1-.653-.637,46.585,46.585,0,0,0-1.051-8.846.651.651,0,0,1,.115-.528,98.8,98.8,0,0,1,17.291-17.757c16.418-13.191,18.974-24.581,9.907-30.93a18.443,18.443,0,0,0-1.974-1.2Zm-57.172-5.269c2.027-4.526,4.113-8.976,6.728-14.41.468-.973.942-1.954,1.539-3.188l1.445-2.985c.951-1.966,1.629-3.379,2.219-4.624q-2.134-.73-4.3-1.363a168.125,168.125,0,0,0-31.349,47.679q1.733-.125,3.483-.125a48.072,48.072,0,0,1,11.252,1.327C1311.554,454.216,1314.539,446.867,1318.117,438.879Zm-8.725,23.719a46.755,46.755,0,0,0-11.514-1.431q-2.238,0-4.448.209a.652.652,0,0,1-.664-.9,169.321,169.321,0,0,1,32.291-49.347.656.656,0,0,1,.662-.183q2.75.789,5.447,1.734a.651.651,0,0,1,.375.892c-.667,1.418-1.411,2.97-2.534,5.292-.295.611-1.345,2.78-1.445,2.985-.6,1.234-1.07,2.214-1.538,3.186-2.61,5.424-4.691,9.864-6.713,14.378-3.656,8.164-6.69,15.654-9.133,22.749l-.006.018A.654.654,0,0,1,1309.392,462.6Z" fill="#fff"/>
    <path id="Shape-3" data-name="Shape" d="M1462.615,598.757a1.733,1.733,0,1,1-1.732-1.742A1.737,1.737,0,0,1,1462.615,598.757Zm12.127,0a1.733,1.733,0,1,1-1.733-1.742A1.738,1.738,0,0,1,1474.742,598.757Zm-12.127-12.2a1.733,1.733,0,1,1-1.732-1.742A1.737,1.737,0,0,1,1462.615,586.561Zm12.127,0a1.733,1.733,0,1,1-1.733-1.742A1.738,1.738,0,0,1,1474.742,586.561Zm-12.127-12.2a1.733,1.733,0,1,1-1.732-1.742A1.737,1.737,0,0,1,1462.615,574.365Zm12.127,0a1.733,1.733,0,1,1-1.733-1.742A1.738,1.738,0,0,1,1474.742,574.365Zm-12.127-12.2a1.733,1.733,0,1,1-1.732-1.743A1.737,1.737,0,0,1,1462.615,562.169Zm12.127,0a1.733,1.733,0,1,1-1.733-1.743A1.738,1.738,0,0,1,1474.742,562.169Zm-12.127-12.2a1.733,1.733,0,1,1-1.732-1.743A1.737,1.737,0,0,1,1462.615,549.973Zm12.127,0a1.733,1.733,0,1,1-1.733-1.743A1.738,1.738,0,0,1,1474.742,549.973Zm-12.127-12.2a1.733,1.733,0,1,1-1.732-1.743A1.737,1.737,0,0,1,1462.615,537.777Zm12.127,0a1.733,1.733,0,1,1-1.733-1.743A1.738,1.738,0,0,1,1474.742,537.777Zm12.126,60.98a1.733,1.733,0,1,1-1.732-1.742A1.737,1.737,0,0,1,1486.868,598.757Zm12.126,0a1.732,1.732,0,1,1-1.732-1.742A1.737,1.737,0,0,1,1498.994,598.757Zm-12.126-12.2a1.733,1.733,0,1,1-1.732-1.742A1.737,1.737,0,0,1,1486.868,586.561Zm12.126,0a1.732,1.732,0,1,1-1.732-1.742A1.737,1.737,0,0,1,1498.994,586.561Zm-12.126-12.2a1.733,1.733,0,1,1-1.732-1.742A1.737,1.737,0,0,1,1486.868,574.365Zm12.126,0a1.732,1.732,0,1,1-1.732-1.742A1.737,1.737,0,0,1,1498.994,574.365Zm-12.126-12.2a1.733,1.733,0,1,1-1.732-1.743A1.737,1.737,0,0,1,1486.868,562.169Zm12.126,0a1.732,1.732,0,1,1-1.732-1.743A1.737,1.737,0,0,1,1498.994,562.169Zm-12.126-12.2a1.733,1.733,0,1,1-1.732-1.743A1.737,1.737,0,0,1,1486.868,549.973Zm12.126,0a1.732,1.732,0,1,1-1.732-1.743A1.737,1.737,0,0,1,1498.994,549.973Zm-12.126-12.2a1.733,1.733,0,1,1-1.732-1.743A1.737,1.737,0,0,1,1486.868,537.777Zm12.126,0a1.732,1.732,0,1,1-1.732-1.743A1.737,1.737,0,0,1,1498.994,537.777Zm12.127,60.98a1.733,1.733,0,1,1-1.733-1.742A1.738,1.738,0,0,1,1511.121,598.757Zm12.126,0a1.732,1.732,0,1,1-1.732-1.742A1.737,1.737,0,0,1,1523.247,598.757Zm-12.126-12.2a1.733,1.733,0,1,1-1.733-1.742A1.738,1.738,0,0,1,1511.121,586.561Zm12.126,0a1.732,1.732,0,1,1-1.732-1.742A1.737,1.737,0,0,1,1523.247,586.561Zm-12.126-12.2a1.733,1.733,0,1,1-1.733-1.742A1.738,1.738,0,0,1,1511.121,574.365Zm12.126,0a1.732,1.732,0,1,1-1.732-1.742A1.737,1.737,0,0,1,1523.247,574.365Zm-12.126-12.2a1.733,1.733,0,1,1-1.733-1.743A1.738,1.738,0,0,1,1511.121,562.169Zm12.126,0a1.732,1.732,0,1,1-1.732-1.743A1.737,1.737,0,0,1,1523.247,562.169Zm-12.126-12.2a1.733,1.733,0,1,1-1.733-1.743A1.738,1.738,0,0,1,1511.121,549.973Zm12.126,0a1.732,1.732,0,1,1-1.732-1.743A1.737,1.737,0,0,1,1523.247,549.973Zm-12.126-12.2a1.733,1.733,0,1,1-1.733-1.743A1.738,1.738,0,0,1,1511.121,537.777Zm12.126,0a1.732,1.732,0,1,1-1.732-1.743A1.737,1.737,0,0,1,1523.247,537.777Zm12.127,60.98a1.733,1.733,0,1,1-1.733-1.742A1.738,1.738,0,0,1,1535.374,598.757Zm12.126,0a1.733,1.733,0,1,1-1.732-1.742A1.737,1.737,0,0,1,1547.5,598.757Zm-12.126-12.2a1.733,1.733,0,1,1-1.733-1.742A1.738,1.738,0,0,1,1535.374,586.561Zm12.126,0a1.733,1.733,0,1,1-1.732-1.742A1.737,1.737,0,0,1,1547.5,586.561Zm-12.126-12.2a1.733,1.733,0,1,1-1.733-1.742A1.738,1.738,0,0,1,1535.374,574.365Zm12.126,0a1.733,1.733,0,1,1-1.732-1.742A1.737,1.737,0,0,1,1547.5,574.365Zm-12.126-12.2a1.733,1.733,0,1,1-1.733-1.743A1.738,1.738,0,0,1,1535.374,562.169Zm12.126,0a1.733,1.733,0,1,1-1.732-1.743A1.737,1.737,0,0,1,1547.5,562.169Zm-12.126-12.2a1.733,1.733,0,1,1-1.733-1.743A1.738,1.738,0,0,1,1535.374,549.973Zm12.126,0a1.733,1.733,0,1,1-1.732-1.743A1.737,1.737,0,0,1,1547.5,549.973Zm-12.126-12.2a1.733,1.733,0,1,1-1.733-1.743A1.738,1.738,0,0,1,1535.374,537.777Zm12.126,0a1.733,1.733,0,1,1-1.732-1.743A1.737,1.737,0,0,1,1547.5,537.777Z" fill="#7a7a7a"/>
  </g>
</svg>
