<svg xmlns="http://www.w3.org/2000/svg" width="506.762" height="471.208" viewBox="0 0 506.762 471.208">
  <g id="Group_167" data-name="Group 167" transform="translate(-706.619 -349.395)">
    <g id="Block-texture">
      <path id="Shape" d="M1095.04,768.3a55.7,55.7,0,0,0,7.992,23.382l44.07,27.585a61.393,61.393,0,0,0,6.633.358q1.743,0,3.474-.1a303.347,303.347,0,0,1,55.171-63.5,57.348,57.348,0,0,0-32.409-44.916,77.074,77.074,0,0,0-12.74,4.587c-9.143,4.28-14.7,9.983-17.491,17.249-2.273,5.911-2.718,12.465-1.973,21.669.154,1.9.318,3.548.66,6.769.942,8.881,1.183,12.438.9,16.808-.375,5.81-1.889,10.409-4.936,14.135-3.8,4.641-8.337,6.843-13.041,6.694a15.82,15.82,0,0,1-11.02-5.266c-2.841-3.118-4.217-7.01-3.573-10.53.724-3.964,3.882-7.119,9.341-8.888,4.868-1.578,7.431-6.748,8.238-15.547.619-6.759.328-13.225-.924-28.69l-.03-.378c-.287-3.549-.514-6.473-.688-9Q1119.123,739.629,1095.04,768.3Zm37.158-59.914a.486.486,0,0,1,.319-.456,60.821,60.821,0,0,1,9.565-2.649.486.486,0,0,1,.508.731q-3.934,6.415-9.9,14.715C1132.34,715.585,1132.2,712.106,1132.2,708.391Zm8.972-1.93a59.939,59.939,0,0,0-8,2.27c.008,2.871.1,5.639.317,9.2Q1137.961,711.612,1141.17,706.461Zm-7.679,11.475c.187,3.1.467,6.81.864,11.714l.03.377c1.257,15.527,1.549,22.02.923,28.857-.838,9.145-3.569,14.653-8.908,16.384-5.139,1.665-8.027,4.552-8.683,8.138-.584,3.2.687,6.793,3.336,9.7a14.848,14.848,0,0,0,10.329,4.948c4.391.139,8.644-1.924,12.254-6.337,2.905-3.552,4.355-7.959,4.719-13.583.277-4.294.038-7.82-.9-16.643-.343-3.228-.507-4.88-.662-6.792-.756-9.337-.3-16.021,2.035-22.1,2.887-7.508,8.622-13.4,17.986-17.781a78.318,78.318,0,0,1,13.079-4.693.482.482,0,0,1,.336.032,58.319,58.319,0,0,1,33.147,46.017.487.487,0,0,1-.164.419,302.327,302.327,0,0,0-55.319,63.67.49.49,0,0,1-.381.222q-1.881.114-3.779.114a62.376,62.376,0,0,1-6.851-.376.492.492,0,0,1-.206-.071l-44.261-27.705a.488.488,0,0,1-.156-.157,56.678,56.678,0,0,1-8.213-24.1.484.484,0,0,1,.112-.361Q1119.765,737.355,1133.491,717.936Z" fill="#fff"/>
    </g>
    <g id="geometric-">
      <path id="Shape-2" data-name="Shape" d="M745.868,608.988a25.618,25.618,0,1,1,25.463-25.618A25.54,25.54,0,0,1,745.868,608.988Zm0-.973a24.646,24.646,0,1,0-24.49-24.645A24.568,24.568,0,0,0,745.868,608.015Z" fill="#7a7a7a"/>
      <path id="Shape-3" data-name="Shape" d="M735.488,609.15a29.023,29.023,0,1,1,28.869-29.023A28.946,28.946,0,0,1,735.488,609.15Zm0-9.88a19.143,19.143,0,1,0-19.041-19.143A19.092,19.092,0,0,0,735.488,599.27Z" fill="#7cd9be"/>
    </g>
    <g id="Group">
      <path id="Shape-4" data-name="Shape" d="M817.643,381.625c-2.214,0-3.012-3.962-2.775-11.961H749.935a48.7,48.7,0,0,1,.813,9.011v83.618a.486.486,0,1,1-.971,0V378.675a47.574,47.574,0,0,0-.83-9.011l-1.415,0c-13.271-1.312-19.614-6.156-18.756-14.527.644-6.285,6.209-7.526,11.749-3.135,4.309,3.414,7.636,9.263,9.215,16.692h65.629a.486.486,0,0,1,.485.5c-.261,7.613.47,11.459,1.963,11.255a3.938,3.938,0,0,0,.3-1.125,35.72,35.72,0,0,0,.281-4.159c.065-1.878.088-2.434.144-3.367a23,23,0,0,1,1.092-6.545c.779-2.073,2.033-3.225,3.848-3.225,1.886,0,2.852,1.446,3.133,4.04a41.362,41.362,0,0,1-.3,8.172,41.489,41.489,0,0,0-.314,7.751c.208,2.128.838,3.113,2.019,3.113,1.239,0,2.194-1.187,2.935-3.6a48.873,48.873,0,0,0,1.481-8.575c.046-.4.092-.8.182-1.589a55.085,55.085,0,0,1,1.2-7.722c.634-2.419,1.518-3.72,2.9-3.72,1.445,0,2.237,1.319,2.61,3.681a43.859,43.859,0,0,1,.278,7.279c0,.312-.008.582-.017,1.109a45.221,45.221,0,0,0,.161,6.986c.24,1.657.6,2.1,1.269,1.75,1.549-.809,2.254-2.432,2.645-5.326.058-.424.077-.587.187-1.574a12.632,12.632,0,0,1,.662-3.418,2.368,2.368,0,0,1,2.3-1.7h19.262a.486.486,0,0,1,0,.973H846.827c-1.236,0-1.633.982-2,4.252-.112,1-.131,1.163-.19,1.6-.43,3.18-1.246,5.059-3.158,6.057-1.5.782-2.357-.257-2.678-2.473a45.529,45.529,0,0,1-.171-7.141c.008-.526.013-.8.017-1.107.1-6.956-.376-9.973-1.918-9.973-.775,0-1.433.969-1.965,2.994a54.782,54.782,0,0,0-1.174,7.585c-.09.793-.135,1.192-.182,1.591a49.5,49.5,0,0,1-1.518,8.75c-.852,2.771-2.068,4.28-3.862,4.28-1.821,0-2.734-1.427-2.985-3.99a42.861,42.861,0,0,1,.327-8.078,40.07,40.07,0,0,0,.284-7.836c-.234-2.162-.908-3.171-2.168-3.171-2.512,0-3.618,2.943-3.971,8.855-.056.922-.078,1.474-.144,3.343a35.832,35.832,0,0,1-.291,4.277C818.862,380.864,818.468,381.625,817.643,381.625ZM747.6,368.691h1.144c-1.549-7.116-4.738-12.691-8.825-15.929-5.006-3.967-9.627-2.937-10.182,2.471C728.951,362.938,734.815,367.422,747.6,368.691Z" fill="#7a7a7a"/>
      <path id="Shape-5" data-name="Shape" d="M877.993,373.713a3.729,3.729,0,1,1,3.72-3.728A3.724,3.724,0,0,1,877.993,373.713Zm0-.973a2.755,2.755,0,1,0-2.75-2.755A2.752,2.752,0,0,0,877.993,372.74Z" fill="#7a7a7a"/>
      <path id="Shape-6" data-name="Shape" d="M750.535,477.783a3.729,3.729,0,1,1,3.72-3.729A3.725,3.725,0,0,1,750.535,477.783Zm0-.973a2.756,2.756,0,1,0-2.749-2.756A2.753,2.753,0,0,0,750.535,476.81Z" fill="#7a7a7a"/>
    </g>
    <path id="Shape-7" data-name="Shape" d="M1020.289,395.156a.487.487,0,1,1-.945-.237,56.779,56.779,0,0,1,3.364-10.452c1.139-2.31,2.348-3.194,3.532-2.189,2,1.7,2.976,5.111,4.179,12.523.042.256.084.517.14.865-.009-.051.106.665.138.86a49.7,49.7,0,0,0,1.652,7.887c.7,2.087,1.516,3.029,2.5,2.932,1.192-.118,2.351-1.428,3.522-3.928a67.172,67.172,0,0,0,3.108-8.8c.06-.2.272-.887.271-.883a86.212,86.212,0,0,1,2.839-8.325c1.148-2.735,2.3-4.526,3.63-5.4,1.109-.73,1.824.031,2.136,1.628a32.974,32.974,0,0,1,.372,5.037c.029.875.037,1.09.052,1.5.2,5.1.738,7.473,1.907,7.473,1.071,0,2.05-1.147,3.322-3.737.361-.737,1.641-3.543,1.819-3.919,2.282-4.833,4.267-7.34,7.26-8.046,3.467-.819,7.252,2.7,11.474,10.42a.491.491,0,0,1-.192.664.486.486,0,0,1-.662-.193c-4.024-7.353-7.529-10.616-10.4-9.939-2.6.615-4.442,2.938-6.6,7.513-.172.365-1.457,3.181-1.826,3.932-1.435,2.926-2.595,4.284-4.195,4.284-1.194,0-1.914-1.035-2.331-2.863a30.925,30.925,0,0,1-.549-5.552c-.016-.408-.023-.624-.052-1.5a32.528,32.528,0,0,0-.355-4.881c-.2-1.027-.355-1.191-.647-1-1.12.737-2.187,2.391-3.265,4.96a85.413,85.413,0,0,0-2.806,8.233l-.271.883a67.639,67.639,0,0,1-3.158,8.931c-1.3,2.788-2.663,4.323-4.308,4.486-1.583.157-2.683-1.12-3.517-3.591a50.381,50.381,0,0,1-1.691-8.046c-.031-.2-.146-.911-.138-.86-.056-.347-.1-.608-.139-.864-1.155-7.114-2.113-10.462-3.847-11.933-.488-.414-1.133.057-2.03,1.876A56.159,56.159,0,0,0,1020.289,395.156Z" fill="#7a7a7a"/>
    <path id="Path_115" data-name="Path 115" d="M774.843,377.974l-3.649-.472v1.146a6.209,6.209,0,0,1,3.649-.674Z" fill="#fff"/>
    <g id="Group_166" data-name="Group 166">
      <g id="Group_122" data-name="Group 122">
        <g id="Group_121" data-name="Group 121">
          <rect id="Rectangle_9" data-name="Rectangle 9" width="343.547" height="274.383" rx="31.325" transform="translate(836.286 416.992)" fill="#fff"/>
          <path id="Path_116" data-name="Path 116" d="M1164.018,691.879H852.1a16.338,16.338,0,0,1-16.32-16.319V432.807a16.338,16.338,0,0,1,16.32-16.32h311.917a16.339,16.339,0,0,1,16.32,16.32V675.56A16.339,16.339,0,0,1,1164.018,691.879ZM852.1,417.5a15.327,15.327,0,0,0-15.31,15.31V675.56a15.327,15.327,0,0,0,15.31,15.31h311.917a15.327,15.327,0,0,0,15.31-15.31V432.807a15.327,15.327,0,0,0-15.31-15.31Z" fill="#7a7a7a"/>
        </g>
        <path id="Path_117" data-name="Path 117" d="M1179.912,451.3H836.365a.5.5,0,0,1-.505-.5V432.847a16.378,16.378,0,0,1,16.36-16.36h311.837a16.378,16.378,0,0,1,16.36,16.36V450.8A.5.5,0,0,1,1179.912,451.3ZM836.87,450.3h342.537V432.847a15.367,15.367,0,0,0-15.35-15.35H852.22a15.367,15.367,0,0,0-15.35,15.35Z" fill="#7a7a7a"/>
        <path id="Path_118" data-name="Path 118" d="M1140.8,666.436H875.315a13.621,13.621,0,0,1-13.606-13.606V487.921a13.621,13.621,0,0,1,13.606-13.606H1140.8a13.622,13.622,0,0,1,13.606,13.606V652.83A13.622,13.622,0,0,1,1140.8,666.436ZM875.315,475.325a12.61,12.61,0,0,0-12.6,12.6V652.83a12.61,12.61,0,0,0,12.6,12.6H1140.8a12.61,12.61,0,0,0,12.6-12.6V487.921a12.61,12.61,0,0,0-12.6-12.6Z" fill="#7a7a7a"/>
      </g>
      <g id="Group_124" data-name="Group 124">
        <g id="Group_123" data-name="Group 123">
          <circle id="Ellipse_9" data-name="Ellipse 9" cx="5.771" cy="5.771" r="5.771" transform="translate(1117.592 438.732) rotate(-76.254)" fill="#7a7a7a"/>
          <circle id="Ellipse_10" data-name="Ellipse 10" cx="5.771" cy="5.771" r="5.771" transform="matrix(0.223, -0.975, 0.975, 0.223, 1136.528, 438.84)" fill="#7a7a7a"/>
          <circle id="Ellipse_11" data-name="Ellipse 11" cx="5.771" cy="5.771" r="5.771" transform="translate(1154.146 434.498) rotate(-45)" fill="#7a7a7a"/>
        </g>
      </g>
      <g id="Group_126" data-name="Group 126">
        <g id="Group_125" data-name="Group 125">
          <rect id="Rectangle_10" data-name="Rectangle 10" width="208.312" height="155.125" rx="20.995" transform="translate(771.266 392.705)" fill="#fff"/>
          <path id="Path_119" data-name="Path 119" d="M968.978,548.335H781.866a11.117,11.117,0,0,1-11.105-11.105V403.3a11.117,11.117,0,0,1,11.105-11.1H968.978a11.118,11.118,0,0,1,11.1,11.1V537.23A11.118,11.118,0,0,1,968.978,548.335ZM781.866,393.21a10.106,10.106,0,0,0-10.1,10.1V537.23a10.106,10.106,0,0,0,10.1,10.1H968.978a10.106,10.106,0,0,0,10.095-10.1V403.3a10.106,10.106,0,0,0-10.095-10.1Z" fill="#7a7a7a"/>
        </g>
      </g>
      <g id="Group_127" data-name="Group 127">
        <path id="Path_120" data-name="Path 120" d="M959.431,412.283h-35.48a2.655,2.655,0,0,1,0-5.31h35.48a2.655,2.655,0,1,1,0,5.31Z" fill="#7a7a7a"/>
        <path id="Path_121" data-name="Path 121" d="M967.052,423.652H916.24a2.656,2.656,0,0,1,0-5.311h50.812a2.656,2.656,0,0,1,0,5.311Z" fill="#7a7a7a"/>
        <path id="Path_122" data-name="Path 122" d="M967.182,445.023H916.409a2.656,2.656,0,0,1,0-5.311h50.773a2.656,2.656,0,0,1,0,5.311Z" fill="#7a7a7a"/>
        <path id="Path_123" data-name="Path 123" d="M967.013,455.288H917.345a2.655,2.655,0,0,1,0-5.31h49.668a2.655,2.655,0,1,1,0,5.31Z" fill="#7a7a7a"/>
        <path id="Path_124" data-name="Path 124" d="M967.349,465.723H917.681a2.656,2.656,0,0,1,0-5.311h49.668a2.656,2.656,0,0,1,0,5.311Z" fill="#7a7a7a"/>
        <path id="Path_125" data-name="Path 125" d="M967.181,475.988H916.409a2.655,2.655,0,0,1,0-5.31h50.772a2.655,2.655,0,0,1,0,5.31Z" fill="#7a7a7a"/>
        <path id="Path_126" data-name="Path 126" d="M967.012,486.592H916.24a2.656,2.656,0,0,1,0-5.311h50.772a2.656,2.656,0,0,1,0,5.311Z" fill="#7a7a7a"/>
        <path id="Path_127" data-name="Path 127" d="M934.827,434.793H916.335a2.655,2.655,0,1,1,0-5.31h18.492a2.655,2.655,0,0,1,0,5.31Z" fill="#7a7a7a"/>
        <path id="Path_128" data-name="Path 128" d="M967.307,434.793H947.793a2.655,2.655,0,1,1,0-5.31h19.514a2.655,2.655,0,0,1,0,5.31Z" fill="#7a7a7a"/>
      </g>
      <g id="Group_128" data-name="Group 128">
        <path id="Path_129" data-name="Path 129" d="M835.15,495.048H785.106a2.656,2.656,0,0,1,0-5.311H835.15a2.656,2.656,0,0,1,0,5.311Z" fill="#7a7a7a"/>
        <path id="Path_130" data-name="Path 130" d="M882.657,494.879H844.344a2.655,2.655,0,0,1,0-5.31h38.313a2.655,2.655,0,1,1,0,5.31Z" fill="#7a7a7a"/>
        <path id="Path_131" data-name="Path 131" d="M820.209,483.976H784.937a2.655,2.655,0,1,1,0-5.31h35.272a2.655,2.655,0,1,1,0,5.31Z" fill="#7a7a7a"/>
      </g>
      <path id="Path_132" data-name="Path 132" d="M882.788,540.744H785.851a4.212,4.212,0,0,1-4.207-4.208V505.908a4.211,4.211,0,0,1,4.207-4.207h96.937a4.211,4.211,0,0,1,4.207,4.207v30.628A4.212,4.212,0,0,1,882.788,540.744ZM785.851,502.71a3.2,3.2,0,0,0-3.2,3.2v30.628a3.2,3.2,0,0,0,3.2,3.2h96.937a3.2,3.2,0,0,0,3.2-3.2V505.908a3.2,3.2,0,0,0-3.2-3.2Z" fill="#7a7a7a"/>
      <path id="Path_133" data-name="Path 133" d="M967.944,540.743H898.606a4.211,4.211,0,0,1-4.207-4.207V505.907a4.211,4.211,0,0,1,4.207-4.207h69.338a4.212,4.212,0,0,1,4.207,4.207v30.629A4.212,4.212,0,0,1,967.944,540.743ZM898.606,502.71a3.2,3.2,0,0,0-3.2,3.2v30.629a3.2,3.2,0,0,0,3.2,3.2h69.338a3.2,3.2,0,0,0,3.2-3.2V505.907a3.2,3.2,0,0,0-3.2-3.2Z" fill="#7a7a7a"/>
      <rect id="Rectangle_11" data-name="Rectangle 11" width="124.701" height="58.74" rx="8.001" transform="translate(782.152 406.784)" fill="#7a7a7a"/>
      <g id="Group_134" data-name="Group 134">
        <circle id="Ellipse_12" data-name="Ellipse 12" cx="14.006" cy="14.006" r="14.006" transform="translate(928.051 628.117)" fill="#fff"/>
        <g id="Group_130" data-name="Group 130">
          <g id="Group_129" data-name="Group 129">
            <circle id="Ellipse_13" data-name="Ellipse 13" cx="14.006" cy="14.006" r="14.006" transform="translate(973.846 628.117)" fill="#fff"/>
            <path id="Path_134" data-name="Path 134" d="M987.852,656.635a14.512,14.512,0,1,1,14.511-14.511A14.527,14.527,0,0,1,987.852,656.635Zm0-28.013a13.5,13.5,0,1,0,13.5,13.5A13.517,13.517,0,0,0,987.852,628.622Z" fill="#7a7a7a"/>
          </g>
          <path id="Path_135" data-name="Path 135" d="M983.2,647.545V636.7a.746.746,0,0,1,1.077-.669l10.842,5.354a.746.746,0,0,1,.007,1.335l-10.843,5.489A.746.746,0,0,1,983.2,647.545Z" fill="#7a7a7a"/>
        </g>
        <g id="Group_133" data-name="Group 133">
          <g id="Group_131" data-name="Group 131">
            <circle id="Ellipse_14" data-name="Ellipse 14" cx="14.006" cy="14.006" r="14.006" transform="translate(1019.64 628.117)" fill="#fff"/>
            <path id="Path_136" data-name="Path 136" d="M1033.647,656.635a14.512,14.512,0,1,1,14.511-14.511A14.528,14.528,0,0,1,1033.647,656.635Zm0-28.013a13.5,13.5,0,1,0,13.5,13.5A13.517,13.517,0,0,0,1033.647,628.622Z" fill="#7a7a7a"/>
          </g>
          <g id="Group_132" data-name="Group 132">
            <path id="Path_137" data-name="Path 137" d="M1038.24,647.207a.5.5,0,0,1-.357-.148l-9.344-9.345a.5.5,0,0,1,.714-.714l9.344,9.345a.5.5,0,0,1-.357.862Z" fill="#7a7a7a"/>
            <path id="Path_138" data-name="Path 138" d="M1028.9,647.207a.5.5,0,0,1-.357-.862l9.344-9.345a.5.5,0,0,1,.714.714l-9.344,9.345A.5.5,0,0,1,1028.9,647.207Z" fill="#7a7a7a"/>
          </g>
        </g>
      </g>
      <path id="Path_139" data-name="Path 139" d="M966.668,586.553a.505.505,0,0,1-.273-.93l24.789-15.934a.5.5,0,0,1,.546.849l-24.789,15.934A.5.5,0,0,1,966.668,586.553Z" fill="#7a7a7a"/>
      <path id="Path_140" data-name="Path 140" d="M933.737,607.721a.505.505,0,0,1-.273-.93l22.443-14.427a.505.505,0,1,1,.546.85L934.01,607.64A.5.5,0,0,1,933.737,607.721Z" fill="#7a7a7a"/>
      <path id="Path_141" data-name="Path 141" d="M955.2,611.35a.505.505,0,0,1-.273-.93l57.719-37.1a.5.5,0,1,1,.546.849l-57.719,37.1A.5.5,0,0,1,955.2,611.35Z" fill="#7a7a7a"/>
      <g id="Group_157" data-name="Group 157">
        <g id="Group_136" data-name="Group 136">
          <g id="Group_135" data-name="Group 135">
            <path id="Path_142" data-name="Path 142" d="M887.079,715.938l-70.739-.7c-12.792,0-23.733-8.351-25.974-21.064l-12.11-68.707a13.322,13.322,0,0,1,13.029-15.7h46.157Z" fill="#fff"/>
            <path id="Path_143" data-name="Path 143" d="M887.079,716.443h-.005l-70.739-.7c-13.352,0-24.237-8.834-26.466-21.481l-12.11-68.708a13.909,13.909,0,0,1,3.042-11.386,13.662,13.662,0,0,1,10.484-4.9h46.157a.505.505,0,0,1,.457.291l49.637,106.174a.5.5,0,0,1-.457.718ZM791.285,610.27a12.655,12.655,0,0,0-9.711,4.544,12.9,12.9,0,0,0-2.821,10.562l12.11,68.707c2.143,12.157,12.619,20.647,25.477,20.647l69.942.7L837.12,610.27Z" fill="#7a7a7a"/>
          </g>
          <path id="Path_144" data-name="Path 144" d="M844.877,799.947H833.239V715.112l11.638.443Z" fill="#7a7a7a"/>
          <path id="Path_145" data-name="Path 145" d="M866.541,785.755H814.189A14.787,14.787,0,0,0,799.4,800.542h81.927A14.787,14.787,0,0,0,866.541,785.755Z" fill="#7a7a7a"/>
          <path id="Path_146" data-name="Path 146" d="M797.391,663.32a.505.505,0,0,1-.5-.418l-5.87-33.353a.5.5,0,1,1,.994-.175l5.87,33.353a.505.505,0,0,1-.41.585A.523.523,0,0,1,797.391,663.32Z" fill="#7a7a7a"/>
        </g>
        <g id="Group_153" data-name="Group 153">
          <g id="Group_143" data-name="Group 143">
            <g id="Group_137" data-name="Group 137">
              <path id="Path_147" data-name="Path 147" d="M930.183,758.557c-.1.4,4.638,22.073,4.638,22.073l-10.885-1.822-3.278-18.321Z" fill="#fff"/>
              <path id="Path_148" data-name="Path 148" d="M934.821,781.135a.458.458,0,0,1-.083-.007l-10.885-1.822a.506.506,0,0,1-.414-.409l-3.278-18.321a.5.5,0,0,1,.4-.584l9.525-1.929a.5.5,0,0,1,.605.519c.074.9,2.8,13.582,4.627,21.941a.5.5,0,0,1-.493.612Zm-10.45-2.766,9.8,1.64c-3.236-14.819-4.152-19.395-4.4-20.853l-8.53,1.728Z" fill="#7a7a7a"/>
            </g>
            <g id="Group_139" data-name="Group 139">
              <g id="Group_138" data-name="Group 138">
                <path id="Path_149" data-name="Path 149" d="M929.041,773.522a4.711,4.711,0,0,1,2.829-1.158,4.525,4.525,0,0,1,4.243,2.742c1.887,4.2,6.864,15.881,8.271,25.433.5,3.375-2.05,6.121-6.019,3.909-6.505-3.625-15.528-11.947-20.251-24.237a4.451,4.451,0,0,1,.541-4.224,21.286,21.286,0,0,1,2.859-3.225,2.977,2.977,0,0,1,3.877-.062l1.023.841A2.048,2.048,0,0,0,929.041,773.522Z" fill="#fff"/>
                <path id="Path_150" data-name="Path 150" d="M941.046,805.753a6.032,6.032,0,0,1-2.927-.864c-6.8-3.793-15.758-12.22-20.477-24.5a4.933,4.933,0,0,1,.606-4.7,21.372,21.372,0,0,1,2.93-3.3,3.463,3.463,0,0,1,4.534-.076l1.022.841a1.55,1.55,0,0,0,1.982-.015,5.21,5.21,0,0,1,3.132-1.276,5.05,5.05,0,0,1,4.725,3.039c2.031,4.514,6.908,16.042,8.31,25.566a4.684,4.684,0,0,1-1.686,4.641A3.752,3.752,0,0,1,941.046,805.753Zm-17.567-33.239a2.434,2.434,0,0,0-1.628.624,20.381,20.381,0,0,0-2.788,3.147,3.927,3.927,0,0,0-.478,3.745c4.622,12.025,13.375,20.27,20.026,23.977,1.57.875,2.995.97,4.012.268a3.7,3.7,0,0,0,1.261-3.663c-1.384-9.4-6.218-20.823-8.232-25.3a4.033,4.033,0,0,0-3.76-2.444,4.151,4.151,0,0,0-2.526,1.04,2.56,2.56,0,0,1-3.273.022l-1.022-.841A2.509,2.509,0,0,0,923.479,772.514Z" fill="#7a7a7a"/>
              </g>
              <path id="Path_151" data-name="Path 151" d="M941.907,801.947c-.857,0-10.033-.536-21.162-22.531a.5.5,0,0,1,.9-.456c11.093,21.925,20.194,21.984,20.281,21.977a.509.509,0,0,1,.518.491.5.5,0,0,1-.485.518Z" fill="#7a7a7a"/>
              <path id="Path_152" data-name="Path 152" d="M934.942,789.839a.505.505,0,0,1-.186-.975l5.16-2.035a.5.5,0,0,1,.371.939l-5.16,2.036A.506.506,0,0,1,934.942,789.839Z" fill="#7a7a7a"/>
              <path id="Path_153" data-name="Path 153" d="M933.134,785.886a.5.5,0,0,1-.184-.975L939,782.556a.5.5,0,0,1,.366.941l-6.052,2.355A.515.515,0,0,1,933.134,785.886Z" fill="#7a7a7a"/>
            </g>
            <g id="Group_140" data-name="Group 140">
              <path id="Path_154" data-name="Path 154" d="M883.737,758.5a47.949,47.949,0,0,0-1.155,6.994c-.785,7.142,7.208,13.755,7.208,13.755L870.856,776.7l.724-16.528Z" fill="#fff"/>
              <path id="Path_155" data-name="Path 155" d="M889.79,779.753a.5.5,0,0,1-.067,0L870.789,777.2a.5.5,0,0,1-.437-.522l.723-16.528a.5.5,0,0,1,.436-.478L883.669,758a.5.5,0,0,1,.533.7,51.266,51.266,0,0,0-1.118,6.853c-.747,6.792,6.95,13.246,7.028,13.31a.5.5,0,0,1-.322.894Zm-18.409-3.5,16.881,2.276c-2.256-2.212-6.8-7.434-6.181-13.1a62.2,62.2,0,0,1,.983-6.337l-11,1.51Z" fill="#7a7a7a"/>
            </g>
            <g id="Group_142" data-name="Group 142">
              <g id="Group_141" data-name="Group 141">
                <path id="Path_156" data-name="Path 156" d="M875.226,771.9c1.11-.367.857-2.082,1.765-2.892a4.011,4.011,0,0,1,4.717-.372c4.083,2.06,15.238,7.977,22.288,14.5,2.492,2.307,2.225,6.059-2.238,6.862-7.315,1.317-19.516.586-30.851-5.962a4.421,4.421,0,0,1-2.213-3.626,53.321,53.321,0,0,1,.252-6.854,3,3,0,0,1,2.974-2.511l1.318,0C874.228,771.055,874.285,772.21,875.226,771.9Z" fill="#fff"/>
                <path id="Path_157" data-name="Path 157" d="M895.131,791.06a49.592,49.592,0,0,1-24.476-6.583,4.9,4.9,0,0,1-2.465-4.04,53.3,53.3,0,0,1,.258-6.958,3.492,3.492,0,0,1,3.464-2.935h.009l1.319,0a1.78,1.78,0,0,1,1.319.642c.278.274.32.293.509.231.351-.116.493-.508.7-1.138a3.511,3.511,0,0,1,.892-1.651,4.479,4.479,0,0,1,5.281-.445c4.393,2.216,15.372,8.075,22.4,14.584a4.692,4.692,0,0,1,1.589,4.665c-.268.919-1.155,2.538-4.08,3.064A38.191,38.191,0,0,1,895.131,791.06Zm-23.219-19.506a2.487,2.487,0,0,0-2.468,2.088,53.154,53.154,0,0,0-.246,6.75,3.9,3.9,0,0,0,1.962,3.211c11.089,6.4,23.031,7.249,30.509,5.9,1.771-.319,2.94-1.155,3.29-2.354a3.7,3.7,0,0,0-1.306-3.641c-6.936-6.422-17.816-12.226-22.172-14.424a3.537,3.537,0,0,0-4.154.3,2.678,2.678,0,0,0-.6,1.205c-.227.706-.483,1.506-1.341,1.789a1.377,1.377,0,0,1-1.534-.472c-.233-.229-.366-.349-.613-.35l-1.319,0Zm3.314.346h0Z" fill="#7a7a7a"/>
              </g>
              <path id="Path_158" data-name="Path 158" d="M894.951,787.755c-4.77,0-11.987-1.3-22.493-6.007a.5.5,0,0,1,.412-.922c22.411,10.039,29.391,4.248,29.459,4.189a.5.5,0,1,1,.667.758C902.834,785.915,900.622,787.755,894.951,787.755Z" fill="#7a7a7a"/>
              <path id="Path_159" data-name="Path 159" d="M889.671,780.94a.5.5,0,0,1-.439-.753l2.739-4.86a.5.5,0,0,1,.88.495l-2.739,4.861A.506.506,0,0,1,889.671,780.94Z" fill="#7a7a7a"/>
              <path id="Path_160" data-name="Path 160" d="M885.8,779.018a.506.506,0,0,1-.431-.768l3.085-5.062a.5.5,0,1,1,.862.525l-3.084,5.062A.5.5,0,0,1,885.8,779.018Z" fill="#7a7a7a"/>
            </g>
            <path id="Path_161" data-name="Path 161" d="M832.434,675.18s66.281-2.877,73.526,3.852c9.829,9.127,26.714,85.109,26.714,85.109l-16.3,4.571s-24.564-62.357-30.651-62.357-63.472-2.048-63.472-2.048Z" fill="#7a7a7a"/>
            <path id="Path_162" data-name="Path 162" d="M819.4,673.086s-8.741,25.662-1.785,30.343,57.1,4.283,55.358,3.7-4.484,42.018-4.484,58.4l15.787.609s25.159-65.887,22.447-73.244c-4.852-13.161-41.431-17.6-53.382-19.363C850.876,673.167,819.4,673.086,819.4,673.086Z" fill="#7a7a7a"/>
            <path id="Path_163" data-name="Path 163" d="M898.382,729.144a.487.487,0,0,1-.154-.025.5.5,0,0,1-.327-.634q.852-2.661,1.685-5.225c4.418-13.651,8.234-25.441,6.654-30.208-3.354-10.123-28.436-14-36.679-15.278a.5.5,0,0,1,.155-1c14.567,2.254,34.3,6.36,37.482,15.958,1.684,5.081-1.994,16.447-6.651,30.837q-.828,2.559-1.684,5.222A.506.506,0,0,1,898.382,729.144Z" fill="#fff"/>
          </g>
          <g id="Group_152" data-name="Group 152">
            <g id="Group_146" data-name="Group 146">
              <g id="Group_144" data-name="Group 144">
                <path id="Path_164" data-name="Path 164" d="M827.252,595.275s.235-4.23-2.379,39.874c0,0,1.8,34.128,2.023,37.977s33.6,2.175,33.6,2.175c3.948-17.308,3.517-37.169.762-58.384l5.72-.512.4-13.335c-1.035-3.926-5.406-6.749-8.341-7.8C851.216,591.758,837.355,592.888,827.252,595.275Z" fill="#fff"/>
                <path id="Path_165" data-name="Path 165" d="M845.514,676.168q-.867,0-1.738-.006c-17.216-.13-17.334-2.146-17.384-3.007-.222-3.806-2.005-37.638-2.023-37.979a.5.5,0,0,1,0-.056c1.1-18.5,1.692-28.5,2.014-33.87.16-2.686.253-4.214.3-5.072.023-.367.04-.647.061-.861a.544.544,0,0,1,0-.07l.005-.093h.016c.065-.466.18-.512.518-.492a.537.537,0,0,1,.184.044c9.679-2.242,23.67-3.536,31.769.106,3.426,1.223,7.612,4.3,8.623,8.129a.5.5,0,0,1,.016.144l-.4,13.335a.505.505,0,0,1-.459.488l-5.2.465c3,23.424,2.727,42.413-.838,58.041a.506.506,0,0,1-.467.392C860.442,675.81,853.2,676.168,845.514,676.168Zm-20.135-41.017c.061,1.151,1.8,34.19,2.021,37.945.012.2.569,1.937,16.38,2.056,7.257.055,14.576-.257,16.307-.337,3.483-15.554,3.7-34.477.67-57.833a.5.5,0,0,1,.455-.568l5.273-.472.383-12.812c-.951-3.445-4.8-6.239-8.005-7.382-7.9-3.55-21.609-2.268-31.133-.066C827.626,597.364,827.183,604.708,825.379,635.151Z" fill="#7a7a7a"/>
              </g>
              <path id="Path_166" data-name="Path 166" d="M847.2,632.161a.505.505,0,0,1-.236-.952c7.931-4.179,8.468-15.957,8.472-16.076a.5.5,0,0,1,1.009.038c-.019.507-.559,12.478-9.01,16.932A.51.51,0,0,1,847.2,632.161Z" fill="#7a7a7a"/>
              <g id="Group_145" data-name="Group 145">
                <path id="Path_167" data-name="Path 167" d="M832.891,594.689a15.189,15.189,0,0,0-13.212,6.14c-5.139,7.02-5.765,15.022-4.8,21.457,1.646,10.921,8.51,23.356,8.193,26.748a62.76,62.76,0,0,1-8.509,23.842c-5.444,8.635-5.21,27.675-4.147,28.3,7.165,4.175,18.915,12.648,32.907,13.66,2.586.186,4.7-1.151,5.072-3.243,1.494-8.36,5.5-32.606,6.1-55.367.521-19.712-13.516-49.643-14.134-52.212C838.867,597.78,832.891,594.689,832.891,594.689Z" fill="#fff"/>
                <path id="Path_168" data-name="Path 168" d="M843.817,715.353c-.173,0-.348-.006-.526-.019-12.1-.874-22.3-7.128-29.756-11.694-1.2-.737-2.341-1.434-3.369-2.033a1.273,1.273,0,0,1-.491-.875c-.769-3.137-.642-20.025,4.465-28.125a62.885,62.885,0,0,0,8.434-23.62c.129-1.383-1.18-4.764-2.695-8.678-2.036-5.261-4.57-11.807-5.5-17.948-.864-5.733-.717-14.175,4.888-21.83a15.843,15.843,0,0,1,13.677-6.344.5.5,0,0,1,.174.054c.253.13,6.2,3.27,7.734,9.65.1.431.683,1.86,1.485,3.837,3.917,9.661,13.091,32.284,12.663,48.506-.6,22.521-4.471,46.275-6.109,55.442C848.5,713.892,846.446,715.353,843.817,715.353Zm-33.075-14.579c1.02.6,2.138,1.281,3.32,2.005,7.364,4.512,17.449,10.692,29.3,11.548,2.345.17,4.21-.994,4.538-2.828,1.634-9.145,5.5-32.84,6.093-55.292.423-16.01-9.03-39.323-12.589-48.1-.879-2.167-1.409-3.475-1.531-3.98-1.331-5.531-6.42-8.546-7.133-8.944a14.794,14.794,0,0,0-12.655,5.944c-5.4,7.378-5.54,15.538-4.7,21.083.909,6.031,3.421,12.52,5.439,17.734,1.689,4.364,2.909,7.517,2.758,9.137a63.491,63.491,0,0,1-8.585,24.064C809.674,681.584,810.012,699.33,810.742,700.774Z" fill="#7a7a7a"/>
              </g>
            </g>
            <g id="Group_149" data-name="Group 149">
              <g id="Group_147" data-name="Group 147">
                <path id="Path_169" data-name="Path 169" d="M899.2,655.977c-9.3-3.61-25.722-18.637-30.177-30.633l-.43-20.842c-.492-3.288-1.651-4.615-4.4-6.45a13.979,13.979,0,0,0-4.439-1.83s-.778-.442-.95,3.823c-.083,2.077,2.559,25.168,3.033,44.96.331,13.852-1.736,25.952-1.6,28.613.01.2,9.127,2.022,9.739,1.409l.062-.183-.525-25.495c5.126,4.471,14.921,12.177,22.7,11.9Z" fill="#fff"/>
                <path id="Path_170" data-name="Path 170" d="M869.114,675.63a56.479,56.479,0,0,1-8.978-1.495.546.546,0,0,1-.4-.49,51.355,51.355,0,0,1,.412-5.437,182.255,182.255,0,0,0,1.185-23.191c-.325-13.575-1.659-28.573-2.457-37.534-.376-4.225-.6-6.775-.575-7.458.133-3.308.626-4,1.041-4.227a.7.7,0,0,1,.55-.064,14.588,14.588,0,0,1,4.582,1.9c2.767,1.848,4.091,3.268,4.619,6.8a.449.449,0,0,1,.005.064l.428,20.756c4.345,11.573,20.288,26.543,29.856,30.258a.5.5,0,0,1,.122.874l-6.983,5.268a.511.511,0,0,1-.286.1c-7.035.254-15.792-5.822-22.19-11.278l.5,24.362a.49.49,0,0,1-.025.17l-.061.184a.5.5,0,0,1-.123.2A1.961,1.961,0,0,1,869.114,675.63Zm-8.377-2.356a49.585,49.585,0,0,0,8.794,1.371l-.521-25.285a.505.505,0,0,1,.837-.391c8.976,7.827,16.648,11.9,22.192,11.776l6.149-4.639c-9.844-4.3-25.376-19.1-29.641-30.586a.52.52,0,0,1-.031-.165l-.429-20.81c-.47-3.1-1.506-4.29-4.176-6.073a13.477,13.477,0,0,0-4.111-1.725,8.845,8.845,0,0,0-.492,3.318c-.025.618.225,3.433.572,7.328.8,8.974,2.135,23.992,2.461,37.6a183.108,183.108,0,0,1-1.19,23.316C860.918,670.6,860.743,672.334,860.737,673.274Zm-1.232-76.612h0Z" fill="#7a7a7a"/>
              </g>
              <g id="Group_148" data-name="Group 148">
                <path id="Path_171" data-name="Path 171" d="M887.334,657.533a2.287,2.287,0,0,1,1.251-1.12,8.735,8.735,0,0,0,1.14-.52l5.071-2.69c.949-.465,2.307.619,3.293.943,2.976.977,9.137,3.28,8.629,5.442-.548,2.333-5.842,1.229-7.722.758-.429-.107-4.32,1.3-5.549,1.4a4.007,4.007,0,0,1-2.923-.74,2.705,2.705,0,0,0-1.259-.292,2.309,2.309,0,0,1-1.8-.845l-.01-.013a1.966,1.966,0,0,1-.215-2.123Z" fill="#fff"/>
                <path id="Path_172" data-name="Path 172" d="M892.887,662.268a3.862,3.862,0,0,1-2.245-.624c-.112-.064-.227-.13-.353-.2a2.189,2.189,0,0,0-1.027-.234,2.814,2.814,0,0,1-2.2-1.035,2.482,2.482,0,0,1-.281-2.681l.1-.2h0a2.776,2.776,0,0,1,1.529-1.365,8.267,8.267,0,0,0,1.074-.49l5.071-2.691c.9-.443,1.908.06,2.794.505a7.2,7.2,0,0,0,.894.4c6.394,2.1,9.41,4.132,8.963,6.038a1.988,1.988,0,0,1-.947,1.27c-1.721,1.049-5.325.376-7.349-.128a20.962,20.962,0,0,0-2.12.568,21.608,21.608,0,0,1-3.309.83C893.268,662.261,893.07,662.268,892.887,662.268Zm-5.1-4.505-.1.2a1.463,1.463,0,0,0,.16,1.577,1.814,1.814,0,0,0,1.425.67,3.213,3.213,0,0,1,1.49.349c.137.072.263.144.384.214a3.187,3.187,0,0,0,2.266.47,22.955,22.955,0,0,0,3.1-.792c1.811-.538,2.3-.666,2.612-.589,3.123.782,5.6.877,6.618.255a.986.986,0,0,0,.49-.639c.281-1.2-2.975-3.1-8.295-4.847a7.841,7.841,0,0,1-1.033-.462c-.675-.339-1.441-.723-1.881-.507l-5.057,2.683a9.154,9.154,0,0,1-1.206.548A1.773,1.773,0,0,0,887.784,657.763Z" fill="#7a7a7a"/>
              </g>
            </g>
            <path id="Path_173" data-name="Path 173" d="M840.228,647.4c6.546,14.973,18.253,18.531,37.453,21.09l-2.048,5.664c-28.691,3.582-34.09-2.094-45.688-17.286Z" fill="#fff"/>
            <g id="Group_150" data-name="Group 150">
              <path id="Path_174" data-name="Path 174" d="M825.986,684.443a17.841,17.841,0,0,1-6.711-1.393.5.5,0,1,1,.378-.936c13,5.248,19.8-6.951,19.865-7.075a.5.5,0,0,1,.888.481C840.347,675.629,835.432,684.443,825.986,684.443Z" fill="#7a7a7a"/>
              <path id="Path_175" data-name="Path 175" d="M869.525,648.44a.506.506,0,0,1-.5-.487l-.687-19.2a.5.5,0,1,1,1.009-.036l.687,19.2a.5.5,0,0,1-.486.522Z" fill="#7a7a7a"/>
              <path id="Path_176" data-name="Path 176" d="M859.667,675.733c-7.056,0-10.492-1.5-15.119-3.529-1.142-.5-2.323-1.017-3.657-1.553a18.21,18.21,0,0,1-9.02-7.732c-1.109-1.759-2.055-3.633-2.97-5.445-.807-1.6-1.641-3.25-2.577-4.8a.5.5,0,1,1,.864-.522c.956,1.583,1.8,3.252,2.614,4.866.9,1.792,1.84,3.644,2.923,5.363a17.263,17.263,0,0,0,8.543,7.333c1.348.542,2.536,1.062,3.685,1.565,5.96,2.608,9.9,4.331,22.656,2.955,1.018-.11,5.108-.072,6.112-.031a.5.5,0,1,1-.042,1.009c-.957-.039-5.005-.077-5.962.026A75.544,75.544,0,0,1,859.667,675.733Z" fill="#7a7a7a"/>
              <path id="Path_177" data-name="Path 177" d="M877.256,668.76a.337.337,0,0,1-.045,0c-.177-.016-17.846-1.661-27.92-8.692-3-2.095-4.5-6.735-6.083-11.647-.315-.976-.633-1.962-.967-2.938a.505.505,0,0,1,.956-.326c.335.981.655,1.973.972,2.954,1.531,4.746,2.977,9.229,5.7,11.129,9.856,6.879,27.257,8.5,27.431,8.514a.5.5,0,0,1-.044,1.008Z" fill="#7a7a7a"/>
            </g>
            <g id="Group_151" data-name="Group 151">
              <path id="Path_178" data-name="Path 178" d="M873.123,671.132a2.288,2.288,0,0,1,1.25-1.12,8.736,8.736,0,0,0,1.14-.52l5.071-2.69c.95-.465,2.308.619,3.294.943,2.975.977,9.136,3.28,8.629,5.442-.548,2.333-5.843,1.229-7.722.758-.43-.107-4.32,1.3-5.55,1.4a4.009,4.009,0,0,1-2.923-.74,2.7,2.7,0,0,0-1.258-.292,2.309,2.309,0,0,1-1.8-.845l-.01-.013a1.966,1.966,0,0,1-.216-2.123Z" fill="#fff"/>
              <path id="Path_179" data-name="Path 179" d="M878.676,675.867a3.862,3.862,0,0,1-2.245-.624c-.112-.064-.227-.13-.354-.2a2.189,2.189,0,0,0-1.027-.234,2.812,2.812,0,0,1-2.2-1.035,2.478,2.478,0,0,1-.281-2.681l.1-.2a2.782,2.782,0,0,1,1.53-1.365,8.219,8.219,0,0,0,1.074-.491l5.07-2.69c.906-.444,1.909.06,2.794.505a7.27,7.27,0,0,0,.894.4c6.4,2.1,9.41,4.132,8.963,6.038a1.986,1.986,0,0,1-.946,1.27c-1.721,1.049-5.325.376-7.349-.128a20.962,20.962,0,0,0-2.12.568,21.587,21.587,0,0,1-3.31.83C879.057,675.86,878.858,675.867,878.676,675.867Zm2.433-8.674a.676.676,0,0,0-.3.063l-5.056,2.682a9.04,9.04,0,0,1-1.206.549,1.778,1.778,0,0,0-.972.875h0l-.1.2a1.461,1.461,0,0,0,.16,1.577,1.808,1.808,0,0,0,1.424.669,3.226,3.226,0,0,1,1.49.35c.137.072.263.144.385.214a3.184,3.184,0,0,0,2.265.47,22.925,22.925,0,0,0,3.1-.792c1.811-.538,2.3-.666,2.611-.589,3.124.782,5.6.877,6.619.255a.985.985,0,0,0,.489-.639c.281-1.2-2.975-3.1-8.3-4.847a7.891,7.891,0,0,1-1.032-.462A4.257,4.257,0,0,0,881.109,667.193Zm-7.986,3.939h0Z" fill="#7a7a7a"/>
            </g>
          </g>
        </g>
        <g id="Group_155" data-name="Group 155">
          <g id="Group_154" data-name="Group 154">
            <path id="Path_180" data-name="Path 180" d="M900.687,673.343l15.363-45.275a5.063,5.063,0,0,1,4.251-2.28H961.25a2.544,2.544,0,0,1,2.448,3.4c-.241.633-.5,1.26-.712,1.9L949.1,673.425H949.1a4.547,4.547,0,0,1-4.542,4.469H868.987a4.549,4.549,0,0,1-4.546-4.551Z" fill="#7a7a7a"/>
            <path id="Path_181" data-name="Path 181" d="M931.124,648.995a3.181,3.181,0,1,0,4.06-2.562A3.417,3.417,0,0,0,931.124,648.995Z" fill="#fff"/>
          </g>
        </g>
        <g id="Group_156" data-name="Group 156">
          <path id="Path_182" data-name="Path 182" d="M1020.229,677.138H838.422a5.97,5.97,0,0,0-5.637,6.816l12.555,119h9.065L846.546,691.27a3.3,3.3,0,0,1,3.132-3.648h156.065a4.929,4.929,0,0,1,4.685,5.457l-7.78,110.577h9.065l12.768-121.377A4.5,4.5,0,0,0,1020.229,677.138Z" fill="#fff"/>
          <path id="Path_183" data-name="Path 183" d="M1011.713,804.161h-9.065a.505.505,0,0,1-.5-.541l7.781-110.576a4.8,4.8,0,0,0-1.24-3.6,4,4,0,0,0-2.942-1.313H849.678a2.51,2.51,0,0,0-1.844.824,3.038,3.038,0,0,0-.784,2.283l7.859,111.687a.507.507,0,0,1-.5.541H845.34a.506.506,0,0,1-.5-.452l-12.555-119a6.91,6.91,0,0,1,1.7-5.352,5.93,5.93,0,0,1,4.443-2.022h181.807a4.6,4.6,0,0,1,3.443,1.566,5.336,5.336,0,0,1,1.311,4.133l-12.768,121.376A.506.506,0,0,1,1011.713,804.161Zm-8.524-1.01h8.069l12.721-120.925a4.33,4.33,0,0,0-1.057-3.352,3.6,3.6,0,0,0-2.693-1.232H838.422a4.932,4.932,0,0,0-3.692,1.688,5.9,5.9,0,0,0-1.442,4.571l12.507,118.551h8.069L846.043,691.3a4.046,4.046,0,0,1,1.053-3.042,3.5,3.5,0,0,1,2.582-1.145h156.065a5,5,0,0,1,3.681,1.634,5.809,5.809,0,0,1,1.508,4.363Z" fill="#7a7a7a"/>
        </g>
      </g>
      <g id="Group_162" data-name="Group 162">
        <g id="Group_159" data-name="Group 159">
          <g id="Group_158" data-name="Group 158">
            <path id="Path_184" data-name="Path 184" d="M973.452,776.271c2.469-5.132,2.7-10.3,0-15.529l1.941-2.351,64.1,1.763-1.829,17.034-62.4.6Z" fill="#fff"/>
            <path id="Path_185" data-name="Path 185" d="M975.262,778.291a.506.506,0,0,1-.324-.118l-1.81-1.514a.5.5,0,0,1-.13-.606c2.53-5.264,2.532-10.2.006-15.079a.5.5,0,0,1,.059-.553L975,758.07a.506.506,0,0,1,.4-.184l64.1,1.764a.5.5,0,0,1,.488.558l-1.829,17.034a.506.506,0,0,1-.5.451l-62.4.6Zm-1.187-2.157,1.369,1.145,61.763-.592,1.722-16.043-63.3-1.742-1.573,1.907A17.011,17.011,0,0,1,974.075,776.134Z" fill="#7a7a7a"/>
          </g>
          <path id="Path_186" data-name="Path 186" d="M1081.259,756.516H971.738a2.106,2.106,0,0,0,0,4.212h56.312a6.035,6.035,0,0,1,6,6.066v3.411a6.035,6.035,0,0,1-6,6.066H971.738a2.107,2.107,0,0,0,0,4.213h109.521a11.128,11.128,0,0,0,11.069-11.186v-1.6A11.128,11.128,0,0,0,1081.259,756.516Z" fill="#7a7a7a"/>
        </g>
        <g id="Group_161" data-name="Group 161">
          <g id="Group_160" data-name="Group 160">
            <path id="Path_187" data-name="Path 187" d="M978.953,805.706h99.994V782.945H978.953A33.427,33.427,0,0,1,978.953,805.706Z" fill="#fff"/>
            <path id="Path_188" data-name="Path 188" d="M1078.947,806.211H978.953a.506.506,0,0,1-.473-.681,32.933,32.933,0,0,0,0-22.417.506.506,0,0,1,.476-.673h99.994a.5.5,0,0,1,.505.505v22.761A.5.5,0,0,1,1078.947,806.211ZM979.671,805.2h98.771V783.45H979.659A33.956,33.956,0,0,1,979.671,805.2Z" fill="#7a7a7a"/>
          </g>
          <path id="Path_189" data-name="Path 189" d="M1063.562,791.428H987.868a.5.5,0,0,1,0-1.01h75.694a.5.5,0,1,1,0,1.01Z" fill="#7a7a7a"/>
          <path id="Path_190" data-name="Path 190" d="M1063.562,797.79H1001.37a.5.5,0,1,1,0-1.01h62.192a.5.5,0,1,1,0,1.01Z" fill="#7a7a7a"/>
          <path id="Path_191" data-name="Path 191" d="M1067.507,784.032h-89.9a1.736,1.736,0,0,1,0-3.471h113.37a7.587,7.587,0,0,1,7.547,7.626v11.987a7.587,7.587,0,0,1-7.547,7.626H977.611a1.736,1.736,0,0,1,0-3.471h89.9a5.359,5.359,0,0,0,5.331-5.387v-9.523A5.359,5.359,0,0,0,1067.507,784.032Z" fill="#7a7a7a"/>
          <path id="Path_192" data-name="Path 192" d="M1026.774,766.137h-46.2a.505.505,0,0,1,0-1.01h46.2a.505.505,0,0,1,0,1.01Z" fill="#7a7a7a"/>
        </g>
      </g>
      <circle id="Shape-8" data-name="Shape" cx="0.733" cy="0.733" r="0.733" transform="translate(1065.328 452.856)" fill="#7a7a7a"/>
      <g id="Group_165" data-name="Group 165">
        <g id="Group_163" data-name="Group 163">
          <path id="Path_193" data-name="Path 193" d="M841.108,579.024c-.256.571,2.675,11.7-.532,18.188a2.407,2.407,0,0,0,1.335,3.328l5.22,1.9A8.266,8.266,0,0,0,856.287,600l.523-.621a1.346,1.346,0,0,0-.367-2.038l-1.7-.962a3.782,3.782,0,0,1-1.448-4.041l1.247-5.238" fill="#fff"/>
          <path id="Path_194" data-name="Path 194" d="M854.868,587.908l-1.083,4.55a3.325,3.325,0,0,0,1.23,3.5l1.677.948a1.849,1.849,0,0,1,.5,2.8l-.523.621a8.8,8.8,0,0,1-9.715,2.59l-5.22-1.9a2.913,2.913,0,0,1-1.615-4.026c2.867-5.8-.591-15.817.32-17.733m.862-.7a.506.506,0,0,1,.264.672c-.248.554,2.754,11.536-.541,18.2a1.9,1.9,0,0,0,1.056,2.63l5.22,1.9a7.788,7.788,0,0,0,8.6-2.292l.523-.622a.84.84,0,0,0-.229-1.272l-1.7-.963a4.252,4.252,0,0,1-1.7-4.566l1.253-5.269a.5.5,0,0,1,.767-.3" fill="#7a7a7a"/>
        </g>
        <g id="Group_164" data-name="Group 164">
          <path id="Path_195" data-name="Path 195" d="M853.346,586.2l1.2.907Z" fill="#fff"/>
          <path id="Path_196" data-name="Path 196" d="M854.69,587.585a.5.5,0,0,1-.455-.08l-1.194-.907a.5.5,0,1,1,.611-.8l1.194.907a.5.5,0,0,1-.156.884Z" fill="#7a7a7a"/>
        </g>
      </g>
      <path id="Shape-9" data-name="Shape" d="M857.82,593.375c-2.365,0-6.957-3.354-11.158-8.022-4.536-5.039-7.511-10.331-7.511-14.017a14.334,14.334,0,0,1,14.176-14.488c8.47,0,15.622,5.485,15.622,13,0,3.881-1.495,9.711-3.722,14.733C862.844,589.952,860.11,593.375,857.82,593.375Z" fill="#7a7a7a"/>
      <path id="Shape-10" data-name="Shape" d="M857.873,593.375c2.2,0,4.937-3.323,7.32-8.541,2.247-4.923,3.756-10.638,3.756-14.429,0-7.271-7.148-12.6-15.632-12.6a14.114,14.114,0,0,0-14.166,14.063c0,3.565,2.995,8.739,7.561,13.667C850.934,590.1,855.555,593.375,857.873,593.375Z" fill="#fff" stroke="#7a7a7a" stroke-miterlimit="10" stroke-width="1"/>
      <path id="Shape-11" data-name="Shape" d="M854.05,579.918a5.287,5.287,0,1,1,5.287-5.287A5.288,5.288,0,0,1,854.05,579.918Zm0-.2a5.087,5.087,0,1,0-5.091-5.087A5.089,5.089,0,0,0,854.05,579.718Z" fill="#7a7a7a"/>
      <path id="Shape-12" data-name="Shape" d="M867.507,579.918a5.287,5.287,0,1,1,5.287-5.287A5.287,5.287,0,0,1,867.507,579.918Zm0-.2a5.087,5.087,0,1,0-5.091-5.087A5.089,5.089,0,0,0,867.507,579.718Z" fill="#7a7a7a"/>
      <path id="Shape-13" data-name="Shape" d="M861.259,575.952a.138.138,0,0,1-.274,0,.693.693,0,0,0-1.374,0,.138.138,0,0,1-.274,0,.97.97,0,0,1,1.922,0Z" fill="#7a7a7a"/>
      <path id="Shape-14" data-name="Shape" d="M857.452,584.94a.128.128,0,0,1,0-.178.121.121,0,0,1,.174,0c1.673,1.635,3.135,2.037,4.41,1.236a.122.122,0,0,1,.169.042.126.126,0,0,1-.04.172C860.775,587.08,859.2,586.646,857.452,584.94Z" fill="#7a7a7a"/>
      <path id="Shape-15" data-name="Shape" d="M860.008,576.222a.106.106,0,0,1,.073-.142.129.129,0,0,1,.16.064l2.933,6.941a.111.111,0,0,1-.1.148l-3.6.528a.125.125,0,0,1-.144-.091.113.113,0,0,1,.1-.127l3.446-.506Z" fill="#7a7a7a"/>
      <circle id="Shape-16" data-name="Shape" cx="0.961" cy="0.961" r="0.961" transform="translate(854.531 575.111)" fill="#7a7a7a"/>
      <circle id="Shape-17" data-name="Shape" cx="0.961" cy="0.961" r="0.961" transform="translate(864.143 576.073)" fill="#7a7a7a"/>
      <path id="Shape-18" data-name="Shape" d="M846.7,574.563l.89-3.285q.885.351,2.446-1.718a11.8,11.8,0,0,0,1.968-5.91q9.435,3.253,13.026,2.057t3.561,4.623q7.165-12.971,4.383-17.129c-2.783-4.16-8.474-1.786-13.939-2.589-6.332-.93-17.663-1.247-21.188,5.673q-6.568,12.893-1.281,17.4-6.3-4.3-7.366.877t2.467,12.76q-6.828,1.692-4.361,9.24t6.43,11.623q-3.316,2.217,0,5.854c3.317,3.636-2.069,5.544-.906,9.568s11.133-.926,11.53-5.247a8.219,8.219,0,0,0-2.779-7.2q5.7-3.334,5.119-6.549t-5.119-8.556q5.12-1.044,5.119-4.886t-5.119-10a2.56,2.56,0,0,0,1.324,1.13,1.525,1.525,0,0,0,1.455,0q-2.91-11.969-1.455-11.968T846.7,574.563Z" fill="#7a7a7a"/>
      <path id="Shape-19" data-name="Shape" d="M843.957,572.823l-.5,7.02q-1.9.426-3.475-1.582c-1.575-2.008-.664-6.426.7-6.9Q842.045,570.885,843.957,572.823Z" fill="#fff"/>
      <path id="Shape-20" data-name="Shape" d="M843.769,572.971c-1.193-1.231-2.2-1.689-3.02-1.4-.582.206-1.123,1.324-1.317,2.713a5.308,5.308,0,0,0,.7,3.839c.981,1.273,2.048,1.768,3.214,1.5a.11.11,0,0,1,.131.083.112.112,0,0,1-.083.133c-1.257.288-2.406-.245-3.435-1.581-1.434-1.863-.807-6.355.72-6.9.92-.326,2,.166,3.249,1.453a.111.111,0,0,1,0,.156A.108.108,0,0,1,843.769,572.971Z" fill="#7a7a7a"/>
      <path id="Shape-21" data-name="Shape" d="M842.786,576.011c-.7-1.315-1.221-1.793-1.532-1.529a.1.1,0,0,1-.158-.025.137.137,0,0,1,.022-.178c.478-.407,1.091.158,1.862,1.6a.138.138,0,0,1-.039.175A.106.106,0,0,1,842.786,576.011Z" fill="#7a7a7a"/>
      <path id="Shape-22" data-name="Shape" d="M841.992,573.385c-.812.638-.909,1.8-.27,3.5a.108.108,0,0,1-.069.141.117.117,0,0,1-.148-.066c-.669-1.78-.564-3.036.34-3.747a.119.119,0,0,1,.163.015A.107.107,0,0,1,841.992,573.385Z" fill="#7a7a7a"/>
      <path id="Shape-23" data-name="Shape" d="M848.69,573.972a.088.088,0,0,1,.065.12.13.13,0,0,1-.151.052l-5.535-1.739a.086.086,0,0,1-.065-.119.129.129,0,0,1,.151-.052Z" fill="#7a7a7a"/>
      <path id="Shape-24" data-name="Shape" d="M872.71,575.918c.059.011.1.053.081.095a.121.121,0,0,1-.136.057l-4.582-.8c-.06-.011-.1-.053-.082-.095a.121.121,0,0,1,.136-.057Z" fill="#7a7a7a"/>
    </g>
  </g>
</svg>
