<svg xmlns="http://www.w3.org/2000/svg" width="888.204" height="471.208" viewBox="0 0 888.204 471.208">
  <g id="Group_100" data-name="Group 100" transform="translate(-2393.655 -369.395)">
    <g id="Group_53" data-name="Group 53">
      <g id="Block-texture">
        <path id="Shape" d="M3172.361,466.143q4.7-.444,9.517-.447a99.975,99.975,0,0,1,99.981,98.872H3229.1a47.287,47.287,0,0,0-56.736-45.1V466.143Z" fill="#fee299"/>
        <path id="Shape-2" data-name="Shape" d="M3260.794,518.776c-1.333,5.939-6.366,12.614-15.174,19.692a97.562,97.562,0,0,0-16.886,17.285,47.854,47.854,0,0,1,1,8.163H3250.9a81.29,81.29,0,0,1,25.473-26.457q.327-.217.651-.437a99.018,99.018,0,0,0-17.629-33.474l-3.935,1.906C3260.046,508.668,3262.019,513.317,3260.794,518.776Zm-51.366,8.968a.655.655,0,0,1-.664-.055,46.609,46.609,0,0,0-5.153-3.162.65.65,0,0,1-.323-.755c2.369-8.293,6.321-14.041,12.193-17.065,14.031-7.227,31-7.532,39.975-1.253Zm43.3-22.421c-8.927-4.7-24.006-3.971-36.651,2.542-5.393,2.778-9.1,8.058-11.389,15.761a47.891,47.891,0,0,1,4.511,2.777Zm6.557-3.175a.655.655,0,0,1,.794.176,100.338,100.338,0,0,1,18.327,34.784.651.651,0,0,1-.258.722q-.524.357-1.055.712a79.918,79.918,0,0,0-25.26,26.353.654.654,0,0,1-.565.325H3229.1a.652.652,0,0,1-.653-.637,46.6,46.6,0,0,0-1.051-8.846.651.651,0,0,1,.115-.528,98.794,98.794,0,0,1,17.291-17.757c16.418-13.191,18.974-24.581,9.907-30.93a18.445,18.445,0,0,0-1.974-1.2Zm-57.172-5.269c2.027-4.526,4.113-8.976,6.728-14.41.468-.973.942-1.954,1.539-3.188l1.445-2.985c.951-1.966,1.629-3.379,2.219-4.624q-2.135-.73-4.3-1.363a168.133,168.133,0,0,0-31.349,47.679q1.733-.124,3.483-.125a48.068,48.068,0,0,1,11.252,1.327C3195.554,512.216,3198.539,504.867,3202.117,496.879Zm-8.725,23.719a46.756,46.756,0,0,0-11.514-1.431q-2.238,0-4.448.209a.652.652,0,0,1-.664-.9,169.317,169.317,0,0,1,32.291-49.347.657.657,0,0,1,.662-.183q2.75.789,5.447,1.734a.651.651,0,0,1,.375.892c-.667,1.418-1.411,2.97-2.534,5.292-.3.611-1.345,2.78-1.445,2.985-.6,1.234-1.07,2.214-1.538,3.186-2.61,5.424-4.691,9.864-6.713,14.378-3.656,8.164-6.69,15.654-9.133,22.749l-.006.018A.655.655,0,0,1,3193.392,520.6Z" fill="#fff"/>
      </g>
      <path id="Shape-3" data-name="Shape" d="M3155.615,770.757a1.733,1.733,0,1,1-1.732-1.742A1.737,1.737,0,0,1,3155.615,770.757Zm12.127,0a1.732,1.732,0,1,1-1.733-1.742A1.738,1.738,0,0,1,3167.742,770.757Zm-12.127-12.2a1.733,1.733,0,1,1-1.732-1.742A1.737,1.737,0,0,1,3155.615,758.561Zm12.127,0a1.732,1.732,0,1,1-1.733-1.742A1.738,1.738,0,0,1,3167.742,758.561Zm-12.127-12.2a1.733,1.733,0,1,1-1.732-1.742A1.737,1.737,0,0,1,3155.615,746.365Zm12.127,0a1.732,1.732,0,1,1-1.733-1.742A1.738,1.738,0,0,1,3167.742,746.365Zm-12.127-12.2a1.733,1.733,0,1,1-1.732-1.743A1.737,1.737,0,0,1,3155.615,734.169Zm12.127,0a1.732,1.732,0,1,1-1.733-1.743A1.738,1.738,0,0,1,3167.742,734.169Zm-12.127-12.2a1.733,1.733,0,1,1-1.732-1.743A1.737,1.737,0,0,1,3155.615,721.973Zm12.127,0a1.732,1.732,0,1,1-1.733-1.743A1.738,1.738,0,0,1,3167.742,721.973Zm-12.127-12.2a1.733,1.733,0,1,1-1.732-1.743A1.737,1.737,0,0,1,3155.615,709.777Zm12.127,0a1.732,1.732,0,1,1-1.733-1.743A1.738,1.738,0,0,1,3167.742,709.777Zm12.126,60.98a1.732,1.732,0,1,1-1.732-1.742A1.737,1.737,0,0,1,3179.868,770.757Zm12.126,0a1.732,1.732,0,1,1-1.732-1.742A1.737,1.737,0,0,1,3191.994,770.757Zm-12.126-12.2a1.732,1.732,0,1,1-1.732-1.742A1.737,1.737,0,0,1,3179.868,758.561Zm12.126,0a1.732,1.732,0,1,1-1.732-1.742A1.737,1.737,0,0,1,3191.994,758.561Zm-12.126-12.2a1.732,1.732,0,1,1-1.732-1.742A1.737,1.737,0,0,1,3179.868,746.365Zm12.126,0a1.732,1.732,0,1,1-1.732-1.742A1.737,1.737,0,0,1,3191.994,746.365Zm-12.126-12.2a1.732,1.732,0,1,1-1.732-1.743A1.737,1.737,0,0,1,3179.868,734.169Zm12.126,0a1.732,1.732,0,1,1-1.732-1.743A1.737,1.737,0,0,1,3191.994,734.169Zm-12.126-12.2a1.732,1.732,0,1,1-1.732-1.743A1.737,1.737,0,0,1,3179.868,721.973Zm12.126,0a1.732,1.732,0,1,1-1.732-1.743A1.737,1.737,0,0,1,3191.994,721.973Zm-12.126-12.2a1.732,1.732,0,1,1-1.732-1.743A1.737,1.737,0,0,1,3179.868,709.777Zm12.126,0a1.732,1.732,0,1,1-1.732-1.743A1.737,1.737,0,0,1,3191.994,709.777Zm12.127,60.98a1.733,1.733,0,1,1-1.733-1.742A1.738,1.738,0,0,1,3204.121,770.757Zm12.126,0a1.732,1.732,0,1,1-1.732-1.742A1.737,1.737,0,0,1,3216.247,770.757Zm-12.126-12.2a1.733,1.733,0,1,1-1.733-1.742A1.738,1.738,0,0,1,3204.121,758.561Zm12.126,0a1.732,1.732,0,1,1-1.732-1.742A1.737,1.737,0,0,1,3216.247,758.561Zm-12.126-12.2a1.733,1.733,0,1,1-1.733-1.742A1.738,1.738,0,0,1,3204.121,746.365Zm12.126,0a1.732,1.732,0,1,1-1.732-1.742A1.737,1.737,0,0,1,3216.247,746.365Zm-12.126-12.2a1.733,1.733,0,1,1-1.733-1.743A1.738,1.738,0,0,1,3204.121,734.169Zm12.126,0a1.732,1.732,0,1,1-1.732-1.743A1.737,1.737,0,0,1,3216.247,734.169Zm-12.126-12.2a1.733,1.733,0,1,1-1.733-1.743A1.738,1.738,0,0,1,3204.121,721.973Zm12.126,0a1.732,1.732,0,1,1-1.732-1.743A1.737,1.737,0,0,1,3216.247,721.973Zm-12.126-12.2a1.733,1.733,0,1,1-1.733-1.743A1.738,1.738,0,0,1,3204.121,709.777Zm12.126,0a1.732,1.732,0,1,1-1.732-1.743A1.737,1.737,0,0,1,3216.247,709.777Zm12.127,60.98a1.733,1.733,0,1,1-1.733-1.742A1.738,1.738,0,0,1,3228.374,770.757Zm12.126,0a1.733,1.733,0,1,1-1.732-1.742A1.737,1.737,0,0,1,3240.5,770.757Zm-12.126-12.2a1.733,1.733,0,1,1-1.733-1.742A1.738,1.738,0,0,1,3228.374,758.561Zm12.126,0a1.733,1.733,0,1,1-1.732-1.742A1.737,1.737,0,0,1,3240.5,758.561Zm-12.126-12.2a1.733,1.733,0,1,1-1.733-1.742A1.738,1.738,0,0,1,3228.374,746.365Zm12.126,0a1.733,1.733,0,1,1-1.732-1.742A1.737,1.737,0,0,1,3240.5,746.365Zm-12.126-12.2a1.733,1.733,0,1,1-1.733-1.743A1.738,1.738,0,0,1,3228.374,734.169Zm12.126,0a1.733,1.733,0,1,1-1.732-1.743A1.737,1.737,0,0,1,3240.5,734.169Zm-12.126-12.2a1.733,1.733,0,1,1-1.733-1.743A1.738,1.738,0,0,1,3228.374,721.973Zm12.126,0a1.733,1.733,0,1,1-1.732-1.743A1.737,1.737,0,0,1,3240.5,721.973Zm-12.126-12.2a1.733,1.733,0,1,1-1.733-1.743A1.738,1.738,0,0,1,3228.374,709.777Zm12.126,0a1.733,1.733,0,1,1-1.732-1.743A1.737,1.737,0,0,1,3240.5,709.777Z" fill="#7a7a7a"/>
      <g id="Block-texture-2" data-name="Block-texture">
        <path id="Shape-4" data-name="Shape" d="M2394.241,396.416h123.8V520.027h-123.8Z" fill="#fee299"/>
        <path id="Shape-5" data-name="Shape" d="M2394.827,498.377c6.775-1.09,12.222-7.576,16.981-19.306,3.772-9.3,6.278-18.659,11.325-40.432l.2-.875c1.8-7.777,3.3-14.024,4.645-19.268q-14.112,8.488-33.154,18.688ZM2435.1,396.192a.586.586,0,0,1,.541-.361h23.23a.585.585,0,0,1,.388,1.023q-10.084,8.9-31.274,21.642A157.833,157.833,0,0,1,2435.1,396.192Zm22.2.809H2436.03a147.13,147.13,0,0,0-6.185,19Q2447.9,404.991,2457.3,397Zm-27.452,19c-1.537,5.779-3.235,12.829-5.367,22.029l-.2.875c-5.063,21.839-7.577,31.232-11.381,40.607-5.056,12.462-10.961,19.286-18.59,20.117a.585.585,0,0,1-.649-.581V436.834a.586.586,0,0,1,.309-.516Q2414.877,425.125,2429.845,416Zm76.691,103.443q5.412-2.625,10.918-5.122V435.157a123.176,123.176,0,0,0-40.542-2.085c-15.72,2.022-26.471,8.266-33.755,18.544-5.745,8.107-8.981,17.555-12.331,33.221-.376,1.76-.4,1.878-1.383,6.633-2.981,14.438-4.857,21.368-8.189,27.972Zm-86.761.313c3.544-6.743,5.433-13.567,8.521-28.521.983-4.759,1.007-4.878,1.384-6.641,3.381-15.811,6.659-25.381,12.521-33.653,7.477-10.55,18.522-16.966,34.561-19.029a124.593,124.593,0,0,1,41.4,2.2.585.585,0,0,1,.463.572V514.7a.585.585,0,0,1-.345.533q-5.729,2.592-11.354,5.323a.6.6,0,0,1-.256.059h-86.377A.585.585,0,0,1,2419.775,519.755Zm-24.948-9.479v9.166h1.781Zm2.492,10.336h-3.078a.585.585,0,0,1-.586-.585V504.192a.586.586,0,0,1,1.161-.111l3.078,15.834A.586.586,0,0,1,2397.319,520.612Z" fill="#fff"/>
      </g>
      <path id="Shape-6" data-name="Shape" d="M2524.609,760.587l-48.17,48.1h-3.8l51.971-51.892Zm0,14.236-33.913,33.86h-3.8l37.714-37.656v3.8Zm0,14.236-19.655,19.624h-3.8l23.456-23.42Zm0,14.236-5.4,5.388h-3.8l9.2-9.184Zm0-57.351-62.835,62.739h-3.8l66.636-66.535v3.8Zm0-14.643-77.5,77.382h-3.8l81.3-81.178Zm0-14.643-92.165,92.025h-3.8l95.966-95.82Zm0-14.642-106.83,106.667h-3.8L2524.609,698.22Zm-.916-13.729L2404.03,807.769v-3.8l115.861-115.686Zm-14.665,0-105,104.839v-3.8l101.2-101.043Zm-14.665,0-90.333,90.2v-3.795l86.531-86.4Zm-14.665,0L2404.03,763.84v-3.8l71.866-71.758Zm-14.665,0-61,60.911v-3.8l57.2-57.115Zm-14.665,0-46.338,46.268v-3.8l42.536-42.472Zm-14.665,0-31.673,31.625v-3.795l27.871-27.83Zm-14.665,0-17.008,16.982v-3.795l13.206-13.187Zm-14.665,0-2.343,2.34v-2.34Z" fill="#7a7a7a"/>
    </g>
    <g id="Block-texture-3" data-name="Block-texture">
      <path id="Shape-7" data-name="Shape" d="M2966.54,788.3a55.7,55.7,0,0,0,7.992,23.382l44.07,27.585a61.4,61.4,0,0,0,6.633.358q1.743,0,3.474-.1a303.347,303.347,0,0,1,55.171-63.5,57.348,57.348,0,0,0-32.409-44.916,77.07,77.07,0,0,0-12.74,4.587c-9.143,4.28-14.7,9.983-17.491,17.249-2.273,5.911-2.718,12.465-1.973,21.669.154,1.9.318,3.548.66,6.769.942,8.881,1.183,12.438.9,16.808-.375,5.81-1.889,10.409-4.936,14.135-3.8,4.641-8.337,6.843-13.041,6.694a15.82,15.82,0,0,1-11.02-5.266c-2.841-3.118-4.217-7.01-3.573-10.53.724-3.964,3.882-7.119,9.341-8.888,4.868-1.578,7.431-6.748,8.238-15.547.619-6.759.328-13.225-.924-28.69l-.03-.378c-.287-3.549-.514-6.473-.688-9Q2990.623,759.629,2966.54,788.3Zm37.158-59.914a.486.486,0,0,1,.319-.456,60.816,60.816,0,0,1,9.565-2.649.486.486,0,0,1,.508.731q-3.935,6.415-9.9,14.715C3003.84,735.585,3003.7,732.106,3003.7,728.391Zm8.972-1.93a59.931,59.931,0,0,0-8,2.27c.008,2.871.1,5.639.317,9.2Q3009.461,731.612,3012.67,726.461Zm-7.679,11.475c.187,3.1.467,6.81.864,11.714l.03.377c1.257,15.527,1.549,22.02.923,28.857-.838,9.145-3.569,14.653-8.908,16.384-5.139,1.665-8.027,4.552-8.683,8.138-.584,3.2.687,6.793,3.336,9.7a14.848,14.848,0,0,0,10.329,4.948c4.391.139,8.644-1.924,12.254-6.337,2.905-3.552,4.355-7.959,4.719-13.583.277-4.294.038-7.82-.9-16.643-.343-3.228-.507-4.88-.662-6.792-.756-9.337-.3-16.021,2.035-22.1,2.887-7.508,8.622-13.4,17.986-17.781a78.323,78.323,0,0,1,13.079-4.693.482.482,0,0,1,.336.032,58.319,58.319,0,0,1,33.147,46.017.487.487,0,0,1-.164.419,302.327,302.327,0,0,0-55.319,63.67.49.49,0,0,1-.381.222q-1.881.114-3.779.114a62.378,62.378,0,0,1-6.851-.376.492.492,0,0,1-.206-.071l-44.261-27.705a.488.488,0,0,1-.156-.157,56.674,56.674,0,0,1-8.213-24.1.483.483,0,0,1,.112-.361Q2991.265,757.355,3004.991,737.936Z" fill="#fff"/>
    </g>
    <g id="geometric-">
      <path id="Shape-8" data-name="Shape" d="M2617.368,628.988a25.618,25.618,0,1,1,25.463-25.618A25.54,25.54,0,0,1,2617.368,628.988Zm0-.973a24.646,24.646,0,1,0-24.49-24.645A24.567,24.567,0,0,0,2617.368,628.015Z" fill="#7a7a7a"/>
      <path id="Shape-9" data-name="Shape" d="M2606.988,629.15a29.023,29.023,0,1,1,28.869-29.023A28.946,28.946,0,0,1,2606.988,629.15Zm0-9.88a19.143,19.143,0,1,0-19.041-19.143A19.093,19.093,0,0,0,2606.988,619.27Z" fill="#7cd9be"/>
    </g>
    <g id="Group">
      <path id="Shape-10" data-name="Shape" d="M2689.143,401.625c-2.214,0-3.012-3.962-2.775-11.961h-64.933a48.7,48.7,0,0,1,.813,9.011v83.618a.485.485,0,1,1-.971,0V398.675a47.569,47.569,0,0,0-.83-9.011l-1.415,0c-13.271-1.312-19.614-6.156-18.756-14.527.644-6.285,6.209-7.526,11.749-3.135,4.309,3.414,7.636,9.263,9.215,16.692h65.629a.486.486,0,0,1,.485.5c-.261,7.613.47,11.459,1.963,11.255a3.935,3.935,0,0,0,.305-1.125,35.762,35.762,0,0,0,.281-4.159c.065-1.878.088-2.434.144-3.367a22.992,22.992,0,0,1,1.092-6.545c.779-2.073,2.033-3.225,3.848-3.225,1.886,0,2.852,1.446,3.133,4.04a41.365,41.365,0,0,1-.3,8.172,41.5,41.5,0,0,0-.314,7.751c.208,2.128.838,3.113,2.019,3.113,1.239,0,2.194-1.187,2.935-3.6a48.9,48.9,0,0,0,1.481-8.575c.046-.4.092-.8.182-1.589a55.116,55.116,0,0,1,1.2-7.722c.634-2.419,1.518-3.72,2.9-3.72,1.445,0,2.237,1.319,2.61,3.681a43.862,43.862,0,0,1,.278,7.279c0,.312-.008.582-.017,1.109a45.21,45.21,0,0,0,.161,6.986c.24,1.657.6,2.1,1.269,1.75,1.549-.809,2.254-2.432,2.645-5.326.058-.424.077-.587.187-1.574a12.634,12.634,0,0,1,.662-3.418,2.369,2.369,0,0,1,2.3-1.7h19.262a.486.486,0,0,1,0,.973h-19.262c-1.236,0-1.633.982-2,4.252-.112,1-.131,1.163-.19,1.6-.43,3.18-1.246,5.059-3.158,6.057-1.5.782-2.357-.257-2.678-2.473a45.519,45.519,0,0,1-.171-7.141c.008-.526.013-.8.017-1.107.1-6.956-.376-9.973-1.918-9.973-.775,0-1.433.969-1.965,2.994a54.809,54.809,0,0,0-1.174,7.585c-.09.793-.135,1.192-.182,1.591a49.513,49.513,0,0,1-1.518,8.75c-.852,2.771-2.068,4.28-3.862,4.28-1.821,0-2.734-1.427-2.985-3.99a42.85,42.85,0,0,1,.327-8.078,40.086,40.086,0,0,0,.284-7.836c-.234-2.162-.908-3.171-2.168-3.171-2.512,0-3.618,2.943-3.971,8.855-.056.922-.078,1.474-.144,3.343a35.859,35.859,0,0,1-.291,4.277C2690.362,400.864,2689.968,401.625,2689.143,401.625ZM2619.1,388.691h1.144c-1.549-7.116-4.738-12.691-8.825-15.929-5.006-3.967-9.627-2.937-10.182,2.471C2600.451,382.938,2606.315,387.422,2619.1,388.691Z" fill="#7a7a7a"/>
      <path id="Shape-11" data-name="Shape" d="M2749.493,393.713a3.729,3.729,0,1,1,3.72-3.728A3.724,3.724,0,0,1,2749.493,393.713Zm0-.973a2.755,2.755,0,1,0-2.75-2.755A2.752,2.752,0,0,0,2749.493,392.74Z" fill="#7a7a7a"/>
      <path id="Shape-12" data-name="Shape" d="M2622.035,497.783a3.729,3.729,0,1,1,3.72-3.729A3.725,3.725,0,0,1,2622.035,497.783Zm0-.973a2.756,2.756,0,1,0-2.749-2.756A2.753,2.753,0,0,0,2622.035,496.81Z" fill="#7a7a7a"/>
    </g>
    <path id="Shape-13" data-name="Shape" d="M2891.789,415.156a.487.487,0,1,1-.945-.237,56.774,56.774,0,0,1,3.364-10.452c1.139-2.31,2.348-3.194,3.532-2.189,2,1.7,2.976,5.111,4.179,12.523.042.256.084.517.14.865-.009-.051.106.665.138.86a49.684,49.684,0,0,0,1.652,7.887c.7,2.087,1.516,3.029,2.5,2.932,1.192-.118,2.351-1.428,3.522-3.928a67.177,67.177,0,0,0,3.108-8.8c.06-.2.272-.887.271-.883a86.288,86.288,0,0,1,2.839-8.325c1.148-2.735,2.3-4.526,3.63-5.4,1.109-.73,1.824.031,2.136,1.628a32.969,32.969,0,0,1,.372,5.037c.029.875.037,1.09.052,1.5.195,5.1.738,7.473,1.907,7.473,1.071,0,2.05-1.147,3.322-3.737.361-.737,1.641-3.543,1.819-3.919,2.282-4.833,4.267-7.34,7.26-8.046,3.467-.819,7.252,2.7,11.474,10.42a.491.491,0,0,1-.192.664.486.486,0,0,1-.662-.193c-4.024-7.353-7.529-10.616-10.4-9.939-2.6.615-4.442,2.938-6.6,7.513-.172.365-1.457,3.181-1.826,3.932-1.435,2.926-2.595,4.284-4.195,4.284-1.194,0-1.914-1.035-2.331-2.863a30.957,30.957,0,0,1-.549-5.552c-.016-.408-.023-.624-.052-1.5a32.482,32.482,0,0,0-.355-4.881c-.2-1.027-.355-1.191-.647-1-1.12.737-2.187,2.391-3.265,4.96a85.432,85.432,0,0,0-2.806,8.233l-.271.883a67.607,67.607,0,0,1-3.158,8.931c-1.3,2.788-2.663,4.323-4.308,4.486-1.583.157-2.683-1.12-3.517-3.591a50.343,50.343,0,0,1-1.691-8.046c-.031-.2-.146-.911-.138-.86l-.139-.864c-1.155-7.114-2.113-10.462-3.847-11.933-.488-.414-1.133.057-2.03,1.876A56.149,56.149,0,0,0,2891.789,415.156Z" fill="#7a7a7a"/>
    <path id="Path_24" data-name="Path 24" d="M2646.343,397.974l-3.649-.472v1.146a6.208,6.208,0,0,1,3.649-.674Z" fill="#fff"/>
    <g id="Group_99" data-name="Group 99">
      <g id="Group_55" data-name="Group 55">
        <g id="Group_54" data-name="Group 54">
          <rect id="Rectangle_5" data-name="Rectangle 5" width="343.547" height="274.383" rx="31.325" transform="translate(2707.786 436.992)" fill="#fff"/>
          <path id="Path_25" data-name="Path 25" d="M3035.518,711.879H2723.6a16.338,16.338,0,0,1-16.32-16.319V452.807a16.338,16.338,0,0,1,16.32-16.32h311.917a16.339,16.339,0,0,1,16.32,16.32V695.56A16.339,16.339,0,0,1,3035.518,711.879ZM2723.6,437.5a15.327,15.327,0,0,0-15.31,15.31V695.56a15.327,15.327,0,0,0,15.31,15.31h311.917a15.327,15.327,0,0,0,15.31-15.31V452.807a15.327,15.327,0,0,0-15.31-15.31Z" fill="#7a7a7a"/>
        </g>
        <path id="Path_26" data-name="Path 26" d="M3051.412,471.3H2707.865a.5.5,0,0,1-.5-.5V452.847a16.378,16.378,0,0,1,16.36-16.36h311.837a16.379,16.379,0,0,1,16.36,16.36V470.8A.5.5,0,0,1,3051.412,471.3ZM2708.37,470.3h342.537V452.847a15.367,15.367,0,0,0-15.35-15.35H2723.72a15.367,15.367,0,0,0-15.35,15.35Z" fill="#7a7a7a"/>
        <path id="Path_27" data-name="Path 27" d="M3012.3,686.436H2746.815a13.621,13.621,0,0,1-13.606-13.606V507.921a13.621,13.621,0,0,1,13.606-13.606H3012.3a13.622,13.622,0,0,1,13.606,13.606V672.83A13.622,13.622,0,0,1,3012.3,686.436ZM2746.815,495.325a12.609,12.609,0,0,0-12.6,12.6V672.83a12.61,12.61,0,0,0,12.6,12.6H3012.3a12.61,12.61,0,0,0,12.6-12.6V507.921a12.61,12.61,0,0,0-12.6-12.6Z" fill="#7a7a7a"/>
      </g>
      <g id="Group_57" data-name="Group 57">
        <g id="Group_56" data-name="Group 56">
          <circle id="Ellipse_3" data-name="Ellipse 3" cx="5.771" cy="5.771" r="5.771" transform="translate(2989.092 458.732) rotate(-76.254)" fill="#7a7a7a"/>
          <circle id="Ellipse_4" data-name="Ellipse 4" cx="5.771" cy="5.771" r="5.771" transform="matrix(0.223, -0.975, 0.975, 0.223, 3008.028, 458.84)" fill="#7a7a7a"/>
          <circle id="Ellipse_5" data-name="Ellipse 5" cx="5.771" cy="5.771" r="5.771" transform="translate(3025.646 454.498) rotate(-45)" fill="#7a7a7a"/>
        </g>
      </g>
      <g id="Group_59" data-name="Group 59">
        <g id="Group_58" data-name="Group 58">
          <rect id="Rectangle_6" data-name="Rectangle 6" width="208.312" height="155.125" rx="20.995" transform="translate(2642.766 412.705)" fill="#fff"/>
          <path id="Path_28" data-name="Path 28" d="M2840.478,568.335H2653.366a11.117,11.117,0,0,1-11.1-11.105V423.3a11.117,11.117,0,0,1,11.1-11.1h187.112a11.118,11.118,0,0,1,11.1,11.1V557.23A11.118,11.118,0,0,1,2840.478,568.335ZM2653.366,413.21a10.106,10.106,0,0,0-10.095,10.1V557.23a10.106,10.106,0,0,0,10.095,10.1h187.112a10.106,10.106,0,0,0,10.095-10.1V423.3a10.106,10.106,0,0,0-10.095-10.1Z" fill="#7a7a7a"/>
        </g>
      </g>
      <g id="Group_60" data-name="Group 60">
        <path id="Path_29" data-name="Path 29" d="M2830.931,432.283h-35.48a2.655,2.655,0,1,1,0-5.31h35.48a2.655,2.655,0,1,1,0,5.31Z" fill="#7a7a7a"/>
        <path id="Path_30" data-name="Path 30" d="M2838.552,443.652H2787.74a2.656,2.656,0,0,1,0-5.311h50.812a2.656,2.656,0,0,1,0,5.311Z" fill="#7a7a7a"/>
        <path id="Path_31" data-name="Path 31" d="M2838.682,465.023h-50.773a2.656,2.656,0,0,1,0-5.311h50.773a2.656,2.656,0,0,1,0,5.311Z" fill="#7a7a7a"/>
        <path id="Path_32" data-name="Path 32" d="M2838.513,475.288h-49.668a2.655,2.655,0,1,1,0-5.31h49.668a2.655,2.655,0,1,1,0,5.31Z" fill="#7a7a7a"/>
        <path id="Path_33" data-name="Path 33" d="M2838.849,485.723h-49.668a2.656,2.656,0,0,1,0-5.311h49.668a2.656,2.656,0,0,1,0,5.311Z" fill="#7a7a7a"/>
        <path id="Path_34" data-name="Path 34" d="M2838.681,495.988h-50.772a2.655,2.655,0,1,1,0-5.31h50.772a2.655,2.655,0,1,1,0,5.31Z" fill="#7a7a7a"/>
        <path id="Path_35" data-name="Path 35" d="M2838.512,506.592H2787.74a2.656,2.656,0,0,1,0-5.311h50.772a2.656,2.656,0,0,1,0,5.311Z" fill="#7a7a7a"/>
        <path id="Path_36" data-name="Path 36" d="M2806.327,454.793h-18.492a2.655,2.655,0,1,1,0-5.31h18.492a2.655,2.655,0,1,1,0,5.31Z" fill="#7a7a7a"/>
        <path id="Path_37" data-name="Path 37" d="M2838.807,454.793h-19.514a2.655,2.655,0,1,1,0-5.31h19.514a2.655,2.655,0,1,1,0,5.31Z" fill="#7a7a7a"/>
      </g>
      <g id="Group_61" data-name="Group 61">
        <path id="Path_38" data-name="Path 38" d="M2706.65,515.048h-50.044a2.655,2.655,0,0,1,0-5.311h50.044a2.655,2.655,0,0,1,0,5.311Z" fill="#7a7a7a"/>
        <path id="Path_39" data-name="Path 39" d="M2754.157,514.879h-38.313a2.655,2.655,0,1,1,0-5.31h38.313a2.655,2.655,0,1,1,0,5.31Z" fill="#7a7a7a"/>
        <path id="Path_40" data-name="Path 40" d="M2691.709,503.976h-35.272a2.655,2.655,0,1,1,0-5.31h35.272a2.655,2.655,0,1,1,0,5.31Z" fill="#7a7a7a"/>
      </g>
      <path id="Path_41" data-name="Path 41" d="M2754.288,560.744h-96.937a4.212,4.212,0,0,1-4.207-4.208V525.908a4.211,4.211,0,0,1,4.207-4.207h96.937a4.212,4.212,0,0,1,4.207,4.207v30.628A4.212,4.212,0,0,1,2754.288,560.744Zm-96.937-38.034a3.2,3.2,0,0,0-3.2,3.2v30.628a3.2,3.2,0,0,0,3.2,3.2h96.937a3.2,3.2,0,0,0,3.2-3.2V525.908a3.2,3.2,0,0,0-3.2-3.2Z" fill="#7a7a7a"/>
      <path id="Path_42" data-name="Path 42" d="M2839.444,560.743h-69.338a4.211,4.211,0,0,1-4.207-4.207V525.907a4.211,4.211,0,0,1,4.207-4.207h69.338a4.212,4.212,0,0,1,4.207,4.207v30.629A4.212,4.212,0,0,1,2839.444,560.743Zm-69.338-38.033a3.2,3.2,0,0,0-3.2,3.2v30.629a3.2,3.2,0,0,0,3.2,3.2h69.338a3.2,3.2,0,0,0,3.2-3.2V525.907a3.2,3.2,0,0,0-3.2-3.2Z" fill="#7a7a7a"/>
      <rect id="Rectangle_7" data-name="Rectangle 7" width="124.701" height="58.74" rx="8.001" transform="translate(2653.652 426.784)" fill="#7a7a7a"/>
      <g id="Group_67" data-name="Group 67">
        <circle id="Ellipse_6" data-name="Ellipse 6" cx="14.006" cy="14.006" r="14.006" transform="translate(2799.551 648.117)" fill="#fff"/>
        <g id="Group_63" data-name="Group 63">
          <g id="Group_62" data-name="Group 62">
            <circle id="Ellipse_7" data-name="Ellipse 7" cx="14.006" cy="14.006" r="14.006" transform="translate(2845.345 648.117)" fill="#fff"/>
            <path id="Path_43" data-name="Path 43" d="M2859.352,676.635a14.512,14.512,0,1,1,14.511-14.511A14.527,14.527,0,0,1,2859.352,676.635Zm0-28.013a13.5,13.5,0,1,0,13.5,13.5A13.517,13.517,0,0,0,2859.352,648.622Z" fill="#7a7a7a"/>
          </g>
          <path id="Path_44" data-name="Path 44" d="M2854.7,667.545V656.7a.746.746,0,0,1,1.077-.669l10.842,5.354a.746.746,0,0,1,.007,1.335l-10.843,5.489A.746.746,0,0,1,2854.7,667.545Z" fill="#7a7a7a"/>
        </g>
        <g id="Group_66" data-name="Group 66">
          <g id="Group_64" data-name="Group 64">
            <circle id="Ellipse_8" data-name="Ellipse 8" cx="14.006" cy="14.006" r="14.006" transform="translate(2891.14 648.117)" fill="#fff"/>
            <path id="Path_45" data-name="Path 45" d="M2905.147,676.635a14.512,14.512,0,1,1,14.511-14.511A14.528,14.528,0,0,1,2905.147,676.635Zm0-28.013a13.5,13.5,0,1,0,13.5,13.5A13.517,13.517,0,0,0,2905.147,648.622Z" fill="#7a7a7a"/>
          </g>
          <g id="Group_65" data-name="Group 65">
            <path id="Path_46" data-name="Path 46" d="M2909.74,667.207a.5.5,0,0,1-.357-.148l-9.344-9.345a.5.5,0,0,1,.714-.714l9.344,9.345a.5.5,0,0,1-.357.862Z" fill="#7a7a7a"/>
            <path id="Path_47" data-name="Path 47" d="M2900.4,667.207a.5.5,0,0,1-.357-.862l9.344-9.345a.5.5,0,0,1,.714.714l-9.344,9.345A.5.5,0,0,1,2900.4,667.207Z" fill="#7a7a7a"/>
          </g>
        </g>
      </g>
      <path id="Path_48" data-name="Path 48" d="M2838.168,606.553a.5.5,0,0,1-.273-.93l24.789-15.934a.5.5,0,0,1,.546.849l-24.789,15.934A.5.5,0,0,1,2838.168,606.553Z" fill="#7a7a7a"/>
      <path id="Path_49" data-name="Path 49" d="M2805.237,627.721a.5.5,0,0,1-.273-.93l22.443-14.427a.505.505,0,1,1,.546.85L2805.51,627.64A.5.5,0,0,1,2805.237,627.721Z" fill="#7a7a7a"/>
      <path id="Path_50" data-name="Path 50" d="M2826.7,631.35a.5.5,0,0,1-.273-.93l57.719-37.1a.5.5,0,1,1,.546.849l-57.719,37.1A.5.5,0,0,1,2826.7,631.35Z" fill="#7a7a7a"/>
      <g id="Group_90" data-name="Group 90">
        <g id="Group_69" data-name="Group 69">
          <g id="Group_68" data-name="Group 68">
            <path id="Path_51" data-name="Path 51" d="M2758.579,735.938l-70.739-.7c-12.792,0-23.733-8.351-25.974-21.064l-12.11-68.707a13.321,13.321,0,0,1,13.029-15.7h46.157Z" fill="#fff"/>
            <path id="Path_52" data-name="Path 52" d="M2758.579,736.443h-.005l-70.739-.7c-13.352,0-24.237-8.834-26.466-21.481l-12.11-68.708a13.909,13.909,0,0,1,3.042-11.386,13.662,13.662,0,0,1,10.484-4.9h46.157a.505.505,0,0,1,.457.291l49.637,106.174a.5.5,0,0,1-.457.718ZM2662.785,630.27a12.655,12.655,0,0,0-9.711,4.544,12.9,12.9,0,0,0-2.821,10.562l12.11,68.707c2.143,12.157,12.619,20.647,25.477,20.647l69.942.7L2708.62,630.27Z" fill="#7a7a7a"/>
          </g>
          <path id="Path_53" data-name="Path 53" d="M2716.377,819.947h-11.638V735.112l11.638.443Z" fill="#7a7a7a"/>
          <path id="Path_54" data-name="Path 54" d="M2738.041,805.755h-52.352a14.787,14.787,0,0,0-14.788,14.787h81.927A14.786,14.786,0,0,0,2738.041,805.755Z" fill="#7a7a7a"/>
          <path id="Path_55" data-name="Path 55" d="M2668.891,683.32a.505.505,0,0,1-.5-.418l-5.87-33.353a.5.5,0,1,1,.994-.175l5.87,33.353a.505.505,0,0,1-.41.585A.524.524,0,0,1,2668.891,683.32Z" fill="#7a7a7a"/>
        </g>
        <g id="Group_86" data-name="Group 86">
          <g id="Group_76" data-name="Group 76">
            <g id="Group_70" data-name="Group 70">
              <path id="Path_56" data-name="Path 56" d="M2801.683,778.557c-.1.4,4.638,22.073,4.638,22.073l-10.885-1.822-3.278-18.321Z" fill="#fff"/>
              <path id="Path_57" data-name="Path 57" d="M2806.321,801.135a.455.455,0,0,1-.083-.007l-10.885-1.822a.506.506,0,0,1-.414-.409l-3.278-18.321a.5.5,0,0,1,.4-.584l9.525-1.929a.5.5,0,0,1,.6.519c.074.9,2.8,13.582,4.627,21.941a.5.5,0,0,1-.493.612Zm-10.45-2.766,9.8,1.64c-3.236-14.819-4.152-19.395-4.4-20.853l-8.53,1.728Z" fill="#7a7a7a"/>
            </g>
            <g id="Group_72" data-name="Group 72">
              <g id="Group_71" data-name="Group 71">
                <path id="Path_58" data-name="Path 58" d="M2800.541,793.522a4.711,4.711,0,0,1,2.829-1.158,4.525,4.525,0,0,1,4.243,2.742c1.887,4.2,6.864,15.881,8.271,25.433.5,3.375-2.05,6.121-6.019,3.909-6.5-3.625-15.528-11.947-20.251-24.237a4.451,4.451,0,0,1,.541-4.224,21.285,21.285,0,0,1,2.859-3.225,2.977,2.977,0,0,1,3.877-.062l1.023.841A2.048,2.048,0,0,0,2800.541,793.522Z" fill="#fff"/>
                <path id="Path_59" data-name="Path 59" d="M2812.546,825.753a6.032,6.032,0,0,1-2.927-.864c-6.8-3.793-15.758-12.22-20.477-24.5a4.932,4.932,0,0,1,.606-4.7,21.359,21.359,0,0,1,2.93-3.3,3.463,3.463,0,0,1,4.534-.076l1.022.841a1.551,1.551,0,0,0,1.982-.015,5.21,5.21,0,0,1,3.132-1.276,5.049,5.049,0,0,1,4.725,3.039c2.031,4.514,6.908,16.042,8.31,25.566a4.684,4.684,0,0,1-1.686,4.641A3.752,3.752,0,0,1,2812.546,825.753Zm-17.567-33.239a2.434,2.434,0,0,0-1.628.624,20.385,20.385,0,0,0-2.788,3.147,3.927,3.927,0,0,0-.478,3.745c4.622,12.025,13.375,20.27,20.026,23.977,1.57.875,2.995.97,4.012.268a3.7,3.7,0,0,0,1.261-3.663c-1.384-9.4-6.218-20.823-8.232-25.3a4.033,4.033,0,0,0-3.76-2.444,4.152,4.152,0,0,0-2.526,1.04,2.56,2.56,0,0,1-3.273.022l-1.022-.841A2.509,2.509,0,0,0,2794.979,792.514Z" fill="#7a7a7a"/>
              </g>
              <path id="Path_60" data-name="Path 60" d="M2813.407,821.947c-.857,0-10.033-.536-21.162-22.531a.5.5,0,0,1,.9-.456c11.093,21.925,20.194,21.984,20.281,21.977a.509.509,0,0,1,.518.491.5.5,0,0,1-.485.518Z" fill="#7a7a7a"/>
              <path id="Path_61" data-name="Path 61" d="M2806.442,809.839a.505.505,0,0,1-.186-.975l5.16-2.035a.5.5,0,0,1,.371.939l-5.16,2.036A.506.506,0,0,1,2806.442,809.839Z" fill="#7a7a7a"/>
              <path id="Path_62" data-name="Path 62" d="M2804.634,805.886a.5.5,0,0,1-.184-.975l6.053-2.355a.5.5,0,0,1,.366.941l-6.052,2.355A.513.513,0,0,1,2804.634,805.886Z" fill="#7a7a7a"/>
            </g>
            <g id="Group_73" data-name="Group 73">
              <path id="Path_63" data-name="Path 63" d="M2755.237,778.5a47.908,47.908,0,0,0-1.155,6.994c-.785,7.142,7.208,13.755,7.208,13.755l-18.934-2.552.724-16.528Z" fill="#fff"/>
              <path id="Path_64" data-name="Path 64" d="M2761.29,799.753a.508.508,0,0,1-.067,0l-18.934-2.553a.5.5,0,0,1-.437-.522l.723-16.528a.5.5,0,0,1,.436-.478L2755.169,778a.5.5,0,0,1,.533.7,51.324,51.324,0,0,0-1.118,6.853c-.747,6.792,6.95,13.246,7.028,13.31a.5.5,0,0,1-.322.894Zm-18.409-3.5,16.881,2.276c-2.256-2.212-6.8-7.434-6.181-13.1a62.191,62.191,0,0,1,.983-6.337l-11,1.51Z" fill="#7a7a7a"/>
            </g>
            <g id="Group_75" data-name="Group 75">
              <g id="Group_74" data-name="Group 74">
                <path id="Path_65" data-name="Path 65" d="M2746.726,791.9c1.11-.367.857-2.082,1.765-2.892a4.011,4.011,0,0,1,4.717-.372c4.083,2.06,15.238,7.977,22.288,14.5,2.492,2.307,2.225,6.059-2.238,6.862-7.315,1.317-19.516.586-30.851-5.962a4.42,4.42,0,0,1-2.213-3.626,53.287,53.287,0,0,1,.252-6.854,3,3,0,0,1,2.974-2.511l1.318,0C2745.728,791.055,2745.785,792.21,2746.726,791.9Z" fill="#fff"/>
                <path id="Path_66" data-name="Path 66" d="M2766.631,811.06a49.592,49.592,0,0,1-24.476-6.583,4.9,4.9,0,0,1-2.465-4.04,53.31,53.31,0,0,1,.258-6.958,3.492,3.492,0,0,1,3.464-2.935h.009l1.319,0a1.78,1.78,0,0,1,1.319.642c.278.274.32.293.509.231.351-.116.493-.508.695-1.138a3.513,3.513,0,0,1,.892-1.651,4.479,4.479,0,0,1,5.281-.445c4.393,2.216,15.372,8.075,22.4,14.584a4.692,4.692,0,0,1,1.589,4.665c-.268.919-1.155,2.538-4.08,3.064A38.188,38.188,0,0,1,2766.631,811.06Zm-23.219-19.506a2.487,2.487,0,0,0-2.468,2.088,53.121,53.121,0,0,0-.246,6.75,3.9,3.9,0,0,0,1.962,3.211c11.089,6.4,23.031,7.249,30.509,5.9,1.771-.319,2.94-1.155,3.29-2.354a3.7,3.7,0,0,0-1.306-3.641c-6.936-6.422-17.816-12.226-22.172-14.424a3.538,3.538,0,0,0-4.154.3,2.677,2.677,0,0,0-.6,1.205c-.227.706-.483,1.506-1.341,1.789a1.377,1.377,0,0,1-1.534-.472c-.233-.229-.366-.349-.613-.35l-1.319,0Zm3.314.346h0Z" fill="#7a7a7a"/>
              </g>
              <path id="Path_67" data-name="Path 67" d="M2766.451,807.755c-4.77,0-11.987-1.3-22.493-6.007a.5.5,0,1,1,.412-.922c22.411,10.039,29.391,4.248,29.459,4.189a.5.5,0,0,1,.667.758C2774.334,805.915,2772.122,807.755,2766.451,807.755Z" fill="#7a7a7a"/>
              <path id="Path_68" data-name="Path 68" d="M2761.171,800.94a.505.505,0,0,1-.439-.753l2.739-4.86a.5.5,0,0,1,.88.495l-2.739,4.861A.507.507,0,0,1,2761.171,800.94Z" fill="#7a7a7a"/>
              <path id="Path_69" data-name="Path 69" d="M2757.3,799.018a.506.506,0,0,1-.431-.768l3.085-5.062a.5.5,0,1,1,.862.525l-3.084,5.062A.5.5,0,0,1,2757.3,799.018Z" fill="#7a7a7a"/>
            </g>
            <path id="Path_70" data-name="Path 70" d="M2703.934,695.18s66.281-2.877,73.526,3.852c9.829,9.127,26.714,85.109,26.714,85.109l-16.3,4.571s-24.564-62.357-30.651-62.357-63.472-2.048-63.472-2.048Z" fill="#7a7a7a"/>
            <path id="Path_71" data-name="Path 71" d="M2690.9,693.086s-8.741,25.662-1.785,30.343,57.1,4.283,55.358,3.7-4.484,42.018-4.484,58.4l15.787.609s25.159-65.887,22.447-73.244c-4.852-13.161-41.431-17.6-53.382-19.363C2722.376,693.167,2690.9,693.086,2690.9,693.086Z" fill="#7a7a7a"/>
            <path id="Path_72" data-name="Path 72" d="M2769.882,749.144a.488.488,0,0,1-.154-.025.5.5,0,0,1-.327-.634q.852-2.661,1.685-5.225c4.418-13.651,8.234-25.441,6.654-30.208-3.354-10.123-28.436-14-36.679-15.278a.5.5,0,0,1,.155-1c14.567,2.254,34.3,6.36,37.482,15.958,1.684,5.081-1.994,16.447-6.651,30.837q-.828,2.559-1.684,5.222A.506.506,0,0,1,2769.882,749.144Z" fill="#fff"/>
          </g>
          <g id="Group_85" data-name="Group 85">
            <g id="Group_79" data-name="Group 79">
              <g id="Group_77" data-name="Group 77">
                <path id="Path_73" data-name="Path 73" d="M2698.752,615.275s.235-4.23-2.379,39.874c0,0,1.8,34.128,2.023,37.977S2732,695.3,2732,695.3c3.948-17.308,3.517-37.169.762-58.384l5.72-.512.4-13.335c-1.035-3.926-5.406-6.749-8.341-7.8C2722.716,611.758,2708.855,612.888,2698.752,615.275Z" fill="#fff"/>
                <path id="Path_74" data-name="Path 74" d="M2717.014,696.168q-.867,0-1.738-.006c-17.216-.13-17.334-2.146-17.384-3.007-.222-3.806-2.005-37.638-2.023-37.979a.536.536,0,0,1,0-.056c1.1-18.5,1.692-28.5,2.014-33.87.16-2.686.253-4.214.3-5.072.023-.367.04-.647.061-.861a.556.556,0,0,1,0-.07l0-.093h.016c.065-.466.18-.512.518-.492a.537.537,0,0,1,.184.044c9.679-2.242,23.67-3.536,31.769.106,3.426,1.223,7.612,4.3,8.623,8.129a.5.5,0,0,1,.016.144l-.4,13.335a.5.5,0,0,1-.459.488l-5.2.465c3,23.424,2.727,42.413-.838,58.041a.506.506,0,0,1-.467.392C2731.942,695.81,2724.7,696.168,2717.014,696.168Zm-20.135-41.017c.061,1.151,1.8,34.19,2.021,37.945.012.2.569,1.937,16.38,2.056,7.257.055,14.576-.257,16.307-.337,3.483-15.554,3.7-34.477.67-57.833a.5.5,0,0,1,.455-.568l5.273-.472.383-12.812c-.951-3.445-4.8-6.239-8-7.382-7.9-3.55-21.609-2.268-31.133-.066C2699.126,617.364,2698.683,624.708,2696.879,655.151Z" fill="#7a7a7a"/>
              </g>
              <path id="Path_75" data-name="Path 75" d="M2718.7,652.161a.505.505,0,0,1-.236-.952c7.931-4.179,8.468-15.957,8.472-16.076a.5.5,0,0,1,1.009.038c-.019.507-.559,12.478-9.01,16.932A.51.51,0,0,1,2718.7,652.161Z" fill="#7a7a7a"/>
              <g id="Group_78" data-name="Group 78">
                <path id="Path_76" data-name="Path 76" d="M2704.391,614.689a15.19,15.19,0,0,0-13.212,6.14c-5.139,7.02-5.765,15.022-4.8,21.457,1.646,10.921,8.51,23.356,8.193,26.748a62.754,62.754,0,0,1-8.509,23.842c-5.444,8.635-5.21,27.675-4.147,28.3,7.165,4.175,18.915,12.648,32.907,13.66,2.586.186,4.7-1.151,5.072-3.243,1.494-8.36,5.5-32.606,6.1-55.367.521-19.712-13.516-49.643-14.134-52.212C2710.367,617.78,2704.391,614.689,2704.391,614.689Z" fill="#fff"/>
                <path id="Path_77" data-name="Path 77" d="M2715.317,735.353c-.173,0-.348-.006-.526-.019-12.1-.874-22.3-7.128-29.756-11.694-1.2-.737-2.341-1.434-3.369-2.033a1.272,1.272,0,0,1-.491-.875c-.769-3.137-.642-20.025,4.465-28.125a62.885,62.885,0,0,0,8.434-23.62c.129-1.383-1.18-4.764-2.7-8.678-2.036-5.261-4.57-11.807-5.495-17.948-.864-5.733-.717-14.175,4.888-21.83a15.843,15.843,0,0,1,13.677-6.344.5.5,0,0,1,.174.054c.253.13,6.2,3.27,7.734,9.65.1.431.683,1.86,1.485,3.837,3.917,9.661,13.091,32.284,12.663,48.506-.6,22.521-4.471,46.275-6.109,55.442C2720,733.892,2717.946,735.353,2715.317,735.353Zm-33.075-14.579c1.02.6,2.138,1.281,3.32,2.005,7.364,4.512,17.449,10.692,29.3,11.548,2.345.17,4.21-.994,4.538-2.828,1.634-9.145,5.5-32.84,6.093-55.292.423-16.01-9.03-39.323-12.589-48.1-.879-2.167-1.409-3.475-1.531-3.98-1.331-5.531-6.42-8.546-7.133-8.944a14.794,14.794,0,0,0-12.655,5.944c-5.4,7.378-5.54,15.538-4.7,21.083.909,6.031,3.421,12.52,5.439,17.734,1.689,4.364,2.909,7.517,2.758,9.137a63.49,63.49,0,0,1-8.585,24.064C2681.174,701.584,2681.512,719.33,2682.242,720.774Z" fill="#7a7a7a"/>
              </g>
            </g>
            <g id="Group_82" data-name="Group 82">
              <g id="Group_80" data-name="Group 80">
                <path id="Path_78" data-name="Path 78" d="M2770.7,675.977c-9.3-3.61-25.722-18.637-30.177-30.633l-.43-20.842c-.492-3.288-1.651-4.615-4.4-6.45a13.977,13.977,0,0,0-4.439-1.83s-.778-.442-.95,3.823c-.083,2.077,2.559,25.168,3.033,44.96.331,13.852-1.736,25.952-1.6,28.613.01.2,9.127,2.022,9.739,1.409l.062-.183-.525-25.495c5.126,4.471,14.921,12.177,22.7,11.9Z" fill="#fff"/>
                <path id="Path_79" data-name="Path 79" d="M2740.614,695.63a56.483,56.483,0,0,1-8.978-1.495.547.547,0,0,1-.4-.49,51.366,51.366,0,0,1,.412-5.437,182.254,182.254,0,0,0,1.185-23.191c-.325-13.575-1.659-28.573-2.457-37.534-.376-4.225-.6-6.775-.575-7.458.133-3.308.626-4,1.041-4.227a.7.7,0,0,1,.55-.064,14.585,14.585,0,0,1,4.582,1.9c2.767,1.848,4.091,3.268,4.619,6.8a.459.459,0,0,1,0,.064l.428,20.756c4.345,11.573,20.288,26.543,29.856,30.258a.5.5,0,0,1,.122.874l-6.983,5.268a.512.512,0,0,1-.286.1c-7.035.254-15.792-5.822-22.19-11.278l.5,24.362a.49.49,0,0,1-.025.17l-.061.184a.5.5,0,0,1-.123.2A1.961,1.961,0,0,1,2740.614,695.63Zm-8.377-2.356a49.584,49.584,0,0,0,8.794,1.371l-.521-25.285a.505.505,0,0,1,.837-.391c8.976,7.827,16.648,11.9,22.192,11.776l6.149-4.639c-9.844-4.3-25.376-19.1-29.641-30.586a.517.517,0,0,1-.031-.165l-.429-20.81c-.47-3.1-1.506-4.29-4.176-6.073a13.474,13.474,0,0,0-4.111-1.725,8.843,8.843,0,0,0-.492,3.318c-.025.618.225,3.433.572,7.328.8,8.974,2.135,23.992,2.461,37.6a183.08,183.08,0,0,1-1.19,23.316C2732.418,690.6,2732.243,692.334,2732.237,693.274ZM2731,616.662h0Z" fill="#7a7a7a"/>
              </g>
              <g id="Group_81" data-name="Group 81">
                <path id="Path_80" data-name="Path 80" d="M2758.834,677.533a2.287,2.287,0,0,1,1.251-1.12,8.741,8.741,0,0,0,1.14-.52l5.071-2.69c.949-.465,2.307.619,3.293.943,2.976.977,9.137,3.28,8.629,5.442-.548,2.333-5.842,1.229-7.722.758-.429-.107-4.32,1.3-5.549,1.4a4.008,4.008,0,0,1-2.923-.74,2.705,2.705,0,0,0-1.259-.292,2.309,2.309,0,0,1-1.8-.845l-.01-.013a1.966,1.966,0,0,1-.215-2.123Z" fill="#fff"/>
                <path id="Path_81" data-name="Path 81" d="M2764.387,682.268a3.861,3.861,0,0,1-2.245-.624c-.112-.064-.227-.13-.353-.2a2.19,2.19,0,0,0-1.027-.234,2.814,2.814,0,0,1-2.2-1.035,2.482,2.482,0,0,1-.281-2.681l.1-.2h0a2.777,2.777,0,0,1,1.529-1.365,8.274,8.274,0,0,0,1.074-.49l5.071-2.691c.905-.443,1.908.06,2.794.505a7.193,7.193,0,0,0,.894.4c6.394,2.1,9.41,4.132,8.963,6.038a1.988,1.988,0,0,1-.947,1.27c-1.721,1.049-5.325.376-7.349-.128a20.958,20.958,0,0,0-2.12.568,21.607,21.607,0,0,1-3.309.83C2764.768,682.261,2764.57,682.268,2764.387,682.268Zm-5.1-4.505-.1.2a1.463,1.463,0,0,0,.16,1.577,1.814,1.814,0,0,0,1.425.67,3.214,3.214,0,0,1,1.49.349c.137.072.263.144.384.214a3.187,3.187,0,0,0,2.266.47,22.958,22.958,0,0,0,3.1-.792c1.811-.538,2.3-.666,2.612-.589,3.123.782,5.6.877,6.618.255a.986.986,0,0,0,.49-.639c.281-1.2-2.975-3.1-8.3-4.847a7.854,7.854,0,0,1-1.033-.462c-.675-.339-1.441-.723-1.881-.507l-5.057,2.683a9.148,9.148,0,0,1-1.206.548A1.774,1.774,0,0,0,2759.284,677.763Z" fill="#7a7a7a"/>
              </g>
            </g>
            <path id="Path_82" data-name="Path 82" d="M2711.728,667.4c6.546,14.973,18.253,18.531,37.453,21.09l-2.048,5.664c-28.691,3.582-34.09-2.094-45.688-17.286Z" fill="#fff"/>
            <g id="Group_83" data-name="Group 83">
              <path id="Path_83" data-name="Path 83" d="M2697.486,704.443a17.843,17.843,0,0,1-6.711-1.393.5.5,0,0,1,.378-.936c13,5.248,19.8-6.951,19.865-7.075a.5.5,0,0,1,.888.481C2711.847,695.629,2706.932,704.443,2697.486,704.443Z" fill="#7a7a7a"/>
              <path id="Path_84" data-name="Path 84" d="M2741.025,668.44a.506.506,0,0,1-.5-.487l-.687-19.2a.5.5,0,1,1,1.009-.036l.687,19.2a.5.5,0,0,1-.486.522Z" fill="#7a7a7a"/>
              <path id="Path_85" data-name="Path 85" d="M2731.167,695.733c-7.056,0-10.492-1.5-15.119-3.529-1.142-.5-2.323-1.017-3.657-1.553a18.21,18.21,0,0,1-9.02-7.732c-1.109-1.759-2.055-3.633-2.97-5.445-.807-1.6-1.641-3.25-2.577-4.8a.5.5,0,1,1,.864-.522c.956,1.583,1.8,3.252,2.614,4.866.905,1.792,1.84,3.644,2.923,5.363a17.261,17.261,0,0,0,8.543,7.333c1.348.542,2.536,1.062,3.685,1.565,5.96,2.608,9.9,4.331,22.656,2.955,1.018-.11,5.108-.072,6.112-.031a.5.5,0,1,1-.042,1.009c-.957-.039-5-.077-5.962.026A75.544,75.544,0,0,1,2731.167,695.733Z" fill="#7a7a7a"/>
              <path id="Path_86" data-name="Path 86" d="M2748.756,688.76a.339.339,0,0,1-.045,0c-.177-.016-17.846-1.661-27.92-8.692-3-2.095-4.5-6.735-6.083-11.647-.315-.976-.633-1.962-.967-2.938a.505.505,0,1,1,.956-.326c.335.981.655,1.973.972,2.954,1.531,4.746,2.977,9.229,5.7,11.129,9.856,6.879,27.257,8.5,27.431,8.514a.5.5,0,0,1-.044,1.008Z" fill="#7a7a7a"/>
            </g>
            <g id="Group_84" data-name="Group 84">
              <path id="Path_87" data-name="Path 87" d="M2744.623,691.132a2.288,2.288,0,0,1,1.25-1.12,8.738,8.738,0,0,0,1.14-.52l5.071-2.69c.95-.465,2.308.619,3.294.943,2.975.977,9.136,3.28,8.629,5.442-.548,2.333-5.843,1.229-7.722.758-.43-.107-4.32,1.3-5.55,1.4a4.009,4.009,0,0,1-2.923-.74,2.7,2.7,0,0,0-1.258-.292,2.309,2.309,0,0,1-1.8-.845l-.01-.013a1.966,1.966,0,0,1-.216-2.123Z" fill="#fff"/>
              <path id="Path_88" data-name="Path 88" d="M2750.176,695.867a3.862,3.862,0,0,1-2.245-.624c-.112-.064-.227-.13-.354-.2a2.189,2.189,0,0,0-1.027-.234,2.812,2.812,0,0,1-2.2-1.035,2.478,2.478,0,0,1-.281-2.681l.1-.2a2.781,2.781,0,0,1,1.53-1.365,8.21,8.21,0,0,0,1.074-.491l5.07-2.69c.906-.444,1.909.06,2.794.505a7.256,7.256,0,0,0,.894.4c6.4,2.1,9.41,4.132,8.963,6.038a1.986,1.986,0,0,1-.946,1.27c-1.721,1.049-5.325.376-7.349-.128a20.957,20.957,0,0,0-2.12.568,21.588,21.588,0,0,1-3.31.83C2750.557,695.86,2750.358,695.867,2750.176,695.867Zm2.433-8.674a.677.677,0,0,0-.3.063l-5.056,2.682a9.033,9.033,0,0,1-1.206.549,1.778,1.778,0,0,0-.972.875h0l-.1.2a1.46,1.46,0,0,0,.16,1.577,1.808,1.808,0,0,0,1.424.669,3.227,3.227,0,0,1,1.49.35c.137.072.263.144.385.214a3.184,3.184,0,0,0,2.265.47,22.917,22.917,0,0,0,3.1-.792c1.811-.538,2.3-.666,2.611-.589,3.124.782,5.6.877,6.619.255a.985.985,0,0,0,.489-.639c.281-1.2-2.975-3.1-8.295-4.847a7.888,7.888,0,0,1-1.032-.462A4.257,4.257,0,0,0,2752.609,687.193Zm-7.986,3.939h0Z" fill="#7a7a7a"/>
            </g>
          </g>
        </g>
        <g id="Group_88" data-name="Group 88">
          <g id="Group_87" data-name="Group 87">
            <path id="Path_89" data-name="Path 89" d="M2772.187,693.343l15.363-45.275a5.062,5.062,0,0,1,4.251-2.28h40.949a2.544,2.544,0,0,1,2.448,3.4c-.241.633-.5,1.26-.712,1.9L2820.6,693.425h-.005a4.547,4.547,0,0,1-4.542,4.469h-75.567a4.549,4.549,0,0,1-4.546-4.551Z" fill="#7a7a7a"/>
            <path id="Path_90" data-name="Path 90" d="M2802.624,668.995a3.181,3.181,0,1,0,4.06-2.562A3.417,3.417,0,0,0,2802.624,668.995Z" fill="#fff"/>
          </g>
        </g>
        <g id="Group_89" data-name="Group 89">
          <path id="Path_91" data-name="Path 91" d="M2891.729,697.138H2709.922a5.97,5.97,0,0,0-5.637,6.816l12.555,119h9.065l-7.859-111.687a3.3,3.3,0,0,1,3.132-3.648h156.065a4.929,4.929,0,0,1,4.685,5.457l-7.78,110.577h9.065l12.768-121.377A4.5,4.5,0,0,0,2891.729,697.138Z" fill="#fff"/>
          <path id="Path_92" data-name="Path 92" d="M2883.213,824.161h-9.065a.505.505,0,0,1-.5-.541l7.781-110.576a4.8,4.8,0,0,0-1.24-3.6,4,4,0,0,0-2.942-1.313H2721.178a2.51,2.51,0,0,0-1.844.824,3.037,3.037,0,0,0-.784,2.283l7.859,111.687a.507.507,0,0,1-.5.541h-9.065a.506.506,0,0,1-.5-.452l-12.555-119a6.911,6.911,0,0,1,1.7-5.352,5.93,5.93,0,0,1,4.443-2.022h181.807a4.6,4.6,0,0,1,3.443,1.566,5.336,5.336,0,0,1,1.311,4.133l-12.768,121.376A.506.506,0,0,1,2883.213,824.161Zm-8.524-1.01h8.069l12.721-120.925a4.331,4.331,0,0,0-1.057-3.352,3.6,3.6,0,0,0-2.693-1.232H2709.922a4.932,4.932,0,0,0-3.692,1.688,5.9,5.9,0,0,0-1.442,4.571l12.507,118.551h8.069L2717.543,711.3a4.046,4.046,0,0,1,1.053-3.042,3.5,3.5,0,0,1,2.582-1.145h156.065a5,5,0,0,1,3.681,1.634,5.809,5.809,0,0,1,1.508,4.363Z" fill="#7a7a7a"/>
        </g>
      </g>
      <g id="Group_95" data-name="Group 95">
        <g id="Group_92" data-name="Group 92">
          <g id="Group_91" data-name="Group 91">
            <path id="Path_93" data-name="Path 93" d="M2844.952,796.271c2.469-5.132,2.7-10.3,0-15.529l1.941-2.351,64.1,1.763-1.829,17.034-62.4.6Z" fill="#fff"/>
            <path id="Path_94" data-name="Path 94" d="M2846.762,798.291a.507.507,0,0,1-.324-.118l-1.81-1.514a.5.5,0,0,1-.13-.606c2.53-5.264,2.532-10.2.006-15.079a.5.5,0,0,1,.059-.553l1.94-2.351a.506.506,0,0,1,.4-.184l64.1,1.764a.5.5,0,0,1,.488.558l-1.829,17.034a.507.507,0,0,1-.5.451l-62.4.6Zm-1.187-2.157,1.369,1.145,61.763-.592,1.722-16.043-63.3-1.742-1.573,1.907A17.01,17.01,0,0,1,2845.575,796.134Z" fill="#7a7a7a"/>
          </g>
          <path id="Path_95" data-name="Path 95" d="M2952.759,776.516H2843.238a2.106,2.106,0,0,0,0,4.212h56.312a6.035,6.035,0,0,1,6,6.066v3.411a6.035,6.035,0,0,1-6,6.066h-56.312a2.107,2.107,0,0,0,0,4.213h109.521a11.128,11.128,0,0,0,11.069-11.186v-1.6A11.128,11.128,0,0,0,2952.759,776.516Z" fill="#7a7a7a"/>
        </g>
        <g id="Group_94" data-name="Group 94">
          <g id="Group_93" data-name="Group 93">
            <path id="Path_96" data-name="Path 96" d="M2850.453,825.706h99.994V802.945h-99.994A33.424,33.424,0,0,1,2850.453,825.706Z" fill="#fff"/>
            <path id="Path_97" data-name="Path 97" d="M2950.447,826.211h-99.994a.506.506,0,0,1-.473-.681,32.932,32.932,0,0,0,0-22.417.505.505,0,0,1,.476-.673h99.994a.5.5,0,0,1,.5.505v22.761A.5.5,0,0,1,2950.447,826.211Zm-99.276-1.009h98.771V803.45h-98.783A33.954,33.954,0,0,1,2851.171,825.2Z" fill="#7a7a7a"/>
          </g>
          <path id="Path_98" data-name="Path 98" d="M2935.062,811.428h-75.694a.5.5,0,0,1,0-1.01h75.694a.5.5,0,0,1,0,1.01Z" fill="#7a7a7a"/>
          <path id="Path_99" data-name="Path 99" d="M2935.062,817.79H2872.87a.5.5,0,1,1,0-1.01h62.192a.5.5,0,0,1,0,1.01Z" fill="#7a7a7a"/>
          <path id="Path_100" data-name="Path 100" d="M2939.007,804.032h-89.9a1.736,1.736,0,0,1,0-3.471h113.37a7.587,7.587,0,0,1,7.547,7.626v11.987a7.587,7.587,0,0,1-7.547,7.626h-113.37a1.736,1.736,0,0,1,0-3.471h89.9a5.359,5.359,0,0,0,5.331-5.387v-9.523A5.359,5.359,0,0,0,2939.007,804.032Z" fill="#7a7a7a"/>
          <path id="Path_101" data-name="Path 101" d="M2898.274,786.137h-46.2a.505.505,0,1,1,0-1.01h46.2a.505.505,0,1,1,0,1.01Z" fill="#7a7a7a"/>
        </g>
      </g>
      <circle id="Shape-14" data-name="Shape" cx="0.733" cy="0.733" r="0.733" transform="translate(2936.828 472.856)" fill="#7a7a7a"/>
      <g id="Group_98" data-name="Group 98">
        <g id="Group_96" data-name="Group 96">
          <path id="Path_102" data-name="Path 102" d="M2712.608,599.024c-.256.571,2.675,11.7-.532,18.188a2.407,2.407,0,0,0,1.335,3.328l5.22,1.9a8.266,8.266,0,0,0,9.156-2.441l.523-.621a1.346,1.346,0,0,0-.367-2.038l-1.7-.962a3.782,3.782,0,0,1-1.448-4.041l1.247-5.238" fill="#fff"/>
          <path id="Path_103" data-name="Path 103" d="M2726.368,607.908l-1.083,4.55a3.326,3.326,0,0,0,1.23,3.5l1.677.948a1.849,1.849,0,0,1,.5,2.8l-.523.621a8.8,8.8,0,0,1-9.715,2.59l-5.22-1.9a2.913,2.913,0,0,1-1.615-4.026c2.867-5.8-.591-15.817.32-17.733m.862-.7a.507.507,0,0,1,.264.672c-.248.554,2.754,11.536-.541,18.2a1.9,1.9,0,0,0,1.056,2.63l5.22,1.9a7.788,7.788,0,0,0,8.6-2.292l.523-.622a.84.84,0,0,0-.229-1.272l-1.7-.963a4.252,4.252,0,0,1-1.7-4.566l1.253-5.269a.5.5,0,0,1,.767-.3" fill="#7a7a7a"/>
        </g>
        <g id="Group_97" data-name="Group 97">
          <path id="Path_104" data-name="Path 104" d="M2724.846,606.2l1.2.907Z" fill="#fff"/>
          <path id="Path_105" data-name="Path 105" d="M2726.19,607.585a.5.5,0,0,1-.455-.08l-1.194-.907a.5.5,0,1,1,.611-.8l1.194.907a.5.5,0,0,1-.156.884Z" fill="#7a7a7a"/>
        </g>
      </g>
      <path id="Shape-15" data-name="Shape" d="M2729.32,613.375c-2.365,0-6.957-3.354-11.158-8.022-4.536-5.039-7.511-10.331-7.511-14.017a14.334,14.334,0,0,1,14.176-14.488c8.47,0,15.622,5.485,15.622,13,0,3.881-1.495,9.711-3.722,14.733C2734.344,609.952,2731.61,613.375,2729.32,613.375Z" fill="#7a7a7a"/>
      <path id="Shape-16" data-name="Shape" d="M2729.373,613.375c2.2,0,4.937-3.323,7.32-8.541,2.247-4.923,3.756-10.638,3.756-14.429,0-7.271-7.148-12.6-15.632-12.6a14.114,14.114,0,0,0-14.166,14.063c0,3.565,3,8.739,7.561,13.667C2722.434,610.1,2727.055,613.375,2729.373,613.375Z" fill="#fff" stroke="#7a7a7a" stroke-miterlimit="10" stroke-width="1"/>
      <path id="Shape-17" data-name="Shape" d="M2725.55,599.918a5.287,5.287,0,1,1,5.287-5.287A5.288,5.288,0,0,1,2725.55,599.918Zm0-.2a5.087,5.087,0,1,0-5.091-5.087A5.089,5.089,0,0,0,2725.55,599.718Z" fill="#7a7a7a"/>
      <path id="Shape-18" data-name="Shape" d="M2739.007,599.918a5.287,5.287,0,1,1,5.287-5.287A5.287,5.287,0,0,1,2739.007,599.918Zm0-.2a5.087,5.087,0,1,0-5.091-5.087A5.089,5.089,0,0,0,2739.007,599.718Z" fill="#7a7a7a"/>
      <path id="Shape-19" data-name="Shape" d="M2732.759,595.952a.138.138,0,0,1-.274,0,.693.693,0,0,0-1.374,0,.138.138,0,0,1-.274,0,.97.97,0,0,1,1.922,0Z" fill="#7a7a7a"/>
      <path id="Shape-20" data-name="Shape" d="M2728.952,604.94a.128.128,0,0,1,0-.178.121.121,0,0,1,.174,0c1.673,1.635,3.135,2.037,4.41,1.236a.122.122,0,0,1,.169.042.126.126,0,0,1-.04.172C2732.275,607.08,2730.7,606.646,2728.952,604.94Z" fill="#7a7a7a"/>
      <path id="Shape-21" data-name="Shape" d="M2731.508,596.222a.106.106,0,0,1,.073-.142.128.128,0,0,1,.16.064l2.933,6.941a.111.111,0,0,1-.1.148l-3.595.528a.125.125,0,0,1-.144-.091.113.113,0,0,1,.1-.127l3.446-.506Z" fill="#7a7a7a"/>
      <circle id="Shape-22" data-name="Shape" cx="0.961" cy="0.961" r="0.961" transform="translate(2726.031 595.111)" fill="#7a7a7a"/>
      <circle id="Shape-23" data-name="Shape" cx="0.961" cy="0.961" r="0.961" transform="translate(2735.643 596.073)" fill="#7a7a7a"/>
      <path id="Shape-24" data-name="Shape" d="M2718.2,594.563l.89-3.285q.885.351,2.446-1.718a11.8,11.8,0,0,0,1.968-5.91q9.435,3.253,13.026,2.057t3.561,4.623q7.166-12.971,4.383-17.129c-2.783-4.16-8.474-1.786-13.939-2.589-6.332-.93-17.663-1.247-21.188,5.673q-6.569,12.893-1.281,17.4-6.3-4.3-7.366.877t2.467,12.76q-6.828,1.692-4.361,9.24t6.43,11.623q-3.316,2.217,0,5.854c3.317,3.636-2.069,5.544-.906,9.568s11.133-.926,11.53-5.247a8.22,8.22,0,0,0-2.779-7.2q5.7-3.334,5.119-6.549t-5.119-8.556q5.12-1.044,5.119-4.886t-5.119-10a2.56,2.56,0,0,0,1.324,1.13,1.526,1.526,0,0,0,1.455,0q-2.91-11.969-1.455-11.968T2718.2,594.563Z" fill="#7a7a7a"/>
      <path id="Shape-25" data-name="Shape" d="M2715.457,592.823l-.5,7.02q-1.9.426-3.475-1.582c-1.575-2.008-.664-6.426.7-6.9Q2713.545,590.885,2715.457,592.823Z" fill="#fff"/>
      <path id="Shape-26" data-name="Shape" d="M2715.269,592.971c-1.193-1.231-2.2-1.689-3.02-1.4-.582.206-1.123,1.324-1.317,2.713a5.309,5.309,0,0,0,.7,3.839c.981,1.273,2.048,1.768,3.214,1.5a.111.111,0,0,1,.131.083.112.112,0,0,1-.083.133c-1.257.288-2.406-.245-3.435-1.581-1.434-1.863-.807-6.355.72-6.9.92-.326,2,.166,3.249,1.453a.111.111,0,0,1,0,.156A.108.108,0,0,1,2715.269,592.971Z" fill="#7a7a7a"/>
      <path id="Shape-27" data-name="Shape" d="M2714.286,596.011c-.7-1.315-1.221-1.793-1.532-1.529a.1.1,0,0,1-.158-.025.137.137,0,0,1,.022-.178c.478-.407,1.091.158,1.862,1.6a.138.138,0,0,1-.039.175A.106.106,0,0,1,2714.286,596.011Z" fill="#7a7a7a"/>
      <path id="Shape-28" data-name="Shape" d="M2713.492,593.385c-.812.638-.909,1.8-.27,3.5a.108.108,0,0,1-.069.141.117.117,0,0,1-.148-.066c-.669-1.78-.564-3.036.34-3.747a.12.12,0,0,1,.163.015A.107.107,0,0,1,2713.492,593.385Z" fill="#7a7a7a"/>
      <path id="Shape-29" data-name="Shape" d="M2720.19,593.972a.088.088,0,0,1,.065.12.13.13,0,0,1-.151.052l-5.535-1.739a.086.086,0,0,1-.065-.119.129.129,0,0,1,.151-.052Z" fill="#7a7a7a"/>
      <path id="Shape-30" data-name="Shape" d="M2744.21,595.918c.059.011.1.053.081.095a.121.121,0,0,1-.136.057l-4.582-.8c-.06-.011-.1-.053-.082-.095a.121.121,0,0,1,.136-.057Z" fill="#7a7a7a"/>
    </g>
  </g>
</svg>
