<?xml version="1.0" encoding="UTF-8"?>
<svg width="512px" height="512px" viewBox="0 0 512 512" version="1.1" xmlns="http://www.w3.org/2000/svg" xmlns:xlink="http://www.w3.org/1999/xlink">
    <!-- Generator: Sketch 63.1 (92452) - https://sketch.com -->
    <title>Group 6</title>
    <desc>Created with Sketch.</desc>
    <defs>
        <path d="M146.141456,-5.90428975e-15 L365.858544,5.90428975e-15 C416.675112,-3.43056238e-15 435.102427,5.29105984 453.680205,15.2265641 C472.257983,25.1620684 486.837932,39.7420171 496.773436,58.3197949 C506.70894,76.8975727 512,95.3248882 512,146.141456 L512,365.858544 C512,416.675112 506.70894,435.102427 496.773436,453.680205 C486.837932,472.257983 472.257983,486.837932 453.680205,496.773436 C435.102427,506.70894 416.675112,512 365.858544,512 L146.141456,512 C95.3248882,512 76.8975727,506.70894 58.3197949,496.773436 C39.7420171,486.837932 25.1620684,472.257983 15.2265641,453.680205 C5.29105984,435.102427 2.28704159e-15,416.675112 -3.93619317e-15,365.858544 L3.93619317e-15,146.141456 C-2.28704159e-15,95.3248882 5.29105984,76.8975727 15.2265641,58.3197949 C25.1620684,39.7420171 39.7420171,25.1620684 58.3197949,15.2265641 C76.8975727,5.29105984 95.3248882,3.43056238e-15 146.141456,-5.90428975e-15 Z" id="path-1"></path>
    </defs>
    <g id="Page-1" stroke="none" stroke-width="1" fill="none" fill-rule="evenodd">
        <g id="Group-6">
            <mask id="mask-2" fill="white">
                <use xlink:href="#path-1"></use>
            </mask>
            <use id="Mask-2" fill="#347D6A" xlink:href="#path-1"></use>
            <g id="Group" mask="url(#mask-2)">
                <g transform="translate(146.000000, 96.000000)">
                    <g id="Walle-female" stroke-width="1" fill="none">
                        <path d="M200,78.7673077 C200,41.5384615 158.828442,0 108,0 C57.1715576,0 16,41.5384615 16,78.7673077 C16,115.996154 57.1715576,135 108,135 C158.828442,135 200,116.048077 200,78.7673077 Z" id="Path" stroke="#E6E3D8" stroke-width="2" fill="#E6E3D8" stroke-linecap="round" stroke-linejoin="round"></path>
                        <path d="M174,72.9739777 C174,49.8141264 144.004615,24 107,24 C69.9953846,24 40,50.0223048 40,72.9739777 C40,95.9256506 69.9953846,108 107,108 C144.004615,108 174,96.1858736 174,72.9739777 Z" id="Path" stroke="#347D6A" stroke-width="2" fill="#347D6A" stroke-linecap="round" stroke-linejoin="round"></path>
                        <path d="M201,195.764706 C201,112.941176 159.356667,154.352941 108,154.352941 C56.6433333,154.352941 15,112.941176 15,195.764706 C15,278.588235 56.6433333,320 108,320 C159.356667,320 201,278.588235 201,195.764706 Z" id="Path" stroke="#E6E3D8" stroke-width="2" fill="#E6E3D8" stroke-linecap="round" stroke-linejoin="round"></path>
                        <path d="M108.000388,273.316867 C61.9162325,273.316867 23.7883101,239.860621 16.4003793,173 C15.409609,180.461699 14.9434812,187.98419 15.0054553,195.511644 C15.0054553,278.503881 56.6465197,320 108.000388,320 C159.354257,320 200.995321,278.503881 200.995321,195.511644 C201.052453,188.018794 200.586336,180.531139 199.600397,173.10374 C192.212466,239.860621 154.084544,273.316867 108.000388,273.316867 Z" id="Path" fill="#54596E" opacity="0.1"></path>
                        <path d="M139.461512,218 C159.518985,202.557353 169.674142,192.016813 169.926983,186.378378 C170.05204,183.589574 170.262148,181.17624 168.175064,178.829161 C159.758446,169.364057 150.187262,171.42568 139.461512,185.01403 C134.936139,172.950623 127.065394,170.567568 115.849277,177.864865 C112.255803,180.202808 110.717446,182.792032 111.042369,186.378378 C111.501864,191.450061 120.974911,201.990601 139.461512,218 Z" id="Oval" fill="#347D6A"></path>
                        <path d="M33,192.495364 C33,148.904761 25.63,136.103899 16.5,136.103899 C7.37,136.103899 0,131.987322 0,175.577924 C0,219.168526 7.37,294 16.5,294 C25.63,294 33,236.085966 33,192.495364 Z" id="Path" stroke="#E6E3D8" stroke-width="2" fill="#E6E3D8" stroke-linecap="round" stroke-linejoin="round"></path>
                        <path d="M186,192.495364 C186,148.904761 193.37,136.103899 202.5,136.103899 C211.63,136.103899 219,131.987322 219,175.577924 C219,219.168526 211.63,294 202.5,294 C193.37,294 186,236.085966 186,192.495364 Z" id="Path" stroke="#E6E3D8" stroke-width="2" fill="#E6E3D8" stroke-linecap="round" stroke-linejoin="round"></path>
                    </g>
                    <circle id="Oval" fill="#E6E3D8" cx="84" cy="66" r="12"></circle>
                    <circle id="Oval-Copy" fill="#E6E3D8" cx="128" cy="66" r="12"></circle>
                </g>
            </g>
        </g>
    </g>
</svg>