<?xml version="1.0" encoding="utf-8"?>
<!-- Generator: Adobe Illustrator 25.0.1, SVG Export Plug-In . SVG Version: 6.00 Build 0)  -->
<svg version="1.1" id="Layer_1" xmlns="http://www.w3.org/2000/svg" xmlns:xlink="http://www.w3.org/1999/xlink" x="0px" y="0px"
	 viewBox="0 0 1661.44 531.66" style="enable-background:new 0 0 1661.44 531.66;" xml:space="preserve">
<style type="text/css">
	.st0{fill:#FFFFFF;}
</style>
<rect x="1764.54" y="648.54" width="1661.44" height="531.66"/>
<rect x="1764.54" width="1661.44" height="531.66"/>
<rect x="1764.54" y="1350.71" width="1215.38" height="846.47"/>
<rect x="1764.54" y="2296.69" width="1215.38" height="846.47"/>
<g>
	<g>
		<g>
			<g>
				<g>
					<path class="st0" d="M1879.77,1954.22c0-49.01,41.06-68.36,109.24-68.36c24.05,0,42.32,2.89,63.3,6.15v7.42
						c-18.99-2.17-38.52-4.88-57.87-4.88c-54.62,0-84.64,13.2-84.64,59.68c0,48.29,30.02,59.68,83.55,59.86
						c20.8,0,40.15-2.53,58.96-5.06v7.42c-22.24,3.44-41.06,6.15-64.39,6.15C1921.19,2022.58,1879.77,2004.86,1879.77,1954.22z"/>
					<path class="st0" d="M2152,1970.68l-85.54-83.19h33.46l76.32,73.97l75.23-73.97h12.48l-83.74,82.47v51H2152V1970.68z"/>
					<path class="st0" d="M2288.76,1887.48h157.16v8.14h-128.95v52.63h117.92v8.32h-117.92v56.25h131.3v8.14h-159.51V1887.48z"/>
					<path class="st0" d="M2490.99,1910.45v110.5h-9.05v-133.47h22.25l144.32,108.33v-108.33h8.87v133.47h-18.63L2490.99,1910.45z"
						/>
					<path class="st0" d="M2689.79,2016.07v-7.41c24.78,3.26,50.28,5.24,78.85,5.24c46.3,0,70.17-4.88,70.17-27.49
						c0-6.51-2.53-12.12-10.49-15.73c-9.59-4.16-26.23-5.79-58.23-7.78c-32.38-1.99-50.28-4.7-61.13-10.67
						c-11.21-6.15-15.01-15.19-15.01-26.77c0-30.56,32.19-39.61,85.54-39.61c27.31,0,50.1,2.71,70.72,6.33v7.42
						c-21.7-3.07-42.68-5.24-67.82-5.24c-44.13,0-62.76,5.97-62.76,23.51c0,5.79,1.45,11.03,7.96,14.47
						c7.96,4.52,22.61,6.33,55.71,8.5c32.37,1.99,51.9,4.16,64.2,10.13c12.84,6.33,17.18,15.55,17.18,28.58
						c0,34.18-35.63,42.86-93.32,42.86C2740.07,2022.4,2713.67,2019.51,2689.79,2016.07z"/>
				</g>
			</g>
			<g>
				<g>
					<path class="st0" d="M1880.27,2075.19c0-11.76,9.85-16.4,26.2-16.4c5.77,0,10.15,0.7,15.19,1.47v1.78
						c-4.56-0.52-9.24-1.17-13.88-1.17c-13.1,0-20.31,3.17-20.31,14.32c0,11.58,7.2,14.32,20.04,14.36c4.99,0,9.63-0.61,14.15-1.22
						v1.78c-5.34,0.82-9.85,1.47-15.45,1.47C1890.21,2091.59,1880.27,2087.34,1880.27,2075.19z"/>
					<path class="st0" d="M1935.67,2059.18h37.7v1.95h-30.93v12.63h28.29v1.99h-28.29v13.49h31.5v1.95h-38.27V2059.18z"/>
					<path class="st0" d="M1989.47,2064.69v26.51h-2.17v-32.01h5.34l34.62,25.99v-25.99h2.12v32.01h-4.47L1989.47,2064.69z"/>
					<path class="st0" d="M2041.19,2059.18H2088v1.95h-20.04v30.06h-6.73v-30.06h-20.04V2059.18z"/>
					<path class="st0" d="M2119.15,2078.44h-12.71v12.75h-6.64v-32.01h21.87c12.49,0,19.09,2.82,19.09,9.59
						c0,5.64-4.73,8.68-13.84,9.46l14.1,12.97h-8.24L2119.15,2078.44z M2121.32,2076.49c9.02,0,12.54-1.99,12.54-7.68
						c0-5.64-3.51-7.68-12.54-7.68h-14.88v15.36H2121.32z"/>
					<path class="st0" d="M2155.12,2059.18h37.7v1.95h-30.93v12.63h28.29v1.99h-28.29v13.49h31.49v1.95h-38.26V2059.18z"/>
					<path class="st0" d="M2222.86,2075.23c0-9.72,7.98-16.62,24.86-16.62c16.79,0,24.86,6.9,24.86,16.62
						c0,9.72-8.07,16.53-24.86,16.53C2230.85,2091.76,2222.86,2084.95,2222.86,2075.23z M2265.42,2075.15
						c0-10.02-5.16-14.53-17.7-14.53c-12.58,0-17.7,4.6-17.7,14.53c0,10.02,5.12,14.62,17.7,14.62
						C2260.26,2089.77,2265.42,2085.17,2265.42,2075.15z"/>
					<path class="st0" d="M2286.69,2059.18h36.92v1.95h-30.15v13.06h27.5v1.99h-27.5v15.01h-6.77V2059.18z"/>
					<path class="st0" d="M2353.47,2059.18h37.7v1.95h-30.93v12.63h28.29v1.99h-28.29v13.49h31.49v1.95h-38.26V2059.18z"/>
					<path class="st0" d="M2422.06,2077.27l-18.13,13.92h-3.43l19.91-15.31l-19.56-16.7h8.5l15.96,13.67l17.79-13.67h3.43
						l-19.56,15.05l19.91,16.96h-8.46L2422.06,2077.27z"/>
					<path class="st0" d="M2454.34,2075.19c0-11.76,9.84-16.4,26.2-16.4c5.77,0,10.15,0.7,15.19,1.47v1.78
						c-4.55-0.52-9.24-1.17-13.88-1.17c-13.1,0-20.3,3.17-20.3,14.32c0,11.58,7.2,14.32,20.04,14.36c4.99,0,9.63-0.61,14.14-1.22
						v1.78c-5.34,0.82-9.85,1.47-15.44,1.47C2464.27,2091.59,2454.34,2087.34,2454.34,2075.19z"/>
					<path class="st0" d="M2509.74,2059.18h37.7v1.95h-30.93v12.63h28.29v1.99h-28.29v13.49h31.49v1.95h-38.26V2059.18z"/>
					<path class="st0" d="M2561.37,2059.18h6.77v30.06h28.68v1.95h-35.45V2059.18z"/>
					<path class="st0" d="M2608.61,2059.18h6.77v30.06h28.68v1.95h-35.45V2059.18z"/>
					<path class="st0" d="M2655.85,2059.18h37.7v1.95h-30.93v12.63h28.29v1.99h-28.29v13.49h31.5v1.95h-38.27V2059.18z"/>
					<path class="st0" d="M2709.65,2064.69v26.51h-2.17v-32.01h5.34l34.62,25.99v-25.99h2.12v32.01h-4.47L2709.65,2064.69z"/>
					<path class="st0" d="M2763.67,2075.19c0-11.76,9.84-16.4,26.2-16.4c5.77,0,10.15,0.7,15.19,1.47v1.78
						c-4.55-0.52-9.24-1.17-13.88-1.17c-13.1,0-20.3,3.17-20.3,14.32c0,11.58,7.2,14.32,20.04,14.36c4.99,0,9.63-0.61,14.14-1.22
						v1.78c-5.34,0.82-9.85,1.47-15.44,1.47C2773.6,2091.59,2763.67,2087.34,2763.67,2075.19z"/>
					<path class="st0" d="M2819.07,2059.18h37.7v1.95h-30.93v12.63h28.29v1.99h-28.29v13.49h31.49v1.95h-38.26V2059.18z"/>
				</g>
			</g>
		</g>
	</g>
	<g>
		<g>
			<g>
				<path class="st0" d="M2397.73,1747.64l-51.17-37.29l-100.77-23.25l-0.45-0.66l15.08-105.56c0.22-0.3,21.86-30.58,43.45-60.38
					c44.02-60.75,44.77-60.32,45.52-60.07l0.41,0.69c0.08,3.29,34.36,68.94,57.58,112.64l87.8-59.33l0.66,0.98l-88.35,59.7
					l-0.86-0.21c-5.72-10.77-54.03-101.77-57.79-112.89c-6.8,7.21-64.74,87.75-87.39,119.45l-14.88,104.61l100.57,23.25l51.26,37.36
					L2397.73,1747.64z"/>
			</g>
			<g>
				
					<rect x="2303.27" y="1568.2" transform="matrix(0.8315 -0.5556 0.5556 0.8315 -525.9276 1557.2899)" class="st0" width="1.19" height="154.63"/>
			</g>
			<g>
				<path class="st0" d="M2346.97,1710.37l-0.69-0.81l59.97-134.3l-145.31,6.56l-0.6-0.43l-14.98-53.48l1.14-0.32l14.85,53.03
					l145.8-6.58l0.26,0.38l0.2-0.18l85.74,95.46l-0.29,0.97L2346.97,1710.37z M2407.35,1575.69l-59.48,133.21l143.97-39.14
					L2407.35,1575.69z"/>
			</g>
		</g>
		<path class="st0" d="M2500.04,1511.98l-151.71-55.86l-107.19,64.68v167.41l157.45,62.32l97.1-77.48l7.59-53.88l0.04-0.25
			L2500.04,1511.98z M2398.96,1742.67l-62.8-111.81l159.56-8.87l-96.35,120.34L2398.96,1742.67z M2400.52,1481.65l2.16,0.79
			l90.93,133.74l-157.66,8.76L2400.52,1481.65z M2330.51,1622.62l-81.63-98.99l144.32-40.14L2330.51,1622.62z M2326.88,1627.52
			l-79.82,53.15v-149.95L2326.88,1627.52z M2330.23,1632.41l61.18,108.93l-140.97-55.8L2330.23,1632.41z M2497.14,1610.85
			l-84.91-124.88l82.01,30.2L2497.14,1610.85z M2348.95,1462.66l41.75,15.37l-124.7,34.68L2348.95,1462.66z M2420.38,1725.58
			l75.15-93.87l-5.38,38.2L2420.38,1725.58z"/>
	</g>
</g>
<g>
	<g>
		<g>
			<g>
				<g>
					<path d="M115.24,1954.22c0-49.01,41.06-68.36,109.24-68.36c24.05,0,42.32,2.89,63.3,6.15v7.42
						c-18.99-2.17-38.52-4.88-57.87-4.88c-54.62,0-84.64,13.2-84.64,59.68c0,48.29,30.02,59.68,83.55,59.86
						c20.8,0,40.15-2.53,58.96-5.06v7.42c-22.24,3.44-41.06,6.15-64.39,6.15C156.65,2022.58,115.24,2004.86,115.24,1954.22z"/>
					<path d="M387.46,1970.68l-85.54-83.19h33.46l76.32,73.97l75.23-73.97h12.48l-83.74,82.47v51h-28.21V1970.68z"/>
					<path d="M524.22,1887.48h157.16v8.14H552.44v52.63h117.92v8.32H552.44v56.25h131.3v8.14H524.22V1887.48z"/>
					<path d="M726.45,1910.45v110.5h-9.05v-133.47h22.25l144.32,108.33v-108.33h8.87v133.47h-18.63L726.45,1910.45z"/>
					<path d="M925.25,2016.07v-7.41c24.78,3.26,50.28,5.24,78.85,5.24c46.3,0,70.17-4.88,70.17-27.49c0-6.51-2.53-12.12-10.49-15.73
						c-9.59-4.16-26.22-5.79-58.23-7.78c-32.38-1.99-50.28-4.7-61.13-10.67c-11.21-6.15-15.01-15.19-15.01-26.77
						c0-30.56,32.19-39.61,85.54-39.61c27.31,0,50.1,2.71,70.72,6.33v7.42c-21.7-3.07-42.68-5.24-67.82-5.24
						c-44.13,0-62.76,5.97-62.76,23.51c0,5.79,1.45,11.03,7.96,14.47c7.96,4.52,22.61,6.33,55.71,8.5
						c32.37,1.99,51.9,4.16,64.2,10.13c12.84,6.33,17.18,15.55,17.18,28.58c0,34.18-35.63,42.86-93.32,42.86
						C975.53,2022.4,949.13,2019.51,925.25,2016.07z"/>
				</g>
			</g>
			<g>
				<g>
					<path d="M115.73,2075.19c0-11.76,9.85-16.4,26.2-16.4c5.77,0,10.15,0.7,15.19,1.47v1.78c-4.56-0.52-9.24-1.17-13.88-1.17
						c-13.1,0-20.31,3.17-20.31,14.32c0,11.58,7.2,14.32,20.04,14.36c4.99,0,9.63-0.61,14.15-1.22v1.78
						c-5.34,0.82-9.85,1.47-15.45,1.47C125.67,2091.59,115.73,2087.34,115.73,2075.19z"/>
					<path d="M171.13,2059.18h37.7v1.95H177.9v12.63h28.29v1.99H177.9v13.49h31.5v1.95h-38.27V2059.18z"/>
					<path d="M224.93,2064.69v26.51h-2.17v-32.01h5.34l34.62,25.99v-25.99h2.12v32.01h-4.47L224.93,2064.69z"/>
					<path d="M276.65,2059.18h46.81v1.95h-20.04v30.06h-6.73v-30.06h-20.04V2059.18z"/>
					<path d="M354.61,2078.44h-12.71v12.75h-6.64v-32.01h21.87c12.49,0,19.09,2.82,19.09,9.59c0,5.64-4.73,8.68-13.84,9.46
						l14.1,12.97h-8.24L354.61,2078.44z M356.78,2076.49c9.02,0,12.54-1.99,12.54-7.68c0-5.64-3.51-7.68-12.54-7.68h-14.88v15.36
						H356.78z"/>
					<path d="M390.58,2059.18h37.7v1.95h-30.93v12.63h28.29v1.99h-28.29v13.49h31.49v1.95h-38.26V2059.18z"/>
					<path d="M458.32,2075.23c0-9.72,7.98-16.62,24.86-16.62c16.79,0,24.86,6.9,24.86,16.62c0,9.72-8.07,16.53-24.86,16.53
						C466.31,2091.76,458.32,2084.95,458.32,2075.23z M500.88,2075.15c0-10.02-5.16-14.53-17.7-14.53c-12.58,0-17.7,4.6-17.7,14.53
						c0,10.02,5.12,14.62,17.7,14.62C495.72,2089.77,500.88,2085.17,500.88,2075.15z"/>
					<path d="M522.15,2059.18h36.92v1.95h-30.15v13.06h27.5v1.99h-27.5v15.01h-6.77V2059.18z"/>
					<path d="M588.93,2059.18h37.7v1.95H595.7v12.63h28.29v1.99H595.7v13.49h31.49v1.95h-38.26V2059.18z"/>
					<path d="M657.52,2077.27l-18.13,13.92h-3.43l19.91-15.31l-19.56-16.7h8.5l15.96,13.67l17.79-13.67h3.43l-19.56,15.05
						l19.91,16.96h-8.46L657.52,2077.27z"/>
					<path d="M689.8,2075.19c0-11.76,9.84-16.4,26.2-16.4c5.77,0,10.15,0.7,15.19,1.47v1.78c-4.55-0.52-9.24-1.17-13.88-1.17
						c-13.1,0-20.3,3.17-20.3,14.32c0,11.58,7.2,14.32,20.04,14.36c4.99,0,9.63-0.61,14.14-1.22v1.78
						c-5.34,0.82-9.85,1.47-15.44,1.47C699.74,2091.59,689.8,2087.34,689.8,2075.19z"/>
					<path d="M745.21,2059.18h37.7v1.95h-30.93v12.63h28.29v1.99h-28.29v13.49h31.49v1.95h-38.26V2059.18z"/>
					<path d="M796.83,2059.18h6.77v30.06h28.68v1.95h-35.45V2059.18z"/>
					<path d="M844.07,2059.18h6.77v30.06h28.68v1.95h-35.45V2059.18z"/>
					<path d="M891.31,2059.18h37.7v1.95h-30.93v12.63h28.29v1.99h-28.29v13.49h31.5v1.95h-38.27V2059.18z"/>
					<path d="M945.11,2064.69v26.51h-2.17v-32.01h5.34l34.62,25.99v-25.99h2.12v32.01h-4.47L945.11,2064.69z"/>
					<path d="M999.13,2075.19c0-11.76,9.84-16.4,26.2-16.4c5.77,0,10.15,0.7,15.19,1.47v1.78c-4.55-0.52-9.24-1.17-13.88-1.17
						c-13.1,0-20.3,3.17-20.3,14.32c0,11.58,7.2,14.32,20.04,14.36c4.99,0,9.63-0.61,14.14-1.22v1.78
						c-5.34,0.82-9.85,1.47-15.44,1.47C1009.07,2091.59,999.13,2087.34,999.13,2075.19z"/>
					<path d="M1054.54,2059.18h37.7v1.95h-30.93v12.63h28.29v1.99h-28.29v13.49h31.49v1.95h-38.26V2059.18z"/>
				</g>
			</g>
		</g>
	</g>
	<g>
		<g>
			<g>
				<path d="M633.19,1747.64l-51.17-37.29l-100.77-23.25l-0.45-0.66l15.08-105.56c0.22-0.3,21.86-30.58,43.45-60.38
					c44.02-60.75,44.77-60.32,45.52-60.07l0.41,0.69c0.08,3.29,34.36,68.94,57.58,112.64l87.8-59.33l0.66,0.98l-88.35,59.7
					l-0.86-0.21c-5.72-10.77-54.03-101.77-57.79-112.89c-6.8,7.21-64.73,87.75-87.39,119.45l-14.88,104.61l100.57,23.25l51.26,37.36
					L633.19,1747.64z"/>
			</g>
			<g>
				
					<rect x="538.73" y="1568.2" transform="matrix(0.8315 -0.5556 0.5556 0.8315 -823.3107 576.9578)" width="1.19" height="154.63"/>
			</g>
			<g>
				<path d="M582.43,1710.37l-0.69-0.81l59.97-134.3l-145.31,6.56l-0.6-0.43l-14.98-53.48l1.14-0.32l14.85,53.03l145.8-6.58
					l0.26,0.38l0.2-0.18l85.74,95.46l-0.29,0.97L582.43,1710.37z M642.81,1575.69l-59.48,133.21l143.97-39.14L642.81,1575.69z"/>
			</g>
		</g>
		<path d="M735.5,1511.98l-151.71-55.86l-107.19,64.68v167.41l157.45,62.32l97.1-77.48l7.59-53.88l0.04-0.25L735.5,1511.98z
			 M634.42,1742.67l-62.8-111.81l159.56-8.87l-96.35,120.34L634.42,1742.67z M635.98,1481.65l2.16,0.79l90.93,133.74l-157.66,8.76
			L635.98,1481.65z M565.97,1622.62l-81.63-98.99l144.32-40.14L565.97,1622.62z M562.34,1627.52l-79.82,53.15v-149.95
			L562.34,1627.52z M565.69,1632.41l61.18,108.93l-140.97-55.8L565.69,1632.41z M732.61,1610.85l-84.91-124.88l82.01,30.2
			L732.61,1610.85z M584.41,1462.66l41.75,15.37l-124.7,34.68L584.41,1462.66z M655.84,1725.58l75.15-93.87l-5.38,38.2
			L655.84,1725.58z"/>
	</g>
</g>
<g>
	<g>
		<g>
			<g>
				<g>
					<path class="st0" d="M2263.84,914.47c0-49.01,41.06-68.36,109.24-68.36c24.05,0,42.32,2.89,63.3,6.15v7.42
						c-18.99-2.17-38.52-4.88-57.87-4.88c-54.62,0-84.64,13.2-84.64,59.68c0,48.29,30.02,59.68,83.55,59.86
						c20.8,0,40.15-2.53,58.96-5.06v7.42c-22.24,3.44-41.06,6.15-64.39,6.15C2305.26,982.83,2263.84,965.11,2263.84,914.47z"/>
					<path class="st0" d="M2536.06,930.93l-85.54-83.19h33.46l76.32,73.97l75.23-73.97h12.48l-83.74,82.47v51h-28.21V930.93z"/>
					<path class="st0" d="M2672.83,847.74h157.16v8.14h-128.95v52.63h117.92v8.32h-117.92v56.25h131.3v8.14h-159.51V847.74z"/>
					<path class="st0" d="M2875.06,870.7v110.5h-9.05V847.74h22.25l144.32,108.33V847.74h8.87v133.47h-18.63L2875.06,870.7z"/>
					<path class="st0" d="M3073.86,976.32v-7.41c24.78,3.26,50.28,5.24,78.85,5.24c46.3,0,70.17-4.88,70.17-27.49
						c0-6.51-2.53-12.12-10.49-15.73c-9.59-4.16-26.23-5.79-58.23-7.78c-32.38-1.99-50.28-4.7-61.13-10.67
						c-11.21-6.15-15.01-15.19-15.01-26.77c0-30.56,32.19-39.61,85.54-39.61c27.31,0,50.1,2.71,70.72,6.33v7.42
						c-21.7-3.07-42.68-5.24-67.82-5.24c-44.13,0-62.76,5.97-62.76,23.51c0,5.79,1.45,11.03,7.96,14.47
						c7.96,4.52,22.61,6.33,55.71,8.5c32.37,1.99,51.9,4.16,64.21,10.13c12.84,6.33,17.18,15.55,17.18,28.58
						c0,34.18-35.63,42.86-93.32,42.86C3124.14,982.65,3097.73,979.76,3073.86,976.32z"/>
				</g>
			</g>
		</g>
	</g>
	<g>
		<g>
			<g>
				<path class="st0" d="M2098.36,1058.67l-51.17-37.29l-100.77-23.25l-0.45-0.66l15.08-105.56c0.22-0.3,21.86-30.58,43.45-60.38
					c44.02-60.75,44.77-60.32,45.52-60.07l0.41,0.69c0.08,3.29,34.36,68.94,57.58,112.64l87.8-59.33l0.66,0.98l-88.35,59.7
					l-0.86-0.21c-5.72-10.77-54.03-101.77-57.79-112.89c-6.8,7.21-64.73,87.75-87.39,119.45l-14.88,104.61l100.57,23.25l51.26,37.36
					L2098.36,1058.67z"/>
			</g>
			<g>
				
					<rect x="2003.9" y="879.23" transform="matrix(0.8315 -0.5556 0.5556 0.8315 -193.6072 1274.8541)" class="st0" width="1.19" height="154.63"/>
			</g>
			<g>
				<path class="st0" d="M2047.6,1021.4l-0.69-0.81l59.97-134.3l-145.31,6.56l-0.6-0.43l-14.98-53.48l1.14-0.32l14.85,53.03
					l145.8-6.58l0.26,0.38l0.2-0.19l85.74,95.46l-0.29,0.97L2047.6,1021.4z M2107.98,886.73l-59.48,133.21l143.97-39.14
					L2107.98,886.73z"/>
			</g>
		</g>
		<path class="st0" d="M2200.67,823.01l-151.71-55.86l-107.19,64.68v167.41l157.45,62.32l97.1-77.48l7.59-53.88l0.04-0.25
			L2200.67,823.01z M2099.59,1053.7l-62.8-111.81l159.56-8.87L2100,1053.37L2099.59,1053.7z M2101.15,792.68l2.16,0.79l90.93,133.74
			l-157.66,8.76L2101.15,792.68z M2031.14,933.65l-81.63-98.99l144.32-40.14L2031.14,933.65z M2027.51,938.56l-79.82,53.15V841.76
			L2027.51,938.56z M2030.86,943.44l61.18,108.93l-140.97-55.8L2030.86,943.44z M2197.77,921.88l-84.91-124.88l82.01,30.2
			L2197.77,921.88z M2049.58,773.69l41.75,15.37l-124.7,34.68L2049.58,773.69z M2121.01,1036.61l75.15-93.87l-5.38,38.2
			L2121.01,1036.61z"/>
	</g>
</g>
<g>
	<g>
		<g>
			<g>
				<g>
					<path d="M499.3,914.47c0-49.01,41.06-68.36,109.24-68.36c24.05,0,42.32,2.89,63.3,6.15v7.42c-18.99-2.17-38.52-4.88-57.87-4.88
						c-54.62,0-84.64,13.2-84.64,59.68c0,48.29,30.02,59.68,83.55,59.86c20.8,0,40.15-2.53,58.96-5.06v7.42
						c-22.24,3.44-41.06,6.15-64.39,6.15C540.72,982.83,499.3,965.11,499.3,914.47z"/>
					<path d="M771.53,930.93l-85.54-83.19h33.46l76.32,73.97L871,847.74h12.48l-83.74,82.47v51h-28.21V930.93z"/>
					<path d="M908.29,847.74h157.16v8.14H936.5v52.63h117.92v8.32H936.5v56.25h131.3v8.14H908.29V847.74z"/>
					<path d="M1110.52,870.7v110.5h-9.05V847.74h22.25l144.32,108.33V847.74h8.87v133.47h-18.63L1110.52,870.7z"/>
					<path d="M1309.32,976.32v-7.41c24.78,3.26,50.28,5.24,78.85,5.24c46.3,0,70.17-4.88,70.17-27.49c0-6.51-2.53-12.12-10.49-15.73
						c-9.59-4.16-26.22-5.79-58.23-7.78c-32.38-1.99-50.28-4.7-61.13-10.67c-11.21-6.15-15.01-15.19-15.01-26.77
						c0-30.56,32.19-39.61,85.54-39.61c27.31,0,50.1,2.71,70.72,6.33v7.42c-21.7-3.07-42.68-5.24-67.82-5.24
						c-44.13,0-62.76,5.97-62.76,23.51c0,5.79,1.45,11.03,7.96,14.47c7.96,4.52,22.61,6.33,55.71,8.5
						c32.37,1.99,51.9,4.16,64.2,10.13c12.84,6.33,17.18,15.55,17.18,28.58c0,34.18-35.63,42.86-93.32,42.86
						C1359.6,982.65,1333.19,979.76,1309.32,976.32z"/>
				</g>
			</g>
		</g>
	</g>
	<g>
		<g>
			<g>
				<path d="M333.83,1058.67l-51.17-37.29l-100.77-23.25l-0.45-0.66l15.08-105.56c0.22-0.3,21.86-30.58,43.45-60.38
					c44.02-60.75,44.77-60.32,45.52-60.07l0.41,0.69c0.08,3.29,34.36,68.94,57.58,112.64l87.8-59.33l0.66,0.98l-88.35,59.7
					l-0.86-0.21c-5.72-10.77-54.03-101.77-57.79-112.89c-6.8,7.21-64.73,87.75-87.39,119.45L182.69,997.1l100.57,23.25l51.26,37.36
					L333.83,1058.67z"/>
			</g>
			<g>
				
					<rect x="239.36" y="879.23" transform="matrix(0.8315 -0.5556 0.5556 0.8315 -490.9904 294.5221)" width="1.19" height="154.63"/>
			</g>
			<g>
				<path d="M283.06,1021.4l-0.69-0.81l59.97-134.3l-145.31,6.56l-0.6-0.43l-14.98-53.48l1.14-0.32l14.85,53.03l145.8-6.58
					l0.26,0.38l0.2-0.19l85.74,95.46l-0.29,0.97L283.06,1021.4z M343.44,886.73l-59.48,133.21l143.97-39.14L343.44,886.73z"/>
			</g>
		</g>
		<path d="M436.13,823.01l-151.71-55.86l-107.19,64.68v167.41l157.45,62.32l97.1-77.48l7.59-53.88l0.04-0.25L436.13,823.01z
			 M335.05,1053.7l-62.8-111.81l159.56-8.87l-96.35,120.35L335.05,1053.7z M336.62,792.68l2.16,0.79l90.93,133.74l-157.66,8.76
			L336.62,792.68z M266.6,933.65l-81.63-98.99l144.32-40.14L266.6,933.65z M262.97,938.56l-79.82,53.15V841.76L262.97,938.56z
			 M266.33,943.44l61.18,108.93l-140.97-55.8L266.33,943.44z M433.24,921.88l-84.91-124.88l82.01,30.2L433.24,921.88z
			 M285.05,773.69l41.75,15.37l-124.7,34.68L285.05,773.69z M356.47,1036.61l75.15-93.87l-5.38,38.2L356.47,1036.61z"/>
	</g>
</g>
<g>
	<g>
		<g>
			<g>
				<g>
					<path class="st0" d="M1879.77,2934.79c0-49.01,41.06-68.36,109.24-68.36c24.05,0,42.32,2.89,63.3,6.15v7.42
						c-18.99-2.17-38.52-4.88-57.87-4.88c-54.62,0-84.64,13.2-84.64,59.68c0,48.29,30.02,59.68,83.55,59.86
						c20.8,0,40.15-2.53,58.96-5.06v7.42c-22.24,3.44-41.06,6.15-64.39,6.15C1921.19,3003.16,1879.77,2985.44,1879.77,2934.79z"/>
					<path class="st0" d="M2152,2951.25l-85.54-83.19h33.46l76.32,73.97l75.23-73.97h12.48l-83.74,82.47v51H2152V2951.25z"/>
					<path class="st0" d="M2288.76,2868.06h157.16v8.14h-128.95v52.63h117.92v8.32h-117.92v56.25h131.3v8.14h-159.51V2868.06z"/>
					<path class="st0" d="M2490.99,2891.02v110.5h-9.05v-133.47h22.25l144.32,108.33v-108.33h8.87v133.47h-18.63L2490.99,2891.02z"
						/>
					<path class="st0" d="M2689.79,2996.65v-7.41c24.78,3.26,50.28,5.24,78.85,5.24c46.3,0,70.17-4.88,70.17-27.49
						c0-6.51-2.53-12.12-10.49-15.73c-9.59-4.16-26.23-5.79-58.23-7.78c-32.38-1.99-50.28-4.7-61.13-10.67
						c-11.21-6.15-15.01-15.19-15.01-26.77c0-30.56,32.19-39.61,85.54-39.61c27.31,0,50.1,2.71,70.72,6.33v7.42
						c-21.7-3.07-42.68-5.24-67.82-5.24c-44.13,0-62.76,5.97-62.76,23.51c0,5.79,1.45,11.03,7.96,14.47
						c7.96,4.52,22.61,6.33,55.71,8.5c32.37,1.99,51.9,4.16,64.2,10.13c12.84,6.33,17.18,15.55,17.18,28.58
						c0,34.18-35.63,42.86-93.32,42.86C2740.07,3002.98,2713.67,3000.08,2689.79,2996.65z"/>
				</g>
			</g>
		</g>
	</g>
	<g>
		<g>
			<g>
				<path class="st0" d="M2397.73,2728.21l-51.17-37.29l-100.77-23.25l-0.45-0.66l15.08-105.56c0.22-0.3,21.86-30.58,43.45-60.38
					c44.02-60.75,44.77-60.32,45.52-60.07l0.41,0.69c0.08,3.29,34.36,68.94,57.58,112.64l87.8-59.33l0.66,0.98l-88.35,59.7
					l-0.86-0.21c-5.72-10.77-54.03-101.77-57.79-112.89c-6.8,7.21-64.74,87.75-87.39,119.45l-14.88,104.61l100.57,23.25l51.26,37.36
					L2397.73,2728.21z"/>
			</g>
			<g>
				
					<rect x="2303.27" y="2548.77" transform="matrix(0.8315 -0.5556 0.5556 0.8315 -1070.7092 1722.5491)" class="st0" width="1.19" height="154.63"/>
			</g>
			<g>
				<path class="st0" d="M2346.97,2690.94l-0.69-0.81l59.97-134.3l-145.31,6.56l-0.6-0.43l-14.98-53.48l1.14-0.32l14.85,53.03
					l145.8-6.58l0.26,0.38l0.2-0.18l85.74,95.46l-0.29,0.97L2346.97,2690.94z M2407.35,2556.27l-59.48,133.21l143.97-39.14
					L2407.35,2556.27z"/>
			</g>
		</g>
		<path class="st0" d="M2500.04,2492.56l-151.71-55.86l-107.19,64.68v167.41l157.45,62.32l97.1-77.48l7.59-53.88l0.04-0.25
			L2500.04,2492.56z M2398.96,2723.24l-62.8-111.81l159.56-8.87l-96.35,120.34L2398.96,2723.24z M2400.52,2462.23l2.16,0.79
			l90.93,133.74l-157.66,8.76L2400.52,2462.23z M2330.51,2603.19l-81.63-98.99l144.32-40.14L2330.51,2603.19z M2326.88,2608.1
			l-79.82,53.15V2511.3L2326.88,2608.1z M2330.23,2612.98l61.18,108.93l-140.97-55.8L2330.23,2612.98z M2497.14,2591.42
			l-84.91-124.88l82.01,30.2L2497.14,2591.42z M2348.95,2443.24l41.75,15.37l-124.7,34.68L2348.95,2443.24z M2420.38,2706.15
			l75.15-93.87l-5.38,38.2L2420.38,2706.15z"/>
	</g>
</g>
<g>
	<g>
		<g>
			<g>
				<g>
					<path d="M115.24,2934.79c0-49.01,41.06-68.36,109.24-68.36c24.05,0,42.32,2.89,63.3,6.15v7.42
						c-18.99-2.17-38.52-4.88-57.87-4.88c-54.62,0-84.64,13.2-84.64,59.68c0,48.29,30.02,59.68,83.55,59.86
						c20.8,0,40.15-2.53,58.96-5.06v7.42c-22.24,3.44-41.06,6.15-64.39,6.15C156.65,3003.16,115.24,2985.44,115.24,2934.79z"/>
					<path d="M387.46,2951.25l-85.54-83.19h33.46l76.32,73.97l75.23-73.97h12.48l-83.74,82.47v51h-28.21V2951.25z"/>
					<path d="M524.22,2868.06h157.16v8.14H552.44v52.63h117.92v8.32H552.44v56.25h131.3v8.14H524.22V2868.06z"/>
					<path d="M726.45,2891.02v110.5h-9.05v-133.47h22.25l144.32,108.33v-108.33h8.87v133.47h-18.63L726.45,2891.02z"/>
					<path d="M925.25,2996.65v-7.41c24.78,3.26,50.28,5.24,78.85,5.24c46.3,0,70.17-4.88,70.17-27.49c0-6.51-2.53-12.12-10.49-15.73
						c-9.59-4.16-26.22-5.79-58.23-7.78c-32.38-1.99-50.28-4.7-61.13-10.67c-11.21-6.15-15.01-15.19-15.01-26.77
						c0-30.56,32.19-39.61,85.54-39.61c27.31,0,50.1,2.71,70.72,6.33v7.42c-21.7-3.07-42.68-5.24-67.82-5.24
						c-44.13,0-62.76,5.97-62.76,23.51c0,5.79,1.45,11.03,7.96,14.47c7.96,4.52,22.61,6.33,55.71,8.5
						c32.37,1.99,51.9,4.16,64.2,10.13c12.84,6.33,17.18,15.55,17.18,28.58c0,34.18-35.63,42.86-93.32,42.86
						C975.53,3002.98,949.13,3000.08,925.25,2996.65z"/>
				</g>
			</g>
		</g>
	</g>
	<g>
		<g>
			<g>
				<path d="M633.19,2728.21l-51.17-37.29l-100.77-23.25l-0.45-0.66l15.08-105.56c0.22-0.3,21.86-30.58,43.45-60.38
					c44.02-60.75,44.77-60.32,45.52-60.07l0.41,0.69c0.08,3.29,34.36,68.94,57.58,112.64l87.8-59.33l0.66,0.98l-88.35,59.7
					l-0.86-0.21c-5.72-10.77-54.03-101.77-57.79-112.89c-6.8,7.21-64.73,87.75-87.39,119.45l-14.88,104.61l100.57,23.25l51.26,37.36
					L633.19,2728.21z"/>
			</g>
			<g>
				
					<rect x="538.73" y="2548.77" transform="matrix(0.8315 -0.5556 0.5556 0.8315 -1368.0924 742.217)" width="1.19" height="154.63"/>
			</g>
			<g>
				<path d="M582.43,2690.94l-0.69-0.81l59.97-134.3l-145.31,6.56l-0.6-0.43l-14.98-53.48l1.14-0.32l14.85,53.03l145.8-6.58
					l0.26,0.38l0.2-0.18l85.74,95.46l-0.29,0.97L582.43,2690.94z M642.81,2556.27l-59.48,133.21l143.97-39.14L642.81,2556.27z"/>
			</g>
		</g>
		<path d="M735.5,2492.56l-151.71-55.86l-107.19,64.68v167.41l157.45,62.32l97.1-77.48l7.59-53.88l0.04-0.25L735.5,2492.56z
			 M634.42,2723.24l-62.8-111.81l159.56-8.87l-96.35,120.34L634.42,2723.24z M635.98,2462.23l2.16,0.79l90.93,133.74l-157.66,8.76
			L635.98,2462.23z M565.97,2603.19l-81.63-98.99l144.32-40.14L565.97,2603.19z M562.34,2608.1l-79.82,53.15V2511.3L562.34,2608.1z
			 M565.69,2612.98l61.18,108.93l-140.97-55.8L565.69,2612.98z M732.61,2591.42l-84.91-124.88l82.01,30.2L732.61,2591.42z
			 M584.41,2443.24l41.75,15.37l-124.7,34.68L584.41,2443.24z M655.84,2706.15l75.15-93.87l-5.38,38.2L655.84,2706.15z"/>
	</g>
</g>
<g>
	<g>
		<g>
			<g>
				<path class="st0" d="M2263.46,228.99c0-49.01,41.06-68.36,109.24-68.36c24.05,0,42.32,2.89,63.3,6.15v7.42
					c-18.99-2.17-38.52-4.88-57.87-4.88c-54.62,0-84.64,13.2-84.64,59.68c0,48.29,30.02,59.68,83.55,59.86
					c20.8,0,40.15-2.53,58.96-5.06v7.42c-22.24,3.44-41.06,6.15-64.39,6.15C2304.88,297.36,2263.46,279.64,2263.46,228.99z"/>
				<path class="st0" d="M2535.68,245.45l-85.54-83.19h33.46l76.32,73.97l75.23-73.97h12.48l-83.74,82.47v51h-28.21V245.45z"/>
				<path class="st0" d="M2672.45,162.26h157.16v8.14h-128.95v52.63h117.92v8.32h-117.92v56.25h131.3v8.14h-159.51V162.26z"/>
				<path class="st0" d="M2874.68,185.23v110.5h-9.05V162.26h22.25l144.32,108.33V162.26h8.87v133.47h-18.63L2874.68,185.23z"/>
				<path class="st0" d="M3073.47,290.85v-7.41c24.78,3.26,50.28,5.24,78.85,5.24c46.3,0,70.17-4.88,70.17-27.49
					c0-6.51-2.53-12.12-10.49-15.73c-9.59-4.16-26.22-5.79-58.23-7.78c-32.38-1.99-50.28-4.7-61.13-10.67
					c-11.21-6.15-15.01-15.19-15.01-26.77c0-30.56,32.19-39.61,85.54-39.61c27.31,0,50.1,2.71,70.72,6.33v7.42
					c-21.7-3.07-42.68-5.24-67.82-5.24c-44.13,0-62.76,5.97-62.76,23.51c0,5.79,1.45,11.03,7.96,14.47
					c7.96,4.52,22.61,6.33,55.71,8.5c32.37,1.99,51.9,4.16,64.2,10.13c12.84,6.33,17.18,15.55,17.18,28.58
					c0,34.18-35.63,42.86-93.32,42.86C3123.76,297.18,3097.35,294.28,3073.47,290.85z"/>
			</g>
		</g>
		<g>
			<g>
				<path class="st0" d="M2263.95,349.97c0-11.76,9.85-16.4,26.2-16.4c5.77,0,10.15,0.7,15.19,1.47v1.78
					c-4.56-0.52-9.24-1.17-13.88-1.17c-13.1,0-20.31,3.17-20.31,14.32c0,11.58,7.2,14.32,20.04,14.36c4.99,0,9.63-0.61,14.15-1.22
					v1.78c-5.34,0.82-9.85,1.47-15.45,1.47C2273.89,366.36,2263.95,362.11,2263.95,349.97z"/>
				<path class="st0" d="M2319.36,333.96h37.7v1.95h-30.93v12.63h28.29v1.99h-28.29v13.49h31.5v1.95h-38.27V333.96z"/>
				<path class="st0" d="M2373.16,339.46v26.51h-2.17v-32.01h5.34l34.62,25.99v-25.99h2.12v32.01h-4.47L2373.16,339.46z"/>
				<path class="st0" d="M2424.87,333.96h46.81v1.95h-20.04v30.06h-6.73v-30.06h-20.04V333.96z"/>
				<path class="st0" d="M2502.84,353.22h-12.71v12.75h-6.64v-32.01h21.87c12.49,0,19.09,2.82,19.09,9.59
					c0,5.64-4.73,8.68-13.84,9.46l14.1,12.97h-8.24L2502.84,353.22z M2505.01,351.26c9.02,0,12.54-1.99,12.54-7.68
					c0-5.64-3.51-7.68-12.54-7.68h-14.88v15.36H2505.01z"/>
				<path class="st0" d="M2538.81,333.96h37.7v1.95h-30.93v12.63h28.29v1.99h-28.29v13.49h31.49v1.95h-38.26V333.96z"/>
				<path class="st0" d="M2606.55,350.01c0-9.72,7.98-16.62,24.86-16.62c16.79,0,24.86,6.9,24.86,16.62
					c0,9.72-8.07,16.53-24.86,16.53C2614.53,366.54,2606.55,359.72,2606.55,350.01z M2649.11,349.92c0-10.02-5.16-14.53-17.7-14.53
					c-12.58,0-17.7,4.6-17.7,14.53c0,10.02,5.12,14.62,17.7,14.62C2643.94,364.54,2649.11,359.94,2649.11,349.92z"/>
				<path class="st0" d="M2670.38,333.96h36.92v1.95h-30.15v13.06h27.5v1.99h-27.5v15.01h-6.77V333.96z"/>
				<path class="st0" d="M2737.16,333.96h37.7v1.95h-30.93v12.63h28.29v1.99h-28.29v13.49h31.49v1.95h-38.26V333.96z"/>
				<path class="st0" d="M2805.74,352.05l-18.13,13.92h-3.43l19.91-15.31l-19.56-16.7h8.5l15.96,13.67l17.79-13.67h3.43
					l-19.56,15.05l19.91,16.96h-8.46L2805.74,352.05z"/>
				<path class="st0" d="M2838.03,349.97c0-11.76,9.84-16.4,26.2-16.4c5.77,0,10.15,0.7,15.19,1.47v1.78
					c-4.55-0.52-9.24-1.17-13.88-1.17c-13.1,0-20.3,3.17-20.3,14.32c0,11.58,7.2,14.32,20.04,14.36c4.99,0,9.63-0.61,14.14-1.22
					v1.78c-5.34,0.82-9.85,1.47-15.44,1.47C2847.96,366.36,2838.03,362.11,2838.03,349.97z"/>
				<path class="st0" d="M2893.43,333.96h37.7v1.95h-30.93v12.63h28.29v1.99h-28.29v13.49h31.49v1.95h-38.26V333.96z"/>
				<path class="st0" d="M2945.05,333.96h6.77v30.06h28.68v1.95h-35.45V333.96z"/>
				<path class="st0" d="M2992.3,333.96h6.77v30.06h28.68v1.95h-35.45V333.96z"/>
				<path class="st0" d="M3039.54,333.96h37.7v1.95h-30.93v12.63h28.29v1.99h-28.29v13.49h31.5v1.95h-38.27V333.96z"/>
				<path class="st0" d="M3093.34,339.46v26.51h-2.17v-32.01h5.34l34.62,25.99v-25.99h2.12v32.01h-4.47L3093.34,339.46z"/>
				<path class="st0" d="M3147.36,349.97c0-11.76,9.84-16.4,26.2-16.4c5.77,0,10.15,0.7,15.19,1.47v1.78
					c-4.55-0.52-9.24-1.17-13.88-1.17c-13.1,0-20.3,3.17-20.3,14.32c0,11.58,7.2,14.32,20.04,14.36c4.99,0,9.63-0.61,14.14-1.22
					v1.78c-5.34,0.82-9.85,1.47-15.44,1.47C3157.29,366.36,3147.36,362.11,3147.36,349.97z"/>
				<path class="st0" d="M3202.76,333.96h37.7v1.95h-30.93v12.63h28.29v1.99h-28.29v13.49h31.49v1.95h-38.26V333.96z"/>
			</g>
		</g>
	</g>
	<g>
		<g>
			<g>
				<path class="st0" d="M2098.75,410.13l-51.17-37.29l-100.77-23.25l-0.45-0.66l15.08-105.56c0.22-0.3,21.86-30.58,43.45-60.38
					c44.01-60.75,44.77-60.32,45.52-60.07l0.41,0.69c0.08,3.29,34.36,68.94,57.58,112.64l87.8-59.33l0.66,0.98l-88.35,59.7
					l-0.86-0.21c-5.72-10.77-54.03-101.77-57.79-112.89c-6.8,7.21-64.73,87.75-87.39,119.45l-14.88,104.61l100.57,23.25l51.26,37.36
					L2098.75,410.13z"/>
			</g>
			<g>
				
					<rect x="2004.28" y="230.69" transform="matrix(0.8315 -0.5556 0.5556 0.8315 166.7666 1165.7667)" class="st0" width="1.19" height="154.63"/>
			</g>
			<g>
				<path class="st0" d="M2047.98,372.86l-0.69-0.81l59.97-134.3l-145.31,6.56l-0.6-0.43l-14.98-53.48l1.14-0.32l14.85,53.03
					l145.8-6.58l0.26,0.38l0.2-0.19l85.74,95.46l-0.29,0.97L2047.98,372.86z M2108.36,238.19l-59.48,133.21l143.97-39.14
					L2108.36,238.19z"/>
			</g>
		</g>
		<path class="st0" d="M2201.05,174.48l-151.71-55.86l-107.19,64.68v167.41l157.45,62.32l97.1-77.48l7.59-53.88l0.04-0.25
			L2201.05,174.48z M2099.97,405.17l-62.8-111.81l159.56-8.87l-96.35,120.35L2099.97,405.17z M2101.54,144.15l2.16,0.79
			l90.93,133.74l-157.66,8.76L2101.54,144.15z M2031.52,285.11l-81.63-98.99l144.32-40.14L2031.52,285.11z M2027.89,290.02
			l-79.82,53.15V193.22L2027.89,290.02z M2031.25,294.9l61.18,108.93l-140.97-55.8L2031.25,294.9z M2198.16,273.34l-84.91-124.88
			l82.01,30.2L2198.16,273.34z M2049.97,125.16l41.75,15.37l-124.7,34.68L2049.97,125.16z M2121.39,388.07l75.15-93.87l-5.38,38.2
			L2121.39,388.07z"/>
	</g>
</g>
<g>
	<g>
		<g>
			<g>
				<path d="M498.92,228.99c0-49.01,41.06-68.36,109.24-68.36c24.05,0,42.32,2.89,63.3,6.15v7.42c-18.99-2.17-38.52-4.88-57.87-4.88
					c-54.62,0-84.64,13.2-84.64,59.68c0,48.29,30.02,59.68,83.55,59.86c20.8,0,40.15-2.53,58.96-5.06v7.42
					c-22.24,3.44-41.06,6.15-64.39,6.15C540.34,297.36,498.92,279.64,498.92,228.99z"/>
				<path d="M771.14,245.45l-85.54-83.19h33.46l76.32,73.97l75.23-73.97h12.48l-83.74,82.47v51h-28.21V245.45z"/>
				<path d="M907.91,162.26h157.16v8.14H936.12v52.63h117.92v8.32H936.12v56.25h131.3v8.14H907.91V162.26z"/>
				<path d="M1110.14,185.23v110.5h-9.05V162.26h22.25l144.32,108.33V162.26h8.87v133.47h-18.63L1110.14,185.23z"/>
				<path d="M1308.94,290.85v-7.41c24.78,3.26,50.28,5.24,78.85,5.24c46.3,0,70.17-4.88,70.17-27.49c0-6.51-2.53-12.12-10.49-15.73
					c-9.59-4.16-26.22-5.79-58.23-7.78c-32.38-1.99-50.28-4.7-61.13-10.67c-11.21-6.15-15.01-15.19-15.01-26.77
					c0-30.56,32.19-39.61,85.54-39.61c27.31,0,50.1,2.71,70.72,6.33v7.42c-21.7-3.07-42.68-5.24-67.82-5.24
					c-44.13,0-62.76,5.97-62.76,23.51c0,5.79,1.45,11.03,7.96,14.47c7.96,4.52,22.61,6.33,55.71,8.5
					c32.37,1.99,51.9,4.16,64.2,10.13c12.84,6.33,17.18,15.55,17.18,28.58c0,34.18-35.63,42.86-93.32,42.86
					C1359.22,297.18,1332.81,294.28,1308.94,290.85z"/>
			</g>
		</g>
		<g>
			<g>
				<path d="M499.42,349.97c0-11.76,9.85-16.4,26.2-16.4c5.77,0,10.15,0.7,15.19,1.47v1.78c-4.56-0.52-9.24-1.17-13.88-1.17
					c-13.1,0-20.31,3.17-20.31,14.32c0,11.58,7.2,14.32,20.04,14.36c4.99,0,9.63-0.61,14.15-1.22v1.78
					c-5.34,0.82-9.85,1.47-15.45,1.47C509.35,366.36,499.42,362.11,499.42,349.97z"/>
				<path d="M554.82,333.96h37.7v1.95h-30.93v12.63h28.29v1.99h-28.29v13.49h31.5v1.95h-38.27V333.96z"/>
				<path d="M608.62,339.46v26.51h-2.17v-32.01h5.34l34.62,25.99v-25.99h2.12v32.01h-4.47L608.62,339.46z"/>
				<path d="M660.34,333.96h46.81v1.95h-20.04v30.06h-6.73v-30.06h-20.04V333.96z"/>
				<path d="M738.3,353.22h-12.71v12.75h-6.64v-32.01h21.87c12.49,0,19.09,2.82,19.09,9.59c0,5.64-4.73,8.68-13.84,9.46l14.1,12.97
					h-8.24L738.3,353.22z M740.47,351.26c9.02,0,12.54-1.99,12.54-7.68c0-5.64-3.51-7.68-12.54-7.68h-14.88v15.36H740.47z"/>
				<path d="M774.27,333.96h37.7v1.95h-30.93v12.63h28.29v1.99h-28.29v13.49h31.49v1.95h-38.26V333.96z"/>
				<path d="M842.01,350.01c0-9.72,7.98-16.62,24.86-16.62c16.79,0,24.86,6.9,24.86,16.62c0,9.72-8.07,16.53-24.86,16.53
					C849.99,366.54,842.01,359.72,842.01,350.01z M884.57,349.92c0-10.02-5.16-14.53-17.7-14.53c-12.58,0-17.7,4.6-17.7,14.53
					c0,10.02,5.12,14.62,17.7,14.62C879.41,364.54,884.57,359.94,884.57,349.92z"/>
				<path d="M905.84,333.96h36.92v1.95h-30.15v13.06h27.5v1.99h-27.5v15.01h-6.77V333.96z"/>
				<path d="M972.62,333.96h37.7v1.95h-30.93v12.63h28.29v1.99h-28.29v13.49h31.49v1.95h-38.26V333.96z"/>
				<path d="M1041.21,352.05l-18.13,13.92h-3.43l19.91-15.31l-19.56-16.7h8.5l15.96,13.67l17.79-13.67h3.43l-19.56,15.05
					l19.91,16.96h-8.46L1041.21,352.05z"/>
				<path d="M1073.49,349.97c0-11.76,9.84-16.4,26.2-16.4c5.77,0,10.15,0.7,15.19,1.47v1.78c-4.55-0.52-9.24-1.17-13.88-1.17
					c-13.1,0-20.3,3.17-20.3,14.32c0,11.58,7.2,14.32,20.04,14.36c4.99,0,9.63-0.61,14.14-1.22v1.78
					c-5.34,0.82-9.85,1.47-15.44,1.47C1083.42,366.36,1073.49,362.11,1073.49,349.97z"/>
				<path d="M1128.89,333.96h37.7v1.95h-30.93v12.63h28.29v1.99h-28.29v13.49h31.49v1.95h-38.26V333.96z"/>
				<path d="M1180.52,333.96h6.77v30.06h28.68v1.95h-35.45V333.96z"/>
				<path d="M1227.76,333.96h6.77v30.06h28.68v1.95h-35.45V333.96z"/>
				<path d="M1275,333.96h37.7v1.95h-30.93v12.63h28.29v1.99h-28.29v13.49h31.5v1.95H1275V333.96z"/>
				<path d="M1328.8,339.46v26.51h-2.17v-32.01h5.34l34.62,25.99v-25.99h2.12v32.01h-4.47L1328.8,339.46z"/>
				<path d="M1382.82,349.97c0-11.76,9.84-16.4,26.2-16.4c5.77,0,10.15,0.7,15.19,1.47v1.78c-4.55-0.52-9.24-1.17-13.88-1.17
					c-13.1,0-20.3,3.17-20.3,14.32c0,11.58,7.2,14.32,20.04,14.36c4.99,0,9.63-0.61,14.14-1.22v1.78
					c-5.34,0.82-9.85,1.47-15.44,1.47C1392.75,366.36,1382.82,362.11,1382.82,349.97z"/>
				<path d="M1438.22,333.96h37.7v1.95h-30.93v12.63h28.29v1.99h-28.29v13.49h31.49v1.95h-38.26V333.96z"/>
			</g>
		</g>
	</g>
	<g>
		<g>
			<g>
				<path d="M334.21,410.13l-51.17-37.29l-100.77-23.25l-0.45-0.66l15.08-105.56c0.22-0.3,21.86-30.58,43.45-60.38
					c44.02-60.75,44.77-60.32,45.52-60.07l0.41,0.69c0.08,3.29,34.36,68.94,57.58,112.64l87.8-59.33l0.66,0.98l-88.35,59.7
					l-0.86-0.21c-5.72-10.77-54.03-101.77-57.79-112.89c-6.8,7.21-64.74,87.75-87.39,119.45l-14.88,104.61l100.57,23.25l51.26,37.36
					L334.21,410.13z"/>
			</g>
			<g>
				
					<rect x="239.74" y="230.69" transform="matrix(0.8315 -0.5556 0.5556 0.8315 -130.6166 185.4346)" width="1.19" height="154.63"/>
			</g>
			<g>
				<path d="M283.45,372.86l-0.69-0.81l59.97-134.3l-145.31,6.56l-0.6-0.43l-14.98-53.48l1.14-0.32l14.85,53.03l145.8-6.58
					l0.26,0.38l0.2-0.19l85.74,95.46l-0.29,0.97L283.45,372.86z M343.82,238.19L284.34,371.4l143.97-39.14L343.82,238.19z"/>
			</g>
		</g>
		<path d="M436.52,174.48L284.8,118.62l-107.19,64.68v167.41l157.45,62.32l97.1-77.48l7.59-53.88l0.04-0.25L436.52,174.48z
			 M335.43,405.17l-62.8-111.81l159.56-8.87l-96.35,120.35L335.43,405.17z M337,144.15l2.16,0.79l90.93,133.74l-157.66,8.76
			L337,144.15z M266.98,285.11l-81.63-98.99l144.32-40.14L266.98,285.11z M263.36,290.02l-79.82,53.15V193.22L263.36,290.02z
			 M266.71,294.9l61.18,108.93l-140.97-55.8L266.71,294.9z M433.62,273.34l-84.91-124.88l82.01,30.2L433.62,273.34z M285.43,125.16
			l41.75,15.37l-124.7,34.68L285.43,125.16z M356.85,388.07l75.15-93.87l-5.38,38.2L356.85,388.07z"/>
	</g>
</g>
</svg>
