<?xml version="1.0" encoding="UTF-8"?>
<svg width="586px" height="200px" viewBox="0 0 586 200" version="1.1" xmlns="http://www.w3.org/2000/svg" xmlns:xlink="http://www.w3.org/1999/xlink">
    <!-- Generator: Sketch 63.1 (92452) - https://sketch.com -->
    <title>Group 8</title>
    <desc>Created with Sketch.</desc>
    <g id="Mood-board" stroke="none" stroke-width="1" fill="none" fill-rule="evenodd">
        <g id="EDUbots-website-v.1-Copy" transform="translate(-96.000000, -1019.000000)">
            <g id="Group-8" transform="translate(98.000000, 1021.000000)">
                <g id="Card/OurGoals">
                    <g id="Increased-student-engagement">
                        <rect id="Rectangle" stroke="#D68AEA" stroke-width="2" fill-opacity="0.5" fill="#D68AEA" x="-1" y="-1" width="584" height="198" rx="5"></rect>
                        <text id="We-want-our-work-to" font-family="SourceSansPro-Regular, Source Sans Pro" font-size="18" font-weight="normal" line-spacing="32" fill="#0F2522">
                            <tspan x="181" y="88">We want our work to have proven  increase in </tspan>
                            <tspan x="181" y="120">student engagement. We focus on engagement </tspan>
                            <tspan x="181" y="152">between peers/educators and chatbots</tspan>
                        </text>
                        <text id="Increased-student-en" font-family="SourceSansPro-Bold, Source Sans Pro" font-size="20" font-weight="bold" line-spacing="48" fill="#0F2522">
                            <tspan x="181" y="41">Increased student engagement</tspan>
                        </text>
                    </g>
                </g>
                <g id="Rocket" transform="translate(50.000000, 27.000000)" fill-rule="nonzero">
                    <g id="Group-3">
                        <path d="M3.09978294,77.6196229 C5.46986841,72.7894473 9.37848777,70.0214094 14.825641,69.315509 L14.825641,98.2965624 L0.605128205,98.2965624 C-0.101854106,89.3421116 0.729697473,82.4497984 3.09978294,77.6196229 Z" id="Shape" fill="#FFFFFF"></path>
                        <path d="M3.23592536,77.6847624 C0.891538763,82.4625643 0.0594444398,89.2839287 0.745183776,98.1471755 L14.674359,98.1471755 L14.674359,69.4865341 C9.36680053,70.2212119 5.55886847,72.9506618 3.23592536,77.6847624 Z M2.96364053,77.5544833 C5.35600141,72.678911 9.30847754,69.8798142 14.8059564,69.1673922 C14.896548,69.1556523 14.9769231,69.2252853 14.9769231,69.315509 L14.9769231,98.2965624 C14.9769231,98.3790665 14.9091918,98.4459492 14.825641,98.4459492 L0.605128205,98.4459492 C0.526138032,98.4459492 0.46044361,98.3859386 0.454303845,98.3081739 C-0.254580397,89.3296338 0.579989208,82.4123058 2.96364053,77.5544833 Z" id="Shape" fill="#000000"></path>
                        <path d="M4.74874587,77.6847624 C2.40435928,82.4625643 1.57226495,89.2839287 2.25800429,98.1471755 L16.1871795,98.1471755 L16.1871795,69.4865341 C10.879621,70.2212119 7.07168898,72.9506618 4.74874587,77.6847624 Z M4.47646104,77.5544833 C6.86882193,72.678911 10.8212981,69.8798142 16.3187769,69.1673922 C16.4093685,69.1556523 16.4897436,69.2252853 16.4897436,69.315509 L16.4897436,98.2965624 C16.4897436,98.3790665 16.4220123,98.4459492 16.3384615,98.4459492 L2.11794872,98.4459492 C2.03895854,98.4459492 1.97326412,98.3859386 1.96712436,98.3081739 C1.25824012,89.3296338 2.09280972,82.4123058 4.47646104,77.5544833 Z" id="Shape" fill="#000000"></path>
                        <path d="M56.2027812,77.6196229 C58.5728666,82.4497984 59.4044182,89.3421116 58.6974359,98.2965624 L44.4769231,98.2965624 L44.4769231,69.315509 C49.9240763,70.0214094 53.8326957,72.7894473 56.2027812,77.6196229 Z" id="Shape" fill="#000000"></path>
                        <path d="M10.3370443,41.2528595 C12.9378979,24.1064135 19.3157178,10.4550516 29.4705041,0.298773746 C39.8490061,11.9299248 46.2268261,25.5812867 48.603964,41.2528595 C50.9811019,56.9244323 49.5558907,75.9237505 44.3283305,98.2508139 L14.6126778,98.2508139 C9.16140184,77.3986236 7.73619068,58.3993055 10.3370443,41.2528595 Z" id="Shape" fill="#000000"></path>
                        <path d="M10.3370443,41.2528595 C12.9378979,24.1064135 19.3157178,10.4550516 29.4705041,0.298773746 C38.6387497,11.9299248 44.4114414,25.5812867 46.7885793,41.2528595 C49.1657173,56.9244323 47.7405061,75.9237505 42.5129459,98.2508139 L14.6126778,98.2508139 C9.16140184,77.3986236 7.73619068,58.3993055 10.3370443,41.2528595 Z" id="Shape" fill="#FFFFFF"></path>
                        <path d="M10.4866573,41.2749885 C7.89365293,58.3696876 9.30761645,77.3116943 14.7299001,98.101427 L42.3926228,98.101427 C47.5940555,75.841408 49.0088775,56.8989181 46.6389663,41.2749885 C44.274779,25.6887938 38.5475642,12.1063582 29.4570522,0.525199445 C19.3964376,10.64498 13.0726236,24.226689 10.4866573,41.2749885 Z M10.1874312,41.2307305 C12.7928114,24.0544427 19.184265,10.3738987 29.3628516,0.193816989 C29.42704,0.129619155 29.5337677,0.135823633 29.5898844,0.207015257 C38.7744134,11.858824 44.5572738,25.5342328 46.9381924,41.2307305 C49.3184508,56.9228759 47.8918708,75.9404418 42.6603398,98.2844648 C42.6444765,98.3522175 42.583368,98.4002008 42.5129459,98.4002008 L14.6126778,98.4002008 C14.5436908,98.4002008 14.4834415,98.3541143 14.4661978,98.288154 C9.01009472,77.4174988 7.58338604,58.3982175 10.1874312,41.2307305 Z" id="Shape" fill="#000000"></path>
                        <path d="M39.8821908,98.101427 C39.9657416,98.101427 40.0334728,98.1683098 40.0334728,98.2508139 C40.0334728,98.333318 39.9657416,98.4002008 39.8821908,98.4002008 L19.0154823,98.4002008 C18.9423705,98.4002008 18.8797203,98.3485701 18.8666408,98.2775388 C15.0362294,77.4756129 14.0346822,58.5201302 15.8626312,41.4110412 C17.6914714,24.2936102 22.1778388,10.6602414 29.3246357,0.512255892 C29.3723385,0.444520963 29.466616,0.427797304 29.5352102,0.474902553 C22.4581947,10.7854519 17.9873899,24.371528 16.1635253,41.4423886 C14.3423613,58.4879722 15.3348988,77.3743346 19.1417661,98.101427 L39.8821908,98.101427 Z" id="Shape" fill="#000000"></path>
                        <polygon id="Shape" fill="#000000" points="17.2461538 98.2965624 41.7538462 98.2965624 41.7538462 100.686752 17.2461538 100.686752"></polygon>
                        <path d="M29.4705041,0.298773746 C32.3528897,3.52905321 34.9266945,6.91515567 37.1919186,10.4570811 C34.6923921,11.7375946 32.1185873,12.3778514 29.4705041,12.3778514 C26.822421,12.3778514 24.1000595,11.7375946 21.3034198,10.4570811 C23.6812806,6.75218876 26.403642,3.36608631 29.4705041,0.298773746 Z" id="Shape" fill="#000000"></path>
                        <path d="M29.4705041,0.298773746 C31.725153,3.68701997 33.8574205,7.7393556 35.7034687,10.9847552 C34.1962421,11.913486 32.1185873,12.3778514 29.4705041,12.3778514 C26.822421,12.3778514 24.1000595,11.7375946 21.3034198,10.4570811 C23.6812806,6.75218876 26.403642,3.36608631 29.4705041,0.298773746 Z" id="Shape" fill="#FFFFFF"></path>
                        <path d="M21.5240608,10.392801 C24.2462848,11.6169913 26.8948173,12.2284645 29.4705041,12.2284645 C32.020601,12.2284645 34.0302048,11.7949385 35.5003161,10.932033 C34.9653065,9.98376062 32.9386506,6.34338753 32.302461,5.23179915 C31.2510069,3.39463576 30.335681,1.88141034 29.4467044,0.535610604 C26.4807921,3.52042458 23.8399385,6.80610554 21.5240608,10.392801 Z M29.5969341,0.216737844 C30.5224795,1.60763115 31.4708629,3.17153754 32.5658691,5.08479766 C33.2364374,6.25645452 35.4457511,10.2266401 35.8353679,10.9115963 C35.8749573,10.9811956 35.8521387,11.0692321 35.783556,11.1114918 C34.2493852,12.0568252 32.144672,12.5272383 29.4705041,12.5272383 C26.7995159,12.5272383 24.0556431,11.8819224 21.2397811,10.5926074 C21.156878,10.5546481 21.126721,10.4533302 21.1756394,10.3771115 C23.5592611,6.66324329 26.2883619,3.26875835 29.3628516,0.193816989 C29.4304905,0.126168222 29.5440665,0.137289342 29.5969341,0.216737844 Z" id="Shape" fill="#000000"></path>
                        <path d="M39.3330416,45.1910005 C39.2931994,40.1919604 35.1769854,36.1516232 30.1051282,36.1516232 C25.0085312,36.1516232 20.8769231,40.2314729 20.8769231,45.2642225 C20.8769231,50.2969721 25.0085312,54.3768217 30.1051282,54.3768217 C33.9231829,54.3768217 37.1996784,52.0871782 38.6032977,48.82253 C37.1195034,52.4303462 33.5349739,54.9743692 29.3487179,54.9743692 C23.8343671,54.9743692 19.3641026,50.5601057 19.3641026,45.1148356 C19.3641026,39.6695656 23.8343671,35.255302 29.3487179,35.255302 C34.8630688,35.255302 39.3333333,39.6695656 39.3333333,45.1148356 C39.3333333,45.1402457 39.3333333,45.1656333 39.3330417,45.1909981 L39.3330416,45.1910005 Z" id="Shape" fill="#000000"></path>
                        <path d="M30.1051282,54.5262086 C24.9249805,54.5262086 20.725641,50.3794762 20.725641,45.2642225 C20.725641,40.1489688 24.9249805,36.0022364 30.1051282,36.0022364 C35.2852759,36.0022364 39.4846154,40.1489688 39.4846154,45.2642225 C39.4846154,50.3794762 35.2852759,54.5262086 30.1051282,54.5262086 Z M30.1051282,54.2274349 C35.1181744,54.2274349 39.1820513,50.214468 39.1820513,45.2642225 C39.1820513,40.313977 35.1181744,36.3010101 30.1051282,36.3010101 C25.092082,36.3010101 21.0282051,40.313977 21.0282051,45.2642225 C21.0282051,50.214468 25.092082,54.2274349 30.1051282,54.2274349 Z" id="Shape" fill="#000000"></path>
                        <ellipse id="Shape" fill="#000000" cx="38.425641" cy="84.5529701" rx="1" ry="1"></ellipse>
                        <ellipse id="Shape" fill="#000000" cx="37.8205128" cy="89.6321237" rx="1" ry="1"></ellipse>
                        <path d="M15.1282051,73.1995677 L16.6410256,73.1995677 C17.1423303,73.1995677 17.5487179,73.6008644 17.5487179,74.095889 C17.5487179,74.5909135 17.1423303,74.9922102 16.6410256,74.9922102 L15.1282051,74.9922102 C14.6269005,74.9922102 14.2205128,74.5909135 14.2205128,74.095889 C14.2205128,73.6008644 14.6269005,73.1995677 15.1282051,73.1995677 Z" id="Shape" fill="#000000"></path>
                        <path d="M19.3641026,20.9141622 L20.8769231,20.9141622 C21.3782277,20.9141622 21.7846154,21.3154589 21.7846154,21.8104834 C21.7846154,22.305508 21.3782277,22.7068047 20.8769231,22.7068047 L19.3641026,22.7068047 C18.8627979,22.7068047 18.4564103,22.305508 18.4564103,21.8104834 C18.4564103,21.3154589 18.8627979,20.9141622 19.3641026,20.9141622 Z" id="Shape" fill="#000000"></path>
                        <path d="M15.4307692,76.4860789 L16.9435897,76.4860789 C17.4448944,76.4860789 17.8512821,76.8873756 17.8512821,77.3824002 C17.8512821,77.8774247 17.4448944,78.2787214 16.9435897,78.2787214 L15.4307692,78.2787214 C14.9294646,78.2787214 14.5230769,77.8774247 14.5230769,77.3824002 C14.5230769,76.8873756 14.9294646,76.4860789 15.4307692,76.4860789 Z" id="Shape" fill="#000000"></path>
                    </g>
                    <path d="M22,104.144457 C22,104.064675 22.2238576,104 22.5,104 C22.7761424,104 23,104.064675 23,104.144457 L23,129.855543 C23,129.935325 22.7761424,130 22.5,130 C22.2238576,130 22,129.935325 22,129.855543 L22,104.144457 Z" id="Shape" fill="#000000"></path>
                    <path d="M26,105.150011 C26,105.067162 26.2238576,105 26.5,105 C26.7761424,105 27,105.067162 27,105.150011 L27,134.849989 C27,134.932838 26.7761424,135 26.5,135 C26.2238576,135 26,134.932838 26,134.849989 L26,105.150011 Z" id="Shape" fill="#000000"></path>
                    <path d="M32,105.143764 C32,105.064365 32.2238576,105 32.5,105 C32.7761424,105 33,105.064365 33,105.143764 L33,127.856236 C33,127.935635 32.7761424,128 32.5,128 C32.2238576,128 32,127.935635 32,127.856236 L32,105.143764 Z" id="Shape" fill="#000000"></path>
                    <path d="M38,105.150011 C38,105.067162 38.2238576,105 38.5,105 C38.7761424,105 39,105.067162 39,105.150011 L39,134.849989 C39,134.932838 38.7761424,135 38.5,135 C38.2238576,135 38,134.932838 38,134.849989 L38,105.150011 Z" id="Shape" fill="#000000"></path>
                </g>
            </g>
        </g>
    </g>
</svg>