<?xml version="1.0" encoding="UTF-8"?>
<svg width="97px" height="135px" viewBox="0 0 97 135" version="1.1" xmlns="http://www.w3.org/2000/svg" xmlns:xlink="http://www.w3.org/1999/xlink">
    <!-- Generator: Sketch 64 (93537) - https://sketch.com -->
    <title>Girl</title>
    <desc>Created with Sketch.</desc>
    <g id="Mood-board" stroke="none" stroke-width="1" fill="none" fill-rule="evenodd">
        <g id="EDUbots-website-v.1-Copy" transform="translate(-128.000000, -1406.000000)" fill-rule="nonzero">
            <g id="Group-14" transform="translate(92.000000, 1379.000000)">
                <g id="Girl" transform="translate(36.000000, 27.000000)">
                    <path d="M62.9614362,47 C68.2202308,50.8191598 71.1052663,58.3029718 71.6165427,69.451436 C72.1278191,80.5999003 72.1278191,91.3059415 71.6165427,101.56956 C68.8739968,108.810147 65.9889613,108.810147 62.9614362,101.56956 C59.933911,94.3289722 58.6417241,79.4706664 59.0848752,56.9946421 L62.9614362,47 Z" id="Shape" fill="#FFFFFF"></path>
                    <path d="M59.3015288,57.2573892 C58.8672008,80.0007132 60.1368886,95.035583 63.105099,102.349795 C66.0421847,109.587309 68.746087,109.592685 71.4054987,102.369382 C71.9071793,91.9807293 71.9069021,81.1443045 71.404647,69.860114 C70.9070667,58.6809511 68.120441,51.1590744 63.0546112,47.2873778 L59.3015288,57.2573892 Z M63.0689161,47.0216711 C68.2708858,50.9142393 71.1188501,58.5261389 71.6228755,69.8501044 C72.1257115,81.147346 72.1257115,91.9964639 71.6228556,102.397464 C68.8845033,109.861367 65.9171396,109.861367 62.9031159,102.434263 C59.9188753,95.0805506 58.6474988,80.0177791 59.0834887,57.2337345 L62.9020778,47.0713434 C62.9278501,47.0028795 63.0107995,46.9781832 63.0689161,47.0216711 Z" id="Shape" fill="#000000"></path>
                    <path d="M73,102.539779 C70.0298898,109.820074 66.9054668,109.820074 63.6267311,102.539779 C60.5469158,95.701178 69.8904018,52.8053795 68.5320962,70.0607535 C68.0728492,75.894844 69.5621505,86.7211857 73,102.539779 Z" id="Shape" fill="#000000"></path>
                    <path d="M67.3205848,66.635296 C67.0074047,69.3268002 66.5764723,71.8678685 66.2156095,73.9723582 C64.8030907,82.2099255 63.6520111,95.4820523 64.9338103,99.2342311 C65.7883431,101.735684 64.4337568,107.690557 73,122.046057 C66.2156095,130.054415 61.0527738,130.054415 53.2907007,131.242828 C41.647591,133.025448 11.0771195,131.193521 8.86843591,130.493702 C6.65975229,129.793882 12.1269048,119.737389 13.1436394,115.274148 C14.1603739,110.810907 19.6083188,93.4203052 13.1436394,86.2180177 C6.67895997,79.0157302 2.51424878,55.451658 6.65975229,50.058384 C8.58901651,47.5484234 19.1284739,45.6073372 30.6227186,44.6982852 L30.6227186,32 L30.6227186,32 L44.8759373,32 L44.8759373,44.1328371 C52.9253009,44.1526953 59.7783438,44.8318249 62.4096405,46.3532672 C64.2442778,47.414073 65.5010783,49.0686545 66.3321338,51.0853032" id="Shape" fill="#FFFFFF"></path>
                    <path d="M66.441779,108.282241 C65.9829446,106.743197 65.6649843,105.332789 65.4387073,103.937104 C65.3505409,103.393291 65.2785333,102.867881 65.2093951,102.286269 C65.1717743,101.969791 65.0673171,101.022974 65.0581892,100.943695 C64.9604025,100.094381 64.8785296,99.6241678 64.7439873,99.2299086 C63.5899079,95.8480257 64.3591413,83.6513599 66.0173487,73.9707455 C66.5682597,70.7545265 66.8591208,68.8818855 67.1178846,66.6556873 C67.3016948,66.5662665 67.3454017,66.6205566 67.3384182,66.680637 C67.0790824,68.9117558 66.7877546,70.7874021 66.2362242,74.0072363 C64.5846268,83.6492623 63.8166444,95.8260921 64.9543635,99.1600331 C65.0954318,99.5734158 65.1792553,100.054832 65.2787497,100.918978 C65.2879771,100.99912 65.3923735,101.945387 65.429863,102.260761 C65.4986635,102.839532 65.5702664,103.361989 65.6579,103.902516 C65.8827255,105.289248 66.1986417,106.690589 66.6547375,108.220446 C67.8284153,112.157251 69.8425013,116.629509 72.9846817,121.900818 C70.483369,124.969823 68.1252303,126.939536 65.6242335,128.24488 C63.0473773,129.589816 60.7736518,130.150479 56.138738,130.821004 C55.8837738,130.857889 54.9360881,130.993661 54.728479,131.023626 C54.1641541,131.105075 53.7087044,131.172352 53.2611465,131.240948 C48.064673,132.037397 38.6453292,132.178703 27.5753243,131.797299 C18.7667861,131.493812 10.1335047,130.870298 8.93301689,130.489522 C8.20494638,130.258589 8.17201238,129.219853 8.67042934,127.415331 C9.04181664,126.07072 9.57655234,124.645915 10.7578901,121.719696 C12.2999377,117.901293 12.8132594,116.523049 13.1199287,115.175413 C13.171109,114.950505 14.2106479,110.857297 14.593525,109.168426 C15.3714731,105.736896 15.8947619,102.610738 16.1125254,99.6515367 C16.5507865,93.6959815 15.6800431,89.1072804 13.1450909,86.2801059 C6.69265651,79.0838528 2.49390379,55.5098151 6.67704947,50.0618094 C8.49195651,47.6981279 18.002805,45.6780166 30.5392016,44.6786527 L30.5392016,32.1094983 C30.5392016,32.0691821 35.3117474,32.0326827 44.8568391,32 C44.8977043,32 44.9347007,36.0354359 44.9678285,44.1063076 C53.5365359,44.1338405 59.9011237,44.8962854 62.389418,46.3365649 C64.1608082,47.3618845 65.4649585,48.9717419 66.3457623,51.1113722 C66.2279007,51.2767805 66.163163,51.2498064 66.1400977,51.1937767 C65.2766884,49.0964004 64.0034604,47.524714 62.277088,46.5254517 C59.8251446,45.1062129 53.4396989,44.3461863 44.8565612,44.3249889 C44.8157685,44.3248881 44.7788646,40.2895573 44.7458496,32.2189965 L30.7611804,32.2189965 L30.7611804,44.779688 C18.1573957,45.8786089 8.61547071,47.8999477 6.8539923,50.1940453 C2.74352167,55.5474012 6.9223329,79.0094767 13.3113543,86.1350068 C15.8952928,89.0168144 16.7761029,93.6585663 16.3339216,99.6673941 C16.1152558,102.638857 15.590289,105.775039 14.8101517,109.216226 C14.4264586,110.908697 13.3868908,115.002019 13.3365165,115.223385 C13.0260954,116.587508 12.511809,117.968341 11.0205698,121.660913 C9.78614448,124.718605 9.25293637,126.139339 8.88459924,127.472907 C8.41843592,129.160655 8.4484017,130.105773 9.00095889,130.281035 C10.1718606,130.652427 18.8067856,131.27606 27.5830717,131.578436 C38.6394795,131.959372 48.0487313,131.818216 53.2270699,131.024547 C53.675369,130.955838 54.1314265,130.888471 54.6963463,130.806936 C54.9041242,130.776947 55.8517604,130.641182 56.1065318,130.604325 C60.7179813,129.937194 62.9720448,129.38138 65.5204298,128.051303 C67.9776291,126.768819 70.2989566,124.835057 72.7536907,121.945262 C69.6252905,116.687895 67.6158465,112.220353 66.441779,108.282241 Z" id="Shape" fill="#000000"></path>
                    <path d="M67.3627304,67.454079 C67.0518743,70.1620531 66.6241397,72.7186708 66.2659548,74.8360383 C64.8639179,83.124013 63.7213802,96.477355 64.9936675,100.252494 C65.841859,102.769254 64.4973247,108.760566 73,123.203911 C62.4882289,131.491622 59,119.926233 59,107.186355 C59,80.9670697 59.8764583,45.5171877 62.4882289,47.0479401 C64.3092518,48.1152371 65.5567259,49.7799434 66.3816144,51.8089324 L67.3627304,67.454079 Z" id="Shape" fill="#000000"></path>
                    <path d="M67.3627304,67.454079 C67.0518743,70.1620531 66.6241397,72.7186708 66.2659548,74.8360383 C64.8639179,83.124013 63.7213802,96.477355 64.9936675,100.252494 C65.841859,102.769254 64.4973247,108.760566 73,123.203911 C62.4882289,131.491622 59,119.926233 59,107.186355 C59,80.9670697 59.8764583,45.5171877 62.4882289,47.0479401 C64.3092518,48.1152371 65.5567259,49.7799434 66.3816144,51.8089324 L67.3627304,67.454079 Z" id="Shape" fill="#000000"></path>
                    <path d="M43.8687555,46 C46.7066377,46 53,31.4036081 53,23.2442064 C53,15.0848046 44.9093397,10 36.7924997,10 C28.6756597,10 30.8996496,23.9347651 32.7418156,32.1890733 C33.682529,36.4041866 35.3417809,39.9203405 37.5212174,42.3401811 C37.6408232,42.4729801 38.5326446,42.4201595 38.6565036,42.546783 C38.8606505,42.7554862 38.9606757,42.8941614 39.1609381,43.0878612 C39.2467218,43.1708338 39.3323466,43.2525126 39.4177604,43.3328323 C41.1244144,44.9377013 42.7468183,46 43.8687555,46 Z" id="Shape" fill="#FFFFFF"></path>
                    <path d="M27.4721903,134.405039 C16.0921318,136.174353 11.93982,133.672422 9.78103689,131.155013 C7.62225375,128.637603 12.9658877,120.478989 13.9596513,116.049063 C14.9534149,111.619137 20.2782751,94.3583437 13.9596513,87.2098162 C7.64102747,80.0612888 3.570409,56.6731063 7.62225375,51.3200893 C9.50793037,48.8288639 19.8092713,46.9022666 31.0438281,46 C38.6999683,54.7673449 42.908351,63.0311164 43.6689762,70.7913144 C44.4944426,79.2130481 43.7043347,88.2225351 42.0940982,96.7341698 C38.3073085,116.750962 29.9848116,134.01439 27.4721903,134.405039 Z" id="Shape" fill="#FFFFFF"></path>
                    <path d="M7.85521838,50.5428904 C3.74202943,55.914693 7.92360417,79.4576147 14.3168508,86.6076981 C16.902498,89.499436 17.7838906,94.1571825 17.3414169,100.186716 C17.1226065,103.168418 16.5972926,106.315407 15.8166393,109.768451 C15.4326925,111.466754 14.3924372,115.574181 14.3420296,115.79631 C14.0329955,117.158116 13.5713265,118.300136 12.0230709,121.789195 C11.9282103,122.002968 11.8516335,122.175923 11.778214,122.342357 C10.7395123,124.696982 10.1767571,126.138716 9.83917692,127.454957 C9.41626555,129.103907 9.46562477,130.260758 10.0538922,130.938891 C11.3740202,132.460687 13.0509468,133.528652 15.4956289,134.165026 C18.5399877,134.957501 22.6234234,135.007538 28.0054387,134.180357 C29.2600823,133.987526 32.0555167,129.385917 34.8928722,122.670451 C38.1725419,114.908115 41.0616695,105.530175 42.8342398,96.2678006 C44.6189379,86.9420544 45.2266453,78.0635895 44.4399107,70.128973 C43.6674908,62.3387284 39.3956599,54.0365776 31.6202997,45.2238332 C19.1377424,46.2186113 9.61524291,48.2443078 7.85521838,50.5428904 Z M28.0395379,134.397503 C22.6295678,135.228981 18.5163504,135.178579 15.4391066,134.377544 C12.9498481,133.729566 11.234214,132.63695 9.88533046,131.082006 C9.23695414,130.334581 9.18482397,129.112786 9.62387372,127.400911 C9.96535377,126.069466 10.5312218,124.619756 11.574631,122.25446 C11.6481241,122.087859 11.7247613,121.914767 11.8196812,121.700861 C13.3605116,118.228535 13.8208325,117.089849 14.1252986,115.748173 C14.1765127,115.52249 15.2167391,111.415177 15.5998693,109.720486 C16.3783319,106.277132 16.9019668,103.140202 17.1198743,100.170804 C17.5584252,94.1947266 16.687106,89.5902136 14.1504774,86.7532972 C7.69377589,79.532247 3.49224647,55.8769774 7.67815853,50.4101988 C9.49919341,48.031937 19.0631061,46.0003027 31.6582697,45 C39.5774801,53.8975456 43.8822573,62.253755 44.6609753,70.1075201 C45.4499634,78.0648638 44.8408585,86.9637449 43.0524884,96.3086794 C41.2769772,105.586421 38.3833334,114.97902 35.0978146,122.7552 C32.2177318,129.571792 29.4145384,134.186174 28.0395379,134.397503 Z" id="Shape" fill="#000000"></path>
                    <path d="M14.9373042,115.813177 C15.9118574,111.36536 21.1337829,94.0348578 14.9373042,86.8574606 C8.74082544,79.6800633 13.6687191,72.5072837 17.6422378,67.1326482 C18.5692067,65.2748422 19.5588873,83.4038125 24.2852291,91.9458127 C27.7001819,98.1177166 43.9124571,84.0995624 40.5416077,90.9092894 C29.9726098,112.260581 13.962751,120.260993 14.9373042,115.813177 Z" id="Shape" fill="#000000"></path>
                    <path d="M21.0250368,46.4728355 C20.2409373,46.5967772 20.0509921,46.9584963 20.3527863,47.6778886 C20.6394065,48.3611105 21.3510682,49.3166969 22.660491,50.8258962 C23.2717484,51.5304121 26.2342857,54.8282112 27.0405071,55.7459199 C29.0746714,58.061376 30.8006763,60.1475443 32.4533637,62.3368012 C33.1051179,63.2001572 33.7332406,64.0645884 34.339054,64.9340818 C34.5636511,65.2564349 35.0950413,65.4487322 36.4549916,65.7827853 C36.4995507,65.7937284 36.4995507,65.7937284 36.544152,65.804683 C38.0613674,66.1774279 38.6384513,66.3938771 38.8985185,66.8358287 C39.1030811,67.1834572 38.7509456,67.5595997 37.4007774,68.723033 C36.2546974,69.7106679 35.84224,70.1554345 35.9486205,70.3489861 C40.3499773,78.3569357 42.8652998,86.4209438 43.0714639,94.774949 C44.6701289,85.9218872 45.1924371,77.4962059 44.4487786,69.9344485 C43.6885885,62.2045929 39.4843938,53.9667994 31.8321417,45.2223707 C27.9690365,45.5328082 24.2801775,45.958299 21.0250368,46.4728355 Z M20.9908196,46.2574754 C24.267201,45.7395814 27.9811112,45.3118633 31.8695105,45.0002723 C31.9040099,44.9978608 31.9377821,45.0115598 31.9605574,45.0375536 C39.6633353,53.8288452 43.8999546,62.1202783 44.6663431,69.9131618 C45.4428391,77.8088211 44.8433782,86.6387191 43.0833235,95.9112128 C43.0586375,96.0412664 42.8666227,96.0232958 42.8666227,95.8909319 C42.8666227,87.1782687 40.3375139,78.7878497 35.7569276,70.4538048 C35.5621697,70.099457 35.9322792,69.7003556 37.2427935,68.5710187 C38.4132651,67.5624289 38.8181234,67.1299691 38.7099856,66.9462024 C38.4958162,66.5822483 37.9276283,66.3691358 36.4918692,66.0164028 C36.4472955,66.005455 36.4472955,66.005455 36.402717,65.9945072 C34.9685384,65.6422209 34.430596,65.4475525 34.1595382,65.0585169 C33.5553421,64.1913446 32.9288446,63.3291502 32.278726,62.4679607 C30.6296714,60.2835159 28.9069616,58.2013304 26.87609,55.8896223 C26.071122,54.9733404 23.107969,51.6748559 22.4951873,50.968583 C21.1701635,49.4414026 20.4499036,48.4742708 20.1511205,47.7620563 C19.7956895,46.9148087 20.0639307,46.4039877 20.9908196,46.2574754 Z" id="Shape" fill="#000000"></path>
                    <path d="M68.2349295,66.9705244 C67.9224288,69.8199985 67.468484,72.5201153 67.0917893,74.7349642 C65.6956784,82.9436672 64.5579698,96.1692889 65.8248796,99.9083201 C66.6694861,102.401008 69.2194775,109.006332 80,122.897976 C78.7164168,124.543622 77.5721017,125.674626 71.0884419,124.543622 C64.6824309,123.426162 61.3422958,110.754326 58.2534133,72.0593139 C57.2849029,59.9266019 53.2004318,50.9068306 46,45 C53.9558617,45.0197886 60.7292992,45.6965386 63.3300307,47.2126498 C65.0312359,48.2043771 66.2297601,49.7168908 67.0497325,51.5595307 C67.4670025,51.7828895 67.729603,52.5962762 67.8375339,53.9996907 C67.9929801,56.0209414 68.1254453,60.3445527 68.2349295,66.9705244 Z" id="Shape" fill="#FFFFFF"></path>
                    <path d="M69.0513997,107.898015 C67.3397588,104.819966 66.3822674,102.625523 65.703165,100.588656 C64.566121,97.1782613 65.3239998,84.8787675 66.9577303,75.1165374 C67.5342309,71.671703 67.8355295,69.6653657 68.0926247,67.2829272 C68.099167,67.222302 68.1531405,67.178511 68.2131781,67.1851172 C68.2732157,67.1917235 68.3165822,67.2462253 68.31004,67.3068505 C68.0523514,69.6947878 67.7505512,71.7044646 67.1733751,75.153336 C65.5461569,84.8766522 64.7895107,97.1561427 65.9104359,100.518192 C66.5852597,102.542226 67.537248,104.724056 69.2420948,107.789888 C71.6595838,112.137267 75.1574035,117.387612 79.9772455,123.699519 C79.1155025,124.957179 78.5286527,125.447341 77.4303117,125.755555 C76.0800364,126.134467 74.0851605,126.081197 71.0175627,125.537376 C64.4697432,124.376582 61.2044441,111.009284 58.1750772,72.4419624 C57.2149939,60.2189989 53.1692388,51.1392615 46.0399508,45.1955717 C45.960785,45.1295711 46.0071842,45 46.1098448,45 C54.6071228,45.0214798 60.9212402,45.7907072 63.3833515,47.2493778 C65.0254661,48.2222438 66.2604452,49.7175077 67.1237778,51.6891738 C67.0127525,51.8594784 66.9481778,51.8342556 66.9237556,51.7784803 C66.0780588,49.8470907 64.8728531,48.3878752 63.2726797,47.4398571 C60.8859031,46.0258183 54.7160906,45.260699 46.4126311,45.221933 C53.4463352,51.209635 57.4391331,60.279473 58.3930948,72.4245008 C61.4102078,110.835816 64.671862,124.188194 71.0553799,125.319859 C74.0936875,125.858489 76.0596168,125.910985 77.3717539,125.542776 C78.3938421,125.255959 78.9455228,124.806994 79.7523123,123.766591 C74.9530011,117.476789 71.4657184,112.239693 69.0513997,107.898015 Z" id="Shape" fill="#000000"></path>
                    <path d="M46,44.7259133 C49.1085242,43.7508066 48.4915117,43.9471285 51.3195335,44.2340637 C53.8719204,44.4930326 63.5427654,55.2483907 63.9818057,61.3818913 C64.1376758,63.5594344 59.7529387,62.7235234 59.7529387,63.8611209 C59.7529387,64.9987183 64.3229792,65.5140405 63.9818057,67.489402 C62.5857682,75.5723236 63.3291198,77.1650961 60.2441354,92 C59.5523793,86.1524349 58.8971075,79.3190812 58.2527692,71.370599 C57.2843098,59.4237958 53.2000533,50.5422339 46,44.7259133 Z" id="Shape" fill="#FFFFFF"></path>
                    <path d="M58.319828,71.9168483 C58.9397645,79.7851032 59.5619017,86.4754613 60.2082076,92.1919287 C61.7086571,84.711799 62.2000769,81.2565641 62.8223453,75.1852872 C62.8436442,74.9774804 62.8609152,74.8096867 62.8776574,74.648153 C63.1468797,72.0506044 63.3715118,70.2959371 63.7631508,67.962919 C63.8992842,67.1519636 63.265609,66.5865669 61.7442272,65.8606883 C61.6567976,65.818974 61.5680486,65.7772148 61.4470246,65.7206897 C61.3731409,65.6862055 61.3731409,65.6862055 61.2997343,65.651961 C61.2413854,65.6247289 61.197071,65.6040013 61.1542069,65.5838725 C60.9219017,65.4747824 60.7557935,65.3940531 60.6028535,65.3145994 C59.9161975,64.9578756 59.5845533,64.6627515 59.5845533,64.2938372 C59.5845533,63.8172511 59.997694,63.6479721 61.1628559,63.4417071 C61.2045919,63.4343187 61.4050123,63.3991604 61.4609902,63.3892274 C61.5776087,63.3685341 61.6723939,63.351189 61.76343,63.3337035 C63.1950249,63.058734 63.8231459,62.6622852 63.7618967,61.7819141 C63.5664579,58.9727598 61.4457288,54.9153678 58.3139502,50.8895285 C55.5561513,47.3444328 52.5614134,44.5825404 51.3519226,44.4562807 C51.055666,44.4253542 50.7854291,44.3943435 50.4785085,44.3568838 C50.4530735,44.3537795 49.9510212,44.2915466 49.8283679,44.2771484 C49.4049444,44.227443 49.158962,44.2113215 48.9125693,44.2220443 C48.4066523,44.2440614 48.0442295,44.3389608 46.3306307,44.890662 C53.3722038,50.8240137 57.3679092,59.8350633 58.319828,71.9168483 Z M48.9031793,44.0033827 C49.1637339,43.9920436 49.419567,44.0088107 49.8535497,44.0597556 C49.977023,44.0742501 50.4798745,44.136582 50.5046759,44.139609 C50.810436,44.1769271 51.0794648,44.2077992 51.3743475,44.2385822 C52.6680309,44.3736308 55.6875903,47.1584147 58.4851211,50.7545851 C61.6415775,54.8121472 63.7795118,58.9024561 63.9787778,61.7666229 C64.050854,62.802615 63.3344882,63.254761 61.8041765,63.5486912 C61.7119964,63.5663964 61.6162703,63.5839137 61.4987309,63.6047704 C61.4424877,63.6147505 61.2420094,63.649919 61.2005104,63.6572654 C60.1674253,63.8401493 59.8019658,63.9898915 59.8019658,64.2938372 C59.8019658,64.5461795 60.0883268,64.8010069 60.7025575,65.1201052 C60.8523883,65.1979436 61.0162166,65.2775649 61.2461172,65.3855257 C61.2887993,65.4055691 61.3329725,65.4262307 61.3911797,65.4533966 C61.4645292,65.4876145 61.4645292,65.4876145 61.5385259,65.5221514 C61.6600424,65.5789065 61.749273,65.6208924 61.8373411,65.6629112 C63.4465947,66.4307151 64.1373867,67.0470743 63.9775237,67.9993881 C63.5867592,70.3271972 63.3626801,72.0775449 63.093896,74.6708656 C63.0771637,74.8323042 63.0599007,75.0000198 63.0386096,75.2077503 C62.3971902,81.4658768 61.8941875,84.9506201 60.2849643,92.9123787 C60.2603046,93.0343843 60.084676,93.0268218 60.0704555,92.903142 C59.3957228,87.0348086 58.7481962,80.1217831 58.1030962,71.9341535 C57.1486752,59.8206097 53.1267804,50.8221539 46.0395382,44.9316718 C45.9732529,44.8765795 45.9937065,44.7694934 46.0755604,44.7430755 C47.9761875,44.1296586 48.3508553,44.0274194 48.9031793,44.0033827 Z" id="Shape" fill="#000000"></path>
                    <path d="M38.3857984,80.3138267 C42.4927574,78.0795325 44.9744578,76.7228212 45.8308996,76.2436929 C48.4382479,74.7850364 58.7901973,70 60.5960394,70 C61.7999341,70 65.267921,70 71,70 L68.754303,72.7996712 L63.5696169,73.5693192 L66.4216266,76.2436929 C60.8193235,81.6886797 57.6756304,84.6305703 56.9905472,85.0693646 C56.3054641,85.5081588 56.686287,84.1193551 58.1330162,80.9029534 L55.8125815,80.3138267 C52.8095675,81.7450029 50.6474915,82.460591 49.3263537,82.460591 C48.6820851,82.460591 45.5394421,85.8253692 41.3455882,90.2667602 C32.6395595,99.4866516 34.1572835,82.6142506 38.3857984,80.3138267 Z" id="Shape" fill="#FFFFFF"></path>
                    <path d="M60.5504101,70.2168781 C59.0533353,70.2168781 49.4892563,74.4020534 45.927513,76.3878325 C45.0757167,76.8627346 42.6089521,78.2066753 38.5263866,80.420114 C36.5913441,81.4692332 35.0422392,85.9941946 35.2328409,89.5276634 C35.3270351,91.2738825 35.8521883,92.4309009 36.7478414,92.7130936 C37.7898287,93.0413917 39.3353695,92.2224885 41.3378402,90.1090666 C47.5392829,83.5640195 48.7594519,82.3428204 49.3489859,82.3428204 C50.6413454,82.3428204 52.7783175,81.6379564 55.7494004,80.2268335 C55.764599,80.2196149 56.5577677,80.411743 58.1289065,80.8032178 C58.1943382,80.8197733 58.2289128,80.8914357 58.2011481,80.9529521 C57.4843433,82.5411267 57.03186,83.6774349 56.8445013,84.3583704 C56.7553742,84.6822932 56.7288066,84.8980754 56.7579463,84.9887492 C56.7677203,85.019163 56.7891637,85.0200873 56.9084084,84.9439722 C57.5762687,84.5176699 60.6783963,81.6255579 66.1833898,76.2945233 L63.4319325,73.72325 C63.3655862,73.6612486 63.4002744,73.5500411 63.4901056,73.5367516 L68.6013948,72.7805902 L70.6648691,70.2168781 L60.5504101,70.2168781 Z M68.6433876,72.7743778 L68.5747789,72.8136585 L68.6013948,72.7805902 L68.6433876,72.7743778 Z M49.3489859,82.5596985 C48.8643449,82.5596985 47.4195995,84.0056635 41.4952811,90.2582316 C39.4410797,92.4262506 37.8281564,93.2808563 36.6826637,92.9199469 C35.6761377,92.6028216 35.1148085,91.3661 35.01627,89.5393448 C34.8216462,85.9313132 36.3977494,81.3274895 38.4230107,80.2294565 C42.5046107,78.0165413 44.9711832,76.6727052 45.8218954,76.1984075 C49.4218622,74.1913177 58.999978,70 60.5504101,70 L70.891353,70 C70.9824319,70 71.0329385,70.1054799 70.9758324,70.1764299 L68.7437378,72.9496401 C68.73233,72.9638135 67.0658715,73.2200587 63.7443622,73.7183757 L66.4147551,76.213893 C66.46006,76.256231 66.4607008,76.3278682 66.4161606,76.3710098 C60.8355367,81.7764033 57.7158082,84.6858976 57.0251051,85.1267806 C56.803883,85.267989 56.6172908,85.2599463 56.5514606,85.0551025 C56.5049959,84.9105186 56.5352552,84.6647526 56.6353863,84.3008367 C56.8218046,83.6233192 57.2598655,82.5180388 57.9503139,80.9817435 L55.8071603,80.4394842 C52.8269241,81.8525009 50.6776588,82.5596985 49.3489859,82.5596985 Z" id="Shape" fill="#000000"></path>
                    <path d="M16.4803711,67.1159155 C17.2475346,71.9592251 18.5351271,79.7386361 20.3431486,90.4541484 C31.5100514,84.4398275 38.5008796,80.6710924 41.3156329,79.1479431 C43.679874,77.8685798 47.8748099,85.7813364 45.064833,88.7173245 C36.6351149,97.5250672 19.74765,113.989555 14.3570209,111.801896 C7.16947003,108.885 0,77.712703 0,69.7867079 C0,61.8607128 5.0746532,50.8418816 8.40564488,50.0426557 C9.6170235,49.752002 10.8630527,50.9699497 12.0136661,52.9870999" id="Shape" fill="#FFFFFF"></path>
                    <path d="M42.0692556,78.5270983 C43.2836064,77.8727534 44.9933714,79.3903769 46.1034004,81.8228195 C47.2729609,84.3857155 47.3540144,86.9976315 46.0156605,88.3900922 C40.3473838,94.287525 34.4372882,99.9562323 29.2352463,104.260572 C22.2695102,110.02425 17.2154831,112.819471 14.6681456,111.790064 C11.3221804,110.437924 7.74490677,103.121717 4.56312654,92.3497708 C1.95005468,83.5031922 0,73.3971869 0,69.1458635 C0,61.3597393 5.04081166,49.9049155 8.63259827,49.0467581 C9.86131954,48.7531894 11.1472168,49.8511971 12.4245585,52.0810503 C12.3290235,52.2622396 12.2608694,52.2436241 12.2304097,52.1904507 C10.9981002,50.0392101 9.7812134,49 8.68489328,49.2620646 C5.22282896,50.0892284 0.223295341,61.4502514 0.223295341,69.1458635 C0.223295341,73.3717832 2.16980587,83.4594213 4.77741564,92.2875079 C7.93690075,102.983973 11.4996636,110.270503 14.7524017,111.58497 C17.1830877,112.567236 22.2029391,109.790917 29.0922014,104.090516 C34.2865791,99.7925176 40.1911131,94.1291449 45.8540354,88.2372828 C47.1144451,86.9259174 47.0361832,84.4039559 45.8999712,81.9141378 C44.8378128,79.5865955 43.2259424,78.1558653 42.1758544,78.7216983 C39.3136422,80.2639823 32.205141,84.0799565 20.8502435,90.1696786 C20.782902,90.2057945 20.6997224,90.1655055 20.6870344,90.0906264 C18.8485297,79.2405071 17.5392185,71.3633131 16.7590728,66.4588615 C16.9128654,66.3226948 16.9700309,66.3639399 16.97964,66.4243488 C17.7559772,71.3048574 19.0565624,79.1305396 20.8813678,89.9012147 C32.1561173,83.8544486 39.2187818,80.0630571 42.0692556,78.5270983 Z" id="Shape" fill="#000000"></path>
                    <path d="M81.9591202,97.3218563 C82.1955354,96.3531006 81.4065271,95.4358815 79.5920953,94.5701989 C77.7776636,93.7045163 75.3128424,92.51445 72.197632,91 L71,100 L80.0284626,100 L81.9591202,97.3218563 Z" id="Shape" fill="#000000"></path>
                    <path d="M72.5064136,59.1912672 C72.7009799,58.8190604 73.0607869,58.561457 73.4757823,58.497249 L96.0458712,55.0052103 C96.2486481,54.9738368 96.4462382,55.0866074 96.5223933,55.2771758 L97,56.4723253 L80.308368,88.4125423 L57.1338308,92 L56.1644096,91.2197258 C56.0005769,91.0878591 55.9527427,90.858577 56.0501779,90.6721827 L72.5064136,59.1912672 L72.5064136,59.1912672 Z M72.5064136,59.1912672 C72.7009799,58.8190604 73.0607869,58.561457 73.4757823,58.497249 L96.0458712,55.0052103 C96.2486481,54.9738368 96.4462382,55.0866074 96.5223933,55.2771758 L97,56.4723253 L80.308368,88.4125423 L57.1338308,92 L56.1644096,91.2197258 C56.0005769,91.0878591 55.9527427,90.858577 56.0501779,90.6721827 L72.5064136,59.1912672 L72.5064136,59.1912672 Z" id="Shape" fill="#FFFFFF"></path>
                    <path d="M72.4337973,59.2253839 C72.6434907,58.8245335 73.0312722,58.5471059 73.4785328,58.4779568 L95.9322652,55.0064746 C96.1844296,54.9674885 96.4301439,55.1076219 96.5248471,55.3444302 L97,56.5325443 C97.0079074,56.5523312 91.4711645,67.1668594 80.3897712,88.3761288 C80.3790196,88.3966872 72.6672109,89.6046352 57.254345,91.9999726 C57.2340482,92.0031122 56.884084,91.7369151 56.2044525,91.2013813 C56.0007174,91.0375182 55.941233,90.7526027 56.062399,90.5209815 L72.4337973,59.2253839 Z M96.3213211,55.4257339 C96.2644993,55.283649 96.1170706,55.1995689 95.965772,55.2229606 L73.5120396,58.6944427 C73.1335883,58.7529536 72.8054655,58.9877 72.6280326,59.3268811 L56.2566344,90.6224786 C56.1839347,90.7614514 56.2196254,90.9324007 56.3418664,91.0307185 L57.2686133,91.7760964 L80.221171,88.2256134 L96.7777654,56.5670875 L96.3213211,55.4257339 Z" id="Shape" fill="#000000"></path>
                    <path d="M73.2566397,60.1878271 C73.4505495,59.8149357 73.8089752,59.5567051 74.2225061,59.4919611 L96.4926176,56.0052641 C96.5812852,55.9913819 96.6720545,56.0051124 96.752734,56.0446113 C96.9710338,56.1514861 97.0618286,56.416051 96.9555297,56.6355335 L81.0405642,89.4962512 L57.4859045,91.9975547 C57.399742,92.0067044 57.3128114,91.990053 57.2360306,91.9496919 C57.0208601,91.8365839 56.937628,91.5695165 57.0501265,91.3531802 L73.2566397,60.1878271 L73.2566397,60.1878271 Z" id="Shape" fill="#FFFFFF"></path>
                    <path d="M73.1802342,60.2212172 C73.3891548,59.8197164 73.7753266,59.5416736 74.2208694,59.4719622 L96.3692391,56.0065399 C96.4794676,55.9892931 96.5923091,56.0063515 96.6926071,56.0554239 C96.9639902,56.1882022 97.0768632,56.5168905 96.944716,56.7895696 L81.1167513,89.449781 C81.1057488,89.472484 73.2681852,90.3215443 57.6040603,91.996962 C57.4969459,92.0083294 57.3888767,91.9876422 57.2934254,91.9374986 C57.0259326,91.7969762 56.9224612,91.465179 57.0623156,91.1964087 L73.1802342,60.2212172 Z M81.0069935,89.2924746 L80.9201982,89.3536144 L80.9467287,89.2988702 L81.0069935,89.2924746 Z M96.7481629,56.6934031 C96.8274513,56.5297955 96.7597275,56.3325826 96.5968976,56.2529156 C96.5367188,56.2234722 96.4690139,56.2132372 96.4028768,56.2235852 L74.2545071,59.6890075 C73.8775094,59.747994 73.5507486,59.983261 73.3739696,60.3229925 L57.2560511,91.298184 C57.1721384,91.4594461 57.2342212,91.6585245 57.3947169,91.7428379 C57.4519877,91.7729241 57.5168293,91.7853364 57.5810979,91.7785159 L80.9467287,89.2988702 L96.7481629,56.6934031 Z" id="Shape" fill="#000000"></path>
                    <path d="M74.6621725,63 C75.1818275,63 75.7543417,62.5522847 75.9409187,62 C76.1274957,61.4477153 75.8574826,61 75.3378275,61 C74.8181725,61 74.2456583,61.4477153 74.0590813,62 C73.8725043,62.5522847 74.1425174,63 74.6621725,63 Z" id="Shape" fill="#000000"></path>
                    <path d="M72.3115937,90.4993341 C70.1370815,93.0269898 68.7293753,94.8731376 68.0884754,96.0377776 C67.1271254,97.7847374 66.9484046,109.757361 73.6829801,102.897569 C78.172697,98.3243748 81.2046743,94.1916297 82.778912,90.4993341 L86.0673647,82.693832 L89,73.8950474 C87.8589551,73.2385331 86.88141,73.6575865 86.0673647,75.1522078 C85.2533193,76.646829 84.1571684,78.3337352 82.778912,80.2129263 C82.4306003,70.0709754 81.9192047,65 81.2447252,65 C80.5702457,65 79.7651885,69.4605842 78.8295535,78.3817527 C76.7451848,70.6176964 75.3821709,66.7994939 74.7405117,66.9271454 C74.0988525,67.0547968 74.2795091,71.2836121 75.2824813,79.6135911 C72.137226,73.7377261 70.2850138,70.9551769 69.7258446,71.2659434 C68.8870909,71.7320931 72.3115937,81.7199387 72.3115937,82.693832 C72.3115937,83.6677253 66.6465091,78.4403849 66.0692602,79.1952253 C65.6844275,79.6984522 66.903289,81.871855 69.7258446,85.7154336 C69.7244437,86.2713858 70.0115055,87.0817514 70.58703,88.1465306 C71.1625544,89.2113097 71.737409,89.9955776 72.3115937,90.4993341 Z" id="Shape" fill="#FFFFFF"></path>
                    <path d="M70.5518441,88.1760801 C69.9858994,87.1251728 69.6964469,86.3166841 69.6858681,85.7431151 C66.8467474,81.8602736 65.6545534,79.7233195 66.0858942,79.1572013 C66.3850768,78.7645356 67.2411408,79.2671249 69.3079027,80.7812926 C69.3581585,80.8181114 69.4103624,80.8564196 69.4663059,80.8975256 C70.9493594,81.9872397 71.0640803,82.0701128 71.5025751,82.3505104 C71.7869668,82.532366 72.0003744,82.6472142 72.1410491,82.692549 C72.2461759,82.7264279 72.2470324,82.7261307 72.2470324,82.7024904 C72.2470324,82.5202538 72.1101786,81.9539215 71.8304127,80.9550915 C71.6759443,80.4036031 71.0045247,78.0814682 70.9050145,77.7327241 C70.8400734,77.5051312 70.778862,77.2892207 70.720213,77.0807317 C69.6653445,73.3308174 69.2919524,71.4951221 69.7422218,71.2439577 C70.381551,70.8873341 72.0918763,73.4276227 75.1214268,79.0705494 C74.1648843,70.9768194 74.015281,67.0633318 74.7420715,66.9182125 C75.469074,66.7730508 76.7399824,70.2925574 78.7667672,77.8110954 C79.6873373,69.1360627 80.4477976,65 81.2069061,65 C81.9837248,65 82.4732068,69.791081 82.8261811,79.9110491 C84.1003352,78.1504329 85.1206008,76.5638703 85.8869338,75.1516752 C86.7203653,73.615831 87.7539885,73.1711081 88.9447701,73.8587593 C88.9901515,73.8849662 89.0108631,73.9393496 88.9943735,73.9890054 L86.0863121,82.745126 L82.8285656,90.5061861 C81.2629933,94.1916654 78.2517565,98.3112388 73.7953891,102.867162 C70.7864528,105.943318 68.8179265,105.543811 67.9799578,102.619206 C67.3712788,100.494848 67.5015206,96.9666364 68.0771559,95.9167471 C68.7098073,94.7628673 70.0846119,92.9497586 72.2037236,90.4729583 C71.6509386,89.9612417 71.1009342,89.19569 70.5518441,88.1760801 Z M86.0815557,75.2567755 C85.2725998,76.747516 84.1841315,78.4287611 82.8160997,80.3008729 C82.7541332,80.3856722 82.6196804,80.3444917 82.6160917,80.2396139 C82.4436476,75.20001 82.230859,71.4207638 81.9778552,68.9027607 C81.85164,67.6466126 81.7154935,66.7054087 81.5699417,66.0807183 C81.4365647,65.5082808 81.293374,65.2207717 81.2069061,65.2207717 C80.6468125,65.2207717 79.82943,69.7663067 78.9244791,78.4266472 C78.9117447,78.5485144 78.7391729,78.5620467 78.7075072,78.4436612 C76.6949233,70.9194183 75.3114592,67.0296727 74.7855066,67.1346904 C74.2582588,67.2399667 74.4417656,71.5513035 75.4105381,79.6268422 C75.4250942,79.7481794 75.2605158,79.7996906 75.2029785,79.6918059 C72.1741919,74.0127093 70.2995076,71.1860405 69.8502314,71.4366508 C69.5645594,71.5960013 69.9754785,73.6161892 70.933291,77.0210824 C70.991862,77.2292945 71.0529992,77.4449432 71.1178682,77.6722832 C71.2171541,78.0202411 71.8887917,80.3431303 72.0435575,80.8956804 C72.3322692,81.9264489 72.4683412,82.489546 72.4683412,82.7024904 C72.4683412,82.9171329 72.2996324,82.9756611 72.073017,82.9026304 C71.9093418,82.8498833 71.6825607,82.727838 71.3831442,82.5363747 C70.9384654,82.2520227 70.8248499,82.1699482 69.3350578,81.0752827 C69.2791934,81.0342348 69.2270716,80.9959869 69.1769038,80.9592326 C67.3795445,79.6424367 66.4223392,79.0804681 66.2620853,79.2907952 C65.9320515,79.7239519 67.1477466,81.8996828 69.8856054,85.6416415 C69.9055502,86.2369223 70.1846774,87.0277876 70.7468009,88.0715991 C71.3112222,89.1196778 71.873311,89.8893504 72.4309149,90.3803594 C72.4762216,90.4202551 72.4810624,90.4890334 72.4417886,90.5348533 C70.2924002,93.0424957 68.9015021,94.8733107 68.2713196,96.0226875 C67.7268853,97.0156699 67.5987955,100.485582 68.1927451,102.558533 C68.9823788,105.314443 70.7428916,105.671734 73.6369933,102.712978 C78.0757127,98.1750976 81.0714696,94.0767017 82.6246143,90.4204805 L85.879204,82.6677777 L88.7555242,74.0062097 C87.719826,73.4516756 86.8418185,73.8557664 86.0815557,75.2567755 Z" id="Shape" fill="#000000"></path>
                    <path d="M71.6196518,91.0062924 C68.5577588,93.5302986 65,96.4122603 65,97.533619 C65,100.157586 68.8042965,107.426285 69.8844754,108 C71.8983675,107.565328 76.6475264,105.387432 81.9467687,96.8633587 C82.4035659,96.1285795 79.8862266,99.3092943 75.7107578,98.4876968 C70.8620059,97.533619 71.9122735,90.7650759 71.6196518,91.0062924 Z" id="Shape" fill="#FFFFFF"></path>
                    <path d="M71.7767811,91.0792938 C71.7917415,91.1103435 71.8000176,91.1498082 71.806269,91.2058247 C71.8152507,91.286306 71.8195189,91.39168 71.8245678,91.6137401 C71.8568266,93.0325476 71.9265186,93.8228864 72.2041399,94.8316656 C72.7344487,96.758623 73.8358185,98.0267327 75.7039526,98.3943908 C77.4622401,98.7404306 79.0411747,98.4027022 80.4548359,97.6172586 C80.878997,97.3815906 81.1962606,97.1629725 81.5844,96.8646186 C81.7786207,96.7153256 81.7873523,96.7088573 81.8272388,96.6915175 C81.9320889,96.6459359 82.0278307,96.7340303 81.9925425,96.839374 C81.9833326,96.866868 81.9647834,96.9007184 81.9316124,96.9540855 C79.5516204,100.783137 77.1262058,103.581775 74.7379754,105.473593 C72.9420248,106.896241 71.284632,107.710532 69.9555002,107.997461 C69.9295212,108.003069 69.9023532,107.999317 69.8789607,107.98689 C68.6110418,107.313333 65,99.9412625 65,97.5591394 C65,96.7188536 66.5479575,95.1967041 70.0182964,92.3156798 C70.1544085,92.2026815 70.296318,92.0851724 70.449262,91.9587848 C70.6157787,91.8211811 70.7851728,91.6814654 71.0139691,91.492947 C71.1545523,91.3771237 71.1545523,91.3771237 71.2945508,91.2617921 C71.4070314,91.1691251 71.4910861,91.099858 71.573035,91.0322923 C71.6468113,90.9714649 71.7394778,91.0018719 71.7767811,91.0792938 Z M71.5776207,91.1759641 C71.5771451,91.1740627 71.5767559,91.1728043 71.5764803,91.1722323 C71.5765873,91.1724543 71.5766957,91.1726758 71.5768055,91.1728968 L71.5776207,91.1759641 Z M71.4370106,91.4283147 C71.2970051,91.543652 71.2970051,91.543652 71.1564399,91.6594606 C70.9277179,91.8479177 70.7583969,91.9875731 70.5919765,92.1250971 C70.4391546,92.2513839 70.2973718,92.3687882 70.1613958,92.4816734 C66.7972487,95.2745388 65.2215622,96.823955 65.2215622,97.5591394 C65.2215622,99.8456407 68.7280292,107.025944 69.9499101,107.775887 C71.2373393,107.488383 72.8477686,106.691483 74.5988095,105.30441 C76.8952664,103.485289 79.2307158,100.815379 81.5293149,97.1808326 C81.2141926,97.4149659 80.9274333,97.6045347 80.563998,97.8064628 C79.1071696,98.6158905 77.475753,98.9648446 75.6603859,98.6075713 C73.698817,98.2215247 72.5405171,96.8878662 71.9902409,94.888354 C71.7065124,93.8573833 71.6357064,93.0544111 71.6030607,91.6185901 C71.5995745,91.4652579 71.5964598,91.3691032 71.5920553,91.3005643 C71.5455301,91.338906 71.4950538,91.3804959 71.4370106,91.4283147 Z M81.914829,96.8911985 C81.9155716,96.8909074 81.9162869,96.8906106 81.9169796,96.8903095 C81.9167158,96.8904242 81.9164428,96.8905474 81.9161597,96.8906797 L81.914829,96.8911985 Z M81.7787065,96.7788174 C81.7804643,96.7753587 81.7815871,96.7728901 81.782061,96.7714753 C81.7818872,96.7719941 81.7817162,96.7725133 81.7815482,96.7730328 L81.7787065,96.7788174 Z" id="Shape" fill="#000000"></path>
                    <path d="M46.4219159,45 C43.961312,45 39.1845137,41.5106215 34.8136065,36.6542855 C30.0953865,31.4120645 27,25.907517 27,22.0721544 C27,13.7480334 33.6027397,7 41.7476319,7 C50.5591668,7 58,12.706488 58,20.5230507 C58,24.5611581 56.4442064,30.6261772 54.1272668,35.8504573 C51.6486131,41.4393737 48.8039747,45 46.4219159,45 Z" id="Shape" fill="#000000"></path>
                    <path d="M46.4775703,45 C48.7700887,45 51.6136109,41.542592 54.0919283,36.1142978 C56.4298264,30.993566 58,25.0475983 58,21.1042353 C58,13.5399824 50.5635383,8 41.7369554,8 C33.5979597,8 27,14.5502427 27,22.6303766 C27,26.3391032 30.115595,31.7210877 34.8664155,36.8485261 C39.2587804,41.5890926 44.0656689,45 46.4775703,45 Z" id="Shape" fill="#FFFFFF"></path>
                    <path d="M42.5,31 C39.4628636,31 37,28.5380132 37,25.5 C37,22.4619868 39.4628636,20 42.5,20 C45.5371364,20 48,22.4619868 48,25.5 C48,28.5380132 45.5371364,31 42.5,31 Z M42.5,30.7924528 C45.4254933,30.7924528 47.7962963,28.4224939 47.7962963,25.5 C47.7962963,22.5775061 45.4254933,20.2075472 42.5,20.2075472 C39.5745067,20.2075472 37.2037037,22.5775061 37.2037037,25.5 C37.2037037,28.4224939 39.5745067,30.7924528 42.5,30.7924528 Z" id="Shape" fill="#000000"></path>
                    <path d="M56.5,31 C53.4628636,31 51,28.5380132 51,25.5 C51,22.4619868 53.4628636,20 56.5,20 C59.5371364,20 62,22.4619868 62,25.5 C62,28.5380132 59.5371364,31 56.5,31 Z M56.5,30.7924528 C59.4254933,30.7924528 61.7962963,28.4224939 61.7962963,25.5 C61.7962963,22.5775061 59.4254933,20.2075472 56.5,20.2075472 C53.5745067,20.2075472 51.2037037,22.5775061 51.2037037,25.5 C51.2037037,28.4224939 53.5745067,30.7924528 56.5,30.7924528 Z" id="Shape" fill="#000000"></path>
                    <path d="M50,26.875 C50,26.9440356 49.9360407,27 49.8571429,27 C49.778245,27 49.7142857,26.9440356 49.7142857,26.875 C49.7142857,26.529822 49.3944891,26.25 49,26.25 C48.6055109,26.25 48.2857143,26.529822 48.2857143,26.875 C48.2857143,26.9440356 48.221755,27 48.1428571,27 C48.0639593,27 48,26.9440356 48,26.875 C48,26.3917508 48.4477153,26 49,26 C49.5522847,26 50,26.3917508 50,26.875 Z" id="Shape" fill="#000000"></path>
                    <path d="M46.0394516,36.2249265 C45.9883806,36.1750005 45.9866691,36.0923092 46.0356288,36.0402302 C46.0845885,35.9881513 46.1656793,35.986406 46.2167503,36.036332 C47.9570617,37.7376272 49.4782193,38.1556453 50.8047305,37.3229896 C50.8649792,37.2851713 50.9438848,37.3043187 50.9809711,37.3657565 C51.0180574,37.4271942 50.9992806,37.5076572 50.939032,37.5454755 C49.4965004,38.4509575 47.8551379,37.9999068 46.0394516,36.2249265 Z" id="Shape" fill="#000000"></path>
                    <path d="M48.6977587,27.155254 C48.6726394,27.0958018 48.7066907,27.0295703 48.7738144,27.0073219 C48.8409381,26.9850735 48.9157158,27.0152332 48.9408351,27.0746854 L51.9916978,34.2954621 C52.0203322,34.3632341 51.9719853,34.4373004 51.8913864,34.4491369 L48.1510167,34.9984341 C48.0803121,35.0088175 48.0134912,34.9664683 48.001768,34.9038445 C47.9900447,34.8412207 48.0378585,34.7820366 48.108563,34.7716532 L51.6933459,34.2452049 L48.6977587,27.155254 Z" id="Shape" fill="#000000"></path>
                    <circle id="Shape" fill="#000000" cx="44" cy="27" r="1"></circle>
                    <circle id="Shape" fill="#000000" cx="54" cy="28" r="1"></circle>
                    <path d="M34.8568868,25.4299901 L35.7823659,22.0123117 C36.3968002,22.2550322 37.2451756,21.6590779 38.3274921,20.2244487 C39.4098087,18.7898196 40.092281,16.7405234 40.3749091,14.0765601 C46.9183618,16.3333106 51.4352551,17.0465984 53.9255889,16.2164233 C56.4159227,15.3862482 57.6507212,16.9892996 57.6299843,21.0255776 C62.6001989,12.0305259 64.1202793,6.09062519 62.1902255,3.20587563 C59.2951449,-1.12124872 53.37426,1.34800756 47.6895091,0.512906757 C41.1017236,-0.454851589 29.3143249,-0.78408099 25.6465251,6.41495923 C21.0913063,15.355797 20.6472161,21.3897029 24.3142545,24.5166769 C19.941855,21.5349383 17.3875283,21.839376 16.6512743,25.4299901 C15.9150204,29.0206041 16.7703889,33.445391 19.2173798,38.7043508 C14.4824332,39.877174 12.9703283,43.0811102 14.6810653,48.3161595 C16.3918023,53.5512087 18.6214146,57.5818782 21.3699023,60.4081679 C19.0696878,61.9463585 19.0696878,63.9763088 21.3699023,66.4980186 C24.8202241,70.2805833 19.2173798,72.2655797 20.4277693,76.4522721 C21.6381589,80.6389644 32.0094187,75.488826 32.42267,70.9934223 C32.698171,67.9964865 31.734421,65.4984548 29.53142,63.4993272 C33.4825241,61.1867516 35.2576797,58.9156049 34.8568868,56.6858871 C34.456094,54.4561692 32.6809384,51.4891236 29.53142,47.7847502 C33.0817312,47.0608315 34.8568868,45.3664519 34.8568868,42.7016114 C34.8568868,40.036771 33.0817312,36.5697812 29.53142,32.3006419 C29.8275564,32.8314353 30.2866456,33.2232917 30.9086877,33.4762113 C31.5307298,33.7291308 32.0353906,33.7291308 32.42267,33.4762113 C30.4040269,25.1757888 29.8993662,21.0255776 30.9086877,21.0255776 C31.9180093,21.0255776 33.2340756,22.4937151 34.8568868,25.4299901 Z" id="Shape" fill="#000000"></path>
                    <path d="M32,23.6194184 L31.4785255,30.9221108 C30.1613137,31.2182777 28.9564545,30.669833 27.8639481,29.2767768 C26.2251884,27.1871926 27.1730403,22.5918572 28.5919101,22.097376 C29.5378233,21.7677219 30.6738532,22.2750694 32,23.6194184 Z" id="Shape" fill="#FFFFFF"></path>
                    <path d="M31.8048239,23.7738216 C30.5635127,22.4923773 29.5161501,22.0160435 28.662959,22.318841 C28.0573845,22.5337593 27.4945409,23.6963146 27.2925967,25.1412733 C27.073834,26.7065724 27.3167721,28.2238294 28.0185473,29.1350871 C29.0387471,30.4598205 30.1490052,30.9744791 31.3620573,30.696726 C31.4233723,30.6826866 31.4843389,30.7215412 31.4982301,30.78351 C31.5121213,30.8454788 31.4736767,30.9070956 31.4123618,30.9211349 C30.1047493,31.2205395 28.9093452,30.6664117 27.8388849,29.2764148 C26.3465422,27.3386021 26.9996768,22.6652693 28.5875277,22.1017412 C29.5444705,21.7621224 30.6710563,22.2744864 31.9675078,23.6128538 C32.0114889,23.6582568 32.0107245,23.7310971 31.9658005,23.7755471 C31.9208766,23.8199972 31.8488049,23.8192246 31.8048239,23.7738216 Z" id="Shape" fill="#000000"></path>
                    <path d="M30.78157,26.9357749 C30.05055,25.5674767 29.5116969,25.0704769 29.1885271,25.3455793 C29.136668,25.389725 29.0628959,25.3780995 29.0237525,25.3196129 C28.9846092,25.2611263 28.9949174,25.1779263 29.0467765,25.1337805 C29.5439959,24.7105162 30.1815997,25.2985966 30.9831045,26.7988256 C31.0166366,26.86159 30.9987048,26.9431277 30.9430526,26.9809453 C30.8874004,27.0187628 30.8151022,26.9985393 30.78157,26.9357749 Z" id="Shape" fill="#000000"></path>
                    <path d="M29.9561365,24.2037489 C29.1112879,24.8681326 29.0096142,26.0753594 29.6753928,27.8461211 C29.6978582,27.905872 29.665398,27.9717185 29.6028909,27.9931933 C29.5403838,28.0146682 29.4715,27.9836393 29.4490346,27.9238883 C28.7527455,26.0719783 28.862749,24.7658468 29.8033226,24.0261856 C29.8546171,23.9858479 29.9304081,23.9928966 29.9726065,24.0419294 C30.0148049,24.0909622 30.007431,24.1634112 29.9561365,24.2037489 Z" id="Shape" fill="#000000"></path>
                    <path d="M36.9234707,24.8150268 C36.9857201,24.8345776 37.0161308,24.8903118 36.991395,24.9395126 C36.9666592,24.9887134 36.8961437,25.0127495 36.8338943,24.9931988 L31.0765293,23.1849732 C31.0142799,23.1654224 30.9838692,23.1096882 31.008605,23.0604874 C31.0333408,23.0112866 31.1038563,22.9872505 31.1661057,23.0068012 L36.9234707,24.8150268 Z" id="Shape" fill="#000000"></path>
                    <path d="M61.9119957,26.8395592 C61.974264,26.8504925 62.0120914,26.8947205 61.9964854,26.9383451 C61.9808795,26.9819697 61.9177499,27.0084711 61.8554815,26.9975377 L57.0880043,26.1604408 C57.025736,26.1495075 56.9879086,26.1052795 57.0035146,26.0616549 C57.0191205,26.0180303 57.0822501,25.9915289 57.1445185,26.0024623 L61.9119957,26.8395592 Z" id="Shape" fill="#000000"></path>
                    <path d="M49.1160582,49.3374427 C50.2473096,49.7521714 52.7697866,52.8760851 56,61 C54.9946288,55.3917617 50.775649,49.7643966 50.3862803,49.3374427 C49.9969115,48.9104889 46,45 46,45 C46,45 46.4499628,47.9903188 47.088259,48.560259 C47.7265552,49.1301991 47.9848067,48.9227141 49.1160582,49.3374427 Z" id="Shape" fill="#000000"></path>
                    <path d="M34.0547509,49.211984 C34.0008831,49.1790777 33.9838703,49.1087005 34.0167518,49.0547921 C34.0496333,49.0008837 34.1199575,48.9838581 34.1738253,49.0167644 C34.1954035,49.0299459 34.2383186,49.055232 34.3012957,49.0908938 C34.4068616,49.1506722 34.5299486,49.2173751 34.66928,49.2892739 C35.0679191,49.4949826 35.5162899,49.7007913 36.0041433,49.8928875 C37.7929329,50.5972379 39.6081069,50.9322767 41.2965098,50.695994 C42.2094032,50.5682395 43.0563281,50.2737184 43.825369,49.7951308 C43.8789623,49.7617787 43.9494252,49.7782202 43.9827522,49.831854 C44.0160791,49.8854877 43.99965,49.9560036 43.9460566,49.9893557 C43.1489913,50.4853834 42.2717104,50.7904609 41.3281611,50.9225055 C39.5947584,51.1650857 37.7426901,50.8232371 35.9204645,50.105721 C35.4250825,49.9106603 34.9697541,49.701658 34.5645388,49.4925558 C34.4225212,49.4192708 34.2968361,49.3511601 34.1887455,49.2899519 C34.1235287,49.2530218 34.0784426,49.2264566 34.0547509,49.211984 Z" id="Shape" fill="#000000"></path>
                    <path d="M45.177946,48.9854438 C45.1190149,49.0175191 45.045738,48.9948149 45.0142773,48.9347326 C44.9828166,48.8746502 45.0050857,48.7999416 45.0640167,48.7678663 C46.1991734,48.1500158 46.758085,47.5926069 46.758085,47.1233207 C46.758085,47.0552126 46.8122395,47 46.8790425,47 C46.9458455,47 47,47.0552126 47,47.1233207 C47,47.7159616 46.3868708,48.3274423 45.177946,48.9854438 Z" id="Shape" fill="#000000"></path>
                    <path d="M33.0494249,41.2516445 C32.999457,41.2108505 32.9849737,41.1263053 33.0170756,41.0628077 C33.0491775,40.99931 33.1157082,40.9809051 33.1656761,41.0216992 C33.191237,41.0425672 33.2405274,41.0820652 33.3112016,41.1375286 C33.4292624,41.23018 33.5640247,41.3334754 33.7131399,41.4447495 C34.1392762,41.7627446 34.5947363,42.0807536 35.0606557,42.3774322 C35.5197797,42.6697837 35.9646868,42.9255549 36.3860749,43.134377 C37.4677136,43.6703916 38.3239608,43.8628401 38.8571428,43.6274522 C38.9132449,43.6026844 38.9745247,43.6404003 38.9940151,43.7116931 C39.0135056,43.7829859 38.9838259,43.8608584 38.9277238,43.8856263 C38.3314888,44.1488507 37.4343373,43.9472086 36.3079342,43.3890107 C35.8798522,43.1768712 35.4290145,42.9176907 34.964305,42.6217825 C34.4937887,42.3221769 34.0342353,42.0013098 33.6042318,41.6804289 C33.4536981,41.5680963 33.3175741,41.4637571 33.1981928,41.3700696 C33.1264018,41.3137297 33.0760339,41.2733682 33.0494249,41.2516445 Z" id="Shape" fill="#000000"></path>
                    <path d="M11.1412533,50.9971091 C11.0789185,51.0112881 11.0169634,50.971933 11.0028728,50.9092069 C10.9887823,50.8464809 11.027892,50.784137 11.0902268,50.769958 L18.8587467,49.0028909 C18.9210815,48.9887119 18.9830366,49.028067 18.9971272,49.0907931 C19.0112177,49.1535191 18.972108,49.215863 18.9097732,49.230042 L11.1412533,50.9971091 Z" id="Shape" fill="#000000"></path>
                    <path d="M60.00938,79.1408134 C59.9874831,79.0927592 60.0052299,79.0343236 60.0490186,79.0102937 C60.0928073,78.9862638 60.146056,79.0057393 60.1679529,79.0537934 L60.99062,80.8591866 C61.0125169,80.9072408 60.9947701,80.9656764 60.9509814,80.9897063 C60.9071927,81.0137362 60.853944,80.9942607 60.8320471,80.9462066 L60.00938,79.1408134 Z" id="Shape" fill="#000000"></path>
                    <path d="M62.0171894,77.2217763 C61.9871501,77.158102 61.9974972,77.070258 62.0403002,77.0255712 C62.0831031,76.9808844 62.1421534,76.9962768 62.1721926,77.0599511 L62.9828106,78.7782237 C63.0128499,78.841898 63.0025028,78.929742 62.9596998,78.9744288 C62.9168969,79.0191156 62.8578466,79.0037232 62.8278074,78.9400489 L62.0171894,77.2217763 Z" id="Shape" fill="#000000"></path>
                    <path d="M63.0180331,76.1215578 C62.9844417,76.0851142 62.9991331,76.0363805 63.0508472,76.0127082 C63.1025612,75.9890359 63.1717149,75.9993891 63.2053062,76.0358328 L63.9819669,76.8784422 C64.0155583,76.9148858 64.0008669,76.9636195 63.9491528,76.9872918 C63.8974388,77.0109641 63.8282851,77.0006109 63.7946938,76.9641672 L63.0180331,76.1215578 Z" id="Shape" fill="#000000"></path>
                </g>
            </g>
        </g>
    </g>
</svg>