<?xml version="1.0" encoding="UTF-8"?>
<svg width="91px" height="113px" viewBox="0 0 91 113" version="1.1" xmlns="http://www.w3.org/2000/svg" xmlns:xlink="http://www.w3.org/1999/xlink">
    <!-- Generator: Sketch 64 (93537) - https://sketch.com -->
    <title>Data</title>
    <desc>Created with Sketch.</desc>
    <g id="Mood-board" stroke="none" stroke-width="1" fill="none" fill-rule="evenodd">
        <g id="EDUbots-website-v.1-Copy" transform="translate(-766.000000, -1185.000000)" fill-rule="nonzero">
            <g id="Group-26" transform="translate(714.000000, 1143.000000)">
                <g id="Data" transform="translate(52.000000, 42.000000)">
                    <path d="M6.72,6 L60.5795005,6 L91,39.8964045 L91,111.288 C91,112.233511 90.2299298,113 89.28,113 L6.72,113 C5.77007023,113 5,112.233511 5,111.288 L5,7.712 C5,6.76648851 5.77007023,6 6.72,6 Z" id="Shape" fill="#000000"></path>
                    <path d="M2.15346535,0 L56.099776,0 C56.2224307,0 56.339267,0.0520378702 56.4209786,0.143060754 L86.8905095,34.0847208 C86.9610233,34.16327 87,34.2649067 87,34.3702315 L87,105.857143 C87,107.04061 86.0358607,108 84.8465347,108 L2.15346535,108 C0.964139276,108 0,107.04061 0,105.857143 L0,2.14285714 C0,0.959389822 0.964139276,0 2.15346535,0 Z" id="Shape" fill="#000000"></path>
                    <path d="M55.8666656,1 L2.28787879,1 C1.57660297,1 1,1.5795024 1,2.29435484 L1,106.705645 C1,107.420498 1.57660297,108 2.28787879,108 L84.7121212,108 C85.423397,108 86,107.420498 86,106.705645 L86,34.9029534 L55.8666656,1 Z" id="Shape" fill="#FFFFFF"></path>
                    <path d="M59,4 L89,38 L60.7142857,38 C59.7675119,38 59,37.2388841 59,36.3 L59,4 Z" id="Shape" fill="#000000"></path>
                    <path d="M17.3197816,14.75 C17.0768165,14.75 16.8798544,14.9178932 16.8798544,15.125 L16.8798544,15.875 C16.8798544,16.0821068 17.0768165,16.25 17.3197816,16.25 L39.6802184,16.25 C39.9231835,16.25 40.1201456,16.0821068 40.1201456,15.875 L40.1201456,15.125 C40.1201456,14.9178932 39.9231835,14.75 39.6802184,14.75 L17.3197816,14.75 Z M17.3197816,14 L39.6802184,14 C40.4091137,14 41,14.5036797 41,15.125 L41,15.875 C41,16.4963203 40.4091137,17 39.6802184,17 L17.3197816,17 C16.5908863,17 16,16.4963203 16,15.875 L16,15.125 C16,14.5036797 16.5908863,14 17.3197816,14 Z" id="Shape" fill="#000000"></path>
                    <path d="M17.2885996,24.75 C17.051375,24.75 16.8590664,24.9178932 16.8590664,25.125 L16.8590664,25.875 C16.8590664,26.0821068 17.051375,26.25 17.2885996,26.25 L47.7114004,26.25 C47.948625,26.25 48.1409336,26.0821068 48.1409336,25.875 L48.1409336,25.125 C48.1409336,24.9178932 47.948625,24.75 47.7114004,24.75 L17.2885996,24.75 Z M17.2885996,24 L47.7114004,24 C48.4230743,24 49,24.5036797 49,25.125 L49,25.875 C49,26.4963203 48.4230743,27 47.7114004,27 L17.2885996,27 C16.5769257,27 16,26.4963203 16,25.875 L16,25.125 C16,24.5036797 16.5769257,24 17.2885996,24 Z" id="Shape" fill="#000000"></path>
                    <path d="M17.2885996,30.75 C17.051375,30.75 16.8590664,30.9178932 16.8590664,31.125 L16.8590664,31.875 C16.8590664,32.0821068 17.051375,32.25 17.2885996,32.25 L47.7114004,32.25 C47.948625,32.25 48.1409336,32.0821068 48.1409336,31.875 L48.1409336,31.125 C48.1409336,30.9178932 47.948625,30.75 47.7114004,30.75 L17.2885996,30.75 Z M17.2885996,30 L47.7114004,30 C48.4230743,30 49,30.5036797 49,31.125 L49,31.875 C49,32.4963203 48.4230743,33 47.7114004,33 L17.2885996,33 C16.5769257,33 16,32.4963203 16,31.875 L16,31.125 C16,30.5036797 16.5769257,30 17.2885996,30 Z" id="Shape" fill="#000000"></path>
                    <path d="M57,1 L87,35 L58.7142857,35 C57.7675119,35 57,34.2388841 57,33.3 L57,1 Z" id="Shape" fill="#FFFFFF"></path>
                    <path d="M56.8610878,1.56363214 L56.8610878,32.8659059 C56.8610878,33.5730825 57.4393711,34.1463624 58.1527196,34.1463624 L85.6197993,34.1463624 L56.8610878,1.56363214 Z M56.7545612,0.146613285 L86.8926357,34.292119 C87.1362202,34.5680928 86.9385239,35 86.5686183,35 L58.1527196,35 C56.9638054,35 56,34.0445335 56,32.8659059 L56,0.427675446 C56,0.0335659184 56.4927733,-0.14998436 56.7545612,0.146613285 Z" id="Shape" fill="#000000"></path>
                    <g id="Group-11" transform="translate(15.000000, 42.000000)" fill="#000000">
                        <path d="M51.32703,3.4 L53.0689655,3.4 C53.5499877,3.4 53.9399333,3.78055796 53.9399333,4.25 L53.9399333,37.8092593 C53.9399333,38.2787013 53.5499877,38.6592593 53.0689655,38.6592593 L43.9988877,38.6592593 C43.5178655,38.6592593 43.1279199,38.2787013 43.1279199,37.8092593 L43.1279199,36.1092593 L50.4560623,36.1092593 C50.9370845,36.1092593 51.32703,35.7287013 51.32703,35.2592593 L51.32703,3.4 Z M31.5050056,10.4518519 L33.246941,10.4518519 C33.7279632,10.4518519 34.1179088,10.8324098 34.1179088,11.3018519 L34.1179088,37.8092593 C34.1179088,38.2787013 33.7279632,38.6592593 33.246941,38.6592593 L24.1768632,38.6592593 C23.695841,38.6592593 23.3058954,38.2787013 23.3058954,37.8092593 L23.3058954,36.1092593 L30.6340378,36.1092593 C31.11506,36.1092593 31.5050056,35.7287013 31.5050056,35.2592593 L31.5050056,10.4518519 Z M11.6829811,17.5037037 L13.4249166,17.5037037 C13.9059388,17.5037037 14.2958843,17.8842617 14.2958843,18.3537037 L14.2958843,37.8092593 C14.2958843,38.2787013 13.9059388,38.6592593 13.4249166,38.6592593 L4.35483871,38.6592593 C3.87381651,38.6592593 3.48387097,38.2787013 3.48387097,37.8092593 L3.48387097,36.1092593 L10.8120133,36.1092593 C11.2930355,36.1092593 11.6829811,35.7287013 11.6829811,35.2592593 L11.6829811,17.5037037 Z" id="Shape"></path>
                        <path d="M1.74193548,15.3787037 C1.50142438,15.3787037 1.30645161,15.5689827 1.30645161,15.8037037 L1.30645161,35.2592593 C1.30645161,35.4939803 1.50142438,35.6842593 1.74193548,35.6842593 L10.8120133,35.6842593 C11.0525244,35.6842593 11.2474972,35.4939803 11.2474972,35.2592593 L11.2474972,15.8037037 C11.2474972,15.5689827 11.0525244,15.3787037 10.8120133,15.3787037 L1.74193548,15.3787037 Z M1.74193548,14.5287037 L10.8120133,14.5287037 C11.5335467,14.5287037 12.118465,15.0995406 12.118465,15.8037037 L12.118465,35.2592593 C12.118465,35.9634223 11.5335467,36.5342593 10.8120133,36.5342593 L1.74193548,36.5342593 C1.02040218,36.5342593 0.435483871,35.9634223 0.435483871,35.2592593 L0.435483871,15.8037037 C0.435483871,15.0995406 1.02040218,14.5287037 1.74193548,14.5287037 Z M21.56396,8.32685185 C21.3234489,8.32685185 21.1284761,8.51713083 21.1284761,8.75185185 L21.1284761,35.2592593 C21.1284761,35.4939803 21.3234489,35.6842593 21.56396,35.6842593 L30.6340378,35.6842593 C30.8745489,35.6842593 31.0695217,35.4939803 31.0695217,35.2592593 L31.0695217,8.75185185 C31.0695217,8.51713083 30.8745489,8.32685185 30.6340378,8.32685185 L21.56396,8.32685185 Z M21.56396,7.47685185 L30.6340378,7.47685185 C31.3555711,7.47685185 31.9404894,8.0476888 31.9404894,8.75185185 L31.9404894,35.2592593 C31.9404894,35.9634223 31.3555711,36.5342593 30.6340378,36.5342593 L21.56396,36.5342593 C20.8424267,36.5342593 20.2575083,35.9634223 20.2575083,35.2592593 L20.2575083,8.75185185 C20.2575083,8.0476888 20.8424267,7.47685185 21.56396,7.47685185 Z M41.3859844,1.275 C41.1454733,1.275 40.9505006,1.46527898 40.9505006,1.7 L40.9505006,35.2592593 C40.9505006,35.4939803 41.1454733,35.6842593 41.3859844,35.6842593 L50.4560623,35.6842593 C50.6965734,35.6842593 50.8915462,35.4939803 50.8915462,35.2592593 L50.8915462,1.7 C50.8915462,1.46527898 50.6965734,1.275 50.4560623,1.275 L41.3859844,1.275 Z M41.3859844,0.425 L50.4560623,0.425 C51.1775956,0.425 51.7625139,0.995836944 51.7625139,1.7 L51.7625139,35.2592593 C51.7625139,35.9634223 51.1775956,36.5342593 50.4560623,36.5342593 L41.3859844,36.5342593 C40.6644511,36.5342593 40.0795328,35.9634223 40.0795328,35.2592593 L40.0795328,1.7 C40.0795328,0.995836944 40.6644511,0.425 41.3859844,0.425 Z" id="Shape"></path>
                        <path d="M51.5372636,47.0018519 L52.4082314,47.0018519 C52.8892536,47.0018519 53.2791991,47.3824098 53.2791991,47.8518519 L53.2791991,49.5518519 C53.2791991,50.0212939 52.8892536,50.4018519 52.4082314,50.4018519 L3.27363737,50.4018519 C2.79261517,50.4018519 2.40266963,50.0212939 2.40266963,49.5518519 L2.40266963,47.8518519 L50.6662959,47.8518519 C51.1473181,47.8518519 51.5372636,47.4712939 51.5372636,47.0018519 L51.5372636,47.0018519 Z" id="Shape"></path>
                        <path d="M2.40266963,44.8768519 C2.16215853,44.8768519 1.96718576,45.0671308 1.96718576,45.3018519 L1.96718576,47.0018519 C1.96718576,47.2365729 2.16215853,47.4268519 2.40266963,47.4268519 L50.6662959,47.4268519 C50.906807,47.4268519 51.1017798,47.2365729 51.1017798,47.0018519 L51.1017798,45.3018519 C51.1017798,45.0671308 50.906807,44.8768519 50.6662959,44.8768519 L2.40266963,44.8768519 Z M2.40266963,44.0268519 L50.6662959,44.0268519 C51.3878292,44.0268519 51.9727475,44.5976888 51.9727475,45.3018519 L51.9727475,47.0018519 C51.9727475,47.7060149 51.3878292,48.2768519 50.6662959,48.2768519 L2.40266963,48.2768519 C1.68113633,48.2768519 1.09621802,47.7060149 1.09621802,47.0018519 L1.09621802,45.3018519 C1.09621802,44.5976888 1.68113633,44.0268519 2.40266963,44.0268519 Z" id="Shape"></path>
                    </g>
                </g>
            </g>
        </g>
    </g>
</svg>