<?xml version="1.0" encoding="UTF-8"?>
<svg width="139px" height="135px" viewBox="0 0 139 135" version="1.1" xmlns="http://www.w3.org/2000/svg" xmlns:xlink="http://www.w3.org/1999/xlink">
    <!-- Generator: Sketch 64 (93537) - https://sketch.com -->
    <title>Girl</title>
    <desc>Created with Sketch.</desc>
    <g id="Mood-board" stroke="none" stroke-width="1" fill="none" fill-rule="evenodd">
        <g id="EDUbots-website-v.1-Copy" transform="translate(-738.000000, -1406.000000)" fill-rule="nonzero">
            <g id="Group-20" transform="translate(714.000000, 1379.000000)">
                <g id="Girl" transform="translate(24.000000, 27.000000)">
                    <path d="M105.957526,74.5331997 L116,100.047918 L114.383263,122.268643 C108.834898,110.723843 104.8092,100.423192 102.306168,91.366689 C102.097745,90.6125708 101.906677,89.8609003 101.732964,89.1116775 C99.5564028,94.0679807 95.7693463,101.666019 94.7624956,105.336206 C92.0265004,115.309494 99.6791401,129.373616 98.1645496,131 L51.8897181,131 C54.8975932,115.769584 60.1947183,105.336206 56.7312097,99.3593347 C51.852436,90.9401838 48.9922745,82.6570415 52.6717066,75.5149716 C55.4246211,70.1713461 56.041918,64.4635438 56.7312097,60.3137515 C57.0096,58.6377388 64.183165,56.6081176 68.8077995,56.044595 C69.1456885,55.1606511 69.6858992,55.8664414 70.0818179,55.2259598 C71.3198557,53.223174 71.515265,50.2645745 70.6680458,46.3501615 L79.5590561,31.240301 C83.8313756,30.083884 85.9675353,33.1012952 85.9675353,40.2925346 C85.9675353,48.1249058 87.5747034,50.0828029 88.4921146,53.5572859 C90.8518052,53.7862052 102.713499,58.3152878 103.831701,60.3137515 C105.366112,63.7368696 107.623004,65.3797628 105.957526,74.5331976 L105.957526,74.5331997 Z" id="Shape" fill="#FFFFFF"></path>
                    <path d="M103.973239,60 L120.775073,96.0377962 C121.875238,114.183673 118.939549,120.548601 111.968008,115.132583 C101.510695,107.008555 104.768339,99.7834847 102.242261,90.7086581 C101.505215,88.0608518 102.714198,80.8977537 102.407255,78.3101775" id="Shape" fill="#FFFFFF"></path>
                    <path d="M103.964564,60.1362282 C103.942419,60.0884056 103.962775,60.0314702 104.010032,60.0090593 C104.057289,59.9866484 104.113551,60.0072485 104.135697,60.0550711 L120.768365,95.972184 C121.322571,105.064564 120.8674,111.183974 119.405747,114.374526 C117.924006,117.608928 115.400804,117.852239 111.906618,115.119267 C108.715671,112.623472 106.659317,110.103515 105.40304,107.331009 C104.28058,104.853826 103.899265,102.826131 103.460274,98.3441012 C103.089796,94.5615747 102.85725,92.9395499 102.24558,90.7272369 C101.930317,89.5869793 101.937004,87.7659792 102.160948,84.5422129 C102.180299,84.2636442 102.20027,83.9857494 102.229355,83.587648 C102.467611,80.3264634 102.515253,79.2824037 102.406083,78.3558316 C102.399904,78.3033898 102.436905,78.2558084 102.488727,78.2495557 C102.540548,78.2433029 102.587567,78.2807466 102.593746,78.3331884 C102.705081,79.2781342 102.657452,80.3219073 102.417833,83.6017494 C102.388763,83.99964 102.368806,84.2773342 102.349474,84.5556245 C102.127308,87.7538024 102.120655,89.5655962 102.427583,90.6757045 C103.04315,92.9021133 103.276806,94.5318837 103.648345,98.3252372 C104.08535,102.786992 104.46376,104.79924 105.574833,107.251292 C106.817821,109.994471 108.854542,112.490369 112.022193,114.967943 C115.429357,117.632851 117.809895,117.403297 119.234285,114.294084 C120.677791,111.143145 121.131503,105.054274 120.589574,96.0368033 L103.964564,60.1362282 Z" id="Shape" fill="#000000"></path>
                    <path d="M109.841134,91.3322397 C112.147508,90.149045 115.267455,92.4765752 115.855094,92.8639611 C116.928053,93.5712805 111.743121,95.2583639 110.145459,96.5370691 C108.942216,97.5000976 107.893729,99.6544079 107,103 C107.289063,94.8625144 107.53476,92.5154343 109.841134,91.3322397 Z" id="Shape" fill="#000000"></path>
                    <path d="M26,72.5845753 L23.453845,35.2537587 C24.6088235,33.7603805 25.3173447,32.4045494 25.5794087,31.1862654 C26.4726687,27.0336755 25.8253433,23.894517 24.4679563,21.8406379 C23.3290692,20.2032194 19.2278942,19 18.0388114,19 C17.2809788,19 17.1246848,21.0372131 18.0388114,21.8455601 C18.1598765,21.952616 19.9553118,22.7105087 19.6140433,23.3786551 C19.1898414,24.209171 17.1147208,25.7300579 13.3886817,27.9413158 L15.9228369,36.3560679 C11.6682661,68.7692588 10.8744636,86.6718697 13.5414293,90.0639007 C16.208395,93.4559317 20.3612519,87.6294899 26,72.5845753 Z" id="Shape" fill="#FFFFFF"></path>
                    <path d="M26,72.2727848 C23.2112939,79.9261085 20.7943819,85.2084072 18.7407326,88.1626626 C16.6612253,91.154116 14.9069611,91.7961841 13.5391959,90.0124945 C10.8845535,86.5506008 11.6660478,68.4657913 15.8658178,35.6546175 L13.3724458,27.1655394 C13.3600543,27.1233504 13.3775894,27.0781155 13.4152091,27.0552241 C17.0699536,24.8313288 19.1116308,23.297044 19.5179361,22.4814139 C19.5481977,22.4206659 19.5567935,22.358787 19.5453866,22.2929515 C19.5059409,22.0652885 19.2345967,21.7992343 18.7938488,21.5164939 C18.5732225,21.3749618 18.0108908,21.0687889 17.9862162,21.0464168 C17.0743105,20.2196047 17.143603,18 18.0517369,18 C18.6943594,18 20.0396468,18.3351846 21.2761664,18.8220631 C22.7833519,19.415516 23.9494555,20.1437968 24.4738832,20.9169346 C25.9558257,23.2160875 26.4081179,26.5080471 25.5833745,30.4392487 C25.3233084,31.6788735 24.6255565,33.0525465 23.4914615,34.5617238 L26,72.2727848 Z M23.2946518,34.5386165 C24.4450858,32.9742224 25.1375115,31.6156237 25.3926634,30.3994225 C26.2075044,26.5154215 25.7623339,23.275296 24.3112612,21.0239864 C23.8157724,20.293557 22.6782192,19.5831072 21.2046387,19.0028862 C19.988888,18.5241854 18.6652534,18.1943957 18.0517369,18.1943957 C17.375349,18.1943957 17.3135537,20.1738461 18.1172576,20.9025531 C18.1215476,20.9064428 18.6609959,21.2001563 18.8992265,21.3529816 C19.3848367,21.6645013 19.6852726,21.95908 19.737383,22.2598385 C19.7557622,22.3659149 19.741342,22.4697222 19.6924185,22.5679327 C19.264539,23.4268713 17.2345144,24.9554991 13.580424,27.1823607 L16.0585249,35.6194461 C11.8722733,68.3843446 11.0889889,86.4972757 13.6939457,89.894375 C14.9562519,91.5405363 16.564727,90.9518276 18.5806266,88.0518765 C20.6206582,85.1172106 23.0294705,79.8539027 25.8042221,72.265188 L23.2946518,34.5386165 Z" id="Shape" fill="#000000"></path>
                    <path d="M9.91741974,23.8220487 L33.242747,20.0091859 C33.5936247,19.9518299 33.9282221,20.169027 33.9900913,20.4943092 C34.0519605,20.8195915 33.8176728,21.1297811 33.4667952,21.1871372 L10.1414679,25 C8.7399763,24.9633306 8.02640133,24.8775456 8.000743,24.7426449 C7.97508468,24.6077442 8.61397692,24.3008788 9.91741974,23.8220487 Z" id="Shape" fill="#FFFFFF"></path>
                    <path d="M8.18887424,24.6553591 C8.20130319,24.7158589 8.97260923,24.8029752 10.2959103,24.835781 L34.3386279,21.1494618 C34.6487529,21.1019122 34.8558293,20.8447576 34.8011459,20.5750909 C34.7464625,20.3054241 34.4507268,20.1253625 34.1406018,20.1729121 L10.097884,23.8592313 C8.86729155,24.2836097 8.17676674,24.5948593 8.18887424,24.6553591 Z M34.1075974,20.0101538 C34.5210974,19.9467544 34.9154116,20.1868365 34.9883229,20.5463922 C35.0612341,20.9059479 34.7851323,21.2488207 34.3716323,21.31222 L10.3193877,25 C8.73907275,24.9629102 8.04247583,24.8843614 8.00185797,24.6840578 C7.96124011,24.4837541 8.58493122,24.2027739 10.0368457,23.7024901 L34.1075974,20.0101538 Z" id="Shape" fill="#000000"></path>
                    <path d="M21.1131379,28.544754 C21.1131379,26.675356 23.1177182,26.2993547 23.3616383,25.6878891 C20.6631991,25.6293463 19.238726,24.249712 19.017866,23.6385558 C18.7660267,22.9416752 21.1951857,23.2389906 25.1308019,23 C26.703011,23 25.9386596,28.3700464 24.4540468,31" id="Shape" fill="#FFFFFF"></path>
                    <path d="M20.2708065,25.2339963 C19.6257013,24.8002 19.1577911,24.2467562 19.0239041,23.8276647 C18.9226652,23.5107676 19.1456303,23.3330302 19.6428144,23.2455199 C20.021943,23.1787887 20.4894386,23.1555631 21.621167,23.1316672 C23.3399448,23.0953761 23.9737433,23.0745281 25.0616927,23 C25.8601628,23 26.1363101,24.34746 25.9385288,26.423127 C25.7553365,28.3456865 25.187627,30.5374949 24.4831932,31.949092 C24.4600856,31.9953966 24.4053503,32.0134032 24.3609385,31.9893109 C24.3165266,31.9652186 24.299256,31.9081506 24.3223635,31.861846 C25.0153317,30.4732245 25.5770774,28.304441 25.7581202,26.4044402 C25.9448819,24.4444213 25.6876017,23.1890231 25.067652,23.1888186 C23.9819912,23.2633944 23.3463786,23.2843021 21.6248378,23.3206516 C20.5038936,23.3443197 20.0395389,23.3673893 19.6729934,23.4319057 C19.2705405,23.5027422 19.1435346,23.6039853 19.1959101,23.7679305 C19.3152916,24.1416174 19.7560089,24.6628974 20.3690702,25.075146 C21.160763,25.6075141 22.1663477,25.9315509 23.3413012,25.9603858 C23.4034258,25.9619104 23.4456924,26.026676 23.4242479,26.0874861 C23.3880857,26.1900313 23.3199109,26.2871897 23.2188332,26.3885364 C23.0804709,26.527267 22.388985,27.0360046 22.3121869,27.0986255 C21.6045012,27.6756696 21.2405914,28.2911977 21.2405914,29.2013354 C21.2405914,29.2535327 21.2000067,29.295847 21.1499431,29.295847 C21.0998794,29.295847 21.0592947,29.2535327 21.0592947,29.2013354 C21.0592947,28.2249535 21.4527602,27.5594339 22.2005003,26.9497296 C22.286931,26.8792544 22.9665379,26.3792563 23.0931655,26.2522917 C23.1306415,26.214716 23.1619328,26.1788004 23.1873144,26.1440884 C22.0427131,26.0915327 21.0564376,25.7622883 20.2708065,25.2339963 Z" id="Shape" fill="#000000"></path>
                    <path d="M19,21.4967764 C16.4304759,23.4904958 14.8243178,24.2932757 14.1815258,23.9051162 C13.5387337,23.5169567 14.6030614,22.1115043 17.3745088,19.6887589 C17.883936,19.27564 18.2357755,19.0460537 18.4300273,19 L19,21.4967764 Z" id="Shape" fill="#FFFFFF"></path>
                    <path d="M18.8593847,21.4343486 C18.8961042,21.4057901 18.9503111,21.4108366 18.9804591,21.4456201 C19.0106071,21.4804036 19.0052798,21.5317524 18.9685603,21.5603108 C16.4522549,23.5173518 14.8864415,24.3018166 14.2164058,23.8962494 C13.845979,23.672033 13.9583422,23.1928038 14.4979493,22.4785644 C15.0157846,21.7931431 15.9449182,20.8636531 17.288874,19.6860935 C17.7912272,19.2777483 18.1374814,19.0512726 18.3428485,19.0024686 C18.3889308,18.9915175 18.4356597,19.0180273 18.4472204,19.0616798 C18.4587811,19.1053324 18.4307957,19.1495975 18.3847134,19.1605486 C18.2150601,19.2008655 17.8820567,19.4186742 17.4033099,19.8077559 C16.0696081,20.9764077 15.1474154,21.898954 14.6378609,22.5734148 C14.1500784,23.2190576 14.0589885,23.6075563 14.3090454,23.7589138 C14.879977,24.1044941 16.4149948,23.3354577 18.8593847,21.4343486 Z" id="Shape" fill="#000000"></path>
                    <path d="M26.5518018,72.8381794 C27.1139998,61.8438327 27.1139998,55.4647359 26.5518018,53.700889 C25.9896039,51.9370421 25.2852844,51.0558951 24.4388434,51.057448 C24.8141822,47.8349418 24.8951868,45.9249186 24.6818573,45.3273783 C24.361863,44.4310679 14.8938099,42.6160892 14.5265562,45.8264304 C14.3383463,47.4716631 14.6938949,49.1038364 14.5265562,50.6575626 C14.423145,51.6177263 12.8064796,51.057448 12.2382432,52.7258116 C5.33546103,72.9926417 11.3027704,91.7891479 13.3514406,94.5137929 C15.9123285,97.9196661 29.0543823,95.4717257 52.7776021,87.1699718 L57,58.4690187 L26.5518018,72.8381794 Z" id="Shape" fill="#FFFFFF"></path>
                    <path d="M56.8657227,58.4270124 C56.9339755,58.3947888 57.010045,58.4527487 56.998907,58.5284898 L52.7936377,87.125131 C29.0418386,95.4951588 15.9505716,97.9346729 13.3589457,94.4864585 C12.0048444,92.6847973 10.2030715,86.6850745 9.44264802,80.1757385 C8.39472295,71.2053473 9.16141786,61.79144 12.236032,52.7604296 C12.4481097,52.1374974 12.8031708,51.773035 13.3301181,51.523489 C13.4156352,51.4829907 13.5044829,51.4457226 13.6103959,51.4049104 C13.6684648,51.3825342 13.8572229,51.3124943 13.8726869,51.3066506 C14.320714,51.1373424 14.4794735,51.0081321 14.510416,50.7207114 C14.5777105,50.0956229 14.569804,49.5912346 14.5048073,48.4112138 C14.4368279,47.1770391 14.4300035,46.6103413 14.5104874,45.9064949 C14.6816061,44.4100298 16.7002221,43.8383795 19.6852441,44.0386376 C22.0829156,44.1994917 24.6208289,44.8652048 24.8072305,45.3875409 C25.024841,45.9973305 24.9480973,47.8691739 24.5822106,51.0375564 C25.4305555,51.1053411 26.122076,52.011926 26.6706588,53.733786 C27.2332303,55.4995531 27.2359598,61.8022944 26.6832626,72.6768034 L56.8657227,58.4270124 Z M26.6205428,72.9184306 C26.5559819,72.9489112 26.4827474,72.8985377 26.4864452,72.8261931 C27.0454457,61.8897422 27.0454457,55.5336161 26.4909254,53.7931197 C25.9423432,52.0712615 25.2656664,51.2243384 24.4765755,51.2257866 C24.7540419,47.9277905 24.8345973,46.0275539 24.6296359,45.4532094 C24.4831307,45.0426715 21.9761969,44.3850846 19.6728181,44.2305564 C16.7843533,44.0367761 14.8519357,44.5840158 14.6981692,45.9287322 C14.6193477,46.6180409 14.626081,47.1771729 14.69346,48.4004468 C14.7590479,49.5912017 14.7670612,50.1023988 14.6982406,50.741663 C14.657082,51.123979 14.4474098,51.2946258 13.9384477,51.4869612 C13.9219931,51.4931793 13.7340468,51.562918 13.6772905,51.5847884 C13.5753754,51.62406 13.4906124,51.6596147 13.40982,51.6978755 C12.9267492,51.926643 12.6087334,52.2530793 12.4145642,52.823409 C9.34988945,61.8252246 8.58555873,71.2101031 9.63027509,80.1530272 C10.3870542,86.631167 12.1799066,92.6011852 13.5090136,94.369591 C16.0164613,97.7058045 29.0845291,95.2735316 52.6152594,87.0389326 L56.7860673,58.6766352 L26.6205428,72.9184306 Z" id="Shape" fill="#000000"></path>
                    <path d="M13,94.5348195 C15.5815071,97.892507 28.8293755,95.4791997 52.7436051,87.2948974 L57,59 C52.0421747,73.1015784 47.1155247,82.0986924 42.22005,85.9913421 C33.8120985,92.6769469 17.9946547,97.5777375 13,94.5348195 Z" id="Shape" fill="#000000"></path>
                    <path d="M104,60.0579602 C101.07212,65.600448 100.344235,70.7375532 99.5787662,76.6438989 C98.9516962,81.4823606 97.5831241,91.4360953 101.929224,88.8573273 C100.356636,93.0698813 95.9843404,100.254023 94.730242,104.687549 C91.933744,114.573811 99.5787662,126.299326 98.2075276,130.127402 C97.4695131,132.187711 85.7407934,137.459518 79.1905996,130.127402 C79.1905996,132.157025 75.8674374,134.616817 71.3757767,134.616817 C64.0199117,134.616817 46.7601196,137.929413 50.909393,125.075015 C55.0586663,112.220616 59.3980466,104.687549 55.8579474,98.7628324 C50.8712864,90.4171468 47.9478765,82.2062831 51.7086741,75.1265347 C54.5224654,69.8295376 53.2104843,64.9254808 53.9150188,60.8118995 C54.6195533,56.6983183 63.4746922,56.3846616 68.201594,55.8260563 C68.546955,54.9498257 69.0991117,55.6494573 69.5037856,55.0145645 C70.7692008,53.0292549 70.9689313,50.0964722 70.1029771,46.2162163 L79.1905996,31.2382042 C83.5573955,30.091878 85.7407934,33.0829593 85.7407934,40.2114481 C85.7407934,47.9754741 87.3835017,49.9162867 88.3212003,53.3604515 C90.733072,53.5873732 102.857071,58.0769351 104,60.0579602 Z" id="Shape" fill="#FFFFFF"></path>
                    <path d="M96.5407151,55.4102186 C93.0721836,53.9986456 89.4651375,52.817067 88.2806337,52.7043503 C88.0302444,52.015299 87.8453487,51.4472313 87.5551414,50.6314113 C87.5093339,50.5026388 87.2908602,49.893823 87.2302889,49.7231608 C86.0915351,46.5146757 85.6216982,43.9865538 85.6216982,39.3544933 C85.6216982,32.2433836 83.5012012,29.2843259 79.2524435,30.3916751 L70.2348186,45.423991 C71.0933574,49.33926 70.889932,52.3074473 69.6170554,54.3272609 C69.4551877,54.5841143 69.278153,54.6657288 68.9866534,54.6835375 C68.5869256,54.7037075 68.4673359,54.7699601 68.3274027,55.1290439 C67.982145,55.2214114 67.6905976,55.2539225 67.3493555,55.2901404 C67.0448856,55.3224554 65.5029523,55.4795183 65.053815,55.5274507 C64.1069065,55.628506 63.3219839,55.7224437 62.569211,55.8284167 C57.3918623,56.5572673 54.4870712,57.8138055 54.0937919,60.1362676 C53.9020409,61.2686301 53.8571875,62.2199984 53.8367772,64.4487508 C53.8149612,66.8310012 53.7663233,67.9256635 53.5611935,69.3330746 C53.2868779,71.2151749 52.7611315,72.926558 51.8852429,74.5942526 C48.5429693,80.9579526 50.191109,88.4639844 56.0183079,98.3277293 C57.6355188,101.065195 57.7132092,104.194579 56.5164623,108.742631 C56.0417748,110.546607 55.4255597,112.427563 54.3013498,115.607456 C54.3516405,115.465206 53.2203099,118.651589 52.8879358,119.600321 C52.323495,121.211466 51.8448832,122.61787 51.3873595,124.022206 C51.2883769,124.326026 51.1909969,124.627944 51.0950551,124.928564 C49.7912559,129.013829 50.5393705,131.663907 53.0461682,133.177714 C55.087762,134.410592 58.1630703,134.864201 62.4684566,134.803266 C63.7642433,134.784927 64.975781,134.73041 66.952467,134.615709 C69.7864188,134.451263 70.3814133,134.422416 71.4011033,134.422416 C75.522531,134.422416 79.0934223,132.169032 79.0934223,129.992624 C79.0934223,129.904331 79.2035856,129.863154 79.2622153,129.929531 C82.1471365,133.195703 86.2866042,134.235378 90.8221214,133.448817 C94.2777449,132.849534 97.6480554,131.101935 98.0521744,129.96088 C98.3372208,129.156033 98.2391,127.954718 97.7935512,126.173631 C97.6111917,125.444646 97.3772398,124.635796 97.0338419,123.524987 C96.9410059,123.224685 96.288242,121.145938 96.0917748,120.504753 C94.7933203,116.267153 94.1202979,113.217444 93.9849876,110.13244 C93.8937694,108.052712 94.0814948,106.12167 94.5845806,104.322843 C95.1057908,102.45921 96.095378,100.207171 97.8925928,96.5800275 C98.0157129,96.3315462 98.1450486,96.0715138 98.2924652,95.7759245 C100.574628,91.1998931 101.109218,90.0931866 101.670593,88.6029781 C100.310138,89.3123163 99.4298435,88.7765033 99.0112742,87.2026534 C98.6576404,85.8729652 98.6262584,83.8435436 98.8406508,81.1794907 C98.9208725,80.182651 99.0314823,79.1385276 99.1792308,77.9256727 C99.216272,77.6216049 99.2550567,77.3114762 99.3003663,76.955458 C99.3178688,76.8179332 99.3355631,76.679649 99.3586306,76.4999199 C99.3550007,76.5282018 99.4018731,76.163196 99.4141379,76.0674808 C99.9395306,71.9672795 100.264808,69.8909188 100.810904,67.560752 C101.502786,64.6085256 102.446653,61.9761183 103.805833,59.363914 C103.238735,58.4810663 100.429195,56.9926963 96.5407151,55.4102186 Z M96.6137937,55.2331493 C100.622341,56.8644901 103.467588,58.3798897 104,59.3132486 C102.636931,62.0174562 101.69118,64.6489126 100.998597,67.6041272 C100.454433,69.9260481 100.129901,71.9976556 99.6053054,76.0916356 C99.5930368,76.187381 99.5461602,76.5524197 99.5497932,76.5241132 C99.5267336,76.7037814 99.5090471,76.8420044 99.4915545,76.9794513 C99.4462846,77.3351568 99.4075406,77.6449607 99.370545,77.9486539 C99.2230846,79.1591442 99.1127321,80.200838 99.0327473,81.1947346 C98.8199978,83.8383734 98.8511204,85.8510214 99.1975951,87.1537908 C99.6089205,88.7004034 100.429287,89.1332795 101.802478,88.3091925 C101.339093,90.0595994 100.8749,91.0290045 98.465157,95.8608504 C98.317809,96.1563023 98.1885444,96.4161917 98.0655047,96.6645107 C96.2736171,100.280902 95.2871728,102.525789 94.7702619,104.37405 C94.2729256,106.152319 94.0871332,108.063477 94.177514,110.124113 C94.311954,113.189276 94.9820294,116.225631 96.2761382,120.449048 C96.4723665,121.089454 97.1250332,123.167891 97.2180657,123.468829 C97.562403,124.582676 97.7971999,125.394448 97.9805762,126.127497 C98.4346808,127.942786 98.5352236,129.173755 98.2339684,130.024368 C97.7996927,131.250572 94.3733877,133.027206 90.8552748,133.637327 C86.3396795,134.420433 82.1997799,133.41438 79.2733881,130.228954 C79.0345474,132.453226 75.4716139,134.613778 71.4011033,134.613778 C70.3869288,134.613778 69.7926044,134.642593 66.9637089,134.806745 C64.9843745,134.9216 63.7705666,134.97622 62.471203,134.99461 C58.131939,135.056023 55.0273846,134.598101 52.9460378,133.341216 C50.3569224,131.7777 49.5825123,129.034474 50.9113508,124.870752 C51.0074101,124.569764 51.1049073,124.267482 51.2040071,123.963303 C51.6620105,122.557494 52.1410565,121.149814 52.7059263,119.537444 C53.0384568,118.588266 54.1699301,115.401481 54.1195204,115.544068 C55.2420704,112.36887 55.857038,110.491722 56.3300132,108.694253 C57.5150665,104.190641 57.438587,101.110035 55.8520898,98.4245586 C53.1055237,93.7754245 51.3232314,89.7357134 50.504041,86.0049197 C49.5666788,81.735943 49.918159,77.9257647 51.7143762,74.5057613 C52.5797021,72.8581779 53.0991294,71.1673645 53.3704718,69.305664 C53.5739676,67.9094644 53.6223374,66.8208332 53.6440763,64.4470106 C53.6645807,62.207983 53.7097322,61.2502892 53.9037511,60.1045347 C54.3174678,57.6613815 57.2804356,56.3796776 62.5421616,55.6389486 C63.2973858,55.5326305 64.0843338,55.4384504 65.0332228,55.3371838 C65.482961,55.2891872 67.0249689,55.1321167 67.328875,55.0998615 C67.645337,55.0662737 67.9188371,55.035895 68.1694192,55.0062489 C68.3351193,54.6122531 68.5253673,54.5151751 68.9170528,54.495631 C69.2097183,54.4781831 69.3293745,54.4230224 69.4536968,54.2257465 C70.6991778,52.2494045 70.8966118,49.3172467 70.0384411,45.4279688 C70.0349491,45.4121429 73.0578009,40.356224 79.1069965,30.2602122 C83.5952899,29.0404444 85.8144071,32.1151632 85.8144071,39.3544933 C85.8144071,43.9639819 86.2802791,46.4707693 87.4120401,49.6595519 C87.4724701,49.829816 87.690913,50.4385458 87.7368471,50.5676741 C88.0186864,51.3599705 88.2020997,51.920985 88.3657347,52.5210014 C89.6374128,52.6711662 93.1893679,53.8395258 96.6137937,55.2331493 Z" id="Shape" fill="#000000"></path>
                    <path d="M73.4765656,51.9046604 C70.8700375,52.5220026 70.5758416,49.9647877 70.5233165,49.2978514 C70.4466794,48.3247541 70.2722405,47.2707624 70,46.1358762 L79.7869709,31.1291395 C84.4898185,29.9806149 85.6178128,36.7023002 81.31064,42.9773749 C77.8256091,48.5173371 75.2142509,51.493099 73.4765656,51.9046604 Z" id="Shape" fill="#000000"></path>
                    <circle id="Shape" fill="#000000" cx="76" cy="118" r="2"></circle>
                    <path d="M86.5368078,37.4972906 C91.4019617,33.7197945 95,28.9252532 95,23.6180609 C95,7.51339049 88.3601712,4 79.1245822,4 C69.8889933,4 60.1139926,8.83289145 60.1139926,18.8764616 C60.1139926,28.9200318 59.6053407,36.2460171 60.7369691,43.676417 L60.7369691,43.676417 C61.2794297,47.2382742 69.1750758,46.4767757 77.2495693,42.9443948" id="Shape" fill="#FFFFFF"></path>
                    <path d="M86.5440819,36.5176151 C86.5027136,36.5497576 86.4437283,36.5414787 86.4123347,36.4991236 C86.380941,36.4567685 86.3890271,36.3963762 86.4303954,36.3642337 C91.7489965,32.2317711 94.8119387,27.4862567 94.8119387,22.6249393 C94.8119387,14.9864152 93.3179248,9.92853063 90.3884857,6.91680963 C87.8304308,4.28690435 84.2142647,3.19254715 79.1139533,3.19254715 C74.356477,3.19254715 69.7064038,4.4739882 66.26574,6.83144391 C62.4435476,9.45031337 60.2972667,13.2275926 60.2972667,17.9049464 C60.2972667,19.8966265 60.281216,21.5757433 60.2405608,24.5882741 C60.1145632,33.9246334 60.1841757,37.2575828 60.7977089,41.7578474 C60.8351221,42.0322736 60.8744842,42.3052736 60.9158492,42.5770714 C61.4190666,45.8835679 68.8679837,45.4274555 77.2118227,41.7746863 C77.2595725,41.7537823 77.3148326,41.7764685 77.3352496,41.8253574 C77.3556665,41.8742462 77.3335088,41.9308245 77.285759,41.9517284 C68.82955,45.653691 61.2642514,46.1169297 60.7300303,42.6067165 C60.6885112,42.3339066 60.6490037,42.0598978 60.6114533,41.784466 C59.9961161,37.2709688 59.926382,33.9321933 60.0525175,24.5856138 C60.0931615,21.573917 60.1092054,19.8955006 60.1092054,17.9049464 C60.1092054,13.1605348 62.2887709,9.32467736 66.1611471,6.67142322 C69.6346655,4.29145638 74.3210822,3 79.1139533,3 C84.2595516,3 87.9222544,4.10844059 90.5217392,6.78093951 C93.4918722,9.83449732 95,14.9401636 95,22.6249393 C95,27.5570629 91.9049645,32.3523004 86.5440819,36.5176151 Z" id="Shape" fill="#000000"></path>
                    <path d="M101.978322,87.2617265 C99.9684504,92.2991561 96.3778273,99.6474576 95.4480852,103.377719 C93.8474674,109.799631 96.9295758,95.2545786 98.5060937,92.7106376 C100.082611,90.1666965 99.4423863,87.9201833 99.7394423,86.9046019 C99.7632233,86.823299 99.3945441,85.4968872 99.4179484,85.4175568 C100.035056,83.3258303 100.918679,83 101.109706,83 C101.364688,84.2376983 102.138732,88.0232128 101.978322,87.2617265 Z" id="Shape" fill="#000000"></path>
                    <circle id="Shape" fill="#000000" cx="72" cy="23" r="1"></circle>
                    <circle id="Shape" fill="#000000" cx="61" cy="23" r="1"></circle>
                    <path d="M63.8122069,31.8227557 C63.8597664,31.8307562 63.8919759,31.8766512 63.884149,31.9252651 C63.876322,31.973879 63.8314225,32.0068027 63.783863,31.9988023 L60.0731776,31.3745884 C60.0123265,31.364352 59.9807754,31.2945859 60.0125702,31.2405728 L64.8379353,23.0432283 C64.8627852,23.0010132 64.9164098,22.9873826 64.9577093,23.0127835 C64.9990087,23.0381843 65.0123437,23.0929979 64.9874938,23.135213 L60.2284484,31.2198936 L63.8122069,31.8227557 Z" id="Shape" fill="#000000"></path>
                    <path d="M62.9577178,12.2562647 C64.0540874,16.1554779 69.3323619,18.4112733 78.7925411,19.0236511 C81.342388,19.1887082 80.7435966,28.6476098 82.5456015,29.451628 C83.0810661,29.6905415 84.2377282,22.5666879 85.8820527,22.119454 C87.5263773,21.6722202 88.8351027,23.9382438 88.8351027,27.8260886 C88.8351027,31.7139334 86.5530644,33.2915169 85.8820527,35.580989 C85.4347116,37.1073037 85.4347116,38.9136407 85.8820527,41 C93.7577689,37.5598779 97.695627,33.0482879 97.695627,27.4652301 C97.695627,19.0906434 100.148155,13.9349853 91.1297302,5.86241512 C85.1174473,0.480701696 78.2399211,-0.43365775 70.4971517,3.11933679 C65.323349,0.242000254 61.4214977,0.551366423 58.7915981,4.04743529 C54.8467485,9.2915386 54.9973663,14.9667799 59.7894348,18.1050844 C60.6441423,14.4103237 61.7002366,12.4607172 62.9577178,12.2562647 Z" id="Shape" fill="#000000"></path>
                    <path d="M84,23.5101498 C84.4170492,22.2104952 85.2040271,21.7497154 86.3609337,22.1278103 C88.0962937,22.6949526 88.6459622,26.8878333 87.0637683,28.8420234 C86.0089725,30.1448168 84.9877163,30.3483194 84,29.4525314" id="Shape" fill="#FFFFFF"></path>
                    <path d="M84.1879919,23.58658 C84.1737692,23.6321079 84.1209512,23.658709 84.0700197,23.6459953 C84.0190882,23.6332816 83.9893299,23.5860674 84.0035526,23.5405395 C84.414671,22.2245196 85.2180928,21.7413168 86.3783995,22.1308372 C88.1342412,22.7202815 88.6030258,26.9136055 87.0925103,28.8300101 C86.0563966,30.1445367 85.0146851,30.3577615 84.026685,29.437344 C83.990073,29.4032364 83.9913245,29.3490557 84.0294803,29.3163281 C84.0676361,29.2836005 84.1282474,29.2847192 84.1648594,29.3188268 C85.0586057,30.1514379 85.962539,29.9664145 86.9359683,28.731416 C88.3828847,26.8957002 87.9288346,22.8341775 86.3110747,22.291088 C85.2673022,21.9406887 84.5714142,22.3592173 84.1879919,23.58658 Z" id="Shape" fill="#000000"></path>
                    <path d="M85.21843,24.9357749 C85.1848978,24.9985393 85.1125996,25.0187628 85.0569474,24.9809453 C85.0012952,24.9431277 84.9833634,24.86159 85.0168955,24.7988256 C85.8184003,23.2985966 86.4560041,22.7105162 86.9532235,23.1337805 C87.0050826,23.1779263 87.0153908,23.2611263 86.9762475,23.3196129 C86.9371041,23.3780995 86.863332,23.389725 86.8114729,23.3455793 C86.4883031,23.0704769 85.94945,23.5674767 85.21843,24.9357749 Z" id="Shape" fill="#000000"></path>
                    <path d="M86.0299688,22.1707035 C85.9970327,22.139484 85.9901948,22.0801541 86.0146958,22.0381866 C86.0391969,21.996219 86.0857589,21.987506 86.1186949,22.0187256 C86.9966854,22.8509569 87.2156486,24.4911689 86.7890677,26.9259066 C86.7801235,26.9769561 86.7403949,27.009101 86.7003313,26.9977042 C86.6602677,26.9863074 86.6350405,26.9356847 86.6439847,26.8846353 C87.059187,24.5148415 86.8500207,22.9480159 86.0299688,22.1707035 Z" id="Shape" fill="#000000"></path>
                    <path d="M61.0277102,37.8373496 C60.9872913,37.7838488 60.9915933,37.7021405 61.0373191,37.6548489 C61.083045,37.6075574 61.1528791,37.6125909 61.193298,37.6660917 C62.4121726,39.2794625 63.9351654,39.0811041 65.8142073,37.0346544 C65.8588789,36.986003 65.9288005,36.9889342 65.9703817,37.0412014 C66.0119629,37.0934687 66.0094577,37.1752794 65.9647861,37.2239309 C64.0041286,39.3592674 62.3411264,39.575861 61.0277102,37.8373496 Z" id="Shape" fill="#000000"></path>
                    <path d="M97.3450114,24 C102.213552,24 107,15.8126645 107,10.3798308 C107,4.94699717 100.31738,0 95.4488389,0 C90.5802981,0 89,6.27199669 89,11.7048303 C89,17.137664 92.4764706,24 97.3450114,24 Z" id="Shape" fill="#000000"></path>
                    <path d="M68,107 C76.7274719,99.26293 91.6887594,79.8555316 90.0794536,62.9210648 C89.6207849,58.0945673 89.8683474,55.1623476 90.8221412,54.1244054 C92.0993634,52.7345005 102.828961,63.3039707 101.948737,70.2054154 C101.361921,74.8063786 99.4843362,76.1970134 96.3159831,74.3773199 C99.0669037,77.4132219 100.231952,80.4251664 99.811128,83.4131532 C99.1798921,87.8951335 85.8154568,100.513545 68,107 Z" id="Shape" fill="#FFFFFF"></path>
                    <path d="M90.2565118,94.3287995 C95.6694102,89.9807113 99.307257,85.6715207 99.6283265,83.3865657 C100.04248,80.4391581 98.8944665,77.4644079 96.1770361,74.4585494 C96.1030954,74.3767607 96.204625,74.2575201 96.3009781,74.3129866 C99.3798373,76.0853587 101.177658,74.7507306 101.753385,70.2262985 C102.140751,67.1821334 100.243532,63.0932317 97.0473451,59.1869542 C94.4031153,55.9552611 91.4298715,53.6580006 90.8622922,54.2770789 C89.9398928,55.2831717 89.6951171,58.1890693 90.1484512,62.9704323 C90.8820471,70.7077476 88.2261958,79.4717965 83.0141767,88.425588 C78.9364864,95.4307021 73.4322142,102.199645 68.5385809,106.639278 C76.5103877,103.667705 84.1207236,99.2575727 90.2565118,94.3287995 Z M99.8232325,83.4124901 C99.4932052,85.7611955 95.8313487,90.0988267 90.3817576,94.4763895 C84.108126,99.5158899 76.2984688,104.013725 68.1335643,106.993352 C68.0322022,107.030342 67.9527536,106.904118 68.0326906,106.833089 C73.0025345,102.417067 78.6715177,95.4975151 82.8430031,88.3312693 C88.0369868,79.408461 90.6819078,70.6804813 89.9525638,62.9880129 C89.4938771,58.1501951 89.7413569,55.2121961 90.7154891,54.1496764 C91.4279028,53.3726223 94.4552721,55.7117026 97.2012516,59.0677509 C100.42741,63.0106581 102.34413,67.1415912 101.948614,70.2498143 C101.387306,74.6609217 99.6136431,76.1789623 96.6780977,74.7330335 C99.1768056,77.6426441 100.227296,80.5368934 99.8232325,83.4124901 Z" id="Shape" fill="#000000"></path>
                    <path d="M73,108 C72.5878488,107.798576 56.9760381,86.5782253 60.5,75.2250038 C62.8493079,67.6561895 64.2423072,63.9937509 64.6789977,64.237688 L67.438263,59.8171561 L66.9917511,55 C58.2429898,60.2987346 53.2910499,63.9166496 52.1359315,65.8537451 C50.980813,67.7908405 51.5583722,70.4450057 53.8686091,73.8162407 C49.956203,75.3946614 48,77.9559146 48,81.5 C48,86.8161282 50.5883385,100.226305 73,108 Z" id="Shape" fill="#FFFFFF"></path>
                    <path d="M52.1186721,65.8602407 C53.2768316,63.9105171 58.1955565,60.3029396 66.8953144,55.0134605 C66.9542369,54.9776354 67.029299,55.0170909 67.0357812,55.0872953 L67.4789452,59.8868639 C67.4802656,59.9011636 66.562623,61.3896623 64.7260176,64.3523602 C64.6995766,64.3948846 64.6457613,64.4091271 64.6027207,64.3849913 C64.4814582,64.316991 64.017659,65.1868894 63.3724089,66.8899404 C62.6820077,68.7121619 61.7540066,71.5080348 60.5887138,75.2768349 C59.0646912,80.2058421 61.0027962,87.3716615 65.3202517,95.6964944 C66.8638888,98.6729053 68.622417,101.610884 70.3801181,104.252086 C71.0445574,105.250503 71.6716947,106.148687 72.1864135,106.847872 C72.5935475,107.400916 72.9130418,107.79972 72.9461203,107.815949 C73.0521296,107.867958 72.9873051,108.032899 72.8760769,107.994169 C62.8296212,104.495954 56.0712703,99.6319658 52.0821613,93.8388241 C49.1951141,89.64614 48,85.3431849 48,81.4996701 C48,77.9597805 49.9302236,75.3894103 53.7737336,73.7994006 C51.5183345,70.4596844 50.9598201,67.8111299 52.1186721,65.8602407 Z M70.2260405,104.361062 C68.4646551,101.714325 66.702569,98.770401 65.1554721,95.7873192 C60.8156451,87.41935 58.8664772,80.2126274 60.4106862,75.2183332 C61.5770859,71.445953 62.5062082,68.6467022 63.1983614,66.8198567 C63.8683513,65.0515082 64.2963019,64.2021283 64.6030842,64.1931207 L67.2898762,59.8720114 L66.8636945,55.2563654 C58.2758554,60.4837768 53.4072408,64.0598339 52.2780205,65.9608393 C51.1555,67.8505656 51.7206049,70.4575633 53.9944356,73.7885337 C54.0292808,73.8395789 54.0085473,73.9107864 53.9521937,73.9336098 C50.102825,75.4926184 48.1868531,78.0109208 48.1868531,81.4996701 C48.1868531,85.3050275 49.3711378,89.5689921 52.2345266,93.7273185 C56.1537413,99.4189569 62.7699635,104.213843 72.5900147,107.690238 C72.1307751,107.12112 71.1948683,105.816867 70.2260405,104.361062 Z" id="Shape" fill="#000000"></path>
                    <path d="M70.9309736,66.2788964 L71.9755193,69.5160966 C65.9918398,80.2528828 63,87.5765223 63,91.4870149 C63,95.3975075 65.1215364,100.235169 69.3646093,106 L74.1604319,101.472951 C72.2456966,93.8259085 71.5173924,88.1682582 71.9755193,84.5 C72.4336462,80.8317418 73.1619504,76.0327048 74.1604319,70.1028889 L80,65.6115918 L74.677348,63 L70.9309736,66.2788964 Z" id="Shape" fill="#000000"></path>
                    <path d="M75,63.8320528 C83.5618954,57.1788589 87.8428431,52.8692455 87.8428431,50.9032127 C87.8428431,47.9541634 94,52.9889465 94,55.1219924 C94,57.2550382 89.8101587,68.7496811 83.7049155,69.8522135 C79.6347533,70.587235 76.7331148,68.5805148 75,63.8320528 Z" id="Shape" fill="#FFFFFF"></path>
                    <path d="M83.6955965,69.6512973 C86.3566774,69.1463586 88.8733128,66.4710942 90.9911908,62.4421601 C92.5808218,59.4181341 93.8090403,55.7309735 93.8090403,54.4259642 C93.8090403,53.4315955 92.441287,51.6243369 90.7987637,50.3274487 C90.0107331,49.7052429 89.2753761,49.3015209 88.7465209,49.2142744 C88.191806,49.1227617 87.9047275,49.3743053 87.9047275,50.0377077 C87.9047275,52.1250735 83.6816915,56.5964628 75.2085183,63.51905 C76.9120189,68.3683717 79.7344312,70.4029265 83.6955965,69.6512973 Z M75.0361413,63.4089504 C83.4788012,56.5155768 87.7137678,52.0359625 87.7137678,50.0377077 C87.7137678,49.2533058 88.1060441,48.9095859 88.776747,49.0202334 C89.3436612,49.1137586 90.1040314,49.5312132 90.9150041,50.1715334 C92.601311,51.502992 94,53.3511269 94,54.4259642 C94,55.7705621 92.7625424,59.4854587 91.1591493,62.5356653 C89.0162761,66.6121486 86.4633989,69.3259392 83.7302225,69.8445581 C79.6508581,70.6186154 76.7359389,68.5004381 75.0055775,63.5190005 C74.9918102,63.4793666 75.0041012,63.4351109 75.0361413,63.4089504 Z" id="Shape" fill="#000000"></path>
                    <path d="M75,63.2471621 C72.2008372,67.4719069 69.3289009,68.8801552 66.3841909,67.4719069 C61.9671259,65.3595345 64.8778062,59.054505 65.7354041,56.5029687 C66.5930019,53.9514323 70.3523094,52.3237396 71.1561849,53.2742071 C71.3123247,53.45882 70.2555877,53.8391362 71.3917137,56.5029687 C72.149131,58.278857 73.3518931,60.5269214 75,63.2471621 Z" id="Shape" fill="#FFFFFF"></path>
                    <path d="M74.7742843,63.2102205 C73.0221439,60.5426746 71.7416694,58.335522 70.9326793,56.5879828 C70.2733814,55.1638011 70.2217128,54.2942245 70.5306777,53.6865325 C70.5689606,53.6112353 70.6805774,53.4301633 70.6699543,53.4488555 C70.3204092,53.0138262 69.1709829,53.1438635 67.9419065,53.7429018 C66.5863323,54.4035937 65.4774553,55.4482646 65.0641252,56.5812345 C64.9704865,56.8379056 64.4122963,58.2489951 64.2495469,58.6865553 C63.8159857,59.8522066 63.5196023,60.8433703 63.3520053,61.7917809 C62.8809087,64.4576584 63.5342859,66.3439168 65.7066848,67.3010658 C68.7943275,68.6614671 71.8102354,67.3097289 74.7742843,63.2102205 Z M74.9834279,63.2629552 C71.9578069,67.470126 68.8283608,68.8838843 65.6151992,67.4681799 C63.3448339,66.4678674 62.6632643,64.5002192 63.1470335,61.7626291 C63.3167131,60.8024334 63.6158223,59.802154 64.0526857,58.6276245 C64.2163377,58.1876377 64.7742587,56.7772286 64.8668886,56.5233228 C65.2984527,55.3403721 66.4441581,54.2610053 67.842835,53.5793055 C69.1509007,52.9417687 70.3940069,52.8011332 70.8561445,53.3045446 C70.9180015,53.3719261 70.9076451,53.4405107 70.8548422,53.533422 C70.8622233,53.5204344 70.7537919,53.6963389 70.7194956,53.7637951 C70.4369613,54.3195016 70.4855125,55.1366131 71.1243395,56.5165745 C71.9340961,58.2657695 73.2212465,60.4822383 74.9856059,63.1651865 C75.0055548,63.1955215 75.0047119,63.2333594 74.9834279,63.2629552 Z" id="Shape" fill="#000000"></path>
                    <path d="M95.3714412,68.2179217 C94.9631052,67.8388675 94.8809152,67.2098879 95.1773422,66.7325311 L114.221316,36.0647146 C114.809563,35.1174202 115.972214,34.7448059 116.976095,35.1818444 L138.314999,44.4717113 C138.730104,44.6524268 139,45.072518 139,45.5379095 L139,46.9784713 L118.436423,76.5184713 C118.145473,76.9364276 117.622222,77.1054808 117.152635,76.9332408 L96.6647355,69.4184737 L95.3714412,68.2179217 Z" id="Shape" fill="#FFFFFF"></path>
                    <path d="M94.4098016,68.2334706 C93.9592949,67.8247055 93.8686167,67.1464254 94.1956572,66.6316525 L113.590179,36.1040084 C114.214215,35.1217537 115.447603,34.7353878 116.512561,35.1885554 L138.244255,44.4359615 C138.70223,44.6308418 139,45.0838604 139,45.5857302 L139,47.0197076 C139,47.0331143 132.01334,56.8534545 118.040021,76.4807282 C117.719023,76.9314447 117.141733,77.1137486 116.62365,76.928008 L95.7586244,69.4475886 L94.4098016,68.2334706 Z M138.809923,45.5857302 C138.809923,45.1610711 138.557964,44.7777477 138.170447,44.612849 L116.438753,35.3654429 C115.458991,34.9485287 114.324274,35.3039853 113.750161,36.2076597 L94.3556393,66.7353037 C94.0789128,67.1708808 94.1556404,67.7448101 94.5368384,68.0906883 L95.8399449,69.2730557 L116.687242,76.7471193 C117.12562,76.9042843 117.614096,76.7500272 117.88571,76.3686517 L138.809923,46.9887786 L138.809923,45.5857302 Z" id="Shape" fill="#000000"></path>
                    <path d="M95.7152572,69.1149926 C95.6487603,69.0878563 95.5849301,69.054412 95.5246139,69.0151036 C94.9946295,68.6697102 94.8406349,67.9532897 95.1806573,67.4149336 L114.348995,37.0657831 C114.947901,36.117538 116.131619,35.7445498 117.15369,36.1820268 L138.302468,45.2343381 C138.369657,45.2630969 138.433975,45.298336 138.494538,45.3395713 C139.017593,45.6956973 139.157406,46.4151124 138.806817,46.9464297 L118.655002,77.486559 C118.355052,77.9411346 117.782805,78.1204058 117.282905,77.9164045 L95.7152572,69.1149926 Z" id="Shape" fill="#FFFFFF"></path>
                    <path d="M95.5658876,69.0409918 C94.994207,68.6685275 94.8280969,67.8959563 95.1948704,67.3154056 L114.280773,37.1051112 C114.90195,36.1218753 116.129687,35.7351235 117.189765,36.1887438 L138.24759,45.1996381 C138.320065,45.2306508 138.389443,45.2686519 138.454772,45.313119 C139.018978,45.6971571 139.169789,46.4729576 138.791619,47.0459178 L118.726469,77.4463171 C118.40292,77.9365209 117.785653,78.1298428 117.246423,77.9098526 L95.7715296,69.1487097 C95.699801,69.1194465 95.6309491,69.0833809 95.5658876,69.0409918 Z M117.316955,77.7315606 C117.773227,77.9177062 118.29553,77.7541261 118.569302,77.3393383 L138.634452,46.938939 C138.954442,46.4541265 138.826832,45.7976799 138.349427,45.4727246 C138.294149,45.4350985 138.235445,45.4029438 138.17412,45.3767023 L117.116295,36.365808 C116.141023,35.9484773 115.011505,36.3042889 114.440022,37.208866 L95.3541195,67.4191604 C95.0437727,67.9103956 95.1843274,68.5641097 95.6680571,68.8792718 C95.7231091,68.9151395 95.7813685,68.9456565 95.8420619,68.9704177 L117.316955,77.7315606 Z" id="Shape" fill="#000000"></path>
                    <circle id="Shape" fill="#000000" cx="117" cy="39" r="1"></circle>
                    <path d="M118.514146,54.7468322 C116.949022,53.7212323 114.824433,54.1224398 113.768743,55.6429541 C112.713054,57.1634685 113.126032,59.2275018 114.691156,60.2531017 C115.804916,60.9829301 117.236763,61.0046534 118.363987,60.3470327 C117.621362,59.503995 117.536077,58.2677332 118.187904,57.3289038 C118.565845,56.7845539 119.137958,56.4162886 119.783538,56.2830426 C119.532952,55.663 119.096225,55.128259 118.514146,54.7468322 Z M119.923217,56.4391289 C119.282392,56.5437969 118.711054,56.8950326 118.340427,57.4288493 C117.715663,58.3286994 117.820314,59.5229879 118.572723,60.3057503 C118.611869,60.3464763 118.603524,60.4116958 118.555306,60.4418714 C117.353538,61.193945 115.794005,61.19137 114.588278,60.4012771 C112.938918,59.3204788 112.503713,57.1453579 113.616221,55.5430086 C114.728728,53.9406592 116.967664,53.5178585 118.617024,54.5986568 C119.262366,55.0215386 119.738434,55.6236762 119.994601,56.3209605 C120.013847,56.3733486 119.979681,56.4299064 119.923217,56.4391289 Z" id="Shape" fill="#000000"></path>
                    <path d="M114.704993,89.6016259 L112.377333,98.1930364 L110.966569,101.855623 C119.767445,102.528644 123.739309,100.848674 122.882161,96.8157128 C122.701783,95.9670171 122.382069,94.6359083 121.92302,92.8223862 L123.432399,74.1593279 C123.8108,70.8013364 124,68.510595 124,67.2871037 C124,65.4518666 122.215149,57.9025182 120.977883,60.5613611 C120.567274,61.4437464 121.197705,65.036777 120.977883,67.2871037 C120.830042,68.8005682 120.39015,71.0913096 119.658208,74.1593279 C119.408465,70.7906606 119.081617,68.4999192 118.677665,67.2871037 C117.05812,62.4246265 114.922107,60.521809 114.40855,60.9866501 C113.946494,61.4048753 114.630033,64.0205213 116.069041,67.9700992 C116.547298,69.2827461 116.547298,71.3458223 116.069041,74.1593279 C112.718542,66.728228 110.612002,63.4094199 109.749423,64.2029036 C108.886844,64.9963873 110.086742,68.9808019 113.349115,76.1561473 C112.494018,76.2681424 111.596215,75.7701428 110.655706,74.6621485 C109.244942,73.000157 107.349562,69.9140178 106.293083,69.9140178 C105.588764,69.9140178 106.153876,71.4230293 107.988418,74.4410523 L110.227313,78.4032467 C110.434555,79.3714742 110.680974,80.5896913 110.966569,82.0578982 C111.252165,83.5261051 112.498306,86.040681 114.704993,89.6016259 Z" id="Shape" fill="#FFFFFF"></path>
                    <path d="M110.915449,82.0721689 C110.63439,80.6185407 110.391716,79.4112961 110.187443,78.4505096 L107.980996,74.5220101 C107.070548,73.0151604 106.474619,71.8841152 106.192441,71.1260611 C105.892249,70.3196104 105.933538,69.869332 106.385041,69.869332 C106.998963,69.869332 107.749589,70.6493242 109.115637,72.4666891 C109.187791,72.562681 109.263074,72.6632991 109.353287,72.7842278 C110.257225,73.9959352 110.419866,74.2096337 110.774128,74.6295079 C111.637066,75.6522689 112.45379,76.1369928 113.223914,76.095648 C110.007306,68.962938 108.840392,65.0426432 109.740344,64.2097702 C110.239926,63.7474258 111.012139,64.4081903 112.08855,66.1143149 C113.106283,67.7274332 114.414682,70.3098921 116.014797,73.8630808 C116.433505,71.2369565 116.416576,69.3024336 115.967966,68.0637052 C114.448728,63.8686948 113.862277,61.4525746 114.350742,61.0077704 C114.687779,60.700859 115.412626,61.1637005 116.191349,62.1670733 C117.099504,63.3372178 117.995609,65.1048404 118.729061,67.3202603 C119.106921,68.4616031 119.415568,70.5431073 119.656763,73.5694083 C120.295887,70.8189842 120.683482,68.7424818 120.819524,67.3413897 C120.88289,66.6887826 120.879881,65.9026463 120.826415,64.836288 C120.812753,64.5638166 120.797588,64.3012801 120.772538,63.8919083 C120.637058,61.6778229 120.631189,61.0407546 120.828027,60.6151977 C121.143696,59.9327308 121.555784,59.82253 121.967467,60.2624377 C122.296578,60.6141117 122.633298,61.3219914 122.958976,62.294998 C123.522433,63.9784042 124,66.3574601 124,67.3507832 C124,68.5733881 123.812589,70.8561995 123.438093,74.1992258 L121.945967,92.7605813 C122.398346,94.558954 122.713618,95.8797919 122.891891,96.7236557 C123.759539,100.830726 119.764604,102.530678 111.001829,101.856516 C110.938061,101.85161 110.897042,101.785999 110.920097,101.725782 L112.31286,98.089475 L114.604993,89.578005 C112.429362,86.0425778 111.200001,83.5438606 110.915449,82.0721689 Z M122.705296,96.7638243 C122.527142,95.9205215 122.211054,94.596546 121.757141,92.7924637 L123.248218,74.1806177 C123.622224,70.8415442 123.809209,68.5639197 123.809209,67.3507832 C123.809209,66.381276 123.335575,64.0218112 122.778223,62.3566476 C122.460866,61.4084986 122.133526,60.7203383 121.828777,60.394696 C121.516897,60.0614338 121.263369,60.1292322 121.000902,60.6966788 C120.825469,61.0759597 120.83151,61.7317067 120.962966,63.8800347 C120.988056,64.2900666 121.003256,64.5531951 121.016962,64.8265526 C121.070869,65.9016909 121.073908,66.6958602 121.009405,67.3601768 C120.862607,68.8720434 120.426658,71.1559927 119.701526,74.2138551 C119.676173,74.3207708 119.521698,74.3082138 119.513619,74.1985806 C119.267081,70.853019 118.944531,68.5787207 118.548107,67.3813061 C117.821204,65.185665 116.934964,63.4375011 116.041161,62.2858497 C115.328851,61.3680496 114.688771,60.9593347 114.478538,61.1507765 C114.088984,61.5055105 114.684368,63.9584336 116.147158,67.9975771 C116.627346,69.3235014 116.627346,71.3919497 116.151599,74.2076277 C116.135778,74.3012655 116.009433,74.3176746 115.970647,74.2311291 C114.314836,70.5364717 112.966783,67.8648517 111.927625,66.2177735 C110.919785,64.6203363 110.223147,64.0242392 109.869276,64.3517333 C109.067501,65.0937464 110.256321,69.0652612 113.453205,76.1391147 C113.479839,76.198049 113.442393,76.2661861 113.378762,76.2745705 C112.494752,76.3910531 111.578277,75.8796203 110.628879,74.7543873 C110.270961,74.3301796 110.10798,74.1160348 109.200878,72.9000855 C109.110793,72.7793286 109.035642,72.6788871 108.963647,72.5831055 C107.653761,70.8404583 106.904541,70.061927 106.385041,70.061927 C106.139678,70.061927 106.1121,70.3626882 106.37104,71.0583167 C106.647995,71.8023419 107.239198,72.9244154 108.145424,74.4243716 L110.360628,78.368364 C110.576102,79.3600786 110.820027,80.5732653 111.102707,82.0352747 C111.382347,83.4815668 112.611589,85.977051 114.788958,89.5119456 C114.798288,89.5270923 114.033267,92.4062608 112.493896,98.1494513 L111.144395,101.674188 C119.707187,102.313847 123.529705,100.666221 122.705296,96.7638243 Z" id="Shape" fill="#000000"></path>
                    <path d="M108.483461,97.5189846 C106.280839,99.1879528 104.66819,105.862555 105.058394,108.637866 C105.836654,114.173198 108.231316,120.144059 113.261536,120.93385 C118.291756,121.723641 123.145027,115.298633 124.719813,109.282231 C125.682939,105.602649 123.930789,104.766461 122.967663,99.7623824 C122.808712,98.9365246 122.60009,95.8814321 122.391864,95 C121.507655,95.7878902 120.367421,97.5189846 117.15847,97.5189846 C115.01917,97.5189846 113.365527,96.9232254 112.197543,95.731707 L110.378039,100.501218" id="Shape" fill="#FFFFFF"></path>
                    <path d="M110.517227,100.586229 C110.49901,100.634121 110.443824,100.658759 110.393967,100.641259 C110.344111,100.623759 110.318462,100.570748 110.33668,100.522856 L112.138081,95.7872194 C112.162645,95.7226457 112.249433,95.7055907 112.298422,95.7557106 C113.43534,96.9188726 115.04697,97.5011657 117.139923,97.5011657 C118.890444,97.5011657 120.098219,97.0069525 121.157111,96.0847136 C121.427142,95.8495309 122.155946,95.1140166 122.255783,95.0247989 C122.310053,94.9763018 122.39863,95.0025741 122.414989,95.0720199 C122.506722,95.4761101 122.588222,96.1509285 122.716567,97.4317796 C122.903974,99.3020535 122.922592,99.474674 122.985837,99.8042165 C123.179419,100.812899 123.414231,101.705237 123.706323,102.59952 C123.824165,102.960309 124.633903,105.159242 124.78438,105.734418 C125.082975,106.875758 125.080759,107.910583 124.719261,109.295644 C123.922237,112.349395 122.304674,115.43477 120.309509,117.652192 C118.117874,120.087969 115.649747,121.30848 113.266214,120.933167 C108.813577,120.232051 106.009882,115.38558 105.064985,108.645725 C104.629048,105.536231 106.454869,99.0687878 108.491597,97.5210825 C108.533227,97.489448 108.593671,97.4962211 108.626604,97.5362106 C108.659536,97.5762001 108.652485,97.6342628 108.610855,97.6658973 C106.635406,99.1670373 104.827757,105.570112 105.255488,108.621081 C106.190286,115.288898 108.954503,120.067129 113.297308,120.75095 C115.603923,121.114152 118.011881,119.923395 120.164078,117.531448 C122.139011,115.336514 123.742905,112.277211 124.532808,109.25074 C124.886641,107.895051 124.88879,106.891108 124.597953,105.779422 C124.450096,105.214256 123.643137,103.022871 123.522916,102.654797 C123.228566,101.753604 122.991851,100.854031 122.796799,99.837693 C122.731945,99.4997604 122.714032,99.3336775 122.525229,97.4494711 C122.413076,96.3302134 122.336613,95.6743354 122.262396,95.2798443 C122.018484,95.5192309 121.507495,96.0287933 121.286226,96.2215067 C120.193551,97.1731689 118.940731,97.6858141 117.139923,97.6858141 C115.061421,97.6858141 113.434736,97.1207101 112.265902,95.9892026 L110.517227,100.586229 Z" id="Shape" fill="#000000"></path>
                    <path d="M111.011357,100.150516 C110.985686,100.099992 111.005003,100.037793 111.054505,100.011592 C111.104006,99.9853897 111.164945,100.005107 111.190616,100.055631 C111.204761,100.083468 111.234024,100.137227 111.278526,100.213196 C111.35323,100.340724 111.443418,100.483068 111.549201,100.636519 C111.851834,101.075523 112.218269,101.514698 112.649282,101.924452 C113.711358,102.934141 114.982899,103.598557 116.470391,103.757496 C118.358097,103.959198 120.479292,103.329424 122.842521,101.700643 C122.888734,101.668792 122.951494,101.681209 122.982699,101.728377 C123.013905,101.775544 123.001739,101.839601 122.955527,101.871451 C120.554947,103.525974 118.387278,104.169547 116.449367,103.96248 C114.914632,103.798493 113.603797,103.113544 112.511651,102.075269 C112.069765,101.655179 111.694345,101.205234 111.384052,100.75512 C111.275312,100.597379 111.182415,100.45076 111.10521,100.318961 C111.058566,100.239334 111.02733,100.181953 111.011357,100.150516 Z" id="Shape" fill="#000000"></path>
                    <path d="M18.0697179,51.3334421 C18.0235876,51.3168315 17.9929941,51.2293397 18.0013854,51.1380238 C18.0097766,51.046708 18.0539751,50.9861475 18.1001054,51.0027582 C20.5458813,51.8834385 22.4762375,51.8834385 23.8897224,51.0077167 C23.9344693,50.9799939 23.9820969,51.0293262 23.9961017,51.1179035 C24.0101066,51.2064809 23.9851852,51.3007608 23.9404384,51.3284836 C22.4966004,52.2230106 20.5401774,52.2230106 18.0697179,51.3334421 Z" id="Shape" fill="#000000"></path>
                    <path d="M72.0486269,108.181641 C72.0065738,108.1595 71.9883041,108.102876 72.0078204,108.055167 C72.0273366,108.007458 72.0772483,107.986731 72.1193014,108.008872 C76.7004971,110.420883 79,113.09263 79,116.033329 L79,129.904766 C79,129.957362 78.962417,130 78.916056,130 C78.869695,130 78.832112,129.957362 78.832112,129.904766 L78.832112,116.033329 C78.832112,113.186083 76.5768869,110.565781 72.0486269,108.181641 Z" id="Shape" fill="#000000"></path>
                    <path d="M25.7682062,74.0817281 C25.7686688,74.0362635 25.820932,73.9996736 25.8849392,74 C25.9489464,74.0003308 26.0004595,74.0374535 26,74.082918 C25.9772889,76.3146292 25.7200047,77.9341302 25.2254016,78.944687 C25.204383,78.9876316 25.1383318,79.0103423 25.0778723,78.9954127 C25.0174128,78.980483 24.9854396,78.9335667 25.0064583,78.8906221 C25.4908364,77.9009565 25.7456665,76.2969033 25.7682062,74.0817281 Z" id="Shape" fill="#000000"></path>
                    <path d="M18.3863606,23.1260524 C21.0148457,25.3529666 22.2094023,26.872461 21.9700305,27.6845355 C21.7306586,28.4966101 20.0557397,27.7408415 16.9452738,25.4172299 C16.0632468,24.7308643 15.7984788,24.112085 16.1509697,23.5608918 C16.5034605,23.0096986 17.2485908,22.8647521 18.3863606,23.1260524 Z" id="Shape" fill="#FFFFFF"></path>
                    <path d="M16.3023432,23.6921344 C15.9964761,24.1655516 16.2306873,24.7073444 17.0517436,25.3397796 C18.5580214,26.4535571 19.7157665,27.1909767 20.5226979,27.5513784 C21.2951511,27.8963811 21.7114175,27.8842619 21.8051238,27.5695979 C22.0186391,26.8526178 20.8749075,25.41058 18.3693544,23.3074684 C17.3039274,23.0686195 16.6182902,23.2031158 16.3023432,23.6921344 Z M18.4557072,23.1400977 C21.0459692,25.3122833 22.2178569,26.7877643 21.9667677,27.6309167 C21.8279539,28.0970505 21.3144722,28.112 20.4599494,27.7303424 C19.6399047,27.3640838 18.4734457,26.621114 16.9569541,25.4997638 C16.065788,24.8133476 15.7856206,24.1652458 16.1645558,23.5787348 C16.5315701,23.0106749 17.2873738,22.8651492 18.42169,23.1230038 L18.4557072,23.1400977 Z" id="Shape" fill="#000000"></path>
                    <path d="M14.3863606,29.1008419 C17.0148457,30.8823733 18.2094023,32.0979688 17.9700305,32.7476284 C17.7306586,33.397288 16.0557397,32.7926732 12.9452738,30.9337839 C12.0632468,30.3846915 11.7984788,29.889668 12.1509697,29.4487134 C12.5034605,29.0077589 13.2485908,28.8918017 14.3863606,29.1008419 Z" id="Shape" fill="#FFFFFF"></path>
                    <path d="M12.2990128,29.579286 C12.004615,29.9414452 12.2316434,30.358852 13.0471474,30.8581074 C15.9953902,32.590756 17.6092544,33.1636459 17.8068333,32.6363279 C18.0135596,32.0845965 16.8697247,30.9385194 14.3747971,29.2741615 C13.3057853,29.0833943 12.6147347,29.1908943 12.2990128,29.579286 Z M14.4507322,29.110119 C17.0513045,30.8434283 18.2229463,32.0158838 17.9651232,32.7039875 C17.6977575,33.4175594 16.0583374,32.8355977 12.9636606,31.0168757 C12.0672524,30.4681079 11.7800077,29.9399893 12.1702718,29.4598981 C12.5375818,29.0080444 13.2883224,28.8931565 14.41982,29.0975882 L14.4507322,29.110119 Z" id="Shape" fill="#000000"></path>
                    <path d="M16.3863606,25.1260524 C19.0148457,27.3529666 20.2094023,28.872461 19.9700305,29.6845355 C19.7306586,30.4966101 18.0557397,29.7408415 14.9452738,27.4172299 C14.0632468,26.7308643 13.7984788,26.112085 14.1509697,25.5608918 C14.5034605,25.0096986 15.2485908,24.8647521 16.3863606,25.1260524 Z" id="Shape" fill="#FFFFFF"></path>
                    <path d="M14.3023432,25.6921344 C13.9964761,26.1655516 14.2306873,26.7073444 15.0517436,27.3397796 C16.5580214,28.4535571 17.7157665,29.1909767 18.5226979,29.5513784 C19.2951511,29.8963811 19.7114175,29.8842619 19.8051238,29.5695979 C20.0186391,28.8526178 18.8749075,27.41058 16.3693544,25.3074684 C15.3039274,25.0686195 14.6182902,25.2031158 14.3023432,25.6921344 Z M16.4557072,25.1400977 C19.0459692,27.3122833 20.2178569,28.7877643 19.9667677,29.6309167 C19.8279539,30.0970505 19.3144722,30.112 18.4599494,29.7303424 C17.6399047,29.3640838 16.4734457,28.621114 14.9569541,27.4997638 C14.065788,26.8133476 13.7856206,26.1652458 14.1645558,25.5787348 C14.5315701,25.0106749 15.2873738,24.8651492 16.42169,25.1230038 L16.4557072,25.1400977 Z" id="Shape" fill="#000000"></path>
                    <polygon id="Shape" fill="#FFFFFF" points="103 43.9587732 76.4921329 76.0350437 54.7838711 50.7676026 30.9405239 65.031761 11.5957069 30.8892031 14.2323996 28.8426721 0 23 0 38.8429218 3.23242982 36.9301411 29.7677114 73.9992983 54.0516743 57.3723221 75.7292373 80 102.177675 46.440912 102.177675 53.2642438 102.664145 52.4468141"></polygon>
                    <path d="M102.98801,43.8756856 C103.026902,43.8286589 102.971179,46.6767894 102.820841,52.4200771 C102.820415,52.4308226 102.653803,52.7182244 102.321005,53.2822825 C102.287816,53.3380105 102.228761,51.1413067 102.143842,46.692171 L75.87421,79.9999087 C75.8503051,80.0302181 68.5976793,72.5174077 54.1163327,57.4614776 L29.9068081,74.0253168 C29.8783452,74.0447908 21.0094723,61.7174386 3.30018938,37.0432602 L0.143648112,38.9097627 C0.10125714,38.9348291 0.0533744355,33.6318388 0,23.0007919 C0,22.9552837 4.7863421,24.8710845 14.3590263,28.7481943 C14.4044918,28.7668451 13.5552591,29.4863356 11.8113282,30.9066658 L31.0603775,64.8552559 L54.8124563,50.6561308 C54.838912,50.6403154 62.0883519,59.0319074 76.5607758,75.8309069 L102.98801,43.8756856 Z M76.6354545,76.0409067 C76.6103489,76.0712638 69.3456055,67.6784574 54.8412243,50.8624874 L31.0743195,65.0704756 C31.0437684,65.0887392 24.5538077,53.7083458 11.6044373,30.9292956 C11.5886728,30.9014925 12.4316068,30.2127826 14.1332394,28.863166 L0.190766312,23.1437166 L0.190766312,38.6589763 L3.27847768,36.8331737 C3.3067575,36.8164515 12.1727081,49.1433192 29.8763296,73.8137768 L54.0755891,57.2569608 C54.1011737,57.2394562 61.3401637,64.7519509 75.7925589,79.794445 L102.164559,46.3569121 C102.202025,46.3094084 102.258708,48.4857202 102.334608,52.8858475 L102.631199,52.3878426 L102.954773,44.2161747 L76.6354545,76.0409067 Z M102.643753,52.3667629 L102.630226,52.4124092 L102.631199,52.3878426 L102.643753,52.3667629 Z" id="Shape" fill="#000000"></path>
                </g>
            </g>
        </g>
    </g>
</svg>