<?xml version="1.0" encoding="UTF-8"?>
<svg width="588px" height="202px" viewBox="0 0 588 202" version="1.1" xmlns="http://www.w3.org/2000/svg" xmlns:xlink="http://www.w3.org/1999/xlink">
    <!-- Generator: Sketch 63.1 (92452) - https://sketch.com -->
    <title>Group 13</title>
    <desc>Created with Sketch.</desc>
    <g id="Mood-board" stroke="none" stroke-width="1" fill="none" fill-rule="evenodd">
        <g id="EDUbots-website-v.1-Copy" transform="translate(-717.000000, -1018.000000)">
            <g id="Group-13" transform="translate(720.000000, 1021.000000)">
                <g id="Card/OurGoals">
                    <g id="Increased-student-engagement">
                        <rect id="Rectangle" stroke="#C5E8FC" stroke-width="2.5" fill-opacity="0.5" fill="#C5E8FC" x="-1.25" y="-1.25" width="584.5" height="198.5" rx="5"></rect>
                        <text id="We-want-our-work-to" font-family="SourceSansPro-Regular, Source Sans Pro" font-size="18" font-weight="normal" line-spacing="32" fill="#0F2522">
                            <tspan x="181" y="88">We intend to create mental health checks for </tspan>
                            <tspan x="181" y="120">students and university staff</tspan>
                        </text>
                        <text id="Increased-student-en" font-family="SourceSansPro-Bold, Source Sans Pro" font-size="20" font-weight="bold" line-spacing="48" fill="#0F2522">
                            <tspan x="181" y="41">Mental health checks</tspan>
                        </text>
                    </g>
                </g>
                <g id="Research" transform="translate(36.000000, 45.000000)" fill-rule="nonzero">
                    <circle id="Shape" fill="#000000" cx="68.5" cy="41.5" r="40.5"></circle>
                    <path d="M35.384289,71.0912948 L37.9087052,73.615711 C40.6970983,76.4041041 40.6970983,80.9249826 37.9087052,83.7133757 L17.7133757,103.908705 C14.9249826,106.697098 10.4041041,106.697098 7.61571102,103.908705 L5.09129484,101.384289 C2.30290172,98.5958959 2.30290172,94.0750174 5.09129484,91.2866243 L25.2866243,71.0912948 C28.0750174,68.3029017 32.5958959,68.3029017 35.384289,71.0912948 Z" id="Shape" fill="#000000"></path>
                    <path d="M66.5,81 C44.1324676,81 26,62.8675324 26,40.5 C26,18.1324676 44.1324676,0 66.5,0 C88.8675324,0 107,18.1324676 107,40.5 C107,62.8675324 88.8675324,81 66.5,81 Z" id="Shape" fill="#000000"></path>
                    <path d="M67.5,81 C89.3152476,81 107,63.3152476 107,41.5 C107,19.6847524 89.3152476,2 67.5,2 C45.6847524,2 28,19.6847524 28,41.5 C28,63.3152476 45.6847524,81 67.5,81 Z" id="Shape" fill="#FFFFFF"></path>
                    <circle id="Shape" fill="#000000" cx="67.5" cy="41.5" r="32.5"></circle>
                    <path d="M68.5,74 C51.1030304,74 37,59.8969696 37,42.5 C37,25.1030304 51.1030304,11 68.5,11 C85.8969696,11 100,25.1030304 100,42.5 C100,59.8969696 85.8969696,74 68.5,74 Z" id="Shape" fill="#000000"></path>
                    <path d="M67.5,72 C84.3446849,72 98,58.5685425 98,42 C98,25.4314575 84.3446849,12 67.5,12 C50.6553151,12 37,25.4314575 37,42 C37,58.5685425 50.6553151,72 67.5,72 Z" id="Shape" fill="#DEF3FE"></path>
                    <path d="M87.3244732,56.1604656 L89.9520171,57.1937751 C93.7326146,50.9845195 95.1322146,43.5104146 93.8024444,36.2804524 L89.2880766,38.3395793 C90.431056,44.363094 89.7271042,50.579883 87.3244732,56.1604656 Z M88.7427461,37.7960467 L93.9199351,35.4345889 C94.1261775,35.340516 94.3644452,35.4660736 94.4096873,35.6926686 C95.9369157,43.3417936 94.466767,51.2909958 90.3939161,57.8326818 C90.3036418,57.9776775 90.1262292,58.0375563 89.9695086,57.9759242 L86.7227729,56.6991109 C86.5326514,56.6243436 86.4434547,56.400806 86.5280074,56.2110057 C89.0313832,50.5915374 89.7558082,44.2868113 88.5403465,38.1991704 C88.5071265,38.032788 88.5913081,37.8651217 88.7427461,37.7960467 Z M87.2790182,31.8240898 C87.7047038,32.8035999 88.0776015,33.7996473 88.3972875,34.8091986 L92.9253965,32.743804 C92.608297,31.7334916 92.2366254,30.7368447 91.8108025,29.7570187 C91.6750548,29.4446609 91.5293741,29.135523 91.3737533,28.8295975 L86.8431427,30.8961332 C86.9979213,31.2022838 87.1432152,31.5116049 87.2790182,31.8240898 Z M86.6336136,32.1184766 C86.454209,31.7056635 86.257455,31.2984744 86.0433355,30.8968919 C85.9444048,30.7113468 86.0211372,30.4787996 86.2096658,30.3928065 L91.3868548,28.0313487 C91.5549448,27.9546782 91.7523323,28.0230367 91.8405378,28.1884667 C92.0637835,28.6071654 92.269012,29.0318929 92.4562071,29.462632 C92.9363705,30.5674964 93.3493702,31.6934018 93.694598,32.8359947 C93.7475016,33.0110882 93.6642721,33.1990554 93.5008292,33.2736062 L88.3236403,35.635064 C88.130268,35.7232664 87.9051099,35.6186285 87.8425188,35.4114721 C87.505554,34.2962274 87.1023985,33.1971588 86.6336136,32.1184766 Z" id="Shape" fill="#000000"></path>
                    <path d="M32.3690899,67.2125109 L34.8457131,69.7560698 C37.7180956,72.7060844 37.7180956,77.4890029 34.8457131,80.4390175 L15.0327275,100.787489 C12.160345,103.737504 7.50329268,103.737504 4.63091012,100.787489 L2.15428692,98.2439302 C-0.718095641,95.2939156 -0.718095641,90.5109971 2.15428692,87.5609825 L21.9672725,67.2125109 C24.839655,64.2624964 29.4967073,64.2624964 32.3690899,67.2125109 Z" id="Shape" fill="#000000"></path>
                    <path d="M31.7730522,67.9163197 C29.2909619,65.3612268 25.2666984,65.3612268 22.7846081,67.9163197 L3.86156774,87.3959201 C1.37947742,89.951013 1.37947742,94.0936373 3.86156774,96.6487302 L6.22694778,99.0836803 C8.70903809,101.638773 12.7333016,101.638773 15.2153919,99.0836803 L34.1384323,79.6040799 C36.6205226,77.048987 36.6205226,72.9063627 34.1384323,70.3512698 L31.7730522,67.9163197 Z" id="Shape" fill="#FFFFFF"></path>
                </g>
            </g>
        </g>
    </g>
</svg>